<?xml version="1.0" encoding="UTF-8"?><svg xmlns="http://www.w3.org/2000/svg" xmlns:xlink="http://www.w3.org/1999/xlink" viewBox="0 0 249.72 219.56"><defs><style>.e{fill:none;}.f{fill:#f8d344;}.g{fill:#002333;}.h{fill:#043040;}.i{fill:#ee4a36;}.j{fill:#f5ce44;}.k,.l{fill:#fff;}.m{fill:#149777;}.n{fill:#3595e0;}.o{fill:#5045b1;}.l,.p,.q{fill-rule:evenodd;}.p{fill:#00b387;}.q{fill:#003a30;}.r{clip-path:url(#d);}</style><clipPath id="d"><polygon class="e" points="103.76 13.53 61.55 33.6 61.55 45.21 61.55 85.85 97.33 71.18 97.33 107.49 97.33 151.39 97.33 193.7 151.38 193.7 151.38 175.06 151.38 107.49 151.38 45.21 151.38 13.53 103.76 13.53"/></clipPath></defs><g id="a"/><g id="b"><g id="c"><g><g><g><polygon class="m" points="151.38 13.53 103.76 13.53 61.55 33.6 61.55 45.21 127.74 45.21 151.38 45.21 151.38 13.53"/><polygon class="n" points="127.74 45.21 61.55 45.21 61.55 85.85 97.33 71.18 97.33 107.49 127.74 107.49 127.74 45.21"/><rect class="i" x="127.74" y="45.21" width="23.64" height="62.29"/><g class="r"><path class="o" d="M127.74,107.49h-30.41v43.89c14.6,1.51,35.47,6.89,54.05,23.67V107.49h-23.64Z"/><path class="i" d="M97.33,193.7h54.05v-18.65c-18.59-16.78-39.45-22.16-54.05-23.67v42.32Z"/></g></g><g><path class="f" d="M129.67,106.85h-44.32c-3.08,0-5.59,2.51-5.59,5.59v76.67c0,3.09,2.51,5.59,5.59,5.59h44.32c3.08,0,5.59-2.51,5.59-5.59V112.44c0-3.08-2.51-5.59-5.59-5.59"/><rect class="g" x="85.93" y="121.92" width="43.17" height="54.92"/><path class="l" d="M111.07,184.55c0,1.89-1.53,3.42-3.42,3.42s-3.42-1.53-3.42-3.42,1.53-3.42,3.42-3.42,3.42,1.53,3.42,3.42"/><path class="l" d="M100.03,114.64c0,1.27-1.03,2.3-2.3,2.3s-2.31-1.03-2.31-2.3,1.04-2.32,2.31-2.32,2.3,1.04,2.3,2.32"/><path class="l" d="M118.49,114.76c0,.85-.61,1.38-1.32,1.38h-10.7c-.7,0-1.29-.53-1.29-1.38v-.1c0-.85,.59-1.55,1.29-1.55h10.7c.71,0,1.32,.7,1.32,1.55v.1Z"/><path class="l" d="M93.87,146.96c2.81-3.29,6.27-5.52,10.59-6.17,6.23-.94,11.49,.96,15.75,5.61,.57,.62,.78,1.3,.08,1.92-.7,.62-1.33,.3-1.9-.31-5.9-6.37-14.75-6.82-21.14-1.08-.31,.28-.6,.59-.88,.9-1,1.12-1.59,1.12-2.5-.02v-.84Z"/><path class="l" d="M107.39,145.44c3.56,.06,6.55,1.42,8.98,4.03,.44,.48,.81,.98,.41,1.68-.48,.84-1.35,.85-2.16,0-1.6-1.72-3.52-2.82-5.86-3.17-3.32-.5-6.11,.54-8.49,2.83-.18,.17-.33,.37-.5,.54-.51,.5-1.09,.65-1.68,.15-.62-.53-.68-1.25-.09-1.74,1.38-1.15,2.75-2.41,4.33-3.19,1.51-.75,3.3-.95,4.97-1.4,.03,.09,.06,.18,.09,.27"/><path class="l" d="M113.32,153.86c-.29,.33-.53,.85-.86,.92-.43,.09-.98-.09-1.4-.31-.98-.5-1.84-1.31-2.87-1.58-1.64-.43-3.17,.11-4.4,1.34-.12,.12-.24,.26-.37,.37-.53,.43-1.08,.5-1.6,.02-.55-.51-.54-1.09-.11-1.69,2.41-3.36,8.66-3.38,11.14-.03,.18,.24,.27,.54,.47,.97"/><path class="l" d="M107.32,155.29c1.38,0,2.37,1.01,2.38,2.39,0,1.36-1.01,2.4-2.36,2.42-1.39,.02-2.45-1.06-2.43-2.46,.03-1.38,1.03-2.36,2.42-2.35"/></g><g><path class="p" d="M162.02,87.98v13.41c0,5.29,3.88,8.82,6.09,11.12,2.2,2.29,3.53,5.56,3.53,15.79s-.29,28.19-.29,36.83c0,23.31-44.42,23.31-44.42,0,0-8.65-.29-26.6-.29-36.83s1.32-13.5,3.53-15.79c2.2-2.29,6.09-5.82,6.09-11.12v-13.41c0-17.88,25.76-17.88,25.76,0"/><path class="q" d="M150.08,193.7v-21.77l9.95-5.75c.24-.14,.32-.44,.18-.68-.14-.24-.44-.32-.68-.18l-9.46,5.46v-21.85l9.95-5.75c.24-.14,.32-.44,.18-.68-.14-.24-.44-.32-.68-.18l-9.46,5.46v-21.85l9.95-5.75c.24-.14,.32-.44,.18-.68-.14-.24-.44-.32-.68-.18l-9.46,5.46v-21.85l6.48-3.74c.24-.14,.32-.44,.18-.68-.14-.24-.44-.32-.68-.18l-5.99,3.46v-12.71c0-.46-.37-.83-.83-.83s-.83,.37-.83,.83v19.06l-3.93-2.26c-.24-.14-.54-.05-.68,.18-.14,.24-.05,.54,.18,.68l4.42,2.55v27.26l-11.62-6.71c-.24-.14-.54-.05-.68,.19-.14,.24-.05,.54,.18,.68l12.12,7v26.14l-11.62-6.71c-.24-.14-.54-.05-.68,.18-.14,.24-.05,.54,.18,.68l12.12,7v28.73"/></g><g><rect class="j" x="113.14" y="51.63" width="76.06" height="18.02" rx="7.32" ry="7.32"/><path class="h" d="M189.33,60.64h0c0-4.97-4.03-9.01-9.01-9.01h-15.04v18.02h15.04c4.97,0,9.01-4.03,9.01-9.01Z"/><g><path class="k" d="M176.34,63.14c-1.89,0-3.43-1.54-3.43-3.43s1.54-3.43,3.43-3.43,3.43,1.54,3.43,3.43c0,.92-.36,1.78-1,2.42-.65,.65-1.51,1-2.42,1m0-5.99c-1.41,0-2.56,1.15-2.56,2.56s1.15,2.56,2.56,2.56c.68,0,1.33-.27,1.81-.75,.48-.48,.75-1.13,.75-1.81,0-1.41-1.15-2.56-2.56-2.56"/><path class="k" d="M181.15,64.99c-.11,0-.22-.04-.31-.13l-2.72-2.72c-.17-.17-.17-.44,0-.61,.17-.17,.44-.17,.61,0l2.72,2.72c.17,.17,.17,.44,0,.61-.08,.08-.2,.13-.31,.13"/></g></g></g><rect class="e" width="249.72" height="219.56"/></g></g></g></svg>