<?xml version="1.0" encoding="UTF-8"?><svg xmlns="http://www.w3.org/2000/svg" xmlns:xlink="http://www.w3.org/1999/xlink" viewBox="0 0 175.27 185.21"><defs><style>.f{fill:none;}.g{fill:#03aed7;}.h{fill:#ee4a36;}.i{fill:#f5ce44;}.j{fill:#c7bca3;}.k{fill:#149777;}.l{fill:#3595e0;}.m{fill:#1a2e35;}.n{fill:#5045b1;}.o{clip-path:url(#e);}.p{clip-path:url(#d);}</style><clipPath id="d"><path class="f" d="M124.33,115.73c-1.43-14.35-7.46-25.79-18.1-34.33-11.97-9.86-27.89-14.8-47.78-14.8l-5.34,.24,.97-11.4h59.18V12.03H15.77l-4.8,42.93-6.35,56.76c13.1-4.37,26.68-6.55,40.75-6.55,8.73,0,15.44,1.54,20.13,4.61,2.5,1.64,4.33,3.62,5.5,5.95,1.02,2.04,1.53,4.34,1.53,6.91,0,6.35-2.55,10.97-7.65,13.86-4.25,2.4-10.27,3.61-18.06,3.61-16.01,0-31.62-4.93-46.81-14.8v47.78c14.39,8.09,31.05,12.13,49.97,12.13,24.78,0,43.88-6.57,57.29-19.7,2.34-2.29,4.51-4.78,6.5-7.47,7.28-9.7,10.91-21.5,10.91-35.41,0-2.37-.12-4.67-.34-6.91Z"/></clipPath><clipPath id="e"><path class="n" d="M175.27,153.47c-31.97-12.54-63.93,14.12-95.9,1.58V90.74c31.97,12.54,63.93-14.12,95.9-1.58v64.31Z"/></clipPath></defs><g id="a"/><g id="b"><g id="c"><g><g class="p"><g><path class="h" d="M72.74,122.64c0,6.35-2.55,10.97-7.65,13.86,17.52,7.99,31.57,18.65,42.38,29.03,2.34-2.29,4.51-4.78,6.5-7.47,7.28-9.7,10.91-21.5,10.91-35.41,0-2.37-.12-4.67-.34-6.91h-53.34c1.02,2.04,1.53,4.34,1.53,6.91Z"/><polygon class="n" points="15.99 12.03 11.18 54.96 113.49 54.96 113.49 12.03 15.99 12.03"/><path class="l" d="M106.46,81.4c-11.97-9.86-27.89-14.8-47.78-14.8l-5.34,.24,.97-11.4h59.18v-.49H11.18l-6.35,56.76c13.1-4.37,26.68-6.55,40.75-6.55,8.73,0,15.44,1.54,20.13,4.61,2.5,1.64,4.33,3.62,5.5,5.95h53.34c-1.43-14.35-7.46-25.79-18.1-34.33Z"/><path class="k" d="M47.03,140.1c-16.01,0-31.62-4.93-46.81-14.8v47.78c14.39,8.09,31.05,12.13,49.97,12.13,24.78,0,43.88-6.57,57.29-19.7-10.82-10.38-24.86-21.03-42.38-29.03-4.25,2.4-10.27,3.61-18.06,3.61Z"/></g></g><g><path class="g" d="M37.49,20.3c1.06-6.27-1.07-12.82-6.17-16.8C22.64-3.29,9.43,.24,5.1,10.27c-.94,2.16-1.41,4.52-1.4,6.87,0,1.6,.25,3.14,.66,4.6-.09,0-.14-.01-.13-.02l.22,.34c.93,3.06,1.25,4.49,4.4,8.73l11.27,15.66s11.4-13.54,11.41-13.55c2.96-3.54,5.19-8.02,5.97-12.61Z"/><path class="i" d="M31.8,17.07c.02,5.88-4.73,10.67-10.61,10.7-5.88,.02-10.67-4.73-10.7-10.61-.02-5.88,4.73-10.67,10.61-10.7,5.88-.02,10.67,4.73,10.7,10.61Z"/></g><g><path class="n" d="M175.27,153.47c-31.97-12.54-63.93,14.12-95.9,1.58V90.74c31.97,12.54,63.93-14.12,95.9-1.58v64.31Z"/><g class="o"><g><path class="g" d="M168.02,104.07h0c-.04,.17-.09,.33-.16,.49-.29,.84-.7,1.63-1.27,2.35-.66,.84-1.47,1.51-2.37,2.07,0,0,0,0,0,0-.12,.07-.24,.14-.37,.22,0,0-.01,0-.02,.01-1.35,.76-2.88,1.26-4.4,1.66-2.94,.76-6.2,1.19-8.88-.24-.69-.36-1.3-.83-1.87-1.35-.19-.17-.37-.35-.56-.53-.55-.55-1.08-1.15-1.61-1.74-.12-.15-.25-.3-.39-.44-.38-.43-.78-.84-1.19-1.22-1.9-1.74-4.95-2.89-6.99-1.33-.82,.64-1.3,1.62-1.45,2.65-.02,.15-.04,.3-.04,.45-.04,.51,.02,1.05,.15,1.53,.4,1.66,1.51,3.04,2.72,4.24,2.79,2.75,6.39,4.67,10.24,5.49h0c.08,.01,.14,.04,.21,.05,.08,0,.16,.03,.24,.04h0c4.8,.92,10.69,.74,13.14,4.93,.31,.53,.54,1.11,.63,1.71,.02,.15,.03,.28,.03,.43h0c0,.25-.02,.5-.07,.75-.34,1.49-1.78,2.46-3.13,3.18-2.99,1.57-6.24,2.61-9.58,3.1-.15,.04-.28,.05-.43,.06h-.01c-1.22,.17-2.45,.25-3.67,.27-2.23,.02-4.84-.05-6.24,1.68-.65,.81,2.17,5.08,4.35,8.1,1.4,1.94,3.25,3.51,5.38,4.59h0c.15-.04,.31-.08,.45-.11,1.88-.43,3.85-.61,5.67-.01,2.07,.69,3.85,2.68,3.64,4.86-.08,.87-.44,1.67-.93,2.42h-25.79c.02-.35,0-.71-.03-1.06-.06-.66-.22-1.31-.45-1.94-.17-.47-.38-.92-.64-1.35-.32-.54-.7-1.05-1.15-1.49-.22-.21-.44-.42-.68-.6-2.39-1.96-5.68-2.68-8.8-2.63-1.65,.03-3.34,.23-4.97,.11h0c-.15,0-.3-.02-.44-.05-.6-.06-1.19-.18-1.77-.37-.83-.28-1.58-.74-2.22-1.33-.16-.14-.31-.28-.46-.44h0c-2.11-2.3-2.79-5.99-1.16-8.71,1.42-2.39,4.12-3.77,6.02-5.76h0c.18-.18,.36-.38,.51-.58h0c.43-.52,.8-1.1,1.08-1.75,.07-.16,.11-.33,.13-.5,.01-.13,.02-.25,0-.37v-.03c-.07-.48-.36-.83-.77-1.09h0c-.12-.09-.28-.16-.43-.21-.47-.19-1.02-.25-1.52-.21-1.62,.13-3.16,.86-4.79,1.01-1.62,.16-3.56-.54-3.93-2.14-.68-2.94,4.4-5.55,2.76-8.09-.79-1.25-2.63-1.18-4.01-.69-.69,.26-1.38,.59-2.09,.83-.18,.06-.35,.12-.53,.16h0c-.53,.14-1.06,.2-1.6,.13-2.75-.41-3.64-4.18-2.58-6.76,.8-1.93,2.23-3.49,3.43-5.18,.09-.14,.19-.26,.27-.4,0,0,0,0,0,0,.31-.45,.6-.91,.85-1.4,.9-1.77,1.29-3.73,1.9-5.62,.47-1.48,1.09-2.89,1.86-4.24,.58-.32,1.17-.61,1.78-.9,.22-.11,.45-.22,.69-.32,4.64-2.19,9.64-3.77,14.88-4.63h.01c.12-.02,.23-.04,.35-.06,.21-.04,.43-.07,.64-.1h0c2.17-.32,4.39-.53,6.65-.59,.19-.01,.37-.01,.56-.01h.01c.2-.01,.4-.01,.61-.01,.15-.01,.29-.01,.44-.01h.24c1.72,0,3.41,.08,5.09,.22,.19,.02,.38,.04,.57,.05,3.08,.3,6.08,.84,9,1.61,.3,.07,.59,.15,.88,.24h.01c2.36,.65,4.65,1.46,6.88,2.4,.21,.09,.43,.17,.65,.28,3.82,1.67,7.43,3.75,10.76,6.17,.07,.28,.11,.55,.16,.82,.44,2.38,.58,4.96-.08,7.23Z"/><path class="j" d="M96.97,123.85c-1.11,0-2.34-.07-3.68-.21-13.4-2.4-15.03-.13-15.04-.11,0,0,.02-.05,.02-.1h-.6c0-.17,.08-.33,.24-.49,.54-.55,3.25-2.18,15.45,0,10.86,1.14,13.47-2.75,16.23-6.87,.6-.89,1.22-1.82,1.93-2.7,2.61-3.49,3.69-3.6,5.33-3.77,.9-.09,1.93-.2,3.52-.94,3.19-1.54,4.42-5.45,3.64-11.62-.17-1.36-.44-2.24-.67-3.02-.39-1.28-.69-2.3-.19-4.53,.69-3.09-.57-5.32-.72-5.57l-.05-.08v-.11l.29-.02,.24-.2c.16,.27,1.57,2.76,.81,6.16-.45,2.02-.2,2.85,.17,4.11,.23,.77,.52,1.72,.7,3.15,.82,6.54-.52,10.7-4.01,12.38-1.68,.78-2.79,.89-3.69,.99-1.55,.16-2.48,.26-4.94,3.55-.7,.87-1.31,1.78-1.9,2.67-2.52,3.76-4.92,7.34-13.09,7.34Z"/><path class="j" d="M173.51,157.49c-2.02,0-5.29-.43-8.28-2.74-1.85-1.4-2.86-3.03-3.84-4.6-1.44-2.32-2.93-4.71-7.22-6.49-8.84-3.6-13.83-6.73-14.85-9.3-.28-.7-.27-1.37,.01-2,.83-1.86,3.57-2.28,6.75-2.77,3.48-.54,7.42-1.15,10.23-3.63,3.24-2.94,7.27-6.61,11.58-6.2,2.64,.25,5.1,1.94,7.51,5.17l-.61,.45c-2.28-3.05-4.56-4.64-6.98-4.87-3.98-.38-7.87,3.16-11,6.01-2.99,2.64-7.22,3.29-10.62,3.82-2.96,.46-5.51,.85-6.17,2.34-.2,.44-.2,.9,0,1.41,.64,1.63,3.67,4.49,14.43,8.88,4.52,1.87,6.07,4.37,7.57,6.79,.99,1.59,1.92,3.08,3.66,4.4,3.81,2.93,8.09,2.65,9.31,2.49,.09-.01,.23-.03,.36,.09l-.25,.28,.03,.38h-.04c-.33,.05-.88,.1-1.58,.1Z"/><path class="j" d="M142.87,116.12h0Z"/></g></g></g><g><path class="m" d="M117.98,150.38c.89-6.41-1.49-13-6.8-16.89-9.04-6.62-22.35-2.62-26.45,7.71-.88,2.23-1.29,4.63-1.21,7.03,.06,1.62,.35,3.18,.82,4.66-.09,0-.15,0-.14-.02l.23,.34c1.04,3.08,1.41,4.53,4.75,8.73l11.95,15.57s11.17-14.12,11.17-14.13c2.9-3.69,5.03-8.32,5.68-13Z"/><path class="i" d="M112.08,147.28c.21,5.98-4.47,11-10.45,11.21-5.98,.21-11-4.47-11.21-10.45-.21-5.98,4.47-11,10.45-11.21,5.98-.21,11,4.47,11.21,10.45Z"/></g></g></g></g></svg>