<?xml version="1.0" encoding="UTF-8"?><svg xmlns="http://www.w3.org/2000/svg" xmlns:xlink="http://www.w3.org/1999/xlink" viewBox="0 0 151.1 183.51"><defs><style>.e{fill:none;}.f{fill:#ee4a36;}.g{fill:#f5ce44;}.h{fill:#149777;}.i{fill:#3595e0;}.j{fill:#5045b1;}.k{clip-path:url(#d);}</style><clipPath id="d"><path class="e" d="M135.64,78.96c-3.42-3.42-7.16-6.26-11.22-8.53-7.97-4.45-17.15-6.68-27.56-6.68-13.25,0-23.56,4.01-30.92,12.03,.92-6.62,3.65-12.03,8.17-16.24,1.06-.99,2.23-1.92,3.49-2.78,6.63-4.5,14.76-6.75,24.42-6.75,11.41,0,21.71,2.8,30.88,8.4,1.35,.82,2.67,1.7,3.97,2.65V15.14c-10.15-6.87-23.89-10.31-41.23-10.31-13.91,0-26.38,2.82-37.43,8.47-11.04,5.64-19.84,13.38-26.38,23.19-3.98,5.9-7.34,12.15-10.06,18.75-2.55,6.17-4.54,12.66-5.99,19.45-1.9,8.91-2.85,18.35-2.85,28.31s1.03,19.26,3.09,27.6c3,12.16,8.19,22.52,15.56,31.05,12.6,14.56,30.35,21.84,53.26,21.84,19.14,0,34.93-5.73,47.37-17.18,10.34-9.53,16.43-21.44,18.29-35.72,.4-3.12,.61-6.35,.61-9.69,0-17.83-5.15-31.82-15.46-41.97Zm-40.74,56.33c-3.28,3.52-7.85,5.28-13.74,5.28-5.24,0-9.69-2.29-13.38-6.87-.76-.95-1.44-1.98-2.05-3.07-2.31-4.2-3.47-9.47-3.47-15.82,1.27-2.67,3.16-4.99,5.67-6.97,.72-.57,1.49-1.11,2.31-1.62,3.68-2.29,7.49-3.44,11.41-3.44,5.4,0,9.78,1.8,13.13,5.4,.6,.65,1.14,1.31,1.64,2.01,2.26,3.17,3.39,6.84,3.39,11,0,3.59-.61,6.73-1.83,9.44-.78,1.74-1.8,3.3-3.08,4.67Z"/></clipPath></defs><g id="a"/><g id="b"><g id="c"><g><path class="i" d="M95.63,5.04c-13.91,0-26.38,2.82-37.43,8.47-11.04,5.64-19.84,13.38-26.38,23.19-3.98,5.9-7.34,12.15-10.06,18.75,15.33,4.91,38.06,4.9,52.34,4.27,1.06-.99,2.23-1.92,3.49-2.78,6.63-4.5,14.76-6.75,24.42-6.75,11.41,0,21.71,2.8,30.88,8.4,1.35,.82,2.67,1.7,3.97,2.65V15.35c-10.15-6.87-23.89-10.31-41.23-10.31Z"/><g class="k"><path class="g" d="M70.23,106.41c3.68-2.29,7.49-3.44,11.41-3.44,5.4,0,9.78,1.8,13.13,5.4,.6,.65,1.14,1.31,1.64,2.01l28.01-39.75c-7.97-4.45-17.15-6.68-27.56-6.68-13.25,0-23.56,4.01-30.92,12.03,.92-6.62,3.65-12.03,8.17-16.24-14.28,.63-37.01,.64-52.34-4.27-2.55,6.17-4.54,12.66-5.99,19.45l52.15,33.12c.72-.57,1.49-1.11,2.31-1.62Z"/><path class="h" d="M94.89,135.49c-3.28,3.52-7.85,5.28-13.74,5.28-5.24,0-9.69-2.29-13.38-6.87-.76-.95-1.44-1.98-2.05-3.07H16.01c3,12.16,8.19,22.52,15.56,31.05,12.6,14.56,30.35,21.84,53.26,21.84,19.14,0,34.93-5.73,47.37-17.18,10.34-9.53,16.43-21.44,18.29-35.72h-52.51c-.78,1.74-1.8,3.3-3.08,4.67Z"/><path class="j" d="M16.01,130.82h49.72c-2.31-4.2-3.47-9.47-3.47-15.82,1.27-2.67,3.16-4.99,5.67-6.97L15.77,74.9c-1.9,8.91-2.85,18.35-2.85,28.31s1.03,19.26,3.09,27.6Z"/><path class="f" d="M99.8,121.38c0,3.59-.61,6.73-1.83,9.44h52.51c.4-3.12,.61-6.35,.61-9.69,0-17.83-5.15-31.82-15.46-41.97-3.42-3.42-7.16-6.26-11.22-8.53l-28.01,39.75c2.26,3.17,3.39,6.84,3.39,11Z"/></g><g><path class="f" d="M3.42,35.02l65.67,.11c1.9,0,3.44-1.53,3.44-3.42l.07-28.15c0-1.9-1.53-3.44-3.42-3.44L3.51,0C1.62,0,.08,1.53,.07,3.42L0,31.58c0,1.9,1.53,3.44,3.42,3.44"/><polygon class="f" points="71.03 17.46 85.92 32.94 67.39 29.29 71.03 17.46"/></g></g></g></g></svg>