<?xml version="1.0" encoding="UTF-8"?><svg xmlns="http://www.w3.org/2000/svg" xmlns:xlink="http://www.w3.org/1999/xlink" viewBox="0 0 249.72 219.56"><defs><style>.e{fill:none;}.f{fill:#fad434;}.g{fill:#ee4a36;}.h{fill:#f5ce44;}.i{fill:#f4f5d2;}.j{fill:#ea6654;}.k{fill:#dcdcdc;}.l{fill:#149777;}.m{fill:#07aa7d;}.n{fill:#3595e0;}.o{fill:#1a2e35;}.p{fill:#455a64;}.q{fill:#5045b1;}.r{fill:#4f8eca;}.s{clip-path:url(#d);}</style><clipPath id="d"><path class="e" d="M162,117.22V22.92h-52.61l-22.39,27.5-41.29,50.71-.3,.36-15.44,18.96v36.98H111.62v39.21h50.38v-39.21h22.58v-40.2h-22.58Zm-81.15,0l13.36-15.73h0l17.41-20.5v36.23h-30.77Z"/></clipPath></defs><g id="a"/><g id="b"><g id="c"><g><g class="s"><g><polygon points="45.71 101.13 45.41 101.49 45.71 101.49 45.71 101.13"/><path class="g" d="M162,117.22v-15.73h-50.38v15.73h-6.11c1.47,14.74-2.11,28.14-10.74,40.2h6.15v-.02h83.66v-40.19h-22.58Z"/><polygon class="n" points="109.39 22.92 87 50.42 162 50.42 162 22.92 109.39 22.92"/><polygon class="q" points="94.21 101.49 111.62 80.99 111.62 101.49 162 101.49 162 50.42 87 50.42 45.71 101.13 45.71 101.49 94.21 101.49"/><path class="h" d="M105.51,117.22h-24.66l13.36-15.73H45.41l-15.44,18.96v36.98H94.77c8.63-12.06,12.21-25.46,10.74-40.2Z"/><polygon class="l" points="100.92 157.43 111.62 157.43 111.62 196.64 162 196.64 162 157.43 184.59 157.43 184.59 157.41 100.92 157.41 100.92 157.43"/></g></g><g><g><g><rect class="i" x="115.69" y="101.19" width="78.15" height="56.65"/><polygon class="i" points="143.3 95.32 115.69 95.32 115.69 101.19 144.89 101.19 143.3 95.32"/></g><polygon class="h" points="144.89 101.19 143.3 95.32 115.69 95.32 115.69 101.19 115.69 157.84 193.84 157.84 193.84 101.19 144.89 101.19"/></g><g><path class="m" d="M196.68,124.72c-19.1-5.46-37.76-10.87-56.14-16.22,4.63-21.6,17.6-42.77,18.39-64.7,19.1,5.15,37.76,10.3,56.14,15.48-4.63,21.96-17.6,43.34-18.39,65.44Z"/><g><path class="r" d="M193.66,84.58c-2.84,7.58-11.44,11.81-19.47,9.43-8.07-2.37-12.23-10.38-9.47-17.92,2.74-7.55,11.03-11.83,19.17-9.5,8.17,2.33,12.64,10.4,9.77,17.99Z"/><path class="k" d="M179.2,80.32c-3.29,3.76-6.62,7.51-9.87,11.26-4.9-3.67-6.66-9.84-4.61-15.5,2.72-7.5,11.09-11.81,19.17-9.5,8.11,2.32,12.63,10.46,9.77,17.99-4.82-1.42-9.64-2.84-14.46-4.25Z"/><path class="j" d="M179.2,80.32c2.87,3.86,5.71,7.72,8.61,11.59-3.98,2.68-9.02,3.46-13.62,2.1-8.02-2.35-12.22-10.43-9.47-17.92,2.72-7.5,11.09-11.81,19.17-9.5,8.11,2.32,12.63,10.46,9.77,17.99-4.82-1.42-9.64-2.84-14.46-4.25Z"/><path class="f" d="M179.2,80.32c-5.05,.85-10.11,1.69-15.17,2.53-.34-2.25-.1-4.57,.69-6.76,2.72-7.5,11.09-11.81,19.17-9.5,8.11,2.32,12.63,10.46,9.77,17.99-4.82-1.42-9.64-2.84-14.46-4.25Z"/></g><path class="k" d="M163.28,53.32c7.75,2.15,15.45,4.31,23.1,6.47-.13,.56-.27,1.12-.41,1.68-7.62-2.16-15.28-4.32-23-6.47,.11-.56,.21-1.12,.31-1.68Z"/><g><path class="k" d="M161.56,96.52c10.21,3.01,20.47,6.04,30.8,9.07-.16,.56-.31,1.12-.45,1.68-10.37-3.05-20.66-6.07-30.89-9.09,.18-.55,.36-1.11,.54-1.66Z"/><path class="k" d="M160.23,100.71c10.28,3.02,20.62,6.06,31.05,9.12-.13,.56-.26,1.12-.38,1.68-10.47-3.06-20.85-6.11-31.16-9.14,.16-.55,.33-1.11,.49-1.66Z"/><path class="k" d="M159.03,104.9c10.36,3.04,20.81,6.09,31.35,9.16-.1,.56-.2,1.12-.29,1.68-10.6-3.08-21.08-6.14-31.48-9.18,.14-.56,.28-1.11,.43-1.66Z"/><path class="i" d="M155.53,96.56c-1.24-.36-2.48-.73-3.72-1.09,.19-.55,.37-1.1,.56-1.65,1.24,.36,2.47,.73,3.71,1.09-.19,.55-.37,1.1-.56,1.66Z"/><path class="p" d="M154.2,100.75c-1.25-.37-2.49-.73-3.74-1.1,.17-.55,.34-1.1,.52-1.66,1.24,.37,2.49,.73,3.73,1.1-.17,.55-.34,1.11-.51,1.66Z"/><path class="k" d="M153.02,104.94c-1.26-.37-2.52-.73-3.77-1.1,.15-.55,.3-1.11,.46-1.66,1.25,.37,2.5,.73,3.76,1.1-.15,.55-.3,1.11-.45,1.66Z"/></g></g><polygon class="o" points="187.61 105.89 138.66 105.89 136.44 100.51 108.83 100.51 109.46 105.89 115.48 157.84 193.64 157.84 187.61 105.89"/></g></g><rect class="e" width="249.72" height="219.56"/></g></g></svg>