<?xml version="1.0" encoding="UTF-8"?><svg xmlns="http://www.w3.org/2000/svg" xmlns:xlink="http://www.w3.org/1999/xlink" viewBox="0 0 249.72 219.56"><defs><style>.e{fill:none;}.f{fill:#002333;}.g{fill:#043040;}.h{fill:#ee4a36;}.i{fill:#f5ce44;}.j{fill:#fff;}.k{fill:#3595e0;}.l{fill:#57576b;}.m{fill:#5045b1;}.n{clip-path:url(#d);}</style><clipPath id="d"><path class="e" d="M150.12,155.19h-6.47l12.85-10.89c13.67-11.65,23.06-22.38,28.16-32.18,.35-.67,.69-1.34,1.02-2.03,4.59-9.49,6.88-20.29,6.88-32.43,0-9.38-1.91-17.74-5.74-25.09-3.41-6.55-8.33-12.29-14.77-17.22-13.67-10.47-29.15-15.71-46.44-15.71-19.93,0-36.4,4.39-49.41,13.17v53.46c14.49-11.48,29.07-17.23,43.73-17.23,5.93,0,10.7,1.39,14.33,4.18,3.62,2.79,5.44,6.55,5.44,11.27,0,5.41-1.98,10.98-5.93,16.72-1.63,2.47-4.07,5.42-7.31,8.87-3.63,3.86-8.28,8.34-13.94,13.43l-25.09,22.31-17.65,15.69v39.02h127.97v-45.35h-47.64Z"/></clipPath></defs><g id="a"/><g id="b"><g id="c"><g><circle class="l" cx="109.53" cy="176.86" r="2.68"/><circle class="l" cx="146.31" cy="175.65" r="2.68"/><g class="n"><path class="h" d="M143.65,155.09l12.85-10.89c13.67-11.65,23.06-22.38,28.16-32.18,.35-.67,.69-1.34,1.02-2.03h-59.22c-3.63,3.86-8.28,8.34-13.94,13.43l-25.09,22.31c16.33,8.74,33.46,24.9,37.76,54.71h24.93v-45.35h-6.47Z"/><path class="k" d="M172.06,35.25c-13.67-10.47-29.15-15.71-46.44-15.71-19.93,0-36.4,4.39-49.41,13.17v19.75h110.62c-3.41-6.55-8.33-12.29-14.77-17.22Z"/><path class="i" d="M192.56,77.56c0-9.38-1.91-17.74-5.74-25.09H76.2v33.7c14.49-11.48,29.07-17.23,43.73-17.23,5.93,0,10.7,1.39,14.33,4.18,3.62,2.79,5.44,6.55,5.44,11.27,0,5.41-1.98,10.98-5.93,16.72-1.63,2.47-4.07,5.42-7.31,8.87h59.22c4.59-9.49,6.88-20.29,6.88-32.43Z"/><path class="m" d="M87.43,145.73l-17.65,15.69v39.02h55.41c-4.3-29.81-21.43-45.98-37.76-54.71Z"/><g><rect class="k" x="87.88" y="126.4" width="113.5" height="65.29"/><polygon class="g" points="87.88 191.69 75.6 197.02 213.66 197.02 201.38 191.69 87.88 191.69"/><rect class="k" x="75.6" y="197.02" width="138.06" height="4.09"/><rect class="j" x="94.98" y="133.57" width="99.47" height="52.39"/><polygon class="l" points="151.36 174.24 137.04 145.74 114.47 175.65 115.37 176.33 136.84 147.86 151.2 176.43 175.47 141.77 174.55 141.13 151.36 174.24"/></g><path class="l" d="M139.56,146.9c0,1.48-1.2,2.68-2.68,2.68s-2.68-1.2-2.68-2.68,1.2-2.68,2.68-2.68,2.68,1.2,2.68,2.68Z"/></g><path class="l" d="M153.85,176.86c0,1.48-1.2,2.68-2.68,2.68s-2.68-1.2-2.68-2.68,1.2-2.68,2.68-2.68,2.68,1.2,2.68,2.68Z"/><circle class="l" cx="114.59" cy="175.65" r="2.68"/><g><path class="j" d="M202.75,19.02h-64.31c-2.05,0-3.72,1.66-3.72,3.72v31.15c0,2.05,1.67,3.72,3.72,3.72h5.48l-2.5,6.81,9.86-6.81h51.47c2.05,0,3.72-1.66,3.72-3.72V22.74c0-2.05-1.66-3.72-3.72-3.72"/><path class="f" d="M199.26,44.52h-59.83c-.41,0-.75-.34-.75-.75s.34-.75,.75-.75h59.83c.41,0,.75,.34,.75,.75s-.34,.75-.75,.75"/><path class="f" d="M178.3,27.49h-38.87c-.41,0-.75-.34-.75-.75s.34-.75,.75-.75h38.87c.41,0,.75,.34,.75,.75s-.34,.75-.75,.75"/><path class="f" d="M156.24,53.03h-16.81c-.41,0-.75-.34-.75-.75s.34-.75,.75-.75h16.81c.41,0,.75,.34,.75,.75s-.34,.75-.75,.75"/><path class="f" d="M199.26,53.03h-37.76c-.41,0-.75-.34-.75-.75s.34-.75,.75-.75h37.76c.41,0,.75,.34,.75,.75s-.34,.75-.75,.75"/><path class="f" d="M199.7,27.49h-15.51c-.41,0-.75-.34-.75-.75s.34-.75,.75-.75h15.51c.41,0,.75,.34,.75,.75s-.34,.75-.75,.75"/><path class="f" d="M163.86,36.01h-24.43c-.41,0-.75-.34-.75-.75s.34-.75,.75-.75h24.43c.41,0,.75,.34,.75,.75s-.34,.75-.75,.75"/><path class="f" d="M199.7,36.01h-30.36c-.41,0-.75-.34-.75-.75s.34-.75,.75-.75h30.36c.41,0,.75,.34,.75,.75s-.34,.75-.75,.75"/></g></g><rect class="e" width="249.72" height="219.56"/></g></g></svg>