<?xml version="1.0" encoding="UTF-8"?><svg xmlns="http://www.w3.org/2000/svg" xmlns:xlink="http://www.w3.org/1999/xlink" viewBox="0 0 136.69 181.52"><defs><style>.e{fill:none;}.f{fill:#002333;}.g{fill:#043040;}.h{fill:#ee4a36;}.i{fill:#f5ce44;}.j{fill:#fff;}.k{fill:#3595e0;}.l{fill:#57576b;}.m{fill:#5045b1;}.n{clip-path:url(#d);}</style><clipPath id="d"><path class="e" d="M80.33,136.17h-6.47l12.85-10.89c13.67-11.65,23.06-22.38,28.16-32.18,.35-.67,.69-1.34,1.02-2.03,4.59-9.49,6.88-20.29,6.88-32.43,0-9.38-1.91-17.74-5.74-25.09-3.41-6.55-8.33-12.29-14.77-17.22C88.6,5.87,73.13,.63,55.83,.63,35.9,.63,19.43,5.02,6.42,13.8v53.46c14.49-11.48,29.07-17.23,43.73-17.23,5.93,0,10.7,1.39,14.33,4.18,3.62,2.79,5.44,6.55,5.44,11.27,0,5.41-1.98,10.98-5.93,16.72-1.63,2.47-4.07,5.42-7.31,8.87-3.63,3.86-8.28,8.34-13.94,13.43l-25.09,22.31L0,142.51v39.02H127.97v-45.35h-47.64Z"/></clipPath></defs><g id="a"/><g id="b"><g id="c"><g><circle class="l" cx="39.74" cy="157.84" r="2.68"/><circle class="l" cx="76.53" cy="156.64" r="2.68"/><g class="n"><path class="h" d="M73.87,136.07l12.85-10.89c13.67-11.65,23.06-22.38,28.16-32.18,.35-.67,.69-1.34,1.02-2.03H56.68c-3.63,3.86-8.28,8.34-13.94,13.43l-25.09,22.31c16.33,8.74,33.46,24.9,37.76,54.71h24.93v-45.35h-6.47Z"/><path class="k" d="M102.28,16.24C88.6,5.76,73.13,.53,55.83,.53,35.9,.53,19.43,4.92,6.42,13.7v19.75H117.04c-3.41-6.55-8.33-12.29-14.77-17.22Z"/><path class="i" d="M122.78,58.55c0-9.38-1.91-17.74-5.74-25.09H6.42v33.7c14.49-11.48,29.07-17.23,43.73-17.23,5.93,0,10.7,1.39,14.33,4.18,3.62,2.79,5.44,6.55,5.44,11.27,0,5.41-1.98,10.98-5.93,16.72-1.63,2.47-4.07,5.42-7.31,8.87h59.22c4.59-9.49,6.88-20.29,6.88-32.43Z"/><path class="m" d="M17.65,126.71L0,142.41v39.02H55.41c-4.3-29.81-21.43-45.98-37.76-54.71Z"/><g><rect class="k" x="18.1" y="107.39" width="113.5" height="65.29"/><polygon class="g" points="18.1 172.67 5.82 178 143.88 178 131.59 172.67 18.1 172.67"/><rect class="k" x="5.82" y="178" width="138.06" height="4.09"/><rect class="j" x="25.2" y="114.55" width="99.47" height="52.39"/><polygon class="l" points="81.58 155.23 67.26 126.72 44.69 156.64 45.58 157.31 67.06 128.84 81.42 157.42 105.69 122.76 104.77 122.12 81.58 155.23"/></g><path class="l" d="M69.78,127.89c0,1.48-1.2,2.68-2.68,2.68s-2.68-1.2-2.68-2.68,1.2-2.68,2.68-2.68,2.68,1.2,2.68,2.68Z"/></g><path class="l" d="M84.06,157.84c0,1.48-1.2,2.68-2.68,2.68s-2.68-1.2-2.68-2.68,1.2-2.68,2.68-2.68,2.68,1.2,2.68,2.68Z"/><circle class="l" cx="44.81" cy="156.64" r="2.68"/><g><path class="j" d="M132.97,0H68.66c-2.05,0-3.72,1.66-3.72,3.72v31.15c0,2.05,1.67,3.72,3.72,3.72h5.48l-2.5,6.81,9.86-6.81h51.47c2.05,0,3.72-1.66,3.72-3.72V3.72c0-2.05-1.66-3.72-3.72-3.72"/><path class="f" d="M129.47,25.5h-59.83c-.41,0-.75-.34-.75-.75s.34-.75,.75-.75h59.83c.41,0,.75,.34,.75,.75s-.34,.75-.75,.75"/><path class="f" d="M108.52,8.47h-38.87c-.41,0-.75-.34-.75-.75s.34-.75,.75-.75h38.87c.41,0,.75,.34,.75,.75s-.34,.75-.75,.75"/><path class="f" d="M86.46,34.02h-16.81c-.41,0-.75-.34-.75-.75s.34-.75,.75-.75h16.81c.41,0,.75,.34,.75,.75s-.34,.75-.75,.75"/><path class="f" d="M129.47,34.02h-37.76c-.41,0-.75-.34-.75-.75s.34-.75,.75-.75h37.76c.41,0,.75,.34,.75,.75s-.34,.75-.75,.75"/><path class="f" d="M129.92,8.47h-15.51c-.41,0-.75-.34-.75-.75s.34-.75,.75-.75h15.51c.41,0,.75,.34,.75,.75s-.34,.75-.75,.75"/><path class="f" d="M94.08,16.99h-24.43c-.41,0-.75-.34-.75-.75s.34-.75,.75-.75h24.43c.41,0,.75,.34,.75,.75s-.34,.75-.75,.75"/><path class="f" d="M129.92,16.99h-30.36c-.41,0-.75-.34-.75-.75s.34-.75,.75-.75h30.36c.41,0,.75,.34,.75,.75s-.34,.75-.75,.75"/></g></g></g></g></svg>