<?xml version="1.0" encoding="UTF-8"?><svg xmlns="http://www.w3.org/2000/svg" xmlns:xlink="http://www.w3.org/1999/xlink" viewBox="0 0 183.54 173.72"><defs><style>.e{fill:none;}.f{fill:#fad434;}.g{fill:#ee4a36;}.h{fill:#f5ce44;}.i{fill:#f4f5d2;}.j{fill:#ea6654;}.k{fill:#dcdcdc;}.l{fill:#149777;}.m{fill:#07aa7d;}.n{fill:#3595e0;}.o{fill:#1a2e35;}.p{fill:#455a64;}.q{fill:#5045b1;}.r{fill:#4f8eca;}.s{clip-path:url(#d);}</style><clipPath id="d"><path class="e" d="M132.03,94.31V0h-52.61l-22.39,27.5L15.73,78.21l-.3,.36L0,97.53v36.98H81.65v39.21h50.38v-39.21h22.58v-40.2h-22.58Zm-81.15,0l13.36-15.73h0l17.41-20.5v36.23h-30.77Z"/></clipPath></defs><g id="a"/><g id="b"><g id="c"><g class="s"><g><polygon points="15.73 78.21 15.44 78.57 15.73 78.57 15.73 78.21"/><path class="g" d="M132.03,94.31v-15.73h-50.38v15.73h-6.11c1.47,14.74-2.11,28.14-10.74,40.2h6.15v-.02h83.66v-40.19h-22.58Z"/><polygon class="n" points="79.42 0 57.02 27.5 132.03 27.5 132.03 0 79.42 0"/><polygon class="q" points="64.24 78.57 81.65 58.07 81.65 78.57 132.03 78.57 132.03 27.5 57.02 27.5 15.73 78.21 15.73 78.57 64.24 78.57"/><path class="h" d="M75.54,94.31h-24.66l13.36-15.73H15.44L0,97.53v36.98H64.79c8.63-12.06,12.21-25.46,10.74-40.2Z"/><polygon class="l" points="70.95 134.51 81.65 134.51 81.65 173.72 132.03 173.72 132.03 134.51 154.61 134.51 154.61 134.49 70.95 134.49 70.95 134.51"/></g></g><g><g><g><rect class="i" x="85.71" y="78.27" width="78.15" height="56.65"/><polygon class="i" points="113.33 72.4 85.71 72.4 85.71 78.27 114.91 78.27 113.33 72.4"/></g><polygon class="h" points="114.91 78.27 113.33 72.4 85.71 72.4 85.71 78.27 85.71 134.92 163.87 134.92 163.87 78.27 114.91 78.27"/></g><g><path class="m" d="M166.7,101.81c-19.1-5.46-37.76-10.87-56.14-16.22,4.63-21.6,17.6-42.77,18.39-64.7,19.1,5.15,37.76,10.3,56.14,15.48-4.63,21.96-17.6,43.34-18.39,65.44Z"/><g><path class="r" d="M163.69,61.66c-2.84,7.58-11.44,11.81-19.47,9.43-8.07-2.37-12.23-10.38-9.47-17.92,2.74-7.55,11.03-11.83,19.17-9.5,8.17,2.33,12.64,10.4,9.77,17.99Z"/><path class="k" d="M149.23,57.41c-3.29,3.76-6.62,7.51-9.87,11.26-4.9-3.67-6.66-9.84-4.61-15.5,2.72-7.5,11.09-11.81,19.17-9.5,8.11,2.32,12.63,10.46,9.77,17.99-4.82-1.42-9.64-2.84-14.46-4.25Z"/><path class="j" d="M149.23,57.41c2.87,3.86,5.71,7.72,8.61,11.59-3.98,2.68-9.02,3.46-13.62,2.1-8.02-2.35-12.22-10.43-9.47-17.92,2.72-7.5,11.09-11.81,19.17-9.5,8.11,2.32,12.63,10.46,9.77,17.99-4.82-1.42-9.64-2.84-14.46-4.25Z"/><path class="f" d="M149.23,57.41c-5.05,.85-10.11,1.69-15.17,2.53-.34-2.25-.1-4.57,.69-6.76,2.72-7.5,11.09-11.81,19.17-9.5,8.11,2.32,12.63,10.46,9.77,17.99-4.82-1.42-9.64-2.84-14.46-4.25Z"/></g><path class="k" d="M133.31,30.4c7.75,2.15,15.45,4.31,23.1,6.47-.13,.56-.27,1.12-.41,1.68-7.62-2.16-15.28-4.32-23-6.47,.11-.56,.21-1.12,.31-1.68Z"/><g><path class="k" d="M131.59,73.6c10.21,3.01,20.47,6.04,30.8,9.07-.16,.56-.31,1.12-.45,1.68-10.37-3.05-20.66-6.07-30.89-9.09,.18-.55,.36-1.11,.54-1.66Z"/><path class="k" d="M130.25,77.79c10.28,3.02,20.62,6.06,31.05,9.12-.13,.56-.26,1.12-.38,1.68-10.47-3.06-20.85-6.11-31.16-9.14,.16-.55,.33-1.11,.49-1.66Z"/><path class="k" d="M129.06,81.99c10.36,3.04,20.81,6.09,31.35,9.16-.1,.56-.2,1.12-.29,1.68-10.6-3.08-21.08-6.14-31.48-9.18,.14-.56,.28-1.11,.43-1.66Z"/><path class="i" d="M125.55,73.65c-1.24-.36-2.48-.73-3.72-1.09,.19-.55,.37-1.1,.56-1.65,1.24,.36,2.47,.73,3.71,1.09-.19,.55-.37,1.1-.56,1.66Z"/><path class="p" d="M124.23,77.83c-1.25-.37-2.49-.73-3.74-1.1,.17-.55,.34-1.1,.52-1.66,1.24,.37,2.49,.73,3.73,1.1-.17,.55-.34,1.11-.51,1.66Z"/><path class="k" d="M123.05,82.02c-1.26-.37-2.52-.73-3.77-1.1,.15-.55,.3-1.11,.46-1.66,1.25,.37,2.5,.73,3.76,1.1-.15,.55-.3,1.11-.45,1.66Z"/></g></g><polygon class="o" points="157.63 82.97 108.68 82.97 106.47 77.59 78.86 77.59 79.48 82.97 85.51 134.92 163.66 134.92 157.63 82.97"/></g></g></g></svg>