<?xml version="1.0" encoding="UTF-8"?><svg xmlns="http://www.w3.org/2000/svg" xmlns:xlink="http://www.w3.org/1999/xlink" viewBox="0 0 249.72 219.56"><defs><style>.e{fill:none;}.f{fill:#ee4a36;}.g{fill:#f5ce44;}.h{fill:#fff;}.i{fill:#149777;}.j{fill:#3595e0;}.k{fill:#5045b1;}.l{clip-path:url(#d);}</style><clipPath id="d"><path class="e" d="M115.23,200.04c-21.62,0-40.45-4.8-56.5-14.41v-49.05c18.58,10.96,35.64,16.43,51.18,16.43,8.11,0,14.57-1.6,19.38-4.8,4.81-3.2,7.22-7.58,7.22-13.15,0-5.22-2.03-9.44-6.08-12.64-4.05-3.2-9.71-4.8-16.97-4.8-11.32,0-21.2,2.02-29.64,6.07v-32.61l34.96-26.29H62.79V19.52h119.33V59.97l-30.66,24.78c26.35,10.11,39.52,27.39,39.52,51.83,0,19.21-7.35,34.64-22.04,46.27-14.53,11.46-32.43,17.19-53.71,17.19Z"/></clipPath></defs><g id="a"/><g id="b"><g id="c"><g><g><g class="l"><g><path class="j" d="M136.52,134.92c0,5.57-2.41,9.97-7.22,13.17-4.81,3.21-11.27,4.81-19.38,4.81-.37,0-.74,0-1.12-.01,18.42,10.88,34.13,25.99,45.61,38.96,5.17-2.46,10.02-5.48,14.54-9.05,14.69-11.65,22.04-27.11,22.04-46.36,0-3.17-.22-6.21-.66-9.14h-55.6c1.19,2.24,1.79,4.78,1.79,7.62Z"/><polygon class="k" points="182.12 19.14 62.79 19.14 62.79 64.49 118.78 64.49 110.17 70.98 168.16 70.98 182.12 59.68 182.12 19.14"/><path class="f" d="M151.46,84.51l16.7-13.52h-57.99l-26.35,19.86v32.68c8.44-4.05,18.33-6.08,29.64-6.08,7.26,0,12.92,1.61,16.98,4.81,1.86,1.47,3.28,3.15,4.29,5.05h55.6c-2.97-19.71-15.92-33.98-38.86-42.8Z"/><path class="g" d="M108.8,152.9c-15.24-.26-31.93-5.74-50.06-16.46v49.15c16.04,9.63,34.88,14.44,56.5,14.44,14.66,0,27.71-2.72,39.17-8.17-11.48-12.97-27.18-28.08-45.61-38.96Z"/></g><g><polygon class="g" points="132.81 76.94 129.88 83.71 135.73 83.71 132.81 76.94"/><polygon class="k" points="139.13 110.34 135.04 113.65 130.67 110.34 126.04 113.65 120.96 110.34 118.37 112.38 118.37 208.44 147.24 208.44 147.24 110.41 143.5 113.65 139.13 110.34"/><polygon class="h" points="144.93 104.99 135.73 83.71 129.88 83.71 120.47 105.48 118.37 110.34 118.37 112.38 120.96 110.34 126.04 113.65 130.67 110.34 135.04 113.65 139.13 110.34 143.5 113.65 147.24 110.41 147.24 110.34 144.93 104.99"/><rect class="h" x="126.04" y="119.7" width=".89" height="78.23"/><rect class="h" x="132.81" y="119.3" width=".89" height="78.23"/><rect class="h" x="139.94" y="119.3" width=".89" height="78.23"/></g></g><g><path class="j" d="M155.23,69.96q4.17-3.3,5.41,1.55c.98,3.86,1.94,7.73,2.89,11.6,.77,3.13,.37,3.55-2.63,2.71-4.56-1.28-9.11-2.58-13.65-3.91-2.41-.7-2.67-1.49-.81-3.11,1.57-1.38,1.75-2.42,.71-4.37-6.97-13.08-4.82-29.28,5.16-40.39,9.94-11.07,25.87-14.82,39.67-9.34,2.42,.96,2.42,1.4,1.07,3.57-2.27,3.66-4.69,4.91-9.45,3.84-10.05-2.26-18.82,1.25-25.33,9.21-6.38,7.81-7.63,16.75-4.19,26.27,.27,.75,.7,1.45,1.14,2.36Z"/><path class="i" d="M203.21,47.73q-4.02,2.74-5.21-1.97c-1.01-4.02-2.03-8.04-3-12.08-.58-2.45-.07-2.96,2.31-2.3,4.71,1.32,9.42,2.66,14.12,4.03,2.4,.7,2.67,1.52,.79,3.13-1.66,1.43-1.74,2.55-.88,4.61,5.96,14.19,4.16,27.5-6.24,38.88-10.33,11.31-23.37,14.14-37.97,9.75-2.96-.89-2.89-1.44-1.31-3.94,2.29-3.64,4.8-4.52,9.31-3.76,19.41,3.27,35.36-16.29,28.79-34.84-.18-.52-.47-1-.72-1.52Z"/></g></g><rect class="e" width="249.72" height="219.56"/></g></g></g></svg>