<?xml version="1.0" encoding="UTF-8"?><svg xmlns="http://www.w3.org/2000/svg" xmlns:xlink="http://www.w3.org/1999/xlink" viewBox="0 0 249.72 219.56"><defs><style>.e{fill:none;}.f{fill:#ee4a36;}.g{fill:#f5ce44;}.h{fill:#149777;}.i{fill:#3595e0;}.j{fill:#45bdd1;}.k{fill:#6e97ba;}.l{fill:#5045b1;}.m{clip-path:url(#d);}</style><clipPath id="d"><path class="e" d="M178.49,96.98c-3.42-3.42-7.16-6.26-11.22-8.53-7.97-4.45-17.15-6.68-27.56-6.68-13.25,0-23.56,4.01-30.92,12.03,.92-6.62,3.65-12.03,8.17-16.24,1.06-.99,2.23-1.92,3.49-2.78,6.63-4.5,14.76-6.75,24.42-6.75,11.41,0,21.71,2.8,30.88,8.4,1.35,.82,2.67,1.7,3.97,2.65V33.17c-10.15-6.87-23.89-10.31-41.23-10.31-13.91,0-26.38,2.82-37.43,8.47-11.04,5.64-19.84,13.38-26.38,23.19-3.98,5.9-7.34,12.15-10.06,18.75-2.55,6.17-4.54,12.66-5.99,19.45-1.9,8.91-2.85,18.35-2.85,28.31s1.03,19.26,3.09,27.6c3,12.16,8.19,22.52,15.56,31.05,12.6,14.56,30.35,21.84,53.26,21.84,19.14,0,34.93-5.73,47.37-17.18,10.34-9.53,16.43-21.44,18.29-35.72,.4-3.12,.61-6.35,.61-9.69,0-17.83-5.15-31.82-15.46-41.97Zm-40.74,56.33c-3.28,3.52-7.85,5.28-13.74,5.28-5.24,0-9.69-2.29-13.38-6.87-.76-.95-1.44-1.98-2.05-3.07-2.31-4.2-3.47-9.47-3.47-15.82,1.27-2.67,3.16-4.99,5.67-6.97,.72-.57,1.49-1.11,2.31-1.62,3.68-2.29,7.49-3.44,11.41-3.44,5.4,0,9.78,1.8,13.13,5.4,.6,.65,1.14,1.31,1.64,2.01,2.26,3.17,3.39,6.84,3.39,11,0,3.59-.61,6.73-1.83,9.44-.78,1.74-1.8,3.3-3.08,4.67Z"/></clipPath></defs><g id="a"/><g id="b"><g id="c"><g><g><g><path class="i" d="M138.48,23.07c-13.91,0-26.38,2.82-37.43,8.47-11.04,5.64-19.84,13.38-26.38,23.19-3.98,5.9-7.34,12.15-10.06,18.75,15.33,4.91,38.06,4.9,52.34,4.27,1.06-.99,2.23-1.92,3.49-2.78,6.63-4.5,14.76-6.75,24.42-6.75,11.41,0,21.71,2.8,30.88,8.4,1.35,.82,2.67,1.7,3.97,2.65V33.38c-10.15-6.87-23.89-10.31-41.23-10.31Z"/><g class="m"><path class="g" d="M113.08,124.43c3.68-2.29,7.49-3.44,11.41-3.44,5.4,0,9.78,1.8,13.13,5.4,.6,.65,1.14,1.31,1.64,2.01l28.01-39.75c-7.97-4.45-17.15-6.68-27.56-6.68-13.25,0-23.56,4.01-30.92,12.03,.92-6.62,3.65-12.03,8.17-16.24-14.28,.63-37.01,.64-52.34-4.27-2.55,6.17-4.54,12.66-5.99,19.45l52.15,33.12c.72-.57,1.49-1.11,2.31-1.62Z"/><path class="h" d="M137.75,153.51c-3.28,3.52-7.85,5.28-13.74,5.28-5.24,0-9.69-2.29-13.38-6.87-.76-.95-1.44-1.98-2.05-3.07H58.86c3,12.16,8.19,22.52,15.56,31.05,12.6,14.56,30.35,21.84,53.26,21.84,19.14,0,34.93-5.73,47.37-17.18,10.34-9.53,16.43-21.44,18.29-35.72h-52.51c-.78,1.74-1.8,3.3-3.08,4.67Z"/><path class="l" d="M58.86,148.84h49.72c-2.31-4.2-3.47-9.47-3.47-15.82,1.27-2.67,3.16-4.99,5.67-6.97l-52.15-33.12c-1.9,8.91-2.85,18.35-2.85,28.31s1.03,19.26,3.09,27.6Z"/><path class="f" d="M142.66,139.4c0,3.59-.61,6.73-1.83,9.44h52.51c.4-3.12,.61-6.35,.61-9.69,0-17.83-5.15-31.82-15.46-41.97-3.42-3.42-7.16-6.26-11.22-8.53l-28.01,39.75c2.26,3.17,3.39,6.84,3.39,11Z"/></g><g><path class="f" d="M46.28,53.04l65.67,.11c1.9,0,3.44-1.53,3.44-3.42l.07-28.15c0-1.9-1.53-3.44-3.42-3.44l-65.67-.11c-1.9,0-3.44,1.53-3.44,3.42l-.07,28.15c0,1.9,1.53,3.44,3.42,3.44"/><polygon class="f" points="113.88 35.48 128.78 50.97 110.25 47.31 113.88 35.48"/></g></g><g><path class="j" d="M186.07,199.74l-.34-.08-63.86-14.61-22.58-26.61,44.3-1.29,57.08,27.41-14.6,15.19Zm-63.53-15.8l63.12,14.44,12.94-13.45-55.27-26.54-41.44,1.21,20.65,24.34Z"/><g><path class="j" d="M199.64,185.36c-.26,0-.51-.17-.59-.43l-1.64-5.3c-.1-.33,.08-.67,.41-.77,.33-.1,.67,.08,.77,.41l1.64,5.3c.1,.33-.08,.67-.41,.77-.06,.02-.12,.03-.18,.03Z"/><path class="j" d="M194.15,167.68c-.26,0-.51-.17-.59-.43l-3.84-12.38c-.1-.33,.08-.67,.41-.77,.33-.1,.67,.08,.77,.41l3.84,12.38c.1,.33-.08,.67-.41,.77-.06,.02-.12,.03-.18,.03Zm-7.68-24.76c-.26,0-.51-.17-.59-.43l-3.84-12.38c-.1-.33,.08-.67,.41-.77,.33-.1,.67,.08,.77,.41l3.84,12.38c.1,.33-.08,.67-.41,.77-.06,.02-.12,.03-.18,.03Z"/><path class="j" d="M178.79,118.15c-.26,0-.51-.17-.59-.43l-1.28-4.14-2.58,3.48c-.2,.27-.59,.33-.86,.13s-.33-.59-.13-.86l3.3-4.46c.14-.19,.37-.28,.6-.24,.23,.04,.42,.2,.49,.43l1.64,5.3c.1,.33-.08,.67-.41,.77-.06,.02-.12,.03-.18,.03Z"/><path class="j" d="M152.18,146.6c-.13,0-.26-.04-.37-.12-.27-.2-.33-.59-.13-.86l5.42-7.32c.2-.27,.59-.33,.86-.13,.27,.2,.33,.59,.13,.86l-5.42,7.32c-.12,.16-.31,.25-.5,.25Zm10.83-14.65c-.13,0-.26-.04-.37-.12-.27-.2-.33-.59-.13-.86l5.42-7.32c.2-.27,.59-.33,.86-.13,.27,.2,.33,.59,.13,.86l-5.42,7.32c-.12,.16-.31,.25-.5,.25Z"/><path class="j" d="M143.46,158.39c-.13,0-.26-.04-.37-.12-.27-.2-.33-.59-.13-.86l3.3-4.46c.2-.27,.59-.33,.86-.13,.27,.2,.33,.59,.13,.86l-3.3,4.46c-.12,.16-.31,.25-.5,.25Z"/></g><g><path class="j" d="M100.59,159.64c-.21,0-.41-.11-.53-.3-.18-.29-.09-.67,.2-.85l4.74-2.89c.29-.18,.67-.09,.85,.2,.18,.29,.09,.67-.2,.85l-4.74,2.89c-.1,.06-.21,.09-.32,.09Z"/><path class="j" d="M114.91,150.89c-.21,0-.41-.11-.53-.3-.18-.29-.09-.67,.2-.85l9.58-5.86c.29-.18,.67-.09,.85,.2,.18,.29,.09,.67-.2,.85l-9.58,5.86c-.1,.06-.21,.09-.32,.09Zm19.17-11.72c-.21,0-.41-.11-.53-.3-.18-.29-.09-.67,.2-.85l9.58-5.86c.29-.18,.67-.09,.85,.2,.18,.29,.09,.67-.2,.85l-9.58,5.86c-.1,.06-.21,.09-.32,.09Zm19.17-11.71c-.21,0-.41-.11-.53-.3-.18-.29-.09-.67,.2-.85l9.58-5.86c.29-.18,.67-.09,.85,.2,.18,.29,.09,.67-.2,.85l-9.58,5.86c-.1,.06-.21,.09-.32,.09Z"/><path class="j" d="M173.79,117.27c-.13,0-.26-.04-.37-.13-.27-.21-.32-.59-.12-.86l1.38-1.81-1.94,1.19c-.29,.18-.67,.09-.85-.2-.18-.29-.09-.67,.2-.85l4.74-2.89c.25-.15,.58-.11,.78,.11,.2,.22,.21,.55,.03,.79l-3.36,4.42c-.12,.16-.31,.24-.49,.24Z"/><path class="j" d="M132.46,171.63c-.13,0-.26-.04-.37-.13-.27-.21-.32-.59-.12-.86l6.89-9.06c.21-.27,.59-.32,.86-.12,.27,.21,.32,.59,.12,.86l-6.89,9.06c-.12,.16-.31,.24-.49,.24Zm27.55-36.25c-.13,0-.26-.04-.37-.13-.27-.21-.32-.59-.12-.86l6.89-9.06c.21-.27,.59-.32,.86-.12,.27,.21,.32,.59,.12,.86l-6.89,9.06c-.12,.16-.31,.24-.49,.24Z"/><path class="j" d="M122.21,185.11c-.13,0-.26-.04-.37-.13-.27-.21-.32-.59-.12-.86l3.36-4.42c.21-.27,.59-.32,.86-.12,.27,.21,.32,.59,.12,.86l-3.36,4.42c-.12,.16-.3,.24-.49,.24Z"/></g><g><path class="j" d="M185.87,199.68c-.31,0-.58-.24-.61-.56l-.55-5.52c-.03-.34,.21-.64,.55-.68,.35-.03,.64,.21,.68,.55l.55,5.52c.03,.34-.21,.64-.55,.68-.02,0-.04,0-.06,0Z"/><path class="j" d="M184.23,183.33c-.31,0-.58-.24-.61-.56l-1.09-10.83c-.03-.34,.21-.64,.55-.68,.34-.03,.64,.21,.68,.55l1.09,10.83c.03,.34-.21,.64-.55,.68-.02,0-.04,0-.06,0Zm-2.17-21.65c-.31,0-.58-.24-.61-.56l-1.09-10.83c-.03-.34,.21-.64,.55-.68,.34-.03,.64,.21,.68,.55l1.09,10.83c.03,.34-.21,.64-.55,.68-.02,0-.04,0-.06,0Zm-2.17-21.65c-.31,0-.58-.24-.61-.56l-1.09-10.83c-.03-.34,.21-.64,.55-.68,.34-.04,.64,.21,.68,.55l1.09,10.83c.03,.34-.21,.64-.55,.68-.02,0-.04,0-.06,0Z"/><path class="j" d="M177.7,118.37c-.31,0-.58-.24-.61-.56l-.55-5.52c-.03-.34,.21-.64,.55-.68,.34-.03,.64,.21,.68,.55l.55,5.52c.03,.34-.21,.64-.55,.68-.02,0-.04,0-.06,0Z"/></g></g><g><rect class="i" x="178.6" y="92.4" width="5.42" height="13.68" transform="translate(45.3 -56.4) rotate(20.15)"/><path class="l" d="M194.08,99.19l-22.46-8.25c-2.94-1.08-5.02-3.73-5.37-6.85l-1.23-11.03,45.68,16.77-8.08,7.61c-2.28,2.15-5.58,2.83-8.53,1.75Z"/><g><path class="l" d="M152.34,73.83h0c-1.42-.52-2.15-2.09-1.63-3.51l1.28-3.49,5.14,1.89-1.28,3.49c-.52,1.42-2.09,2.15-3.51,1.63Z"/><rect class="k" x="157.13" y="58.13" width="1.17" height="3.81" transform="translate(30.34 -50.67) rotate(20.15)"/><rect class="l" x="152.22" y="59.43" width="7.57" height="8.79" transform="translate(31.55 -49.85) rotate(20.15)"/><path class="f" d="M137.04,50.41l21.34,7.83,.47-1.28s-2.02-.52-5.71-2.69c-3.43-2.02-7.5-6.56-15.99-5.02-.61,.11-.69,.95-.11,1.17Z"/><path class="f" d="M179.71,66.07l-21.34-7.83,.47-1.28s1.88,.91,6.1,1.64c3.92,.68,9.96-.14,15.44,6.52,.39,.48-.09,1.17-.67,.96Z"/><path class="l" d="M159.58,59.62l-3.03-1.11s1.93-5.28,3.44-4.72c1.51,.56-.41,5.83-.41,5.83Z"/></g><g><rect class="k" x="224.09" y="82.7" width="1.17" height="3.81" transform="translate(406.44 241.45) rotate(-159.85)"/><path class="l" d="M219.85,98.61h0c1.42,.52,2.99-.21,3.51-1.63l1.28-3.49-5.14-1.89-1.28,3.49c-.52,1.42,.21,2.99,1.63,3.51Z"/><rect class="l" x="219.73" y="84.21" width="7.57" height="8.79" transform="translate(402.82 248.8) rotate(-159.85)"/><path class="f" d="M246.67,90.65l-21.34-7.83,.47-1.28s1.88,.91,6.1,1.64c3.92,.68,9.96-.14,15.44,6.52,.39,.48-.09,1.17-.67,.96Z"/><path class="f" d="M204,74.99l21.34,7.83,.47-1.28s-2.02-.52-5.71-2.69c-3.43-2.02-7.5-6.56-15.99-5.02-.61,.11-.69,.95-.11,1.17Z"/><path class="l" d="M223.52,83.09l3.03,1.11s1.95-5.27,.43-5.83c-1.51-.56-3.46,4.72-3.46,4.72Z"/></g><path class="g" d="M191.81,51.52l12.59,4.62c2.58,.95,3.91,3.81,2.96,6.39h0l-21.95-8.05h0c.95-2.58,3.81-3.91,6.39-2.96Z"/><rect class="i" x="181.67" y="58.08" width="28.97" height="2.1" transform="translate(32.38 -63.97) rotate(20.15)"/><rect class="i" x="190" y="61.52" width="2.64" height="21.59" transform="translate(36.63 -61.49) rotate(20.15)"/><polygon class="l" points="203.89 67.77 184.67 60.71 184.82 56.09 206.77 64.14 203.89 67.77"/><rect class="g" x="145.84" y="78.99" width="84.42" height="3.81" transform="translate(39.39 -59.84) rotate(20.15)"/><rect class="g" x="172.09" y="102.62" width="13.53" height="9.92" rx="1.82" ry="1.82" transform="translate(48.02 -55.04) rotate(20.15)"/></g><g><path class="g" d="M57.58,37.84v1.3c-.86,.47-1.86,.71-2.99,.71-.92,0-1.7-.18-2.34-.55-.64-.37-1.15-.88-1.52-1.53-.37-.65-.56-1.35-.56-2.1,0-1.2,.43-2.21,1.28-3.02,.85-.82,1.91-1.23,3.16-1.23,.86,0,1.83,.23,2.88,.68v1.27c-.96-.55-1.9-.83-2.82-.83s-1.73,.3-2.35,.89c-.62,.6-.93,1.34-.93,2.24s.31,1.65,.92,2.23c.61,.58,1.4,.87,2.35,.87s1.97-.31,2.92-.92Z"/><path class="g" d="M62.4,31.41h.48v4.62h.92v1h-.92v2.72h-1.15v-2.72h-3.48v-.51l4.15-5.12Zm-.67,4.62v-2.39l-1.91,2.39h1.91Z"/><path class="g" d="M66.6,31.52h1.18v8.24h-1.18v-8.24Z"/><path class="g" d="M72.31,31.41c.59,0,1.08,.16,1.45,.47,.37,.31,.56,.72,.56,1.21s-.18,.86-.55,1.18c-.37,.31-.83,.47-1.39,.47s-1-.16-1.36-.48c-.37-.32-.55-.72-.55-1.2s.17-.87,.52-1.18c.35-.31,.79-.47,1.33-.47Zm.07,.64c-.31,0-.56,.1-.76,.3-.2,.2-.3,.45-.3,.75s.1,.52,.3,.7c.2,.18,.46,.27,.79,.27s.58-.09,.78-.28c.2-.19,.3-.43,.3-.72s-.11-.54-.32-.73c-.21-.19-.47-.29-.79-.29Z"/><path class="g" d="M80.13,34.96h.07c.52,0,.91-.11,1.18-.32s.4-.52,.4-.93c0-.37-.13-.66-.39-.89-.26-.23-.6-.34-1.03-.34s-.9,.13-1.43,.4v-1.13c.48-.24,1-.36,1.57-.36,.76,0,1.36,.2,1.79,.59,.44,.4,.66,.94,.66,1.63,0,.42-.08,.77-.25,1.05-.17,.28-.44,.53-.81,.73,.32,.13,.56,.28,.71,.46,.15,.18,.27,.4,.35,.66,.08,.26,.12,.53,.12,.83,0,.72-.24,1.31-.72,1.78-.48,.47-1.08,.7-1.82,.7-.62,0-1.23-.15-1.81-.45v-1.29c.62,.39,1.22,.58,1.81,.58,.4,0,.72-.12,.96-.35,.24-.24,.36-.55,.36-.94,0-.33-.1-.61-.3-.85-.12-.14-.25-.24-.39-.3-.14-.06-.45-.13-.93-.19h-.11v-1.1Z"/><path class="g" d="M86.25,39.85l-.72-.85c.61-.39,1.14-.85,1.6-1.4,.46-.55,.76-1.11,.91-1.69-.37,.23-.81,.35-1.31,.35-.63,0-1.17-.23-1.62-.7-.45-.47-.67-1.03-.67-1.69s.24-1.26,.72-1.74c.48-.48,1.06-.71,1.76-.71,.78,0,1.41,.28,1.91,.84,.5,.56,.74,1.28,.74,2.16,0,1-.31,2.01-.93,3.03-.62,1.02-1.41,1.82-2.38,2.4Zm2.02-5.12c.05-.31,.07-.52,.07-.61,0-.48-.13-.86-.4-1.17-.27-.3-.61-.45-1.02-.45-.38,0-.7,.13-.95,.39-.25,.26-.37,.58-.37,.97,0,.36,.14,.67,.41,.93s.6,.39,.97,.39c.44,0,.87-.15,1.29-.44Z"/><path class="g" d="M91.49,34.18h-.67l-.27-1.62v-1.44h1.21v1.44l-.28,1.62Z"/><path class="g" d="M98.14,38.62h3.14v1.14h-5.21v-.08l.5-.58c.77-.96,1.39-1.77,1.85-2.44,.46-.67,.76-1.17,.9-1.52,.14-.34,.21-.68,.21-1.01,0-.46-.13-.84-.39-1.12-.26-.28-.61-.42-1.05-.42-.33,0-.66,.1-.98,.29-.32,.19-.61,.47-.86,.82v-1.5c.64-.52,1.3-.78,1.98-.78,.72,0,1.31,.24,1.78,.72,.47,.48,.7,1.09,.7,1.83,0,.33-.06,.68-.17,1.06-.12,.38-.32,.81-.62,1.3-.29,.49-.8,1.16-1.5,2l-.25,.3Z"/><path class="g" d="M105.98,31.41h.48v4.62h.92v1h-.92v2.72h-1.15v-2.72h-3.48v-.51l4.15-5.12Zm-.67,4.62v-2.39l-1.91,2.39h1.91Z"/></g></g><rect class="e" width="249.72" height="219.56"/></g></g></g></svg>