<?xml version="1.0" encoding="UTF-8"?><svg xmlns="http://www.w3.org/2000/svg" viewBox="0 0 16.9 16.9"><defs><style>.d{fill:#1a2e35;}</style></defs><g id="a"/><g id="b"><g id="c"><g><path class="d" d="M14.7,16.9H7.67c-1.21,0-2.2-.99-2.2-2.2V7.67c0-1.22,.99-2.2,2.2-2.2h7.03c1.21,0,2.2,.99,2.2,2.2v7.03c0,1.22-.99,2.2-2.2,2.2ZM7.67,6.75c-.51,0-.92,.41-.92,.92v7.03c0,.51,.41,.92,.92,.92h7.03c.51,0,.92-.41,.92-.92V7.67c0-.51-.41-.92-.92-.92H7.67Z"/><path class="d" d="M2.98,11.44h-.78c-1.21,0-2.2-.99-2.2-2.2V2.2C0,.99,.99,0,2.2,0h7.03c1.21,0,2.2,.99,2.2,2.2v.78c0,.35-.29,.64-.64,.64s-.64-.29-.64-.64v-.78c0-.51-.41-.92-.92-.92H2.2c-.51,0-.92,.41-.92,.92v7.03c0,.51,.41,.92,.92,.92h.78c.35,0,.64,.29,.64,.64s-.29,.64-.64,.64Z"/></g></g></g></svg>