<svg xmlns="http://www.w3.org/2000/svg" viewBox="0 0 32 32"><defs><style>.cls-1{fill:#3595e0;}.cls-2{fill:#f4a833;}</style></defs><g id="Capa_2" data-name="Capa 2"><g id="Layer_1" data-name="Layer 1"><circle class="cls-1" cx="16" cy="16" r="16"/><path class="cls-2" d="M20.09,18.94a3.27,3.27,0,0,1-1.43,2.84,4.7,4.7,0,0,1-1.36.64,5.28,5.28,0,0,1-1.39.19,9.39,9.39,0,0,1-2.12-.27,9.57,9.57,0,0,1-1.94-.64V18.86a6.5,6.5,0,0,0,1.38.89,3.43,3.43,0,0,0,1.52.36,2.17,2.17,0,0,0,1-.21,1.58,1.58,0,0,0,.61-.56,1.35,1.35,0,0,0,.2-.7,1.5,1.5,0,0,0-.25-.86,1.79,1.79,0,0,0-.74-.6A2.63,2.63,0,0,0,14.45,17H14v-2h.48a2,2,0,0,0,1.05-.25,1.48,1.48,0,0,0,.6-.59,1.33,1.33,0,0,0-.26-1.66A1.54,1.54,0,0,0,14.77,12a3.91,3.91,0,0,0-1.31.24,5.41,5.41,0,0,0-1.27.64V10.44a14.19,14.19,0,0,1,1.68-.59,6.88,6.88,0,0,1,1.77-.21,4.7,4.7,0,0,1,2.39.55,3.68,3.68,0,0,1,1.41,1.35A3.11,3.11,0,0,1,19.88,13a2.69,2.69,0,0,1-.25,1.13,3.35,3.35,0,0,1-.64,1,3.42,3.42,0,0,1-.82.69A4.54,4.54,0,0,1,19.51,17,3,3,0,0,1,20.09,18.94Z"/></g></g></svg>