<svg xmlns="http://www.w3.org/2000/svg" viewBox="0 0 17.61 21.8"><defs><style>.cls-1{fill:#353535;}</style></defs><g id="Capa_2" data-name="Capa 2"><g id="Layer_1" data-name="Layer 1"><path class="cls-1" d="M15.1,21.8H2.51A2.51,2.51,0,0,1,0,19.29V2.51A2.52,2.52,0,0,1,2.51,0H9.85a.38.38,0,0,1,.29.12l7.35,7.34a.47.47,0,0,1,.12.29V19.29A2.51,2.51,0,0,1,15.1,21.8ZM2.51.82A1.69,1.69,0,0,0,.82,2.51V19.29A1.69,1.69,0,0,0,2.51,21H15.1a1.69,1.69,0,0,0,1.69-1.69V7.92L9.68.82Z"/><path class="cls-1" d="M17.2,8.17H9.85a.42.42,0,0,1-.41-.42V.41A.41.41,0,0,1,9.85,0a.41.41,0,0,1,.41.41V7.34H17.2a.42.42,0,0,1,0,.83Z"/><path class="cls-1" d="M6,11.83H4.82v2.53h-1V11.83H2.59V11H6Z"/><path class="cls-1" d="M10.39,14.36H9.1l-.35-.42-.21-.26-.26-.31c-.19.26-.35.46-.47.61l-.31.38H6.23l1.42-1.74L6.3,11H7.58l.23.28.47.61q.27-.39.42-.57L9,11h1.27l-1.3,1.6Z"/><path class="cls-1" d="M14,11.83H12.81v2.53h-1V11.83H10.59V11H14Z"/></g></g></svg>