<?xml version="1.0" encoding="UTF-8"?><svg xmlns="http://www.w3.org/2000/svg" viewBox="0 0 562.72 265.57"><defs><style>.d{fill:#fff;}.e{fill:#fde89a;}.f{fill:#0e233f;}.g{fill:#3595e0;}.h{fill:#6445e1;}.i{fill:#282359;}</style></defs><g id="a"/><g id="b"><g id="c"><rect class="i" y="0" width="562.72" height="265.57"/><g><path class="e" d="M50.34,80.7h83s-.61-10.04-15.98-10.04c0,0-3.89-12.5-19.67-12.5-7.4,0-12.09,1.23-17.83,6.15,0,0-29.51-3.53-29.51,16.39Z"/><g><g><circle class="h" cx="465" cy="205.92" r="29.64"/><circle class="g" cx="510.82" cy="167.24" r="22.09" transform="translate(231.47 626.45) rotate(-76.81)"/><rect class="e" x="509.45" y="169.82" width="2.75" height="95.52"/><path class="e" d="M510.23,243.03c-12.43-5.92-16.04-17.85-16.19-18.36l2.64-.77-1.32,.38,1.32-.39c.03,.11,3.44,11.27,14.73,16.65l-1.18,2.48Z"/><rect class="e" x="502.27" y="204.84" width="35.33" height="2.75" transform="translate(74.93 545.08) rotate(-58.92)"/></g><rect class="e" x="463.63" y="210.39" width="2.75" height="54.96"/></g><polygon class="h" points="334.27 227.87 371.17 227.87 386.91 210.15 350.01 210.15 334.27 227.87"/><polygon class="g" points="351.66 211.82 338.45 226.1 338.45 265.57 364.86 265.57 364.86 226.1 351.66 211.82"/><rect class="i" x="364.86" y="226.1" width="35.23" height="39.48"/><polygon class="e" points="402.29 227.87 365.4 227.87 349.66 210.15 386.55 210.15 402.29 227.87"/><rect class="d" x="344.62" y="231.82" width="2.23" height="5.47"/><rect class="d" x="356.67" y="231.82" width="2.23" height="5.47"/><rect class="d" x="344.62" y="241.74" width="2.23" height="5.47"/><rect class="d" x="356.67" y="241.74" width="2.23" height="5.47"/><rect class="d" x="369.93" y="231.82" width="2.23" height="5.47"/><rect class="d" x="381.97" y="231.82" width="2.23" height="5.47"/><rect class="d" x="369.93" y="241.74" width="2.23" height="5.47"/><rect class="d" x="381.97" y="241.74" width="2.23" height="5.47"/><path class="f" d="M354.84,265.57h-6.38v-9.82c0-1.76,1.43-3.19,3.19-3.19s3.19,1.43,3.19,3.19v9.82Z"/></g></g></g></svg>