<?xml version="1.0" encoding="UTF-8"?><svg xmlns="http://www.w3.org/2000/svg" viewBox="0 0 562.72 265.95"><defs><style>.d{fill:#fde89a;}.e{fill:#3595e0;}.f{fill:#1a2e35;}.g{fill:#6445e1;}.h{fill:#282359;}</style></defs><g id="a"/><g id="b"><g id="c"><rect class="e" y="0" width="562.72" height="265.57" rx="25" ry="25"/><g><rect class="d" x="508" y="187.41" width="6.98" height="20.41"/><g><g><polyline class="f" points="520.29 132.84 537.42 179.27 520.55 179.27"/><polyline class="g" points="520.73 179.21 503.8 179.21 520.27 132.79"/><rect class="f" x="503.73" y="178.73" width="16.89" height="4.09"/><polygon class="f" points="559.27 174.91 559.27 207.42 537.07 207.42 537.07 195.26 559.27 174.91"/><rect class="g" x="520.57" y="182.58" width="16.91" height="25.24"/><rect class="f" x="539.45" y="245.77" width="3.83" height="7.33"/><rect class="f" x="527.46" y="245.77" width="3.83" height="7.33"/></g><polygon class="g" points="516.39 228.27 465.62 228.27 452.53 217.8 510.97 217.8 516.39 228.27"/><rect class="f" x="452.48" y="211.53" width="50.87" height="6.26"/><polygon class="f" points="512.33 228.3 465.72 228.3 465.66 265.95 485.29 265.93 485.29 249.44 512.33 228.3"/><path class="d" d="M520.4,207.42h38.77v33.83h-22.74l-14.45-14.45-15.9,22.64h-20.79s34.93-42.02,35.11-42.02Z"/><polygon class="g" points="536.43 241.25 521.94 226.84 550.62 226.84 536.43 241.25"/></g></g><circle class="d" cx="78.92" cy="76.7" r="18.41"/><path class="h" d="M78.92,84.15h41.5s-.31-5.02-7.99-5.02c0,0-1.95-6.25-9.84-6.25-3.7,0-6.05,.61-8.91,3.07,0,0-14.75-1.76-14.75,8.2Z"/></g></g></svg>