<?xml version="1.0" encoding="UTF-8"?><svg xmlns="http://www.w3.org/2000/svg" viewBox="0 0 155.22 156.9"><defs><style>.d{fill:#face33;}.e{fill:#10acd5;}.f{fill:#1c313a;}</style></defs><g id="a"/><g id="b"><g id="c"><g><path class="f" d="M106.9,11.75l-6.24-7.67c-2.61-3.21-7.66-2.68-9.55,1h0c-1.9,3.7,.65,8.13,4.81,8.34l9.92,.5,1.06-2.18Z"/><path class="f" d="M124.67,11.75l6.24-7.67c2.61-3.21,7.66-2.68,9.55,1h0c1.9,3.7-.65,8.13-4.81,8.34l-9.92,.5-1.06-2.18Z"/><path class="f" d="M44.46,126.91l15.38,26.25c1.36,2.32,3.84,3.74,6.52,3.74h20.55c1.01,0,1.49-1.26,.71-1.92-.35-.29-.73-.6-1.14-.89-1.86-1.33-3.2-3.26-3.66-5.5l-5.09-24.99-33.27,3.32Z"/><path class="f" d="M134.78,61.1s1.8,23.98-2.44,48.77c0,0,13.5,29.82,15.11,39.5,0,0,4.98,1.9,7.42,4.96,.83,1.04,.06,2.58-1.27,2.58h-12.04c-2.68,0-5.25-1.09-7.1-3.03-7.9-8.26-29.38-31.03-33.15-38.57l33.47-54.21Z"/><path class="d" d="M134.78,28.47v36.55c0,30.43-22.03,56.4-52.05,61.32-20.9,3.43-44.21,5.89-62.06,4.1L29.96,56.92s39.94-10.35,60.51-16.46l4.33-16.67,39.98,4.68Z"/><path class="e" d="M52.87,130.16c9.95-.85,20.16-2.22,29.85-3.81,21.18-3.47,38.38-17.42,46.67-36.01,2.73-6.12,.54-13.32-5.14-16.88h0c-11.87-7.45-27.1-6.84-38.34,1.52l-13.13,9.76c-12.53,9.32-19.92,24.01-19.92,39.63v5.8Z"/><path class="d" d="M94.8,52.97h0c10.43,.97,18.18,10.05,17.55,20.51-.58,9.65-2.27,21.71-6.56,32.96l8.65,31.36c.87,3.16,.75,6.5-.33,9.59l-1.03,2.92c-.85,2.4-3.58,3.56-5.89,2.48h0c-3.96-1.84-6.71-5.57-7.3-9.89l-.54-3.97-19.83-19.63c-3.4-3.36-5.3-7.94-5.3-12.72,0-8.17,.25-22.15,1.59-37.79,.82-9.6,9.41-16.72,19-15.82Z"/><path class="d" d="M.46,94.28l2.15,27.16h0c-2.78,3.19-3.4,7.73-1.57,11.55l9.37,19.63c1.25,2.61,3.88,4.27,6.78,4.27h22.27c1.07,0,1.56-1.35,.73-2.02-.58-.47-1.19-.93-1.74-1.34-1.3-.95-2.14-2.39-2.31-3.99l-1.5-14.38s21.41-16.12,11.62-82.52l-19.53,4.96C10.21,61.79-.89,77.29,.46,94.28Z"/><path class="d" d="M136.74,23.79c-.76-2.47-1.68-5.66-2.45-9.01C131.55,2.91,122.35,0,115.77,0c-6.58,0-15.78,2.91-18.51,14.77-.77,3.35-1.69,6.54-2.45,9.01-1.22,3.93-.15,8.22,2.93,11.08,3.89,3.61,9.55,5.59,18.03,5.59,8.48,0,14.14-1.98,18.03-5.59,3.08-2.86,4.15-7.16,2.93-11.08Z"/><path class="f" d="M115.77,17.68c-7.7,0-7.98,9.18-7.98,13.08,0,4.63,4.25,5.54,7.98,5.54s7.99-.91,7.98-5.54c0-3.9-.28-13.08-7.98-13.08Z"/><path class="f" d="M119.16,19.13c3.62,3.62,8.05-.56,9.89-2.39,2.17-2.17,.6-4.59-1.15-6.35-1.75-1.75-4.18-3.32-6.35-1.15-1.83,1.83-6.01,6.27-2.39,9.89Z"/><path class="f" d="M112.55,19.13c-3.62,3.62-8.05-.56-9.89-2.39-2.17-2.17-.6-4.59,1.15-6.35,1.75-1.75,4.18-3.32,6.35-1.15,1.83,1.83,6.01,6.27,2.39,9.89Z"/><path class="e" d="M115.77,20.94c-1.53,0-2.94,.56-3.71,.94-.34,.17-.45,.59-.23,.9,.66,.93,2.14,2.67,3.94,2.67s3.28-1.74,3.94-2.67c.22-.31,.11-.73-.23-.9-.77-.37-2.18-.94-3.71-.94Z"/></g></g></g></svg>