<?xml version="1.0" encoding="UTF-8"?><svg xmlns="http://www.w3.org/2000/svg" viewBox="0 0 165.17 177.77"><defs><style>.d{fill:none;stroke:#4d8fd1;stroke-linecap:round;stroke-miterlimit:10;stroke-width:3px;}.e{fill:#fad534;}.f{fill:#038d71;}.g{fill:#ec6655;}.h{fill:#10acd5;}.i{fill:#1c313a;}</style></defs><g id="a"/><g id="b"><g id="c"><g><g><path class="g" d="M152.53,103.47c-7.16-1.5,8.6-7.05,8.6-7.05,0,0-21.85,2.83-33.31,15.16l25.19-6.3-.47-1.8Z"/><path class="g" d="M153.92,107.44c-4.66,5.64,11.12,.14,11.12,.14,0,0-18.77,12.3-35.42,9.83l23.54-11.67,.76,1.7Z"/><path class="h" d="M151.58,104.41c3.9-4.42,11.83-5.16,11.83-5.16,0,0-3.51,3.08-4.13,4.24,0,0,3.41,.93,5.88,.77,0,0-6.45,3.86-12.53,3.19l-1.06-3.03Z"/><path class="h" d="M155.62,104.7s-23.04-3.38-32.39,12.4c0,0,16.09,3.75,32.39-12.4Z"/><path class="h" d="M148.31,110.73c-13.48,9.07-25.08,6.37-25.08,6.37l32.39-12.4c-2.46,2.44-4.91,4.42-7.31,6.03"/></g><g><g><path class="e" d="M43.96,84.18h-11.38S26.3,42.61,58.46,0l19.35,49.15s-1.6,2-3.23,5.26c-15.84,1.7-28.48,14.06-30.61,29.77Z"/><path class="e" d="M43.96,93.59c2.13,15.71,14.77,28.07,30.61,29.77,1.63,3.26,3.23,5.26,3.23,5.26l-19.35,49.15c-32.16-42.61-25.88-84.18-25.88-84.18h11.38Z"/><path class="h" d="M0,84.18H70.13c4.24,0,7.68,3.44,7.68,7.68v1.75H0v-9.43H0Z" transform="translate(77.8 177.78) rotate(-180)"/><path class="h" d="M4.14,87.16H25.59c4.62,0,8.36,3.75,8.36,8.36v1.9H4.14v-10.27h0Z" transform="translate(38.09 184.59) rotate(180)"/><line class="d" x1="71.75" y1="56.85" x2="48.36" y2="8.66"/><line class="d" x1="61.94" y1="68.78" x2="34.54" y2="28.39"/><line class="d" x1="56.27" y1="80.47" x2="23.32" y2="48.46"/><g><path class="e" d="M43.96,93.52h-11.38s-6.27,41.57,25.88,84.18l19.35-49.15s-1.6-2-3.23-5.26c-15.84-1.7-28.48-14.06-30.61-29.77Z"/><line class="d" x1="71.75" y1="120.85" x2="48.36" y2="169.04"/><line class="d" x1="61.94" y1="108.92" x2="34.54" y2="149.32"/><line class="d" x1="56.27" y1="97.23" x2="23.32" y2="129.24"/></g><path class="f" d="M77.8,84.18H43.96c2.13-15.71,14.77-28.07,30.61-29.77-3.34,6.69-6.78,18.7,3.23,29.77Z"/><path class="f" d="M43.96,93.59h33.84c-10.01,11.07-6.57,23.08-3.23,29.77-15.84-1.7-28.48-14.06-30.61-29.77Z"/><path class="g" d="M101,93.58H46.09c14.07-4.56,21.52-8.41,24.88-9.4h9.81s2.08-2.25,6.63-3.13c-.15,.64-.24,1.3-.24,1.99,0,4.76,3.86,8.62,8.62,8.62,2.97,0,5.59-1.5,7.14-3.79"/></g><polyline class="i" points="132.93 107.1 94.95 91.44 102.92 87.86 152 110.46 109.27 94.03 134.09 106.29"/><path class="h" d="M95.78,91.65c-4.76,0-8.62-3.86-8.62-8.62,0-.68,.09-1.35,.24-1.99,1.55-.3,3.37-.44,5.5-.28,5.93,.44,8.82,4.66,10.01,7.09-1.55,2.29-4.17,3.79-7.14,3.79Z"/></g></g></g></g></svg>