<svg xmlns="http://www.w3.org/2000/svg" viewBox="0 0 161.41 170.21"><defs><style>.cls-1{fill:#f09433;}.cls-2{fill:#03aed7;}</style></defs><g id="Capa_2" data-name="Capa 2"><g id="Layer_1" data-name="Layer 1"><circle class="cls-1" cx="62.65" cy="62.65" r="62.65"/><path class="cls-2" d="M118,47.49a30.17,30.17,0,0,0-5.17,16.92V95.94h-2.36L90.92,85.85a26,26,0,0,0,0,32.62l19.59-10.09h2.36v31.53A30.16,30.16,0,0,0,118,156.83l3.19,3.95a30.64,30.64,0,0,0,5.2,4.38l3.19,1.84a29.2,29.2,0,0,0,5.1,2l3.19.74a30.47,30.47,0,0,0,5.27.47V106.05l18.24-.44a4.58,4.58,0,0,0-4.22-4.57,7.72,7.72,0,0,0-7.43-5.61h-6.59V34.12a30.47,30.47,0,0,0-5.27.46l-3.19.74a31.21,31.21,0,0,0-5.1,2l-3.18,1.85a30.27,30.27,0,0,0-5.21,4.37Z"/></g></g></svg>