<?xml version="1.0" encoding="UTF-8"?><svg xmlns="http://www.w3.org/2000/svg" viewBox="0 0 190.3 277.39"><defs><style>.d{fill:#f3cc44;}.e{fill:#f4f6da;}.f{fill:#e7982a;}.g{fill:#ee9234;}.h{fill:#10acd5;}.i{fill:#082c3e;}.j{fill:#1c313a;}.k{fill:#5a5788;}.l{fill:#57bb8b;}.m{fill:#5f5b8e;}</style></defs><g id="a"/><g id="b"><g id="c"><g><g><rect class="d" x=".14" y="115.35" width="95.08" height="84.51"/><path class="m" d="M91.43,115.35h0c54.57,0,98.87,44.3,98.87,98.87v62.91H91.43V115.35h0Z"/><g><path class="l" d="M190.3,277.13l-13.93-18.55c-1.64-1.46-3.59-2.58-6.59-2.58-8.59,0-8.59,9.16-17.18,9.16-8.59,0-8.59-9.16-17.18-9.16-8.59,0-8.59,9.16-17.18,9.16-8.59,0-8.59-9.16-17.18-9.16-8.59,0-8.59,9.16-17.18,9.16-8.59,0-8.59-9.16-17.17-9.16v21.13h123.58Z"/><polygon class="k" points="101.2 277.13 64.11 277.13 64.11 240.05 101.2 277.13"/><polygon class="h" points="73.91 277.13 .14 277.13 .14 203.36 73.91 277.13"/></g><g><g><path class="j" d="M166.98,108.72l10.52,26.49c4.67,11.76-2.42,23.01-14.5,23.01h0c-12.01,0-23.79-8.27-28.43-19.96l-11.74-29.55h44.14Z"/><path class="i" d="M160.67,92.62l10.52,26.49c4.67,11.76-2.42,23.01-14.5,23.01h0c-12.01,0-23.79-8.27-28.43-19.96l-11.74-29.55h44.14Z"/></g><g><rect class="e" y="137.55" width="184.15" height="9.41"/><path class="f" d="M187.26,142.25c0,2.6-1.39,4.71-3.11,4.71s-3.11-2.11-3.11-4.71,1.39-4.71,3.11-4.71,3.11,2.11,3.11,4.71Z"/></g><g><polygon class="d" points="116.93 136.67 111.31 136.67 119 115.85 124.62 115.85 116.93 136.67"/><path class="d" d="M100.89,148.72s-.05,0-.07,0c-1.17-.04-2.08-1.02-2.04-2.18l.1-2.9c.17-4.82,4.08-8.6,8.9-8.6h6.9c1.17,0,2.11,.94,2.11,2.11s-.95,2.11-2.11,2.11h-6.9c-2.54,0-4.6,1.99-4.69,4.53l-.1,2.9c-.04,1.14-.98,2.04-2.11,2.04Z"/><path class="d" d="M122.82,148.72s-.05,0-.07,0c-1.17-.04-2.08-1.02-2.04-2.18l.1-2.9c.17-4.82,4.08-8.6,8.9-8.6h6.9c1.17,0,2.11,.94,2.11,2.11s-.95,2.11-2.11,2.11h-6.9c-2.54,0-4.6,1.99-4.69,4.53l-.1,2.9c-.04,1.14-.98,2.04-2.11,2.04Z"/></g><path class="g" d="M138.33,35.5l33.84,86.47h-37.71c-20.7,0-40.21-16.78-43.56-37.48h0c-1.52-9.39-1.69-18.72-.5-27.73l2.82-21.27h45.12Z"/><path class="d" d="M172.17,121.97h0l-33.84-86.47h0c-13.94,10.22-18.16,29.27-10.48,47.3l5.32,12.47c6.71,15.73,22.72,26.7,38.99,26.7Z"/><path class="j" d="M112.66,0c-15.95,0-28.88,11.48-28.88,25.64,0,.46,.02,.93,.04,1.38,.59,11.54,8.38,21.5,13.59,26.92,3.01,3.13,4.66,7.31,4.66,11.64h0s39.47-13.73,39.47-39.94c0-14.16-12.93-25.64-28.88-25.64Z"/><polygon class="d" points="138.8 136.67 133.18 136.67 138.66 121.86 144.28 121.86 138.8 136.67"/><path class="d" d="M137.58,23.21c-1.36-13.1-11.24-18.08-22.51-12.37-1.51,.77-3.3,.77-4.82,0-11.26-5.71-21.14-.73-22.51,12.37-1.43,13.73,9.31,26.15,24.91,26.15s26.34-12.42,24.91-26.15Z"/><path class="h" d="M123.5,14.52c-4.11,0-7.54,3.03-8.46,7.12-.25,1.12-1.23,1.93-2.38,1.93h0c-1.15,0-2.12-.81-2.38-1.93-.92-4.08-4.35-7.12-8.46-7.12-4.81,0-8.71,4.16-8.71,9.29s3.9,9.29,8.71,9.29c.93,0,1.83-.16,2.67-.45,1.49-.52,3.02-.87,4.6-.87h7.13c1.57,0,3.11,.35,4.6,.87,.84,.29,1.74,.45,2.67,.45,4.81,0,8.71-4.16,8.71-9.29s-3.9-9.29-8.71-9.29Z"/><path class="j" d="M112.66,28.41c-1.66,0-2.81,.79-3.56,1.63-.87,.98-.88,2.44-.07,3.46l.55,.69,3.08,7.54,3.08-7.54,.55-.69c.81-1.02,.8-2.49-.07-3.46-.75-.84-1.89-1.63-3.56-1.63Z"/></g></g><g><path class="g" d="M42.67,152.53c6.9,6,6.53,17.7,6.53,17.7,0,0-11.54,1.98-18.44-4.02-6.9-6-6.53-17.7-6.53-17.7,0,0,11.54-1.98,18.44,4.02Z"/><path class="l" d="M55.78,174.87c-6.9,6-6.53,17.7-6.53,17.7,0,0,11.54,1.98,18.44-4.02,6.9-6,6.53-17.7,6.53-17.7,0,0-11.54-1.98-18.44,4.02Z"/><path class="j" d="M49.21,277.39c.51,0,.92-.41,.92-.92V141.99c0-.51-.41-.92-.92-.92-.51,0-.92,.41-.92,.92v134.47c0,.51,.41,.92,.92,.92Z"/><circle class="g" cx="49.21" cy="112.52" r="31.94"/><g><path class="j" d="M49.21,150.58c.51,0,.92-.41,.92-.92V76.76c0-.51-.41-.92-.92-.92s-.92,.41-.92,.92v72.9c0,.51,.41,.92,.92,.92Z"/><path class="j" d="M12.76,114.13H85.66c.51,0,.92-.41,.92-.92s-.41-.92-.92-.92H12.76c-.51,0-.92,.41-.92,.92,0,.51,.41,.92,.92,.92Z"/><path class="j" d="M74.99,139.91c.24,0,.47-.09,.65-.27,.36-.36,.36-.95,0-1.31L24.09,86.78c-.36-.36-.95-.36-1.31,0s-.36,.95,0,1.31l51.55,51.55c.18,.18,.42,.27,.65,.27Z"/><path class="j" d="M23.44,139.91c.24,0,.47-.09,.65-.27l51.55-51.55c.36-.36,.36-.95,0-1.31s-.95-.36-1.31,0l-51.55,51.55c-.36,.36-.36,.95,0,1.31,.18,.18,.42,.27,.65,.27Z"/></g><circle class="h" cx="49.21" cy="112.52" r="13.43"/><circle class="k" cx="49.21" cy="112.52" r="8.63"/></g></g></g></g></svg>