<?xml version="1.0" encoding="UTF-8"?><svg xmlns="http://www.w3.org/2000/svg" xmlns:xlink="http://www.w3.org/1999/xlink" viewBox="0 0 83.19 90.52"><defs><style>.e{fill:none;}.f{fill:#f5ce44;}.g{fill:#f1685a;}.h{fill:#07aa7d;}.i{fill:#0e243f;}.j{fill:#3595e0;}.k{clip-path:url(#d);}</style><clipPath id="d"><rect class="e" width="83.19" height="90.52" rx="5" ry="5" transform="translate(83.19 90.52) rotate(180)"/></clipPath></defs><g id="a"/><g id="b"><g id="c"><g class="k"><g><g><polygon class="j" points="83.19 90.52 83.19 46.32 40.78 46.32 0 0 0 0 0 90.52 83.19 90.52"/><polygon class="h" points="83.19 0 42.42 0 83.19 46.32 83.19 0"/><polygon class="g" points="83.19 46.32 42.42 0 0 0 40.78 46.32 83.19 46.32"/></g><polygon class="i" points="42.42 46.32 83.19 90.52 40.78 90.52 0 46.32 42.42 46.32"/><path class="f" d="M51.83,90.52c.02-.37,.05-.74,.05-1.12,0-15.22-11.61-27.56-25.94-27.56S0,74.18,0,89.4c0,.38,.03,.75,.05,1.12H51.83Z"/></g></g></g></g></svg>