<?xml version="1.0" encoding="UTF-8"?><svg xmlns="http://www.w3.org/2000/svg" xmlns:xlink="http://www.w3.org/1999/xlink" viewBox="0 0 83.19 90.52"><defs><style>.e{fill:none;}.f{fill:#f5ce44;}.g{fill:#f1685a;}.h{fill:#07aa7d;}.i{fill:#0e243f;}.j{fill:#3595e0;}.k{clip-path:url(#d);}</style><clipPath id="d"><rect class="e" width="83.19" height="90.52" rx="5" ry="5" transform="translate(83.19 90.52) rotate(180)"/></clipPath></defs><g id="a"/><g id="b"><g id="c"><g class="k"><g><rect class="f" y="0" width="83.19" height="90.52" transform="translate(83.19 90.52) rotate(180)"/><polygon class="i" points="38.17 45.37 83.19 45.37 83.19 .22 38.17 45.37"/><polygon class="h" points="83.19 45.37 38.17 45.37 38.17 90.52 83.19 45.37"/><polygon class="i" points="38.17 45.37 0 45.37 0 90.52 38.17 45.37"/><polygon class="g" points="38.17 45.37 0 45.37 0 .22 38.17 45.37"/><path class="j" d="M58.87,.22c0,.11,0,.21,0,.32,0,13.26-9.82,24.01-21.92,24.01S15.03,13.81,15.03,.55c0-.11,0-.21,0-.32H58.87Z"/></g></g></g></g></svg>