<?xml version="1.0" encoding="UTF-8"?><svg xmlns="http://www.w3.org/2000/svg" viewBox="0 0 107.55 119.66"><defs><style>.d{fill:#fde89a;}.e{fill:#fdeed6;}.f{fill:#145c93;}.g{fill:#3595e0;}.h{fill:#6445e1;}</style></defs><g id="a"/><g id="b"><g id="c"><g><path class="g" d="M6.82,0H100.73c3.77,0,6.82,3.06,6.82,6.82V112.84c0,3.77-3.06,6.82-6.82,6.82H6.82c-3.77,0-6.82-3.06-6.82-6.82V6.82C0,3.06,3.06,0,6.82,0Z"/><path class="d" d="M62.16,28.49h37.11s-.27-4.49-7.15-4.49c0,0-1.74-5.59-8.8-5.59-3.31,0-5.41,.55-7.97,2.75,0,0-13.2-1.58-13.2,7.33Z"/></g><g><g><polyline class="f" points="53.16 14.35 71.54 32.67 53.44 32.67"/><polyline class="e" points="53.63 32.6 35.46 32.6 53.13 14.29"/><rect class="f" x="35.39" y="32.09" width="18.13" height="4.39"/><rect class="e" x="53.47" y="32.09" width="18.13" height="4.39"/><rect class="h" x="53.45" y="36.22" width="18.15" height="27.08"/><circle class="f" cx="44.79" cy="45.86" r="4.82"/><rect class="e" x="89.47" y="106.87" width="4.11" height="7.87"/><rect class="e" x="76.61" y="106.87" width="4.11" height="7.87"/><rect class="e" x="63.74" y="106.87" width="4.11" height="7.87"/></g><path class="h" d="M53.27,62.88h34.6l15.32,36.29h-32.72l-15.5-15.5-15.31,15.31H17.36S53.08,62.88,53.27,62.88Z"/><polygon class="e" points="70.48 99.17 54.93 83.7 85.69 83.7 70.48 99.17"/></g></g></g></svg>