<?xml version="1.0" encoding="UTF-8"?><svg xmlns="http://www.w3.org/2000/svg" xmlns:xlink="http://www.w3.org/1999/xlink" viewBox="0 0 107.55 119.66"><defs><style>.e{fill:none;}.f{fill:#143827;}.g{fill:#3595e0;}.h{fill:#99c3e1;}.i{fill:#4981c2;}.j{clip-path:url(#d);}</style><clipPath id="d"><path class="e" d="M67.27,74.86c-13.01,0-23.84,9.35-26.15,21.69h52.3c-2.31-12.35-13.14-21.69-26.15-21.69Z"/></clipPath></defs><g id="a"/><g id="b"><g id="c"><g><rect class="g" y="0" width="107.55" height="119.66" rx="6.82" ry="6.82"/><g><path class="f" d="M41.07,35.04v41.91H12.9V38.06l14.86-14.86s13.31,11.95,13.31,11.83Z"/><polyline class="f" points="41.07 35.04 41.07 96.57 12.9 96.57 12.9 38.06"/><rect class="f" x="60.4" y="45.47" width="3.78" height="7.23" transform="translate(124.58 98.16) rotate(180)"/><rect class="f" x="49.27" y="45.47" width="3.78" height="7.23" transform="translate(102.32 98.16) rotate(180)"/><polygon class="i" points="41.1 37.68 71.19 37.68 56.87 23.09 27.75 23.09 41.1 37.68"/><path class="h" d="M64.99,40.87H26.46s.29-4.66,7.42-4.66c0,0,1.81-5.8,9.13-5.8,3.44,0,5.61,.57,8.28,2.85,0,0,13.7-1.64,13.7,7.61Z"/></g><g><path class="h" d="M67.27,75.52c-12.56,0-23.01,9.02-25.23,20.93h50.46c-2.22-11.91-12.67-20.93-25.23-20.93Z"/><g class="j"><path class="f" d="M39.09,88.67h41.06c1.43,.02,2.59,1.24,2.59,2.74s-1.17,2.74-2.62,2.74h-6.71c-1.7,0-3.08,1.44-3.08,3.22s1.38,3.21,3.08,3.21h16.07l-3.22,3.36H37.99s1.17-15.2,1.1-15.27Z"/><path class="f" d="M91.25,75.04h-25.09c-1.06,.01-1.91,.92-1.91,2.03s.87,2.03,1.94,2.03h4.97c1.26,0,2.28,1.07,2.28,2.38s-1.02,2.38-2.28,2.38h-27.83l2.38,2.49h46.36s-.86-11.25-.82-11.3Z"/></g></g></g></g></g></svg>