<?xml version="1.0" encoding="UTF-8"?><svg xmlns="http://www.w3.org/2000/svg" viewBox="0 0 986 222.38"><defs><style>.d{fill:#face33;}.e{fill:#f09433;}.f{fill:#f5ce44;}.g{fill:#f4f7fe;}.h{fill:#f1685a;}.i{fill:#3595e0;}.j{fill:#5f5b90;}</style></defs><g id="a"/><g id="b"><g id="c"><g><g><g><path class="f" d="M92.73,0l-29.96,43.8-.54,.79-.29,.42,16.32,11.17,.29-.42,.54-.79,6.8-9.94,.83-1.21,6.62-9.67,.83-1.21,6.62-9.67,.83-1.21,6.62-9.67,.83-1.21-1.21-.83L93.94,.83l-.6-.41-.6-.41Zm-22.27,35.16l3.03,8.69-9.16,.27,6.13-8.96Zm7.99,18.16l-2.9-8.17,8.62-.19-5.72,8.36Zm5.28-9.78l-8.66,.26-2.9-8.16,11.56,7.9Zm-10.64-9.05l8.53-.26,2.85,8.04-11.38-7.78Zm-1.2-1.41l6.13-8.97,3.09,8.69-9.22,.28Zm19.06-.57l-8.32,.25-2.78-7.84,11.1,7.6Zm-10.35-8.85l8.42-.25,2.82,7.94-11.24-7.69Zm-1.3-1.41l6.13-8.97,3.09,8.69-9.22,.28Zm19.16-.57l-8.42,.25-2.82-7.94,11.24,7.69Zm-10.57-9.01l8.66-.26,2.9,8.16-11.56-7.9Zm-1.07-1.42l6.13-8.97,3.09,8.69-9.22,.28Zm8-8.04l10.93,7.48-8.19,.25-2.74-7.72Zm11.83,8.9l-5.71,8.35-2.87-8.09,8.58-.26Zm-7.52,11l-5.71,8.35-2.87-8.09,8.58-.26Zm-7.41,10.83l-5.71,8.35-2.87-8.09,8.58-.26Zm-14.9,19.47l-11.73-8.02,8.86-.19,2.86,8.21Z"/><path class="f" d="M40.07,76.99L10.12,120.79l-.54,.79-.29,.42,16.32,11.17,.29-.42,.54-.79,6.8-9.94,.83-1.21,6.62-9.67,.83-1.21,6.62-9.67,.83-1.21,6.62-9.67,.83-1.21-1.21-.83-13.91-9.51-.6-.41-.6-.41Zm-22.27,35.16l3.03,8.69-9.16,.27,6.13-8.96Zm7.99,18.16l-2.9-8.17,8.62-.19-5.72,8.36Zm5.28-9.78l-8.66,.26-2.9-8.16,11.56,7.9Zm-10.64-9.05l8.53-.26,2.85,8.04-11.38-7.78Zm-1.2-1.41l6.13-8.97,3.09,8.69-9.22,.28Zm19.06-.57l-8.32,.25-2.78-7.84,11.1,7.6Zm-10.35-8.85l8.42-.25,2.82,7.94-11.24-7.69Zm-1.3-1.41l6.13-8.97,3.09,8.69-9.22,.28Zm19.16-.57l-8.42,.25-2.82-7.94,11.24,7.69Zm-10.57-9.01l8.66-.26,2.9,8.16-11.56-7.9Zm-1.07-1.42l6.13-8.97,3.09,8.69-9.22,.28Zm8-8.04l10.93,7.48-8.19,.25-2.74-7.72Zm11.83,8.9l-5.71,8.35-2.87-8.09,8.58-.26Zm-7.52,11l-5.71,8.35-2.87-8.09,8.58-.26Zm-7.41,10.83l-5.71,8.35-2.87-8.09,8.58-.26Zm-14.9,19.47l-11.73-8.02,8.86-.19,2.86,8.21Z"/><g><rect class="f" x="71.55" y="52.57" width="1.46" height="3.74" transform="translate(101.21 140.19) rotate(-145.63)"/><rect class="f" x="65" y="48.09" width="1.46" height="3.74" transform="translate(91.78 128.31) rotate(-145.63)"/></g><g><rect class="f" x="51.83" y="81.4" width="1.46" height="3.74" transform="translate(48.95 181.67) rotate(-145.63)"/><rect class="f" x="45.28" y="76.92" width="1.46" height="3.74" transform="translate(39.52 169.8) rotate(-145.63)"/></g></g><g><g><g><rect class="e" x="9.63" y="29.99" width="37.63" height="31.18" transform="translate(26.18 99.26) rotate(-145.63)"/><rect class="e" x="47.26" y="55.73" width="37.63" height="31.18" transform="translate(80.35 167.5) rotate(-145.63)"/></g><rect class="i" x="43.27" y="47.23" width="7.97" height="22.45" transform="translate(53.26 133.38) rotate(-145.63)"/><rect class="i" x="5.64" y="21.49" width="7.97" height="22.45" transform="translate(-.9 65.15) rotate(-145.63)"/></g><rect class="j" x="77.8" y="64.38" width="1.83" height="31.18" transform="translate(98.53 190.41) rotate(-145.63)"/><rect class="j" x="15.45" y="21.73" width="1.83" height="31.18" transform="translate(8.8 77.36) rotate(-145.63)"/></g></g><g><rect class="i" x="82.57" y="80.21" width="4.63" height="7.97" transform="translate(-32.53 106.73) rotate(-55.63)"/><path class="i" d="M85.97,85.35c5.95-8.7,15.73-13.2,25.54-12.81l-28.21,41.25c-3.92-8.99-3.27-19.74,2.68-28.44Z"/><rect class="i" x="74.78" y="93.69" width="49.97" height="2.2" transform="translate(-34.79 123.62) rotate(-55.63)"/><path class="i" d="M86.55,115.95l32.24-6.97c-.1-.57,0-1.17,.33-1.69l-18.1-12.38,.09-.14,18.1,12.38c.35-.48,.85-.78,1.39-.91l-5.9-31.45,.16-.03,5.9,31.45c.57-.09,1.18,.03,1.69,.39,1.08,.74,1.36,2.22,.62,3.3-.74,1.08-2.22,1.36-3.3,.62-.5-.34-.82-.84-.96-1.38l-32.24,6.97-.04-.16Z"/></g></g><g><path class="h" d="M921.81,90.27c27.08,0,49.03,21.95,49.03,49.03s-21.95,49.03-49.03,49.03"/><path class="d" d="M921.81,188.32c-27.08,0-49.03-21.95-49.03-49.03s21.95-49.03,49.03-49.03"/><polygon class="g" points="921.81 138.76 978.21 222.38 912.1 222.38 876.71 222.38 921.81 138.76"/><path class="i" d="M939.7,109.52h46.3s-.34-5.6-8.92-5.6c0,0-2.17-6.97-10.98-6.97-4.13,0-6.75,.69-9.95,3.43,0,0-16.46-1.97-16.46,9.15Z"/><path class="j" d="M921.81,138.76s-11.2,30.12-2.02,39.3c13.52,13.52,25.62,2.7,29.82,18.99,4.2,16.29,21.88,15.35,21.88,15.35l-49.68-73.65Z"/></g></g></g></svg>