<?xml version="1.0" encoding="UTF-8"?><svg xmlns="http://www.w3.org/2000/svg" viewBox="0 0 214.46 175.99"><defs><style>.d{fill:#03aed7;}.e{fill:#f5ce44;}.f{fill:#ea6654;}.g{fill:#f1685a;}.h{fill:#fde89a;}.i{fill:#07aa7d;}.j{fill:#0e233f;}.k{fill:#58304d;}.l{fill:none;stroke:#f09433;stroke-miterlimit:10;}.m{opacity:.34;}</style></defs><g id="a"/><g id="b"><g id="c"><g><g><polyline class="d" points="214.28 175.96 80.09 175.96 80.09 145.22 214.46 145.22"/><g><path class="h" d="M37.19,141.08c0-2.28-1.85-4.13-4.13-4.13s-4.13,1.85-4.13,4.13c0,2.28,1.85,4.13,4.13,4.13s4.13-1.85,4.13-4.13Z"/><path class="h" d="M37.19,151.42c0-2.28-1.85-4.13-4.13-4.13-2.28,0-4.13,1.85-4.13,4.13s1.85,4.13,4.13,4.13c2.28,0,4.13-1.85,4.13-4.13Z"/><path class="h" d="M37.19,171.86c0-2.28-1.85-4.13-4.13-4.13s-4.13,1.85-4.13,4.13c0,2.28,1.85,4.13,4.13,4.13,2.28,0,4.13-1.85,4.13-4.13Z"/></g><g><path class="h" d="M55.92,137.34l-2.85-2.85h-17.89s-5.7-.11-7.07-7.18h31.22l8.82,8.7"/><g><polyline class="j" points="49.54 56.98 49.53 102.8 53.77 102.8 53.78 57.81"/><path class="g" d="M68.93,70.83c-10.72,0-19.42,8.69-19.42,19.42h0v6.13l36.68-25.55h-17.26Z"/><path class="j" d="M49.51,96.38l-.02,75.9h4.25l.02-73.14v-2.76h13.02c1.88,0,3.71-.27,5.43-.77,.57-.17,1.14-.36,1.69-.58,.73-.29,1.45-.62,2.14-1,1.1-.6,2.14-1.3,3.1-2.09,.96-.79,1.84-1.67,2.63-2.63,2.77-3.36,4.43-7.66,4.43-12.35v-6.13l-36.68,25.55Z"/><path class="g" d="M50.55,85.57c0-10.19-8.26-18.46-18.46-18.46H15.68l34.87,24.29v-5.83Z"/><path class="j" d="M49.64,90.77L15.68,67.11v5.68c0,1.86,.28,3.66,.81,5.35,.35,1.13,.81,2.2,1.36,3.22,.76,1.4,1.7,2.69,2.79,3.83,.82,.86,1.72,1.64,2.7,2.32,.37,.26,.74,.5,1.12,.73,2.69,1.6,5.84,2.53,9.2,2.53h15.99Z"/><path class="g" d="M62.16,101.83c-6.69,0-12.12,5.42-12.12,12.12h0v3.83l22.89-15.94h-10.77Z"/><path class="j" d="M50.04,117.77v47.36h2.64v-47.36h8.13c1.18,0,2.31-.17,3.39-.48,.36-.1,.71-.22,1.05-.36,.46-.18,.9-.39,1.33-.62,.69-.37,1.33-.81,1.93-1.3,.6-.49,1.15-1.04,1.64-1.64,1.73-2.09,2.77-4.78,2.77-7.71v-3.83l-22.89,15.94Z"/><path class="g" d="M50.69,111.03c0-6.36-5.16-11.52-11.52-11.52h-10.24l21.76,15.16v-3.64Z"/><path class="j" d="M50.13,114.27l-21.2-14.76v3.54c0,1.16,.18,2.28,.5,3.34,.22,.7,.5,1.38,.85,2.01,.48,.87,1.06,1.68,1.74,2.39,.51,.54,1.07,1.02,1.68,1.45,.23,.16,.46,.31,.7,.45,1.68,1,3.64,1.58,5.74,1.58h9.98Z"/></g><polyline class="h" points="55.68 136.98 32.89 136.98 32.89 175.96 75.97 175.96 75.97 145.22 68.16 136.01"/></g><path class="j" d="M70.2,167.33c-3.19-3.19-3.19-8.35,0-11.54,3.19-3.19,8.35-3.19,11.54,0,3.19,3.19,3.19,8.35,0,11.54-3.19,3.19-8.35,3.19-11.54,0Z"/><polygon class="e" points="80.58 164.22 74.37 163.02 75.76 156.27 76.91 156.51 75.77 162.09 80.8 163.07 80.58 164.22"/><path class="h" d="M37.19,161.52c0-2.28-1.85-4.13-4.13-4.13-2.28,0-4.13,1.85-4.13,4.13s1.85,4.13,4.13,4.13c2.28,0,4.13-1.85,4.13-4.13Z"/></g><g><line class="l" x1="51.52" y1="3.9" x2="51.52" y2="30.44"/><line class="l" x1="43.68" y1="4.93" x2="50.55" y2="30.56"/><line class="l" x1="36.37" y1="7.96" x2="49.64" y2="30.94"/><line class="l" x1="30.1" y1="12.77" x2="48.87" y2="31.53"/><line class="l" x1="25.29" y1="19.04" x2="48.27" y2="32.31"/><line class="l" x1="22.26" y1="26.35" x2="47.9" y2="33.22"/><line class="l" x1="54.77" y1="32.31" x2="77.75" y2="19.04"/><line class="l" x1="55.17" y1="33.35" x2="81.05" y2="27.47"/><line class="l" x1="54.17" y1="31.53" x2="72.93" y2="12.77"/><line class="l" x1="53.39" y1="30.94" x2="66.66" y2="7.96"/><line class="l" x1="52.49" y1="30.56" x2="59.36" y2="4.93"/></g><path class="e" d="M47.76,37.5c-2.15-2.15-2.15-5.64,0-7.79,2.15-2.15,5.64-2.15,7.79,0,2.15,2.15,2.15,5.64,0,7.79-2.15,2.15-5.64,2.15-7.79,0Z"/><path class="g" d="M0,33.6c10.6,17.43,29.77,29.06,51.66,29.06s41.06-11.64,51.66-29.06H0"/><path class="g" d="M49.05,2.47c0-1.36,1.1-2.47,2.47-2.47,1.36,0,2.47,1.1,2.47,2.47,0,1.36-1.1,2.47-2.47,2.47-1.36,0-2.47-1.1-2.47-2.47Z"/><path class="g" d="M56.89,4.93c0-1.36,1.1-2.47,2.47-2.47s2.47,1.1,2.47,2.47-1.1,2.47-2.47,2.47c-1.36,0-2.47-1.1-2.47-2.47Z"/><path class="g" d="M64.2,7.96c0-1.36,1.1-2.47,2.47-2.47s2.47,1.1,2.47,2.47c0,1.36-1.1,2.47-2.47,2.47s-2.47-1.1-2.47-2.47Z"/><path class="g" d="M70.47,12.77c0-1.36,1.1-2.47,2.47-2.47s2.47,1.1,2.47,2.47-1.1,2.47-2.47,2.47-2.47-1.1-2.47-2.47Z"/><path class="g" d="M75.28,19.04c0-1.36,1.1-2.47,2.47-2.47,1.36,0,2.47,1.1,2.47,2.47,0,1.36-1.1,2.47-2.47,2.47-1.36,0-2.47-1.1-2.47-2.47Z"/><path class="g" d="M78.59,27.47c0-1.36,1.1-2.47,2.47-2.47s2.47,1.1,2.47,2.47-1.1,2.47-2.47,2.47-2.47-1.1-2.47-2.47Z"/><path class="g" d="M41.21,4.93c0-1.36,1.1-2.47,2.47-2.47s2.47,1.1,2.47,2.47-1.1,2.47-2.47,2.47-2.47-1.1-2.47-2.47Z"/><path class="g" d="M33.91,7.96c0-1.36,1.1-2.47,2.47-2.47s2.47,1.1,2.47,2.47c0,1.36-1.1,2.47-2.47,2.47s-2.47-1.1-2.47-2.47Z"/><path class="g" d="M27.64,12.77c0-1.36,1.1-2.47,2.47-2.47s2.47,1.1,2.47,2.47c0,1.36-1.1,2.47-2.47,2.47s-2.47-1.1-2.47-2.47Z"/><path class="g" d="M22.82,19.04c0-1.36,1.1-2.47,2.47-2.47s2.47,1.1,2.47,2.47c0,1.36-1.1,2.47-2.47,2.47s-2.47-1.1-2.47-2.47Z"/><path class="g" d="M19.8,26.35c0-1.36,1.1-2.47,2.47-2.47s2.47,1.1,2.47,2.47-1.1,2.47-2.47,2.47-2.47-1.1-2.47-2.47Z"/><g><path class="f" d="M114.4,127.26v48.7h99.89v-48.86c0-.09,0-.17,0-.26-.03-3.98-.53-7.84-1.44-11.55-.02-.09-.04-.19-.07-.27-.22-.89-.47-1.77-.74-2.65-.75-2.41-1.68-4.74-2.78-6.97-.02-.07-.05-.13-.09-.19-.33-.68-.68-1.35-1.05-2.01-1.8-3.27-3.95-6.31-6.41-9.07-1.16-1.31-2.4-2.56-3.69-3.75-8.88-8.12-20.7-13.06-33.68-13.06-12.55,0-24.02,4.63-32.8,12.28-.57,.5-1.14,1.01-1.69,1.54-.28,.27-.56,.54-.83,.81-.42,.42-.83,.85-1.24,1.28-.26,.28-.52,.56-.77,.85-.1,.11-.2,.22-.29,.33-1.2,1.37-2.33,2.81-3.37,4.31-.05,.08-.11,.15-.15,.22-2.2,3.18-4.04,6.64-5.45,10.29-.03,.08-.06,.16-.09,.24-.37,.96-.7,1.93-1.01,2.91-.75,2.38-1.32,4.83-1.69,7.35h0c-.03,.17-.05,.34-.07,.51-.02,.08-.03,.17-.04,.25-.3,2.21-.46,4.47-.46,6.76Z"/><g><path class="j" d="M114.4,127.26v32.03l99.89,14.24v-46.43c0-.09,0-.17,0-.26-.03-3.98-.53-7.84-1.44-11.55-.02-.09-.04-.19-.07-.27-.22-.89-.47-1.77-.74-2.65-.75-2.41-1.68-4.74-2.78-6.97l.02-.17-.11-.02c-.33-.68-.68-1.35-1.05-2.01l-76.58-13.6c-.57,.5-1.14,1.01-1.69,1.54-.28,.27-.56,.54-.83,.81-.42,.42-.83,.85-1.24,1.28-.26,.28-.52,.56-.77,.85-.1,.11-.2,.22-.29,.33-1.2,1.37-2.33,2.81-3.37,4.31-.05,.08-.11,.15-.15,.22-2.2,3.18-4.04,6.64-5.45,10.29-.03,.08-.06,.16-.09,.24-.37,.96-.7,1.93-1.01,2.91-.75,2.38-1.32,4.83-1.69,7.35h0c-.03,.17-.05,.34-.07,.51-.02,.08-.03,.17-.04,.25-.3,2.21-.46,4.47-.46,6.76Z"/><g><path class="i" d="M114.4,127.26v30.11l4.91,.7,.25,.04,11.49,1.64,.25,.03,11.49,1.64,.24,.04,11.5,1.63,.24,.04,11.5,1.63,.24,.04,11.5,1.64,.24,.03,7.95,1.14,3.54,.5,.19,.03h.05l3.48,.5,8.01,1.14,.24,.03,11.55,1.65,.69-9.27,.04-.52,.02-.26,.24-3.2v-31.13c0-.09,0-.17,0-.26-.03-3.98-.53-7.84-1.44-11.55-.02-.09-.04-.19-.07-.27-.22-.89-.47-1.77-.74-2.65-.75-2.41-1.68-4.74-2.78-6.97l.02-.17-.11-.02-.13-.02-11.45-2.04-.24-.04-11.45-2.03-.24-.04-11.45-2.03-.24-.04-11.45-2.04-.25-.04-11.44-2.04-.25-.04-11.44-2.04-.26-.04-9-1.59c-.28,.27-.56,.54-.83,.81-.42,.42-.83,.85-1.24,1.28-.26,.28-.52,.56-.77,.85-.1,.11-.2,.22-.29,.33-1.2,1.37-2.33,2.81-3.37,4.31-.05,.08-.11,.15-.15,.22-2.2,3.18-4.04,6.64-5.45,10.29-.03,.08-.06,.16-.09,.24-.37,.96-.7,1.93-1.01,2.91-.75,2.38-1.32,4.83-1.69,7.35h0c-.03,.17-.05,.34-.07,.51-.02,.08-.03,.17-.04,.25-.3,2.21-.46,4.47-.46,6.76Z"/><g><path class="e" d="M178.47,151.09c.14,.8-.17,1.61-.26,2.42-.05,.48-.03,.95,.07,1.4,.02,.09,.04,.18,.07,.27,.16,.62,.44,1.21,.79,1.77h0c.07,.11,.14,.22,.21,.32,.78,1.13,1.86,2.14,2.9,3.04,2.07,1.8,4.34,4.06,4.07,6.79-.02,.18-.05,.35-.09,.52l3.54,.5,.19,.03h.05l3.48,.5c.2-1.11-.27-2.27-.08-3.39,.11-.66,.45-1.25,.84-1.8,1.4-1.99,3.5-3.47,5.85-4.13,.15-.04,.3-.08,.45-.12,.2-.04,.4-.09,.61-.14h0c.54-.12,1.1-.23,1.63-.39,.09-.03,.18-.05,.27-.08,.76-.24,1.46-.57,2.03-1.13,1.36-1.34,1.33-3.83-.06-5.13-.34-.32-.75-.59-1.14-.86-.08-.05-.16-.11-.23-.16-.45-.33-.84-.7-1.04-1.22-.26-.66-.08-1.36,.28-1.99h0c.04-.08,.09-.15,.14-.23,.24-.36,.56-.7,.87-.97,.09-.08,.19-.17,.29-.25h0c.09-.08,.18-.16,.28-.23,.77-.63,1.56-1.27,1.92-2.18,.6-1.51-.17-3.02-1.14-4.45h0c-.08-.11-.15-.21-.22-.31-.35-.5-.7-.99-1.02-1.45-.28-.41-.54-.88-.59-1.36-.01-.08-.01-.15-.01-.22,0-.01,0-.02,0-.04,.02-.41,.22-.81,.4-1.19,.56-1.11,1.12-2.23,1.67-3.34,.16-.32,.33-.66,.55-.95,.09-.11,.19-.23,.29-.33,.03-.03,.07-.06,.1-.09,.49-.4,1.14-.56,1.77-.62,1.87-.18,3.78,.39,5.63,.04,.15-.03,.31-.07,.46-.1v-2.73c0-.09,0-.17,0-.26-.03-3.98-.53-7.84-1.44-11.55-.02-.09-.04-.19-.07-.27-.22-.89-.47-1.77-.74-2.65-1.43-.41-1.88-1.7-2.89-2.68-.11-.1-.23-.21-.35-.3-.08-.05-.15-.11-.23-.16h0c-1.51-.99-3.64-.84-5.44-.33-.69,.2-1.38,.44-2.07,.66-1.34,.44-2.69,.83-4.09,.75-.03,0-.06,0-.09,0-.04,0-.08,0-.11-.01-.08,0-.16-.01-.25-.02-3.05-.38-5.61-2.79-8.68-3.26-.96-.15-2.16,.09-2.71,.79h0c-.16,.2-.26,.44-.29,.71-.03,.29,.01,.54,.12,.77,.11,.27,.3,.51,.52,.73h0c.1,.1,.22,.21,.34,.32,.76,.65,1.73,1.25,2.02,2.18,.27,.87-.14,1.8-.14,2.72,0,2.1,2.12,3.58,4.14,4.1,1.16,.3,2.37,.42,3.54,.65,.08,.02,.16,.03,.24,.05,.79,.17,1.57,.39,2.3,.76,.43,.22,.84,.5,1.11,.9,.44,.69,.32,1.54,.24,2.38,0,.08-.02,.17-.02,.25-.03,.53-.02,1.05,.18,1.53,.68,1.57,3.06,1.77,3.77,3.33,.48,1.03,.02,2.23-.44,3.27-.54,1.23-1.24,2.6-2.25,3.39-.09,.08-.19,.14-.29,.21-.39,.25-.82,.42-1.31,.48-1.74,.21-3.39-1.18-5.04-1.6-.08-.02-.16-.04-.24-.05-.51-.09-1.03-.09-1.54,.11-1.02,.39-1.69,1.45-2.73,1.81-1.46,.51-2.96-.54-4.45-.96-1-.29-2.1-.27-3.09,.05-.09,.03-.18,.06-.27,.1-.32,.13-.63,.29-.93,.5-1.22,.85-1.97,2.38-1.79,3.85,.13,1.05,.65,2.24,.49,3.19-.02,.08-.03,.17-.07,.24-.07,.24-.2,.45-.4,.64-.69,.66-1.91,.53-2.54,1.24-.69,.78-.25,2.03,.41,2.85,.66,.81,1.54,1.54,1.72,2.56Z"/><path class="e" d="M179.87,103.13c1.46,.51,3.03,1.22,3.63,2.65,.15,.37,.23,.8,.04,1.15-.48,.89-1.82,.35-2.82,.42-1.19,.09-2.03,1.15-2.79,2.08-.76,.92-1.83,1.87-3,1.6-.68-.16-1.2-.71-1.86-.95-1.9-.69-3.81,1.45-5.82,1.22-1.12-.13-2.03-.97-2.64-1.91-.61-.94-1.01-2.01-1.62-2.95-.83-1.3-2.05-2.35-3.46-2.97-.74-.33-1.54-.55-2.14-1.09-.6-.54-.89-1.54-.36-2.15,.34-.39,.89-.49,1.4-.55,6.82-.82,15.07,1.2,21.44,3.45Z"/><path class="e" d="M116.66,112.38c.13,.04,.25,.08,.38,.11,2.54,.7,5.24-.05,7.7-.99,.05-.02,.09-.04,.14-.05,.04-.02,.08-.03,.12-.05,.35-.13,.69-.27,1.03-.41,.15-.06,.29-.11,.43-.17,1.52-.64,3.02-1.34,4.47-2.1,1.71-.9,3.57-1.91,5.48-1.61,.26,.04,.51,.11,.76,.19,.08,.03,.16,.06,.24,.09,2.29,.89,4.06,3.3,6.54,3.45,1.62,.09,3.11-.81,4.69-1.14,.07-.02,.13-.03,.19-.04l.26-.05c3.06-.45,6.12,1.15,8.68,2.97,.76,.54,1.63,1.12,2.51,1.2,.08,0,.16,0,.24,0,.2,0,.4-.04,.59-.11,.42-.91,.25-1.94-.24-2.84-.07-.12-.13-.23-.21-.35-.3-.46-.68-.88-1.09-1.22-1.29-1.07-2.91-1.71-4.17-2.82-.64-.56-1.18-1.24-1.67-1.94-.07-.1-.14-.19-.2-.29-1.05-1.56-1.94-3.28-3.29-4.45-.08-.07-.16-.13-.23-.19-.33-.26-.69-.48-1.07-.68-2.29-1.11-4.99-.4-7.53-.36-.99,.02-1.97-.07-2.93-.27-.08-.01-.16-.03-.24-.04-1.09-.23-2.15-.59-3.15-1.07-1.85-.89-3.48-2.17-5.31-3.09-.64-.33-1.3-.6-1.97-.83-.26,.28-.52,.56-.77,.85-.1,.11-.2,.22-.29,.33-1.2,1.37-2.33,2.81-3.37,4.31-.05,.08-.11,.15-.15,.22-2.2,3.18-4.04,6.64-5.45,10.29-.03,.08-.06,.16-.09,.24-.37,.96-.7,1.93-1.01,2.91Z"/><path class="e" d="M114.4,127.26v4.6s.08,.08,.12,.12h0c.67,.63,1.45,1.13,2.32,1.43,.3,.11,.63,.2,.95,.27,.1,.02,.2,.04,.3,.07,1.37,.29,2.8,.44,3.91,1.09,.08,.04,.16,.1,.24,.15,.27,.19,.52,.42,.73,.69,.05,.07,.1,.14,.15,.21,1.5,2.25-.28,5.55,.68,8.14,.14,.38,.33,.72,.57,1.04,.07,.1,.15,.2,.23,.29h0c.82,.97,2.01,1.66,3.19,2.2,1.03,.48,2.19,.99,2.63,2.03,.59,1.41-.44,2.94-.55,4.47-.09,1.22,.51,2.38,1.45,3.17,.08,.07,.15,.13,.23,.19h0c.82,.62,1.85,.96,2.87,.87,2.35-.21,4.26-2.41,4.43-4.76,.06-.81-.04-1.69,.37-2.39,.89-1.52,3.21-1.01,4.92-1.5,.09-.02,.18-.05,.27-.09,.28-.1,.54-.24,.77-.44h0c.08-.07,.16-.14,.23-.22h0c1.05-1.19,.41-2.95-.43-4.37h0l-.21-.35c-.04-.06-.08-.13-.12-.19-.99-1.5-1.94-3.58-.75-4.9,.41-.46,.95-.67,1.55-.72,.08-.01,.16-.02,.25-.01,.94-.02,1.98,.31,2.86,.67,1.44,.59,2.87,1.18,4.31,1.76,1.12,.46,2.28,.93,3.49,.96,.21,0,.41,0,.63-.03,.09-.01,.17-.03,.26-.05,.91-.17,1.76-.66,2.2-1.46,0,0,0-.02,.01-.02,.04-.08,.08-.15,.11-.23,.32-.75,.35-1.62,.84-2.28,1.21-1.59,3.76-.54,5.72-.97,2.41-.52,3.64-3.51,3-5.88-.04-.15-.09-.29-.14-.44-.03-.09-.07-.19-.11-.28-.81-2.02-2.61-3.57-4.5-4.7-1.6-.96-3.33-1.72-4.93-2.66h0c-.08-.05-.16-.1-.23-.14h0c-.44-.27-.86-.54-1.27-.84-.88-.64-1.71-1.42-2.16-2.41-.45-.97-.52-2.09-1.01-3.03-.02-.03-.03-.06-.05-.09-.05-.1-.11-.2-.18-.29-.97-1.43-2.85-2.1-4.61-2.1-.47,0-.94,.04-1.4,.1-.09,.01-.17,.02-.26,.04-.69,.11-1.37,.27-2.06,.44-.2,.05-.39,.1-.59,.15-.44,.11-.87,.22-1.31,.32-1.86,.41-3.88,.62-5.61-.18-.71-.33-1.38-.81-2.06-1.23h0c-.08-.05-.16-.1-.24-.15-.85-.51-1.72-.88-2.67-.68-1.78,.37-2.6,2.57-4.28,3.25-1.57,.63-3.3-.25-4.99-.29-.09,0-.17,0-.26,0-.03,0-.05,0-.08,0-2.51,.11-6.48,2.29-8.61,3.68-.21,.14-.41,.29-.6,.45h0c-.03,.17-.05,.34-.07,.51-.02,.08-.03,.17-.04,.25-.3,2.21-.46,4.47-.46,6.76Z"/></g></g><g class="m"><g><polygon class="j" points="201.5 169.79 201.75 169.83 202.93 159.66 202.97 159.41 203.06 158.61 203.89 151.49 204.25 148.36 204.28 148.11 204.48 146.42 205.25 139.79 205.25 139.78 205.57 137.06 205.6 136.8 206.32 130.6 206.89 125.75 206.92 125.5 208.2 114.45 208.24 114.2 208.79 109.4 209.25 105.41 209.28 105.24 209.16 105.22 209.03 105.19 208.56 109.24 208.56 109.24 207.99 114.15 207.95 114.4 206.66 125.45 206.64 125.71 206.64 125.71 206.03 130.93 205.35 136.76 205.32 137.01 205.04 139.48 204.2 146.65 204.2 146.66 204.03 148.06 204.01 148.31 203.65 151.32 202.79 158.69 202.72 159.36 202.69 159.62 201.5 169.79"/><polygon class="j" points="189.76 168.12 189.95 168.15 190.01 168.16 190.01 168.15 191.25 157.53 191.28 157.28 192.57 146.22 192.59 145.98 193.88 134.96 193.88 134.92 193.91 134.67 195.2 123.62 195.23 123.37 195.61 120.06 196.52 112.31 196.55 112.07 196.75 110.32 197.58 103.16 197.34 103.12 196.5 110.29 196.3 112.02 196.27 112.27 195.37 120.01 194.98 123.32 194.95 123.57 193.66 134.63 193.64 134.88 193.63 134.91 192.35 145.93 192.32 146.18 191.03 157.23 191 157.48 189.76 168.12"/><polygon class="j" points="189.76 168.12 189.95 168.15 190.01 168.16 190.01 168.15 191.25 157.53 191.28 157.28 192.57 146.22 192.59 145.98 193.88 134.96 193.88 134.92 193.91 134.67 195.2 123.62 195.23 123.37 195.61 120.06 196.52 112.31 196.55 112.07 196.75 110.32 197.58 103.16 197.34 103.12 196.5 110.29 196.3 112.02 196.27 112.27 195.37 120.01 194.98 123.32 194.95 123.57 193.66 134.63 193.64 134.88 193.63 134.91 192.35 145.93 192.32 146.18 191.03 157.23 191 157.48 189.76 168.12"/><polygon class="j" points="178.02 166.45 178.27 166.48 179.34 157.26 179.56 155.39 179.59 155.15 180.88 144.09 180.91 143.84 181.83 135.92 182.19 132.79 182.22 132.54 183.51 121.48 183.54 121.24 184.83 110.18 184.86 109.94 184.93 109.31 185.11 107.83 185.11 107.83 185.89 101.09 185.64 101.04 184.61 109.89 184.58 110.14 183.29 121.19 183.26 121.44 181.98 132.49 181.95 132.74 181.56 136.02 180.66 143.8 180.63 144.05 179.34 155.1 179.31 155.35 179.13 156.94 179.13 156.95 178.02 166.45"/><polygon class="j" points="166.28 164.77 166.52 164.8 167.87 153.26 167.9 153.01 167.9 153.01 169.19 141.96 169.22 141.71 170.51 130.65 170.53 130.41 171.82 119.35 171.85 119.1 172.91 110.03 173.14 108.05 173.17 107.8 173.93 101.29 173.93 101.29 174.19 99.01 173.94 98.96 173.68 101.23 172.92 107.76 172.89 108 172.66 109.97 171.61 119.06 171.58 119.31 170.29 130.36 170.26 130.61 168.97 141.66 168.94 141.91 167.65 152.97 167.62 153.22 166.28 164.77"/><polygon class="j" points="154.53 163.09 154.78 163.13 156.18 151.13 156.21 150.88 157.29 141.68 157.5 139.82 157.53 139.58 158.82 128.52 158.85 128.27 159.49 122.75 160.13 117.22 160.16 116.97 160.53 113.79 160.88 110.85 161.45 105.92 161.48 105.67 161.58 104.8 162.2 99.49 162.5 96.93 162.25 96.89 161.95 99.49 161.35 104.6 161.23 105.62 161.2 105.87 160.67 110.49 160.67 110.5 160.28 113.79 159.92 116.93 159.89 117.17 159.25 122.6 159.25 122.61 158.6 128.23 158.57 128.48 157.28 139.53 157.25 139.78 157.02 141.72 155.96 150.83 155.93 151.09 154.53 163.09"/><polygon class="j" points="142.79 161.42 143.04 161.46 144.43 149.57 144.49 149 144.52 148.75 145.02 144.54 145.02 144.54 145.73 138.37 145.81 137.69 145.84 137.45 147.13 126.39 147.16 126.14 148.45 115.09 148.47 114.84 148.58 113.95 148.58 113.95 149.09 109.62 149.76 103.78 149.79 103.54 150.23 99.77 150.8 94.85 150.56 94.81 150 99.57 149.55 103.49 149.52 103.74 148.82 109.66 148.32 113.99 148.32 113.99 148.23 114.79 148.2 115.04 146.91 126.1 146.88 126.35 145.59 137.4 145.56 137.65 145.48 138.38 144.8 144.19 144.27 148.7 144.25 148.95 144.16 149.65 142.79 161.42"/><polygon class="j" points="131.05 159.75 131.3 159.78 131.57 157.44 131.57 157.43 132.81 146.86 132.84 146.62 134.12 135.56 134.15 135.31 135.44 124.26 135.47 124.01 136.7 113.48 136.76 112.95 136.79 112.71 137.41 107.39 138.07 101.65 138.1 101.41 138.47 98.27 139.11 92.77 138.86 92.73 138.22 98.22 137.86 101.36 137.83 101.6 137.16 107.3 136.54 112.66 136.51 112.91 136.46 113.33 136.46 113.34 135.22 123.96 135.19 124.21 133.9 135.27 133.87 135.52 132.59 146.57 132.56 146.82 131.34 157.24 131.05 159.75"/><path class="j" d="M119.31,158.07l.25,.04,1.56-13.38,.03-.25,1.11-9.49,.18-1.56,.03-.25,1.29-11.06,.03-.24,.73-6.27,.48-4.2,.07-.58,.03-.25,1.29-11.06,.03-.24,.6-5.2c-.1,.11-.2,.22-.29,.33l-.56,4.82-.03,.25-1.29,11.06-.03,.25-.08,.73-.48,4.1-.72,6.22-.03,.25-1.28,11.06-.03,.24-.17,1.45h0l-1.12,9.6-.03,.25-1.56,13.39Z"/></g><path class="j" d="M123.21,98.94l2.93,.53,.24,.04,8.98,1.64,2.46,.45,.24,.05,1.51,.27,9.93,1.81,.24,.04,3.97,.72,7.47,1.37,.25,.04,1.33,.24h0l10.1,1.84,.25,.05,5.14,.94h0l6.3,1.15,.24,.04,.97,.18,10.47,1.91,.24,.04,2.43,.45,9.01,1.64,.25,.05,4.63,.84c-.02-.09-.04-.19-.07-.27l-4.53-.83-.25-.04-9.04-1.65-2.4-.44-.25-.04-10.84-1.98h0l-.6-.11-.24-.05-6.14-1.12h0l-5.3-.97-.25-.04-10.34-1.88h0l-1.09-.21-.24-.04-7.71-1.4-3.73-.68-.25-.04-9.92-1.81-1.52-.28-.24-.04-2.44-.45-9-1.64-.24-.05-2.81-.51c-.05,.08-.11,.15-.15,.22Z"/><path class="j" d="M117.67,109.47l7.15,1.31,.25,.04,.96,.17,10.48,1.92,.24,.04,8.9,1.62h.02l2.53,.46,.24,.04,6.33,1.16,5.12,.93,.25,.05,11.44,2.08,.25,.04,11.44,2.09,.24,.04,11.44,2.08,.24,.05,4.04,.73,7.4,1.35h0l.25,.05,4.06,.74,3.34,.6c0-.09,0-.17,0-.26l-3.34-.61-4.02-.73-.26-.04-7.4-1.35-4.03-.73-.25-.04-11.44-2.09-.24-.05-11.44-2.08-.24-.04-11.44-2.09-.25-.04-5.32-.97-6.11-1.11-.25-.04-1.97-.36h-.02l-9.46-1.73-.24-.05-10.08-1.83-1.36-.25-.24-.04-7.1-1.3c-.03,.08-.06,.16-.09,.24Z"/><path class="j" d="M114.86,120.5l8.64,1.58,.25,.04,11.44,2.09,.24,.04,8.39,1.53,3.05,.56,.24,.04,.9,.16,10.54,1.93,.24,.04,10.22,1.86,1.22,.22,.25,.04,11.44,2.09,.24,.05,11.44,2.08,.24,.04,6.34,1.16,3.2,.58,1.91,.35,.24,.04,8.72,1.59v-.26l-8.68-1.58-.25-.05-1.94-.35-2.91-.53-6.6-1.2-.24-.04-11.44-2.09-.24-.04-11.44-2.08-.24-.05-1.37-.25-10.08-1.84-.25-.04-10.57-1.93-.87-.16-.25-.04-3-.55-8.44-1.54-.24-.04-11.44-2.08-.24-.05-8.64-1.58c-.02,.08-.03,.17-.04,.25Z"/><polygon class="j" points="114.4 131.7 114.4 131.96 114.52 131.98 114.52 131.98 117.47 132.52 118.4 132.69 122.18 133.38 122.43 133.43 129.21 134.67 129.75 134.77 133.88 135.52 134.12 135.56 135.91 135.89 145.56 137.65 145.81 137.69 157.25 139.78 157.5 139.83 159.49 140.19 168.94 141.91 169.19 141.96 179.28 143.8 180.63 144.05 180.88 144.09 192.32 146.18 192.33 146.18 192.56 146.22 202.89 148.11 202.9 148.11 204.01 148.31 204.25 148.36 214.28 150.19 214.28 149.93 204.28 148.11 204.03 148.06 203.04 147.88 192.59 145.98 192.35 145.93 192.33 145.92 180.9 143.84 180.66 143.79 179.34 143.55 169.22 141.71 168.97 141.67 159.61 139.96 159.6 139.96 157.53 139.58 157.28 139.53 145.84 137.45 145.59 137.4 137.34 135.89 134.15 135.31 133.9 135.26 129.83 134.52 129.16 134.4 122.46 133.18 122.22 133.14 118.47 132.45 117.36 132.24 114.4 131.7"/><polygon class="j" points="114.4 143.25 114.4 143.51 120.87 144.69 121.12 144.73 124.62 145.37 124.62 145.37 132.56 146.82 132.81 146.86 144.25 148.95 144.49 149 145.2 149.13 145.21 149.13 155.93 151.09 156.18 151.13 167.62 153.22 167.87 153.26 178.33 155.17 179.31 155.35 179.56 155.39 191 157.48 191.25 157.53 200.55 159.22 202.69 159.62 202.93 159.66 214.02 161.69 214.05 161.43 202.97 159.41 202.72 159.36 201.17 159.08 201.16 159.08 191.27 157.28 191.03 157.23 179.59 155.14 179.34 155.1 178.27 154.9 167.9 153.02 167.9 153.01 167.65 152.97 156.21 150.88 155.96 150.83 145.44 148.91 144.52 148.75 144.27 148.7 132.84 146.61 132.59 146.57 124.39 145.07 121.14 144.48 120.9 144.44 114.4 143.25"/></g><g><g><path class="k" d="M198.94,115.89s.08-.04,.08-.08v-4.87s-.04-.08-.08-.08-.08,.04-.08,.08v4.87s.04,.08,.08,.08Z"/><path class="f" d="M196.86,110.26c0,1.19,.96,2.15,2.15,2.15,1.19,0,2.15-.96,2.15-2.15,0-1.19-.96-2.15-2.15-2.15-1.19,0-2.15,.96-2.15,2.15Z"/></g><g><path class="k" d="M145.82,132.03s.08-.04,.08-.08v-4.87s-.04-.08-.08-.08-.08,.04-.08,.08v4.87s.04,.08,.08,.08Z"/><path class="f" d="M143.74,126.4c0,1.19,.96,2.15,2.15,2.15,1.19,0,2.15-.96,2.15-2.15,0-1.19-.96-2.15-2.15-2.15s-2.15,.96-2.15,2.15Z"/></g><g><path class="k" d="M137.43,107.07s.08-.04,.08-.08v-4.87s-.04-.08-.08-.08-.08,.04-.08,.08v4.87s.04,.08,.08,.08Z"/><path class="f" d="M135.34,101.43c0,1.19,.96,2.15,2.15,2.15s2.15-.96,2.15-2.15c0-1.19-.96-2.15-2.15-2.15-1.19,0-2.15,.96-2.15,2.15Z"/></g><g><path class="k" d="M210.94,127.89s.08-.04,.08-.08v-4.87s-.04-.08-.08-.08-.08,.04-.08,.08v4.87s.04,.08,.08,.08Z"/><path class="f" d="M208.85,122.25c0,1.19,.96,2.15,2.15,2.15,1.19,0,2.15-.96,2.15-2.15s-.96-2.15-2.15-2.15c-1.19,0-2.15,.96-2.15,2.15Z"/></g><g><path class="k" d="M192.33,146.5s.08-.04,.08-.08v-4.87s-.04-.08-.08-.08-.08,.04-.08,.08v4.87s.04,.08,.08,.08Z"/><path class="f" d="M190.24,140.87c0,1.19,.96,2.15,2.15,2.15,1.19,0,2.15-.96,2.15-2.15,0-1.19-.96-2.15-2.15-2.15-1.19,0-2.15,.96-2.15,2.15Z"/></g></g></g></g></g></g></g></svg>