<?xml version="1.0" encoding="UTF-8"?><svg xmlns="http://www.w3.org/2000/svg" xmlns:xlink="http://www.w3.org/1999/xlink" viewBox="0 0 632.44 401.44"><defs><style>.f,.g{fill:none;}.h{fill:#f9ae41;}.i{fill:#03aed7;}.j{fill:#f5ce44;}.k{fill:#f4f5d2;}.l{fill:#fff8e8;}.m{fill:#f1685a;}.n{fill:#fdf6e6;}.o{fill:#07aa7d;}.p{fill:#0e233f;}.q{fill:#1a2e35;}.g{stroke:#5ab78b;stroke-miterlimit:10;stroke-width:.75px;}.r{opacity:.34;}.s{clip-path:url(#e);}.t{clip-path:url(#d);}</style><clipPath id="d"><rect class="f" width="632.44" height="401.44"/></clipPath><clipPath id="e"><path class="f" d="M319.29,251.14h306.93v150.31h-223.29c-46.16,0-83.64-37.48-83.64-83.64v-66.67h0Z" transform="translate(945.52 652.58) rotate(-180)"/></clipPath></defs><g id="a"/><g id="b"><g id="c"><g class="t"><g><path class="j" d="M316.29,251.14h306.93v150.31h-223.29c-46.16,0-83.64-37.48-83.64-83.64v-66.67h0Z" transform="translate(939.52 652.58) rotate(-180)"/><g><polygon class="m" points="494.13 155.29 524.08 191.7 524.08 251.14 335.2 251.14 335.2 155.29 494.13 155.29"/><rect class="n" x="486.89" y="199.04" width="16.03" height="30.67"/><rect class="i" x="302.24" y="191.7" width="162.72" height="59.44"/><path class="j" d="M494.13,155.29l-28.72,36.4h-163.17s15.16-16.62,32.58-36.5l159.31,.09Z"/><rect class="n" x="324.43" y="209.7" width="7.87" height="15.06"/><rect class="n" x="349.06" y="209.7" width="7.87" height="15.06"/><rect class="n" x="373.7" y="209.7" width="7.87" height="15.06"/><rect class="n" x="398.33" y="209.7" width="7.87" height="15.06"/><rect class="n" x="422.96" y="209.7" width="7.87" height="15.06"/></g><g><path class="o" d="M-44.65,214.92v186.18H318.48v-113.6c0-12.13-.02-24.26,0-36.38v-36.21c0-1.85-.04-3.7-.09-5.53,0-.32-.02-.62-.02-.92-.22-6.45-.8-12.8-1.68-19.07-.04-.32-.07-.65-.15-.97-.49-3.38-1.07-6.73-1.74-10.04-.28-1.38-.58-2.79-.92-4.19-.22-.97-.45-1.94-.67-2.9,0-.04-.02-.07-.04-.11-.73-2.93-1.53-5.81-2.39-8.69-.09-.32-.19-.65-.3-.97-.82-2.71-1.72-5.4-2.67-8.06-.71-2.02-1.48-4.02-2.28-6-.82-2.04-1.66-4.08-2.56-6.08-.13-.32-.28-.62-.41-.92-.73-1.65-1.5-3.27-2.28-4.88-.15-.32-.32-.67-.5-.99-1.05-2.19-2.17-4.34-3.33-6.45-.04-.06-.06-.11-.09-.17-.28-.56-.62-1.1-.92-1.65-1.65-2.95-3.38-5.83-5.18-8.69-1.93-3.03-3.98-6.02-6.09-8.94-.07-.13-.17-.28-.28-.41-.13-.21-.3-.41-.45-.6-.07-.09-.15-.21-.22-.3-.79-1.1-1.61-2.17-2.43-3.25v-.02l-.04-.04-1.01-1.27v-.02c-1.22-1.55-2.47-3.08-3.74-4.6-1.68-2.02-3.42-4-5.22-5.94-.3-.36-.62-.69-.95-1.03-.41-.43-.8-.88-1.23-1.31-2.64-2.8-5.4-5.51-8.23-8.13-.34-.34-.71-.65-1.07-.99-1.78-1.63-3.57-3.18-5.42-4.73-.09-.09-.19-.17-.28-.24-.24-.21-.49-.41-.75-.62-2.49-2.07-5.03-4.08-7.65-6.02-.3-.24-.64-.5-.95-.71l-1.01-.73c-.32-.24-.65-.49-.99-.71-4.62-3.31-9.37-6.41-14.28-9.25h-.02c-1.31-.77-2.6-1.5-3.94-2.21-.39-.24-.82-.47-1.23-.69-.62-.34-1.23-.67-1.87-.99-.41-.22-.82-.45-1.23-.64-.32-.17-.64-.34-.97-.49-2.64-1.35-5.33-2.62-8.04-3.83l-1.57-.67c-.69-.3-1.38-.6-2.09-.88-.32-.15-.64-.28-.97-.41-1.18-.5-2.37-.97-3.57-1.44-.67-.26-1.36-.52-2.04-.77-2.09-.79-4.19-1.53-6.32-2.24-.34-.11-.64-.22-.97-.3-7.01-2.3-14.23-4.17-21.61-5.59-.32-.07-.64-.13-.95-.19-.67-.13-1.36-.26-2.04-.37-.3-.06-.64-.11-.95-.17-8.04-1.36-16.24-2.21-24.6-2.47-.32-.02-.64-.04-.95-.04-1.7-.06-3.4-.07-5.1-.07h-.28c-.32,0-.64,0-.93,.02-6.21,.02-12.3,.37-18.3,1.03-.32,.02-.65,.06-.95,.09-4.79,.54-9.51,1.25-14.17,2.17-.3,.06-.62,.11-.92,.19-3.2,.64-6.37,1.35-9.51,2.15-.34,.07-.65,.15-.97,.24-7.68,2-15.18,4.51-22.41,7.48-.3,.11-.58,.22-.88,.37-.43,.17-.86,.34-1.29,.52-.34,.13-.64,.26-.97,.41-1.98,.82-3.93,1.72-5.87,2.64-2.15,1.03-4.3,2.07-6.39,3.18-.06,.02-.09,.04-.13,.07-.62,.34-1.23,.64-1.85,.99-1.29,.67-2.58,1.38-3.85,2.11-.64,.36-1.25,.73-1.87,1.1-.21,.11-.41,.22-.62,.36-.75,.43-1.48,.88-2.21,1.31-.6,.37-1.22,.73-1.81,1.14-.34,.19-.65,.39-.97,.6-1.51,.97-3.01,1.94-4.49,2.95-.15,.11-.3,.21-.45,.32-.15,.09-.28,.19-.43,.28-.58,.39-1.16,.79-1.72,1.18-1.16,.82-2.32,1.65-3.46,2.5-1.07,.77-2.09,1.55-3.12,2.36-1.76,1.33-3.46,2.71-5.16,4.13-.97,.8-1.94,1.63-2.88,2.45-.97,.86-1.93,1.7-2.9,2.56-.21,.17-.43,.37-.64,.56-.09,.09-.21,.19-.32,.3-.26,.22-.49,.45-.75,.69-.84,.77-1.65,1.53-2.47,2.34-.84,.79-1.65,1.59-2.45,2.39-.41,.41-.8,.82-1.2,1.23-.47,.45-.9,.88-1.33,1.35-.17,.17-.36,.36-.52,.54-.88,.92-1.76,1.85-2.58,2.79-.3,.3-.58,.62-.88,.93-.02,.02-.04,.06-.06,.07-.43,.49-.86,.97-1.27,1.46-.04,.04-.09,.09-.13,.15-.09,.11-.19,.22-.3,.34-.04,.04-.09,.09-.13,.15-.24,.28-.5,.56-.75,.86-1.68,1.91-3.31,3.89-4.88,5.89-.69,.86-1.38,1.74-2.04,2.64-.67,.86-1.33,1.72-1.96,2.62-.06,.06-.09,.11-.15,.17-.24,.32-.49,.67-.73,1.01-.02,.02-.04,.04-.04,.06-.32,.43-.65,.88-.95,1.35-.43,.6-.82,1.2-1.25,1.79-.88,1.23-1.74,2.5-2.56,3.79-.52,.82-1.05,1.63-1.55,2.43-.21,.32-.39,.62-.58,.95-.56,.88-1.1,1.76-1.65,2.65-.19,.3-.39,.62-.56,.93-.49,.82-.95,1.63-1.42,2.45-.17,.3-.36,.6-.5,.88-.43,.75-.82,1.5-1.23,2.24-.52,.93-1.01,1.89-1.51,2.84-.17,.3-.32,.62-.47,.92-.17,.3-.32,.58-.47,.88-.02,.04-.04,.06-.04,.09-.28,.52-.52,1.08-.8,1.63-.17,.32-.34,.67-.5,.99-.41,.9-.86,1.79-1.27,2.71v.02c-.07,.13-.15,.28-.21,.41-.02,.06-.04,.09-.07,.15v.02c-.26,.58-.54,1.14-.8,1.72v.02c-.19,.41-.37,.82-.54,1.23-1.4,3.18-2.71,6.41-3.93,9.68-.37,.97-.71,1.91-1.05,2.88-.07,.22-.15,.43-.22,.67-.37,1.01-.71,2.04-1.05,3.07-.21,.65-.43,1.33-.62,1.98-.15,.45-.3,.9-.45,1.36-.11,.32-.21,.65-.28,.97-.32,1.05-.64,2.11-.93,3.16-.17,.6-.34,1.22-.47,1.81-.02,.07-.06,.17-.07,.24-.09,.34-.19,.65-.26,.97-.04,.06-.04,.11-.06,.17-.24,.92-.49,1.81-.69,2.73-.09,.34-.17,.64-.22,.97-.21,.75-.37,1.51-.54,2.28-.52,2.3-1.01,4.64-1.42,6.97-.19,.95-.36,1.91-.5,2.88-.06,.26-.11,.56-.13,.84-.17,.93-.3,1.83-.43,2.75,0,.06-.02,.11-.02,.15-.07,.32-.11,.65-.15,.97-.13,.88-.26,1.76-.36,2.64-.04,.34-.09,.64-.11,.97-.13,.86-.22,1.74-.3,2.6,0,.02-.04,.04,0,.07-.09,.67-.15,1.33-.21,2-.17,1.7-.3,3.4-.41,5.12-.04,.32-.06,.64-.07,.95-.13,2.22-.22,4.47-.28,6.73v.13c-.04,1.44-.06,2.86-.06,4.3Z"/><g><path class="k" d="M-44.65,214.95v186.17H318.48V214.95c0-2.1-.04-4.18-.11-6.26,0-.34-.02-.66-.04-.96-.24-6.21-.81-12.3-1.65-18.3-.04-.34-.08-.67-.15-.99-.75-5.31-1.76-10.54-2.98-15.67-.07-.32-.17-.64-.22-.96-.79-3.13-1.63-6.22-2.55-9.28-.09-.32-.19-.67-.28-.99-.82-2.7-1.72-5.38-2.7-8.04-.69-2.02-1.46-4.03-2.27-6.02-1.35-3.37-2.83-6.73-4.37-10.01-.17-.34-.32-.64-.47-.96-.15-.3-.28-.6-.41-.88-.17-.32-.32-.67-.52-1.01-1.03-2.17-2.16-4.33-3.3-6.45-.04-.04-.06-.09-.11-.15-.26-.56-.62-1.11-.92-1.65-1.65-2.96-3.37-5.83-5.17-8.68-.32-.49-.6-.97-.94-1.46v-.02c-.37-.56-.75-1.11-1.14-1.69v-.02c-1.29-1.93-2.64-3.86-4.01-5.76-.21-.34-.47-.69-.73-1.01-.88-1.2-1.78-2.4-2.68-3.6-.34-.43-.67-.86-.99-1.27-.24-.32-.51-.64-.75-.94-2.61-3.3-5.36-6.52-8.21-9.64-.32-.36-.64-.67-.97-1.01-.41-.43-.81-.88-1.24-1.31-2.62-2.81-5.38-5.51-8.21-8.14-.34-.34-.73-.66-1.07-.99-1.87-1.71-3.75-3.34-5.7-4.97l-3.79,.58-.97,.15-7.63,1.2-27.28,4.24-.96,.17-34.91,5.44-.97,.15v.02l-34.89,5.42-.97,.17-34.89,5.42-.97,.17-8.55,1.33-.38-.02-1.97-.11-22.27-1.24-2.17-.13-.97-.06-35.49-1.97-.98-.06-31.89-1.8c-.19,.21-.37,.39-.54,.64-.96,1.03-1.87,2.12-2.76,3.19-.32,.36-.6,.71-.88,1.09v.02c-.71,.81-1.35,1.63-2.01,2.46-.69,.86-1.39,1.74-2.02,2.62-.69,.86-1.33,1.72-1.97,2.62-.06,.06-.09,.11-.15,.17-.24,.32-.49,.67-.73,1.01-.02,.02-.04,.04-.04,.06-.32,.43-.66,.88-.96,1.35-.43,.58-.82,1.2-1.26,1.78-.86,1.24-1.72,2.51-2.55,3.81-.54,.82-1.07,1.61-1.56,2.42-.21,.34-.39,.62-.58,.96-.56,.88-1.11,1.76-1.65,2.64-.19,.32-.39,.64-.54,.94-.51,.82-.97,1.63-1.44,2.46-.13,.26-.28,.52-.43,.77-.04,.04-.06,.07-.08,.11-.17,.32-.34,.62-.49,.92h-.02c-.24,.43-.47,.88-.71,1.31-.53,.96-1.01,1.91-1.52,2.85-.32,.62-.62,1.2-.94,1.8-.28,.56-.54,1.14-.84,1.71-.17,.34-.32,.69-.51,1.01-.41,.9-.86,1.78-1.27,2.7v.02c-.07,.13-.13,.28-.19,.41-.49,1.03-.97,2.1-1.44,3.13-1.39,3.19-2.7,6.41-3.92,9.69-.37,.97-.69,1.91-1.03,2.89-.04,.09-.06,.17-.09,.26v.04c-.07,.11-.11,.22-.15,.36-.22,.66-.45,1.29-.66,1.95v.02c-.15,.37-.26,.73-.38,1.11-.22,.66-.43,1.33-.64,1.99-.13,.43-.28,.88-.45,1.35-.09,.32-.19,.67-.26,.99-.11,.3-.21,.64-.28,.97h-.02c-.09,.34-.19,.67-.28,.99h-.02c-.11,.39-.21,.79-.32,1.18-.19,.6-.36,1.22-.49,1.8-.15,.47-.28,.96-.37,1.41-.26,.92-.51,1.8-.71,2.72-.07,.34-.15,.62-.22,.97-.21,.75-.37,1.52-.54,2.29-.51,2.29-.99,4.61-1.41,6.96-.21,.96-.36,1.91-.51,2.89-.07,.26-.13,.56-.15,.84-.15,.94-.28,1.84-.41,2.74,0,.06-.02,.11-.02,.15-.07,.32-.11,.66-.15,.99-.13,.86-.26,1.74-.36,2.62-.04,.34-.09,.62-.11,.97-.15,.84-.22,1.72-.3,2.59,0,.02-.04,.04,0,.07-.09,.67-.15,1.35-.21,2.01-.09,.88-.17,1.76-.24,2.64-.02,.34-.06,.67-.07,1.01-.24,3.02-.38,6.07-.45,9.15v.13c-.04,1.44-.06,2.85-.06,4.31Z"/><path class="j" d="M19.32,319.11c6.17,3.95,10.94,10.98,10.06,18.25-.43,3.52-2.11,6.78-2.69,10.28-.81,4.88,.67,10.1,3.93,13.82,1.99,2.28,4.68,4.13,5.66,7,.53,1.53,.5,3.21,.23,4.81-1.6,9.49-11.5,15.89-21.11,16.35-9.61,.46-18.83-3.72-27.13-8.61-7.62-4.49-15.16-10.04-18.83-18.08-3.05-6.71-3.04-14.47-1.62-21.71,1.49-7.6,4.58-15.09,10.06-20.56,10.88-10.88,29.26-9.35,41.44-1.54Z"/><path class="m" d="M158.46,401.11h160.02V214.94c0-2.1-.04-4.18-.12-6.25,0-.33-.02-.65-.04-.96-.24-6.2-.8-12.29-1.65-18.29-.04-.33-.08-.67-.16-.98-.74-5.31-1.76-10.55-2.98-15.69-.08-.31-.16-.63-.22-.94-.78-3.14-1.63-6.24-2.55-9.29-.1-.31-.2-.67-.29-.98-.82-2.71-1.73-5.39-2.69-8.06-.71-2.02-1.47-4.02-2.27-6-1.35-3.39-2.82-6.75-4.37-10.02-.16-.33-.31-.65-.47-.96l-.41-.88c-.16-.31-.31-.67-.51-1-1.04-2.18-2.16-4.33-3.31-6.45-.04-.04-.06-.1-.1-.16-.27-.57-.63-1.1-.92-1.65-1.65-2.96-3.37-5.82-5.18-8.69-.31-.49-.61-.96-.94-1.45v-.02c-.37-.57-.75-1.12-1.14-1.69v-.02c-1.29-1.94-2.65-3.86-4.02-5.76-.2-.33-.47-.69-.73-1-.88-1.22-1.78-2.41-2.69-3.61-.33-.43-.67-.86-1-1.27-.24-.31-.49-.63-.74-.94-2.61-3.29-5.35-6.51-8.22-9.63-.31-.35-.63-.69-.96-1.02-.41-.43-.8-.88-1.24-1.31-2.63-2.8-5.39-5.51-8.22-8.14-.33-.33-.73-.65-1.08-.98-1.86-1.71-3.75-3.35-5.69-4.98l-3.78,.59-.98,.16-7.63,1.2c-.63,2.76-.71,5.71-.31,8.49,1,6.96,4.47,13.27,8,19.35,2.35,4,4.51,9.69,1,12.69-4.02,3.43-9.71-.96-14.55-3.08-11.43-5-25.24,5.88-26.35,18.31-1.1,12.43,7.31,24.08,17.78,30.88,10.49,6.78,22.86,9.82,34.78,13.55,10.35,3.24,20.53,7.06,30.45,11.47,5.61,2.49,11.25,5.26,15.45,9.75,4.18,4.47,6.65,11.04,4.71,16.86-.75,2.27-2.22,4.39-4.35,5.53-5.47,2.88-12.18-1.8-18.27-.63-12.57,2.41-10.9,24.86-23.14,28.61-5.41,1.65-11.14-1.39-15.35-5.14-4.22-3.76-7.78-8.41-12.76-11.04-10.75-5.69-25.22,.73-30.47,11.67-5.27,10.94-2.53,24.53,4.45,34.47,6.98,9.92,17.59,16.75,28.57,21.96,10.96,5.24,22.53,9.14,33.31,14.75,10.78,5.59,20.98,13.2,26.9,23.8,3.25,5.84,5.12,12.84,3.27,19.27-1.82,6.45-8.16,11.82-14.8,11-5.65-.71-9.88-5.31-14.86-8.06-8.53-4.67-20.76-2.84-25.9,5.41-1.94,3.1-2.82,6.82-5.1,9.67-3.96,4.94-11.27,5.98-17.43,4.49-6.16-1.49-11.59-5.02-17.24-7.88-14.39-7.31-34.27-9.51-44.84,2.73-5.65,6.57-7.06,15.76-5.69,24.43Z"/><path class="m" d="M-44.65,214.94v71.9c.06-.08,.1-.14,.16-.2,9.67-11.73,27.16-13.73,42.06-10.69,10.69,2.2,21.2,6.67,28.8,14.49,5.49,5.63,9.2,12.71,13.63,19.2,4.41,6.51,9.94,12.75,17.37,15.35,7.41,2.61,16.98,.35,20.51-6.69,4.92-9.88-4.1-21.9-1.1-32.53,2.31-8.2,11.43-12.96,19.94-12.96,8.53,0,16.57,3.71,24.2,7.47,4.57,2.26,9.29,4.61,14.39,4.75,5.08,.16,10.65-2.61,11.98-7.51,1.27-4.67-1.59-9.49-5.04-12.88-3.45-3.37-7.65-6.1-10.29-10.14-3.27-5.02-3.55-11.98-.27-16.98,3.29-5.02,10.14-7.55,15.73-5.43,5.08,1.92,8.63,7.06,13.92,8.18,6.75,1.45,13.65-5.92,11.8-12.55-2.49-8.8-15.33-11.04-18.35-19.69-1.75-5,.45-10.41,1.63-15.59,2.9-12.53-.51-26.33-8.9-36.08-8.39-9.74-21.55-15.18-34.37-14.2-4.04,.31-8.1,1.24-12.16,.84-8.74-.86-15.67-7.51-21.84-13.76-2.18-2.22-4.43-4.53-5.61-7.39-2.29-5.61-.1-11.98-.45-18.02-.1-1.69-.39-3.33-.86-4.9l-2.18-.12-.98-.06-35.49-1.98-.98-.06-31.88-1.78c-.18,.2-.37,.39-.55,.63-.94,1.04-1.86,2.12-2.75,3.2-.31,.35-.61,.71-.88,1.08v.02c-.71,.8-1.35,1.63-2,2.45-.71,.86-1.39,1.74-2.04,2.63-.69,.86-1.33,1.73-1.96,2.63-.06,.06-.1,.12-.16,.18-.24,.31-.49,.67-.73,1-.02,.02-.04,.04-.04,.06-.31,.43-.65,.88-.96,1.35-.43,.59-.82,1.2-1.25,1.78-.86,1.24-1.73,2.51-2.55,3.8-.53,.82-1.06,1.61-1.55,2.41-.22,.33-.39,.63-.59,.96-.55,.88-1.1,1.76-1.65,2.65-.18,.31-.39,.63-.55,.94-.49,.82-.96,1.63-1.43,2.45-.14,.25-.29,.53-.43,.76-.04,.04-.06,.08-.08,.12-.18,.31-.33,.61-.49,.92h-.02c-.24,.43-.47,.88-.71,1.31-.53,.94-1.02,1.9-1.53,2.84-.31,.61-.61,1.2-.92,1.8-.29,.55-.55,1.14-.84,1.71-.18,.33-.33,.69-.51,1-.41,.9-.86,1.78-1.27,2.71v.02c-.08,.14-.14,.27-.2,.41-.49,1.04-.98,2.1-1.43,3.14-1.39,3.18-2.71,6.41-3.92,9.69-.37,.98-.71,1.9-1.04,2.88-.04,.1-.06,.18-.1,.27v.02c-.06,.12-.1,.24-.14,.37-.24,.65-.45,1.29-.67,1.94v.02c-.14,.37-.25,.73-.37,1.1-.22,.67-.43,1.33-.63,2-.14,.43-.29,.88-.45,1.35-.1,.31-.2,.67-.27,.98-.1,.31-.2,.65-.27,.98h-.02c-.1,.33-.2,.67-.27,1h-.02c-.12,.39-.22,.78-.33,1.18-.18,.59-.35,1.22-.47,1.8-.16,.47-.29,.94-.39,1.39-.25,.92-.49,1.8-.71,2.73-.08,.33-.16,.63-.22,.98-.22,.75-.37,1.51-.55,2.27-.51,2.29-1,4.63-1.41,6.96-.2,.96-.35,1.92-.51,2.88-.06,.27-.12,.57-.14,.84-.16,.94-.29,1.84-.41,2.75,0,.06-.02,.12-.02,.16-.08,.31-.12,.65-.16,.98-.14,.86-.25,1.75-.35,2.63-.04,.33-.1,.63-.12,.98-.14,.84-.22,1.73-.29,2.59,0,.02-.04,.04,0,.08-.1,.67-.16,1.33-.22,2-.08,.88-.16,1.76-.24,2.65-.02,.33-.06,.67-.08,1-.24,3.02-.37,6.08-.45,9.16v.14c-.04,1.43-.06,2.84-.06,4.29Z"/><g class="r"><g><path class="q" d="M289.31,116.21c-.37-.57-.75-1.12-1.14-1.69l1.82,22.84,.08,.98,2.8,35.1,.08,.96,2.8,35.12,.08,.96,2.8,35.1,.08,.98,2.8,35.12,.08,.98,2.8,35.1,.08,.98,2.8,35.1,.08,.98,2.8,35.1,.08,.98,.82,10.22h.98l-.82-10.29-.08-.98-2.8-35.1-.08-.98-2.8-35.1-.08-.98-2.8-35.1-.08-.98-2.8-35.12-.08-.98-2.8-35.1-.08-.96-2.8-35.12-.08-.96-2.8-35.1-.08-.98-1.67-21.06v-.02Z"/><polygon class="q" points="248.84 76.6 251.03 104.15 251.11 105.13 253.91 140.25 253.99 141.23 256.8 176.33 256.88 177.29 259.68 212.41 259.76 213.37 262.56 248.48 262.64 249.45 265.44 284.56 265.52 285.54 268.33 320.64 268.4 321.62 271.21 356.72 271.29 357.7 274.09 392.8 274.17 393.78 274.76 401.11 275.74 401.11 275.15 393.7 275.07 392.72 272.27 357.62 272.19 356.64 269.38 321.54 269.31 320.56 266.5 285.47 266.42 284.48 263.62 249.37 263.54 248.41 260.74 213.29 260.66 212.33 257.86 177.21 257.78 176.25 254.97 141.15 254.89 140.17 252.09 105.05 252.01 104.07 249.82 76.45 248.84 76.6"/><polygon class="q" points="212.97 82.19 214.95 107.03 215.03 108.02 217.84 143.13 217.91 144.11 220.72 179.21 220.8 180.17 223.6 215.29 223.68 216.25 226.48 251.37 226.56 252.33 229.37 287.45 229.44 288.43 232.25 323.52 232.33 324.5 235.13 359.6 235.21 360.58 238.01 395.68 238.09 396.66 238.44 401.11 239.42 401.11 239.07 396.58 238.99 395.6 236.19 360.5 236.11 359.52 233.31 324.43 233.23 323.45 230.42 288.35 230.35 287.37 227.54 252.25 227.46 251.29 224.66 216.17 224.58 215.21 221.78 180.09 221.7 179.13 218.89 144.03 218.82 143.05 216.01 107.94 215.93 106.96 213.93 82.03 212.97 82.19"/><polygon class="q" points="177.09 87.78 177.09 87.8 178.88 109.92 178.95 110.9 181.76 146.01 181.84 147 184.64 182.09 184.72 183.05 187.52 218.17 187.6 219.13 190.39 254.25 190.46 255.21 193.27 290.33 193.35 291.31 196.15 326.41 196.23 327.39 199.03 362.48 199.11 363.46 201.91 398.56 201.99 399.54 202.13 401.11 203.11 401.11 202.97 399.46 202.9 398.48 200.09 363.39 200.01 362.41 197.21 327.31 197.13 326.33 194.33 291.23 194.25 290.25 191.44 255.13 191.37 254.17 188.58 219.05 188.5 218.09 185.7 182.98 185.62 182.01 182.82 146.92 182.74 145.94 179.93 110.82 179.86 109.84 178.07 87.64 177.09 87.78"/><polygon class="q" points="141.23 93.39 142.8 112.8 142.88 113.78 145.68 148.9 145.76 149.88 148.56 184.98 148.64 185.94 151.44 221.05 151.52 222.01 154.33 257.13 154.4 258.09 157.21 293.21 157.29 294.19 160.09 329.29 160.17 330.27 162.97 365.37 163.05 366.35 165.84 401.11 165.86 401.44 166.82 401.37 166.8 401.11 164.01 366.27 163.93 365.29 161.13 330.19 161.05 329.21 158.25 294.11 158.17 293.13 155.37 258.01 155.29 257.05 152.48 221.94 152.41 220.98 149.6 185.86 149.52 184.9 146.72 149.8 146.64 148.82 143.84 113.7 143.76 112.72 142.21 93.23 141.23 93.39"/><polygon class="q" points="105.37 98.98 106.7 115.68 106.78 116.66 109.58 151.76 109.66 152.74 112.46 187.86 112.54 188.82 115.37 223.94 115.42 224.9 115.42 224.92 118.25 260.01 118.33 260.98 121.13 296.09 121.21 297.05 121.21 297.07 124.01 332.17 124.09 333.15 126.9 368.25 126.97 369.23 129.52 401.11 130.48 401.11 127.93 369.15 127.86 368.17 125.05 333.07 124.97 332.09 122.17 296.99 122.09 296.01 119.29 260.9 119.21 259.94 116.41 224.84 116.33 223.86 113.52 188.74 113.44 187.78 110.64 152.68 110.56 151.7 107.76 116.58 107.68 115.6 106.35 98.82 105.37 98.98"/><polygon class="q" points="69.05 98.76 70.64 118.56 70.72 119.54 73.52 154.64 73.6 155.62 76.41 190.74 76.48 191.7 79.29 226.82 79.37 227.8 82.17 262.9 82.25 263.86 85.05 298.97 85.13 299.94 87.93 335.05 88.01 336.03 90.82 371.13 90.9 372.11 93.21 401.11 94.19 401.11 91.86 372.03 91.78 371.05 88.97 335.95 88.9 334.97 86.09 299.88 86.09 299.86 86.01 298.9 83.21 263.78 83.13 262.82 80.33 227.72 80.25 226.74 77.44 191.62 77.37 190.66 74.56 155.54 74.48 154.56 71.68 119.47 71.6 118.49 70.03 98.82 69.05 98.76"/><polygon class="q" points="32.58 96.72 34.56 121.45 34.64 122.43 37.44 157.52 37.52 158.5 40.33 193.62 40.41 194.58 43.21 229.7 43.27 230.68 46.07 265.78 46.15 266.74 48.95 301.86 49.03 302.82 51.84 337.94 51.92 338.92 54.72 374.01 54.8 374.99 56.9 401.11 57.88 401.11 55.78 374.92 55.7 373.94 52.9 338.84 52.82 337.86 50.01 302.74 49.94 301.78 47.13 266.66 47.05 265.7 44.25 230.6 44.17 229.62 41.37 194.5 41.29 193.54 38.48 158.43 38.41 157.45 35.6 122.35 35.52 121.37 33.56 96.78 32.58 96.72"/><path class="q" d="M-3.48,99.84v.02l1.94,24.47,.08,.98,2.8,35.1,.08,.98,2.8,35.12,.08,.96,2.8,35.12,.08,.98,2.8,35.1,.08,.96,2.8,35.12,.08,.96,2.8,35.12,.08,.98,2.8,35.1,.08,.98,1.86,23.24h.98l-1.86-23.31-.08-.98-2.8-35.1-.08-.98-2.8-35.12-.08-.96-2.8-35.12-.08-.96-2.8-35.1-.08-.98-2.8-35.12-.08-.96-2.8-35.12-.08-.98L-.48,125.23l-.08-.98-2.04-25.49c-.31,.35-.61,.71-.88,1.08Z"/></g><g><path class="q" d="M-21.93,126.96l20.47-1.65,.98-.08,35.12-2.8,.96-.08,35.12-2.8,.96-.08,35.1-2.8,.98-.08,35.12-2.8,.96-.08,35.12-2.8,.98-.08,35.1-2.8,.98-.08,35.1-2.8,.98-.08,27.65-2.2c-.24-.31-.49-.63-.74-.94l-26.98,2.16-.98,.08-35.1,2.8-.98,.08-35.1,2.8-.98,.08-35.12,2.8-.96,.08-35.12,2.8-.98,.08-35.1,2.8-.96,.08-35.12,2.8-.96,.08L-.55,124.25l-.98,.08-19.82,1.59s-.06,.08-.08,.12c-.18,.31-.33,.61-.49,.92Z"/><path class="q" d="M-37.52,164.51l2.86-.24,.98-.08,35.1-2.8,.98-.08,35.12-2.8,.96-.08,35.12-2.8,.96-.08,35.1-2.8,.98-.06,35.12-2.8,.96-.08,35.12-2.8,.98-.08,35.1-2.8,.98-.08,35.1-2.8,.98-.08,35.1-2.8,.98-.08,10.1-.8c-.16-.33-.31-.65-.47-.96l-9.71,.78-.98,.08-35.1,2.8-.98,.08-35.1,2.8-.98,.08-35.1,2.8-.98,.08-35.12,2.8-.96,.08-35.12,2.8-.98,.06-35.1,2.8-.96,.08-35.12,2.8-.96,.08-35.12,2.8-.98,.08-35.1,2.8-.98,.08-2.49,.22h-.02c-.1,.33-.2,.67-.27,1Z"/><path class="q" d="M-44.14,201.35l12.37-1,.98-.08,35.1-2.8,.98-.08,35.12-2.8,.96-.08,35.12-2.8,.96-.08,35.1-2.8,.98-.08,35.12-2.8,.96-.08,35.12-2.8,.98-.08,35.1-2.8,.98-.08,35.1-2.8,.98-.08,35.1-2.8,.98-.08,19.61-1.57c-.08-.31-.16-.63-.22-.94l-19.47,1.55-.98,.08-35.1,2.8-.98,.08-35.1,2.8-.98,.08-35.1,2.8-.98,.08-35.12,2.8-.96,.08-35.12,2.8-.98,.08-35.1,2.8-.96,.08-35.12,2.8-.96,.08-35.12,2.8-.98,.08-35.1,2.8-.98,.08-12.22,.96c-.02,.33-.06,.67-.08,1Z"/><path class="q" d="M-44.65,236.72v.98l15.76-1.25,.98-.08,35.1-2.8,.98-.08,35.1-2.8,.98-.08,35.12-2.8,.96-.08,35.1-2.8v-.02l.98-.06,35.12-2.82,.96-.08,35.12-2.8,.98-.08,35.1-2.8,.98-.08,35.1-2.8,.98-.08,35.1-2.8,.98-.08,21.55-1.73c0-.33-.02-.65-.04-.96l-21.59,1.73-.98,.08-35.1,2.8-.98,.08-35.1,2.8-.98,.08-35.1,2.8-.98,.08-35.12,2.8-.96,.08-35.12,2.8-.96,.08-35.12,2.8-.96,.08-35.12,2.8-.96,.08-35.12,2.8-.98,.08-35.1,2.8-.98,.08-15.69,1.25Z"/><polygon class="q" points="-44.65 273.03 -44.65 273.99 -26.01 272.5 -25.03 272.43 10.07 269.62 11.05 269.54 46.15 266.74 47.13 266.66 82.25 263.86 83.21 263.78 118.33 260.98 119.29 260.9 154.4 258.09 155.37 258.01 190.46 255.21 191.44 255.13 226.56 252.33 227.54 252.25 262.64 249.45 263.62 249.37 298.72 246.56 299.7 246.48 318.48 244.99 318.48 244.01 299.62 245.5 298.64 245.58 263.54 248.41 262.56 248.48 227.46 251.29 226.48 251.37 191.37 254.17 190.39 254.25 155.29 257.05 154.33 257.13 119.21 259.94 118.25 260.01 83.13 262.82 82.17 262.9 47.05 265.7 46.07 265.78 10.97 268.58 9.99 268.66 -25.1 271.47 -26.08 271.54 -44.65 273.03"/><polygon class="q" points="-44.65 309.35 -44.65 310.31 -23.12 308.58 -22.14 308.5 12.95 305.7 13.94 305.62 49.03 302.82 50.01 302.74 85.13 299.94 86.09 299.88 86.09 299.86 121.21 297.07 121.21 297.05 122.17 296.99 157.29 294.19 158.25 294.11 193.35 291.31 194.33 291.23 229.44 288.43 230.42 288.35 265.52 285.54 266.5 285.47 301.6 282.66 302.58 282.58 318.48 281.31 318.48 280.33 302.5 281.6 301.52 281.68 266.42 284.48 265.44 284.56 230.35 287.37 229.37 287.45 194.25 290.25 193.27 290.33 158.17 293.13 157.21 293.21 122.09 296.01 121.13 296.09 86.01 298.9 85.05 298.97 49.94 301.78 48.95 301.86 13.86 304.66 12.88 304.74 -22.22 307.54 -23.2 307.62 -44.65 309.35"/><polygon class="q" points="-44.65 345.66 -44.65 346.62 -20.24 344.68 -19.26 344.6 15.84 341.8 16.82 341.72 51.92 338.92 52.9 338.84 88.01 336.03 88.97 335.95 124.09 333.15 125.05 333.07 160.17 330.27 161.13 330.19 196.23 327.39 197.21 327.31 232.33 324.5 233.31 324.43 268.4 321.62 269.38 321.54 304.48 318.74 305.46 318.66 318.48 317.62 318.48 316.64 305.38 317.68 304.4 317.76 269.31 320.56 268.33 320.64 233.23 323.45 232.25 323.52 197.13 326.33 196.15 326.41 161.05 329.21 160.09 329.29 124.97 332.09 124.01 332.17 88.9 334.97 87.93 335.05 52.82 337.86 51.84 337.94 16.74 340.74 15.76 340.82 -19.34 343.62 -20.32 343.7 -44.65 345.66"/><polygon class="q" points="-44.65 381.95 -44.65 382.94 -17.36 380.76 -16.38 380.68 18.72 377.88 19.7 377.8 54.8 374.99 55.78 374.92 90.9 372.11 91.86 372.03 126.97 369.23 127.93 369.15 163.05 366.35 164.01 366.27 199.11 363.46 200.09 363.39 235.21 360.58 236.19 360.5 271.29 357.7 272.27 357.62 307.36 354.82 308.35 354.74 318.48 353.94 318.48 352.95 308.27 353.76 307.29 353.84 272.19 356.64 271.21 356.72 236.11 359.52 235.13 359.6 200.01 362.41 199.03 362.48 163.93 365.29 162.97 365.37 127.86 368.17 126.9 368.25 91.78 371.05 90.82 371.13 55.7 373.94 54.72 374.01 19.62 376.82 18.64 376.9 -16.46 379.7 -17.44 379.78 -44.65 381.95"/><polygon class="q" points="170.09 401.11 182.46 401.11 201.99 399.54 202.97 399.46 238.09 396.66 239.07 396.58 274.17 393.78 275.15 393.7 310.25 390.9 311.23 390.82 318.48 390.25 318.48 389.27 311.15 389.84 310.17 389.92 275.07 392.72 274.09 392.8 238.99 395.6 238.01 395.68 202.9 398.48 201.91 398.56 170.09 401.11"/></g></g></g><g><path class="i" d="M234.87,300.92c-1.43-8.37,1.42-17.11,8.22-22.43,11.58-9.06,29.21-4.37,35.01,9.01,1.25,2.89,1.89,6.03,1.88,9.17,0,2.13-.33,4.19-.88,6.15,.12,0,.19-.01,.18-.03l-.29,.45c-1.24,4.08-1.66,6-5.87,11.65l-15.02,20.92s-15.24-18.06-15.24-18.07c-3.96-4.72-6.94-10.7-7.99-16.82Z"/><path class="p" d="M242.47,296.61c-.02,7.85,6.32,14.24,14.18,14.27,7.85,.02,14.24-6.32,14.27-14.18,.02-7.85-6.32-14.24-14.18-14.27-7.85-.03-14.24,6.32-14.27,14.18Z"/></g><g><path class="i" d="M106.53,246.08c-1.43-8.37,1.42-17.11,8.22-22.43,11.58-9.06,29.21-4.37,35.01,9.01,1.25,2.89,1.89,6.03,1.88,9.17,0,2.13-.33,4.19-.88,6.15,.12,0,.19-.01,.18-.03l-.29,.45c-1.24,4.08-1.66,6-5.87,11.65l-15.02,20.92s-15.24-18.06-15.24-18.07c-3.96-4.72-6.94-10.7-7.99-16.82Z"/><path class="p" d="M114.13,241.76c-.02,7.85,6.32,14.24,14.18,14.27,7.85,.02,14.24-6.32,14.27-14.18,.02-7.85-6.32-14.24-14.18-14.27-7.85-.03-14.24,6.32-14.27,14.18Z"/></g><g><path class="i" d="M186.8,195.94c-1.43-8.37,1.42-17.11,8.22-22.43,11.58-9.06,29.21-4.37,35.01,9.01,1.25,2.89,1.89,6.03,1.88,9.17,0,2.13-.33,4.19-.88,6.15,.12,0,.19-.01,.18-.03l-.29,.45c-1.24,4.08-1.66,6-5.87,11.65l-15.02,20.92s-15.24-18.06-15.24-18.07c-3.96-4.72-6.94-10.7-7.99-16.82Z"/><path class="p" d="M194.4,191.63c-.02,7.85,6.32,14.24,14.18,14.27,7.85,.02,14.24-6.32,14.27-14.18,.02-7.85-6.32-14.24-14.18-14.27-7.85-.03-14.24,6.32-14.27,14.18Z"/></g><g><path class="i" d="M42.01,206.6c-1.43-8.37,1.42-17.11,8.22-22.43,11.58-9.06,29.21-4.37,35.01,9.01,1.25,2.89,1.89,6.03,1.88,9.17,0,2.13-.33,4.19-.88,6.15,.12,0,.19-.01,.18-.03l-.29,.45c-1.24,4.08-1.66,6-5.87,11.65l-15.02,20.92s-15.24-18.06-15.24-18.07c-3.96-4.72-6.94-10.7-7.99-16.82Z"/><path class="p" d="M49.62,202.29c-.02,7.85,6.32,14.24,14.18,14.27,7.85,.02,14.24-6.32,14.27-14.18,.02-7.85-6.32-14.24-14.18-14.27-7.85-.03-14.24,6.32-14.27,14.18Z"/></g><g><path class="i" d="M95.55,343.75c-1.43-8.37,1.42-17.11,8.22-22.43,11.58-9.06,29.21-4.37,35.01,9.01,1.25,2.89,1.89,6.03,1.88,9.17,0,2.13-.33,4.19-.88,6.15,.12,0,.19-.01,.18-.03l-.29,.45c-1.24,4.08-1.66,6-5.87,11.65l-15.02,20.92s-15.24-18.06-15.24-18.07c-3.96-4.72-6.94-10.7-7.99-16.82Z"/><path class="p" d="M103.15,339.44c-.02,7.85,6.32,14.24,14.18,14.27,7.85,.02,14.24-6.32,14.27-14.18,.02-7.85-6.32-14.24-14.18-14.27-7.85-.03-14.24,6.32-14.27,14.18Z"/></g><polygon class="p" points="-21.74 365.65 -13.43 369.93 -9.15 378.24 -4.86 369.93 3.44 365.65 -4.86 361.37 -9.15 353.06 -13.43 361.37 -21.74 365.65"/></g><g><path class="m" d="M176.86,155.73H494.07c0-40.85-30.87-75.06-71.5-79.29-95.08-9.9-245.72,.25-245.72,.25v79.04Z"/><path class="i" d="M363.5,99.11c0,13.44,10.9,24.34,24.34,24.34,13.44,0,24.34-10.9,24.34-24.34,0-13.44-10.9-24.34-24.34-24.34-13.44,0-24.34,10.9-24.34,24.34"/><path class="i" d="M309.93,60.49c0,15.64,12.68,28.32,28.32,28.32,15.64,0,28.32-12.68,28.32-28.32,0-15.64-12.68-28.32-28.32-28.32-15.64,0-28.32,12.68-28.32,28.32"/><rect class="q" x="385.59" y="107.17" width="2.26" height="45.13"/><polyline class="i" points="465.75 145.3 -12.31 145.3 -12.31 155.69 476.14 155.69"/><path class="q" d="M323.02,93.9l1.93-1.16,12.88,21.37v-38.25h2.26v57.23c7.99-4.64,10.46-12.73,10.48-12.82l1.08,.32-1.08-.32,2.17,.63c-.12,.41-2.96,9.79-12.65,14.75v18.64h-2.26v-35.82l-14.81-24.58Z"/><g><path class="j" d="M311.25,97.34h-22.06c-4.37,0-8.15-3.02-9.09-7.25l-4.36-19.62c-.6-2.7-3.05-4.63-5.88-4.63h-98.58c-2.81,0-5.25,1.9-5.87,4.59l-6.2,26.91h-.12v27.46c0,4.19,3.42,7.59,7.64,7.59h144.9c3.15,0,5.7-2.53,5.7-5.66v-23.33c0-3.34-2.73-6.05-6.1-6.05Z"/><g><ellipse class="q" cx="186.81" cy="129.75" rx="15.22" ry="15.12"/><path class="l" d="M176.04,129.75c0,5.9,4.82,10.69,10.77,10.69,5.95,0,10.77-4.79,10.77-10.69,0-5.9-4.82-10.69-10.77-10.69-5.95,0-10.77,4.79-10.77,10.69Z"/></g><g><ellipse class="q" cx="289.86" cy="129.75" rx="15.22" ry="15.12"/><path class="l" d="M279.1,129.75c0,5.9,4.82,10.69,10.77,10.69,5.95,0,10.77-4.79,10.77-10.69s-4.82-10.69-10.77-10.69c-5.95,0-10.77,4.79-10.77,10.69Z"/></g><path class="n" d="M171.42,96.61c-1.58,0-3.08-.69-4.1-1.9-1.02-1.21-1.45-2.78-1.17-4.33l3.01-16.98c.45-2.54,2.67-4.39,5.27-4.39h24.04c2.95,0,5.35,2.38,5.35,5.31v16.98c0,2.93-2.4,5.31-5.35,5.31h-27.05Z"/><path class="n" d="M251.19,96.61c-2.95,0-5.35-2.38-5.35-5.31v-16.98c0-2.93,2.4-5.31,5.35-5.31h15.94c2.6,0,4.82,1.85,5.27,4.39l3.01,16.98c.27,1.55-.15,3.13-1.17,4.33-1.02,1.2-2.51,1.9-4.1,1.9h-18.95Z"/><rect class="n" x="210.55" y="65.48" width="27.6" height="34.64" rx="2.78" ry="2.78" transform="translate(307.16 -141.55) rotate(90)"/><path class="o" d="M154.37,118.91h9.48c1.28,0,2.31,1.04,2.31,2.31v4.95c0,1.28-1.04,2.31-2.31,2.31h-9.48c-1.28,0-2.31-1.04-2.31-2.31v-4.95c0-1.28,1.04-2.31,2.31-2.31Z"/><path class="q" d="M257.23,105.67h-7.33c-.43,0-.77-.35-.77-.77h0c0-.43,.35-.77,.77-.77h7.33c.43,0,.77,.35,.77,.77h0c0,.43-.35,.77-.77,.77Z"/><path class="q" d="M216.07,105.67h-7.33c-.43,0-.77-.35-.77-.77h0c0-.43,.35-.77,.77-.77h7.33c.43,0,.77,.35,.77,.77h0c0,.43-.35,.77-.77,.77Z"/><path class="o" d="M312.86,118.91h9.48c1.28,0,2.31,1.04,2.31,2.31v4.95c0,1.28-1.04,2.31-2.31,2.31h-9.48c-1.28,0-2.31-1.04-2.31-2.31v-4.95c0-1.28,1.04-2.31,2.31-2.31Z"/><rect class="h" x="316.15" y="105.67" width="2.7" height="13.39"/></g></g><g class="s"><g><path class="o" d="M627.79,420.95s-.09,.01-.13,.02c-.12-.05-.24-.11-.36-.16,8.79-5.79,18.29-8.62,29.61-11.95l.11-.03c1.61-.47,3.25-.95,4.9-1.45,9.75-2.93,20.43-9.2,29.28-17.22,7.44-6.74,17.03-17.83,20.4-32.38,3.35-14.47-.3-28.8-10.57-41.45-7.11-8.76-13.49-14.89-18.14-19.37-2.19-2.11-4.67-4.49-5.98-6.05l-.23-.27,.17-.31c1.56-2.82,6.17-8.29,13.7-16.26,7.69-8.14,15.42-14.73,22.24-20.56,.81-.69,1.58-1.36,2.37-2.04,.46,.06,.92,.13,1.38,.19-1.01,.87-2.03,1.75-3.08,2.64-6.8,5.8-14.51,12.38-22.16,20.48-7.2,7.62-11.69,12.91-13.37,15.74,1.33,1.53,3.73,3.83,5.68,5.7,4.67,4.49,11.07,10.64,18.22,19.45,10.48,12.91,14.21,27.55,10.78,42.34-3.43,14.82-13.16,26.08-20.71,32.92-8.97,8.12-19.78,14.47-29.68,17.44-1.65,.5-3.29,.98-4.9,1.45l-.11,.03c-10.7,3.15-19.77,5.83-28.14,11.04-.41-.01-.83,0-1.27,.04Z"/><path class="o" d="M279.79,275.6c.39-.32,.73-.68,1.05-1.07,1.58-.59,2.79-1.73,3.59-3.13,9.2-4.28,15.61-10.38,20.03-17.84,1.99-.52,3.47-1.86,4.36-3.54,.63-.26,1.23-.58,1.78-.98-5.5,12.72-14.54,21.52-27.48,26.75-1.76,.71-3.45,1.47-5.12,2.26,.31-.4,.61-.8,.89-1.19,.31-.41,.59-.84,.89-1.25Z"/><path class="o" d="M613.62,418.51c-.62-.27-1.26-.47-1.9-.55-.81-.1-1.65-.14-2.49-.12,13.59-13.19,27.86-17.4,43.82-22.09,1.63-.48,3.27-.96,4.93-1.46,12.9-3.87,33.72-17.95,39.63-37.14,.26-.83,.48-1.65,.67-2.48,2.39-10.33-.25-20.32-7.88-29.71-6.59-8.11-12.36-13.66-17-18.12-7.11-6.83-11.4-10.95-10.67-17.05,.72-6.01,6.58-13.17,17.86-25.11,5.72-6.06,11.36-11.22,16.65-15.84,1.5,.23,2.99,.46,4.49,.68-5.86,5.06-12.21,10.74-18.63,17.53-10.28,10.88-16.34,18.15-16.94,23.14-.52,4.38,3.08,7.84,9.63,14.14,4.71,4.53,10.57,10.16,17.29,18.44,8.88,10.94,11.59,23.18,7.83,35.39-5.7,18.52-25.8,34.6-41.94,39.44-1.67,.5-3.32,.99-4.95,1.47-14.68,4.32-27.9,8.22-40.4,19.45Z"/><path class="o" d="M252.78,396.8c6.64,10.6,15.06,20.94,25.2,30.62l.04,.04c.34,.35,34.74,34.98,62.22,21.32,14.39-7.15,29.82-2.31,43.42,1.97,14.42,4.53,26.88,8.45,34.51-2.75,3.85-5.65,6.87-12.45,9.8-19.04,5.67-12.78,11.03-24.85,21.93-28.29,7.63-2.42,17.04-.17,28.79,6.87,11.81,7.08,20.14,12.81,26.22,17,15.01,10.34,16.24,11.18,25.85,3.21,6.58-5.45,15.75-1.69,25.62,3.13-.07,.14-.14,.27-.19,.41-.36,.92-.64,1.88-.9,2.84,0,.02-.01,.04-.02,.06-8.98-4.4-17.26-7.94-22.29-3.77-11.63,9.64-14.8,7.46-30.03-3.03-6.04-4.16-14.31-9.86-26.03-16.88-10.84-6.5-19.33-8.63-25.96-6.54-9.41,2.98-14.46,14.36-19.81,26.4-2.99,6.73-6.07,13.68-10.1,19.58-9.09,13.32-23.33,8.84-38.41,4.1-13.62-4.28-27.7-8.71-40.85-2.17-12.37,6.15-27.79,4.25-44.6-5.49-12.33-7.15-21.03-15.89-21.62-16.49-7.66-7.32-14.35-15.02-20.08-22.92l.02-.12c.39-2.64-.62-5.04-2.42-6.68-.02-.78-.2-1.5-.5-2.17,.09-.41,.16-.81,.2-1.21Z"/><path class="o" d="M252.43,337.11c5.32-22.94,23.9-43.91,51.71-58.07,12.75-6.49,18.2-20.84,20.44-38.46,.37-.19,.74-.37,1.12-.57-2.21,18.24-7.77,33.18-21.08,39.96-29.37,14.96-48.34,37.54-52.04,61.94-3.88,25.51,8.21,52.15,35.93,79.17,9.1,8.87,33.81,22.37,49.7,13.38,15.39-8.71,29.61-4.36,42.16-.52,12.19,3.73,21.82,6.67,28.72-3.42,1.5-2.19,3.03-4.56,4.64-7.06,13.55-21,32.11-49.76,70.72-25.52l.96,.6q34.77,21.83,47.32,11.46l.45-.37c6.01-4.96,15.46,.14,25.46,5.53,3.66,1.97,7.35,3.96,10.96,5.55-.01,0-.02,0-.03,.02-.37,.2-.71,.41-1.04,.63-3.5-1.56-7-3.45-10.38-5.28-9.68-5.22-18.83-10.16-24.31-5.64l-.45,.37q-13.14,10.85-48.54-11.38l-.96-.6c-16.75-10.52-31.03-11.91-43.64-4.26-10.92,6.62-18.74,18.76-25.65,29.46-1.62,2.51-3.15,4.88-4.66,7.08-7.34,10.72-17.79,7.52-29.89,3.82-12.35-3.78-26.35-8.06-41.35,.43-16.57,9.37-41.35-4.19-50.94-13.54-27.97-27.26-40.16-54.2-36.23-80.07,.24-1.55,.53-3.1,.89-4.64Z"/><path class="o" d="M595.04,416.91c.06-.08,.11-.15,.17-.23,16.96-24.73,33-31.07,52.21-36.79,15.66-4.66,23.95-15.15,26.49-23.4,3.1-10.07-.13-21.35-9.34-32.64-23.82-29.21-23.33-35.94,4.71-65.51,4.34-4.58,8.64-8.47,12.71-11.91,.44,.07,.89,.14,1.33,.22-4.24,3.55-8.75,7.63-13.29,12.41-27.77,29.28-28.2,35.27-4.66,64.14,9.44,11.57,12.72,23.19,9.52,33.6-2.62,8.51-11.14,19.31-27.19,24.09-18.95,5.65-34.79,11.9-51.51,36.18-.39-.05-.78-.11-1.17-.15Z"/><path class="o" d="M406.56,216.21c5.06,4.15,10.22,6.54,15.39,6.21,4.69-.29,9.2-2.93,13.52-7.74,.02,0,.03,0,.05,0,.47,.07,.92,.09,1.36,.09-4.67,5.44-9.6,8.35-14.86,8.68-5.63,.35-11.2-2.33-16.63-6.92,.41-.08,.8-.19,1.17-.33Z"/><path class="o" d="M265.95,336.64c.03-.13,.06-.26,.09-.38,5.07-21.86,24.96-40.73,53.32-50.53,15.09-5.22,19.6-26.61,20.61-51.88,.36-.04,.71-.1,1.04-.2-1.02,25.75-5.64,47.63-21.32,53.05-28.01,9.69-47.66,28.28-52.64,49.79-.03,.13-.06,.25-.09,.38-5.03,22.53,5.92,47.71,31.68,72.81,8.68,8.46,29.54,16.02,44.53,7.54,14.14-8,26.46-5.41,36.36-3.33,10.21,2.14,18.28,3.84,24.83-5.74,9.4-13.73,19.6-23.35,30.32-28.58,15.82-7.72,32.79-6.02,50.43,5.06,3.64,2.29,6.84,4.32,9.66,6.11q20.81,13.23,28.41,6.65c.89-.77,1.89-1.64,3.03-2.58,5.61-4.63,14.58-.11,24.09,4.68,12.9,6.49,26.23,13.21,34.75,.8,12.39-18.06,25.98-21.29,40.37-24.72,3.57-.85,7.26-1.73,11.02-2.85,10.05-2.99,17.18-9.18,19.58-16.97,.14-.47,.27-.94,.38-1.42,2.11-9.09-1.76-19.99-11.27-31.65-22.91-28.09-19.23-39.39,6.37-66.38,4.33-4.57,8.57-8.5,12.58-12.08,.64,0,1.24-.07,1.8-.21-4.32,3.82-8.93,8.04-13.63,13-12.18,12.84-19.96,22.78-21.1,32.62-1.04,8.99,3.1,18.07,14.78,32.39,10.23,12.55,14.06,24.32,11.07,34.03-2.5,8.13-9.89,14.57-20.28,17.66-3.79,1.13-7.49,2.01-11.08,2.86-14.81,3.53-27.6,6.57-39.76,24.3-9.03,13.16-23.39,5.93-36.07-.46-9.19-4.63-17.87-9-22.96-4.8-1.13,.93-2.13,1.8-3.02,2.56-8.18,7.08-8.59,6.83-29.65-6.56-2.82-1.79-6.02-3.82-9.66-6.11-17.32-10.87-33.94-12.55-49.42-5-10.56,5.15-20.63,14.65-29.92,28.24-6.94,10.15-15.73,8.3-25.9,6.17-10.24-2.15-21.84-4.58-35.64,3.22-15.43,8.73-36.85,.99-45.76-7.7-26.03-25.37-37.09-50.89-31.97-73.78Z"/><path class="o" d="M329.29,340.61c7.77-33.51,39.8-82.15,62.92-95.53,10.79-6.24,17.36-3.76,20.98-.57,21.57,18.98,35.4,30.33,45.54,27.83,6.61-1.63,12.16-9.13,17.99-24.32,3.82-9.95,10.24-19.94,18.48-29.16l4.16,.61c-8.61,9.27-15.45,19.5-19.4,29.79-6.28,16.36-12.57,24.52-20.39,26.44-12.02,2.96-26.32-8.94-48.65-28.6-4.02-3.54-9.73-3.21-16.96,.97-13.28,7.68-30.09,27.57-43.87,51.9-13.93,24.59-21.04,47.48-18.55,59.76,1.24,6.11,4.67,9.44,10.5,10.17,43.77,5.48,68-13.44,91.43-31.73,6.73-5.26,13.09-10.22,19.91-14.66,12.02-7.82,25.76-9.13,42.01-4.03,13.94,4.38,27.98,12.96,40.36,20.54,4.88,2.99,9.49,5.81,13.93,8.29,7.87,4.41,14.15,5.17,18.65,2.27,3.62-2.33,6.27-7.14,7.86-13.98,1.78-7.68,2.22-17.92,1.2-30.12-1.28-15.24,9.73-32.89,20.38-49.96,4.32-6.92,8.66-13.92,12.17-20.73l3.61,.53c-3.66,7.27-8.27,14.7-12.84,22.03-10.35,16.59-21.05,33.75-19.87,47.84,1.2,14.33,1.42,39.54-10.63,47.3-5.67,3.65-13.14,2.92-22.22-2.16-4.5-2.52-9.14-5.36-14.05-8.36-25.15-15.39-53.65-32.82-78.67-16.56-6.7,4.36-13,9.27-19.67,14.48-23.99,18.73-48.79,38.1-93.99,32.44-7.28-.91-11.94-5.38-13.47-12.92-1.1-5.45-.59-12.24,1.17-19.81Z"/><path class="o" d="M447.57,222.05c.61-2.38,1.3-4.86,2.02-7.38,.37,.03,.73,.04,1.07,.02-.74,2.6-1.45,5.16-2.08,7.62-2.54,9.84-7.77,33.01-1.5,35.52,4.78,1.91,15.56-9.55,25.06-26.66,2.81-5.06,5.87-9.83,9.15-14.36l1.15,.17c-3.38,4.62-6.52,9.51-9.39,14.7-8.24,14.84-20,29.66-26.35,27.12-4.64-1.85-4.81-12.54-.52-31.03,.42-1.83,.89-3.73,1.4-5.7Z"/><path class="o" d="M458.97,215.05c.08,.01,.15,.03,.22,.04,.28,.04,.56,.07,.83,.08-6.53,21.93-5.56,25.52-4.66,25.91,.57,.25,3.98-.09,18.74-25.34l1.1,.16c-2.53,4.32-5.24,8.82-7.86,12.85-8.39,12.91-11.03,13.88-12.4,13.28-1.29-.56-2.1-2.96,.29-13.27,.82-3.54,2.04-8.06,3.73-13.72Z"/><path class="o" d="M357.18,323.99c1.79-7.72,4.17-15.34,7.01-22.3,4.37-10.7,11.85-24.91,22.69-31.82,6.6-4.2,13.43-5,20.31-2.37,7.14,2.73,14.42,6.58,21.45,10.3,14.35,7.59,27.91,14.75,37.67,11.11,4.64-1.73,8.13-5.77,10.68-12.35,6.79-17.54,20.42-39.33,37.16-54.89l1.27,.19c-16.86,15.46-30.63,37.45-37.46,55.08-2.66,6.87-6.35,11.11-11.29,12.95-10.19,3.81-23.95-3.46-38.51-11.16-7.01-3.7-14.26-7.54-21.34-10.24-6.56-2.51-13.08-1.74-19.38,2.28-17.9,11.41-30.66,47.38-32.65,75.56-.44,6.29,.85,10.24,3.95,12.1,10.47,6.27,40.89-12.88,70.31-31.39,11.2-7.05,22.78-14.34,33.57-20.47,15.87-9.02,31.31-10.63,47.22-4.93,13.39,4.8,24.22,13.75,32.92,20.93,6.08,5.02,10.87,8.98,14.25,9.52,1.87,.3,3.31-.14,4.41-1.33,.91-.99,1.52-2.41,1.92-4.12,2.05-8.87-1.9-25.18-1.97-25.46-6.43-25.66,7.73-42.15,20.22-56.69,3.33-3.88,6.54-7.67,9.28-11.49l1.15,.17c-2.82,4-6.17,7.96-9.64,12-12.32,14.36-26.3,30.63-20,55.77h0c.24,.98,5.83,23.99-.19,30.53-1.34,1.45-3.13,2.01-5.33,1.65-3.65-.59-8.55-4.63-14.75-9.75-17.36-14.34-43.59-36-78.96-15.9-10.76,6.12-22.34,13.4-33.53,20.44-31.05,19.55-60.39,38.01-71.4,31.41-3.42-2.05-4.92-6.45-4.45-13.07,.51-7.18,1.69-14.76,3.42-22.24Z"/><path class="o" d="M509.68,239.95c5.06-7.62,9.78-13.02,14.33-16.84l1.3,.19c-4.65,3.78-9.49,9.27-14.77,17.22-13.55,20.39-2.47,43.53,34.88,72.82h0c1.6,1.25,3.7,1.44,5.49,.49,1.8-.95,2.83-2.81,2.69-4.84-.19-2.74-.58-6.14-.99-9.74-1.72-15.15-4.07-35.9,2.85-46.32,4.77-7.18,12.78-14.68,19.85-21.29,.3-.28,.58-.55,.88-.82l1.31,.19c-.5,.47-.96,.91-1.48,1.39-7.03,6.58-15,14.03-19.7,21.11-6.71,10.1-4.39,30.63-2.69,45.63,.41,3.61,.8,7.02,.99,9.79,.17,2.45-1.07,4.68-3.23,5.83-2.16,1.15-4.7,.92-6.62-.59-20.62-16.17-45.53-39.33-40.02-63.1,.86-3.7,2.45-7.41,4.91-11.12Z"/><path class="o" d="M525.51,235.23c4.27-4.27,9.22-7.56,14.02-9.83l1.85,.27c-5.11,2.22-10.51,5.67-15.13,10.29-9.45,9.43-9.45,20.04-7.79,27.29,3,13.1,13.46,24.42,19.34,26.46,2.55,.88,4.28,.91,5.27,.07,.54-.45,.91-1.16,1.13-2.12,.77-3.34-.23-9.63-1.59-18.18-.27-1.7-.56-3.49-.85-5.37-1.59-10.32,1.14-16.91,3.71-20.62,2.6-3.75,5.51-5.37,6.02-5.64,4.73-4.46,6.6-7.56,7.24-9.62l1,.15c-.8,2.81-3.34,6.29-7.58,10.28l-.13,.09c-.09,.04-6.77,3.42-8.99,12.98-.76,3.3-1,7.33-.25,12.22,.29,1.88,.57,3.67,.85,5.36,1.87,11.74,3,18.83,.11,21.26-1.32,1.11-3.32,1.14-6.28,.12-6.25-2.17-16.89-13.57-20.02-27.21-.9-3.92-1.33-8.79-.13-13.95,1.09-4.71,3.53-9.65,8.2-14.31Z"/><path class="o" d="M531.34,271.83c1.2,.45,2.1,.42,2.75-.07,1.57-1.2,1.26-4.71,.69-11.1-.08-.85-.16-1.75-.24-2.69-.8-9.45,4.24-12.72,4.29-12.75l.11-.1c2.85-3.24,4.05-5.81,3.48-7.44-.19-.55-.68-1.26-1.91-1.48-2.95-.54-8.65,2.1-13.11,7.45-2.06,2.48-3.23,5.04-3.8,7.51-.83,3.57-.42,6.93,.27,9.56,1.51,5.71,5.04,10.22,7.45,11.12Zm.36-.97c-1.89-.71-5.31-4.72-6.81-10.41-1.11-4.21-1.44-10.42,3.32-16.14,4.15-4.99,9.53-7.56,12.12-7.09,.59,.11,.97,.38,1.12,.8,.2,.57,.28,2.34-3.24,6.36-.67,.45-5.51,4.08-4.7,13.67,.08,.94,.16,1.84,.24,2.7,.37,4.16,.66,7.44,.27,9.12-.12,.51-.3,.87-.56,1.07-.35,.26-.92,.24-1.76-.07Z"/><path class="o" d="M495.05,261.89c-5.54,.89-11.47,16-14.65,24.12-.5,1.28-.9,2.29-1.18,2.94-.04,.09-.07,.17-.09,.26-.09,.37-.01,.73,.22,1.07,2.15,3.15,20.36,3.56,26.75,3.35,1.06-.04,1.97-.67,2.37-1.66,.39-.98,.18-2.05-.55-2.8-5.22-5.37-6.83-13.1-8-18.74-1.08-5.23-1.87-9.01-4.89-8.52Zm3.87,8.73c1.2,5.77,2.83,13.66,8.27,19.25,.38,.39,.53,.92,.41,1.43-.02,.08-.05,.17-.08,.25-.19,.47-.67,.99-1.44,1.01-9.3,.31-24.36-.69-25.86-2.89-.08-.12-.09-.21-.04-.33,.28-.66,.68-1.68,1.19-2.97,2.66-6.79,8.89-22.68,13.85-23.47,1.94-.31,2.64,2.58,3.7,7.71Z"/><path class="o" d="M492.9,273.2c-2.42,.39-4.83,5.74-7.07,11.47-.23,.59-.42,1.06-.55,1.37-.02,.06-.04,.11-.06,.17-.06,.25,0,.5,.14,.72,1.32,1.94,12.65,1.69,12.76,1.69,.61-.02,1.13-.38,1.36-.95,.23-.56,.11-1.18-.31-1.61-2.39-2.46-3.13-6.03-3.67-8.64-.52-2.5-.93-4.48-2.6-4.21Zm1.59,4.42c.57,2.73,1.34,6.48,3.94,9.15,.15,.15,.14,.31,.12,.42,0,.03-.02,.06-.02,.08-.03,.07-.14,.29-.43,.3-5.17,.17-11.13-.44-11.84-1.19,.13-.31,.31-.77,.53-1.33,1.12-2.86,4.11-10.47,6.27-10.82,.65-.1,.97,1.21,1.42,3.39Z"/><path class="o" d="M399.62,372.26c18.29-10.93,39.02-23.32,50.82-33.87,29.42-26.3,75.14,6.85,92.35,19.32,10.66,7.73,28.56,8.2,39.91,1.05,8.27-5.21,11.81-13.59,9.99-23.61-6.19-33.93,6.96-65.14,26.14-98.06l1.11,.16c-19.18,32.86-32.38,63.99-26.22,97.71,1.91,10.46-1.81,19.23-10.46,24.67-11.68,7.35-30.11,6.87-41.08-1.09-17.03-12.34-62.26-45.13-91.05-19.39-11.87,10.61-32.65,23.03-50.98,33.99-16.3,9.74-33.13,19.8-33.98,23.47-.04,.19-.05,.36,0,.51,.08,.31,.63,1.04,3.92,1.08,1.61,.02,3.12,.04,4.55,.06,19.31,.26,22.79,.3,33.04-8.2,11.04-9.17,37.18-26.26,37.44-26.43l.12-.06c.67-.23,16.71-5.4,44.03,8.01,7.55,3.7,13.09,6.92,17.54,9.5,11.5,6.67,14.24,8.26,21.49,.51,4.82-5.15,11.17-.53,17.9,4.37,8.57,6.24,18.29,13.32,27.38,2.59,16.68-19.67,26.82-25.99,45.2-28.16,11.75-1.39,19.86-5.84,21.68-11.91,.06-.19,.11-.38,.15-.57,1.36-5.87-2.99-13.25-12.62-21.38-9.14-7.71-13.81-17.31-13.89-28.53-.11-15.52,9.04-33.14,23.87-45.99,3.85-3.34,7.36-6.56,10.59-9.66,.37,.13,.76,.23,1.18,.31-4.18,4.04-8.15,7.59-11.09,10.13-14.6,12.66-23.61,29.98-23.51,45.2,.07,10.91,4.62,20.24,13.52,27.75,10.44,8.8,14.75,16.54,12.8,23.04-1.94,6.47-10.37,11.2-22.55,12.64-18.06,2.14-28.05,8.37-44.53,27.8-9.72,11.46-19.85,4.08-28.79-2.43-6.62-4.82-12.33-8.98-16.53-4.5-7.82,8.35-11.29,6.34-22.77-.32-4.44-2.57-9.96-5.78-17.48-9.47-26.08-12.8-42.09-8.31-43.18-7.97-1.4,.92-26.54,17.4-37.28,26.32-10.54,8.75-14.08,8.71-33.71,8.44-1.43-.02-2.94-.04-4.55-.06-3.02-.03-4.58-.62-4.91-1.84-.07-.28-.07-.57,0-.9,.94-4.03,13.45-11.69,34.46-24.25Z"/><path class="o" d="M499.06,343.95c-2.62-1.3-5.09-2.52-7.13-3.6-10.95-5.75-20.56-3.25-28.56,7.43-.34,.45-.56,.91-.67,1.37-.13,.58-.09,1.17,.13,1.76,2.28,6.22,24.18,11.69,44.52,16.34,4.18,.95,7.49,1.71,9.01,2.19,2.66,.84,4.92,.74,6.73-.3,2.34-1.33,3.08-3.77,3.21-4.24,.44-.8,.52-1.69,.23-2.63-1.67-5.53-15.97-12.62-27.45-18.32Zm-.46,.93c10.71,5.31,25.38,12.59,26.92,17.69,.14,.46,.16,.88,.07,1.27-.05,.21-.13,.41-.24,.61l-.06,.14s-.6,2.44-2.74,3.66c-1.54,.88-3.53,.95-5.89,.2-1.56-.49-4.88-1.25-9.09-2.21-14.5-3.31-41.49-9.47-43.77-15.68-.27-.74-.14-1.44,.4-2.16,7.76-10.36,16.68-12.69,27.25-7.13,2.05,1.08,4.53,2.31,7.15,3.61Z"/><path class="o" d="M334.27,289.26c2.23-8.82,4.7-16.03,7.08-23.01,4.11-12.05,7.65-22.54,8.58-37,.13-.02,.26-.05,.4-.06,.23-.03,.45-.07,.67-.11-.39,6.32-1.26,11.89-2.47,17.14-1.62,6.97-3.81,13.4-6.19,20.37-2.37,6.96-4.83,14.15-7.05,22.93-2.78,10.96-1.54,12.38-1.09,12.55,2.4,.94,13.33-13.35,25.77-36.13,13.03-23.85,33.25-31.05,41.89-34.13,1.88-.67,3.83-1.36,4.19-1.77-.06-.06-.2-.17-.51-.32-3.66-1.8-7.96-6.07-12.51-11.69h0c.42-.03,.82-.1,1.21-.19,4.31,5.28,8.36,9.27,11.76,10.95,.32,.16,1.17,.58,1.13,1.3-.05,.96-1.48,1.48-4.91,2.7-8.52,3.04-28.49,10.15-41.33,33.65-.21,.39-21.31,38.85-27.06,36.6-1.28-.5-2.38-2.52,.47-13.77Z"/><path class="o" d="M418.04,287.31c-12.65-3.34-28.7-6.32-34.03-4.96-8.3,2.12-9.95,8.64-14.35,26.09-1.6,6.34-3.59,14.24-6.41,23.91-.14,.49-.27,.97-.37,1.43-1,4.31-.41,7.26,1.75,8.79,5.4,3.82,20.64-1.69,45.3-16.4,17.86-10.65,34.46-22.5,35.29-23.1,2.03-1.05,2.07-2.3,1.74-3.17-1.92-5.11-22.62-10.93-28.92-12.59Zm-.27,1c15.99,4.22,27.06,8.92,28.21,11.96,.05,.13,.13,.34,.07,.62-.08,.35-.4,.8-1.34,1.28l-.07,.04c-.17,.12-17.05,12.22-35.26,23.08-23.92,14.27-39.19,19.95-44.16,16.44-1.99-1.41-2.32-4.47-.98-9.08,2.82-9.69,4.82-17.6,6.42-23.95,4.29-17.01,5.9-23.38,13.6-25.34,4.35-1.11,18.44,.97,33.51,4.95Z"/><path class="o" d="M393.99,292.81c-5.39,1.37-6.44,5.55-9.26,16.73-1.02,4.03-2.28,9.05-4.07,15.2-.09,.31-.17,.62-.24,.92-.65,2.82-.26,4.77,1.19,5.79,8.17,5.78,49.28-23.55,51.45-25.11,1.48-.77,1.38-1.74,1.19-2.25-1.85-4.91-33.78-12.93-40.25-11.28Zm39.28,11.64c.02,.06,.06,.16,.03,.29-.04,.18-.22,.41-.75,.69l-.07,.04c-11.84,8.5-43.96,29.6-50.28,25.13-1.19-.84-1.38-2.72-.55-5.57,1.8-6.17,3.06-11.2,4.08-15.24,2.78-11.04,3.72-14.76,8.51-15.98,6.57-1.67,37.57,6.78,39.02,10.64Z"/><path class="o" d="M398.8,301.95c-2.54,.65-3.06,2.68-4.3,7.59-.45,1.78-1.01,3.99-1.79,6.7-.04,.14-.08,.28-.11,.42-.32,1.37-.1,2.33,.64,2.86,3.71,2.62,20.92-9.56,23.02-11.07,.89-.47,.72-1.14,.64-1.34-.94-2.49-15.4-5.84-18.1-5.16Zm17.12,5.49s-.07,.04-.17,.09l-.07,.04c-7.2,5.17-19.5,12.75-21.85,11.09-.52-.37-.36-1.37-.13-2.14,.79-2.73,1.35-4.95,1.8-6.73,1.27-5.03,1.68-6.36,3.55-6.84,3.08-.79,16.33,3.13,16.87,4.49Z"/><path class="o" d="M321.09,310.57c-4.86-3.51-13.24-1.44-19.4,2.16-6.93,4.06-16.02,13.42-19.4,28.02-1.88,8.12-2,17.86,1,29.2,4.74,17.94,18.72,26.67,29.62,30.83,11.77,4.49,22.58,4.77,22.69,4.77h.07c10.24-1.22,16.01-4.43,16.27-9.02,.33-6.1-9.33-13.17-22.01-16.11-4.96-1.15-8.33-3.27-10.3-6.47-4.34-7.06-1.45-18.88,1.9-32.57,.92-3.76,1.87-7.65,2.73-11.67,2.08-9.69,1.01-16.13-3.17-19.16Zm-.61,.84c3.82,2.76,4.75,8.85,2.76,18.1-.86,4-1.81,7.88-2.73,11.64-3.41,13.91-6.35,25.93-1.77,33.36,2.12,3.45,5.7,5.72,10.95,6.94,11.99,2.78,21.5,9.53,21.2,15.04-.22,4.03-5.66,6.89-15.31,8.04-1.42-.04-42.55-1.7-51.29-34.83-8.23-31.15,7.4-49.9,17.92-56.07,5.87-3.44,13.79-5.46,18.27-2.22Z"/><path class="o" d="M306.23,327.25c-5.98-1.39-13.95,12.56-16.2,22.27-2.37,10.25,.29,19.65,5.93,20.95,5.65,1.31,12.17-5.96,14.55-16.21,1.18-5.07,1.54-11.45,.95-16.65-.69-6.06-2.54-9.75-5.23-10.37Zm-.23,1.01c3.96,.92,6.4,13.24,3.5,25.77-2.25,9.69-8.21,16.61-13.3,15.43-5.09-1.18-7.4-10.02-5.16-19.71,2.35-10.12,10.17-22.6,14.95-21.49Z"/></g></g><g><path class="q" d="M316.96,251.13h122.26l.95-41.06s4.42-36.66-50.13-2.57c-1.3,.81-2.65,1.67-4.02,2.57l-14.63,8.7-54.43,32.36Z"/><path class="n" d="M429.23,251.13v29.39c0,.11,0,.22,.01,.33,.47,6.58,5.17,11.57,11.96,12.72,.9,.15,1.84,.23,2.8,.23,5.82,0,12.22-2.88,14.93-9.14,1.39-3.22,1.95-6.86,2.48-10.39,.47-3.09,.84-6.43,2.23-9.27,1.19-2.43,3.95-4.56,6.78-3.97,2.1,.43,2.6,1.14,3.8,2.82,1.58,2.21,4.66,2.94,6.93,1.46,2.37-1.56,2.97-4.75,1.35-7.06-.87-1.24-4.41-6.34-10.58-7.14-3.26-.42-7.03,.23-9.84,1.7-8.2,4.31-9.51,12.99-10.56,19.97-.46,3.03-.89,5.88-1.77,7.91-1.1,2.53-4.37,3.45-6.89,3.02-2.22-.37-3.44-1.52-3.64-3.41v-29.17"/><path class="n" d="M470.63,235.43c11.52,4.97,12.49,23.71,14.2,27.86,5.54,13.44-5.3,14.05-5.3,14.05,0,0-8.85-12.26-11.25-16.2"/><polyline class="m" points="486.79 269.52 513.73 345.44 474.38 269.91"/><path class="l" d="M316.96,251.13h101.7c-1.8-6.69-5.81-12.79-11.44-17.85-8.76-7.88-21.44-13.27-35.83-14.51l-54.43,32.36Z"/><line class="g" x1="418.66" y1="206.82" x2="347.37" y2="249.02"/><line class="g" x1="433.24" y1="210.29" x2="367.81" y2="249.02"/><line class="g" x1="433.8" y1="222.06" x2="384.69" y2="251.13"/></g></g></g></g></g></svg>