<?xml version="1.0" encoding="UTF-8"?><svg xmlns="http://www.w3.org/2000/svg" viewBox="0 0 107.55 119.66"><defs><style>.d{fill:#f4a833;}.e{fill:#002735;}.f{fill:#ffe7e1;}.g{fill:#fde89a;}.h{fill:#fdeed6;}.i{fill:#b77e26;}.j{fill:#145c93;}.k{fill:#0a2e4a;}.l{opacity:.41;}</style></defs><g id="a"/><g id="b"><g id="c"><path class="e" d="M6.82,0H100.73c3.77,0,6.82,3.06,6.82,6.82V112.84c0,3.77-3.06,6.82-6.82,6.82H6.82c-3.77,0-6.82-3.06-6.82-6.82V6.82C0,3.06,3.06,0,6.82,0Z"/><g><g><g><path class="i" d="M53.63,21.73V91.75h-1.81V21.73c0-.5,.4-.91,.9-.91,.25,0,.48,.1,.64,.26s.27,.39,.27,.64Z"/><g><path class="k" d="M53.63,79.25v4.97c-.19,.06-.38,.11-.57,.14-.34,.05-.8,.1-1.23,.08v-5.35c.6-.09,1.24-.03,1.81,.16Z"/><path class="k" d="M53.63,27.48v4.97c-.19,.06-.38,.11-.57,.14-.34,.05-.8,.1-1.23,.08v-5.35c.6-.09,1.24-.03,1.81,.16Z"/></g><path class="h" d="M53.63,24.4c-.51-.02-1.02-.03-1.53-.03-.09,0-.18,0-.28,0-2.05,.01-4.05,.23-5.98,.62-.48,.1-.82,.53-.82,1.02,0,.58,.48,1.03,1.03,1.03,.06,0,.14,0,.21-.02,1.8-.37,3.66-.56,5.56-.58,.09,0,.18,0,.28,0,.51,0,1.02,.01,1.53,.03,15.48,.8,27.83,13.65,27.83,29.33,0,3.81-.73,7.46-2.06,10.8,0,.02-.01,.04-.03,.06-.02,.05-.04,.1-.06,.15-2.75,6.77-7.96,12.29-14.51,15.45-.06,.03-.12,.06-.19,.09-3.36,1.59-7.07,2.56-10.99,2.77-.51,.02-1.02,.04-1.53,.04-.09,0-.18,0-.28,0-1.9-.02-3.76-.21-5.56-.58-.64-.13-1.24,.36-1.24,1.02,0,.49,.34,.92,.82,1.02,1.94,.39,3.94,.6,5.98,.62,.09,0,.18,0,.28,0,.51,0,1.02-.01,1.53-.04,4.48-.21,8.71-1.37,12.51-3.27,.06-.03,.12-.06,.18-.09,0,0,.01,0,.02-.01,6.4-3.26,11.54-8.65,14.48-15.23,.03-.04,.04-.09,.06-.14,.01-.02,.02-.04,.03-.06,1.69-3.85,2.63-8.11,2.63-12.58,0-16.82-13.28-30.6-29.91-31.4Z"/><polygon class="g" points="66.2 98.83 40.14 98.83 43.67 96.3 43.76 96.23 51.82 90.44 52.93 89.64 53.63 90.12 61.23 95.39 61.32 95.45 64.6 97.72 64.81 97.87 66.2 98.83"/></g><g><path class="j" d="M77.87,55.36v.48c-.04,2.16-.35,4.26-.89,6.25-.01,.07-.03,.13-.05,.19-.87,3.12-2.31,6.01-4.21,8.52-.04,.06-.09,.12-.13,.18-.37,.49-.77,.97-1.18,1.44-.11,.13-.23,.26-.35,.38-1.37,1.5-2.93,2.83-4.63,3.97-.19,.13-.39,.26-.59,.38h0c-.07,.05-.14,.1-.22,.14-.64,.39-1.29,.76-1.97,1.1-.1,.05-.19,.1-.28,.14-2.7,1.31-5.67,2.17-8.8,2.46-.07,0-.15,.01-.22,.02-.73,.06-1.47,.1-2.22,.1h-.1c-.07,0-.13,0-.2,0-.29,0-.58,0-.88-.02-.08,0-.16,0-.23,0-1.42-.08-2.82-.27-4.16-.57-.14-.02-.27-.06-.4-.09-1.23-.29-2.43-.67-3.58-1.13-.7-.28-1.39-.59-2.06-.93-.09-.04-.17-.08-.25-.13-1.69-.87-3.26-1.93-4.7-3.13-.19-.16-.37-.32-.55-.48-.69-.61-1.36-1.27-1.98-1.95-.05-.05-.1-.11-.15-.17-2.23-2.5-3.98-5.43-5.1-8.66-.02-.06-.04-.13-.06-.19-.84-2.46-1.31-5.08-1.36-7.8v-.2c0-.09,0-.19,0-.28,0-3.12,.56-6.1,1.56-8.86,.03-.07,.05-.13,.08-.19,1.33-3.54,3.43-6.72,6.08-9.32l.17-.17c.8-.78,1.66-1.49,2.55-2.16,.25-.19,.51-.37,.77-.55,.81-.56,1.66-1.07,2.53-1.53,.26-.14,.52-.28,.79-.4,.1-.05,.2-.1,.31-.14,2.08-.98,4.31-1.68,6.66-2.07,.15-.03,.29-.05,.44-.07,.97-.15,1.96-.24,2.97-.27,.09,0,.17,0,.25,0,.09,0,.18,0,.28,0,.07,0,.13,0,.2,0h.1c.77,0,1.53,.03,2.27,.1,.09,0,.17,.01,.26,.02,1.37,.13,2.72,.38,4.02,.72,.13,.03,.26,.07,.39,.11h0c1.06,.29,2.08,.65,3.07,1.07,.1,.04,.19,.08,.29,.12,1.71,.75,3.32,1.67,4.81,2.76,1.07,.78,2.09,1.64,3.03,2.58t0,0c.1,.09,.19,.18,.28,.28,.05,.05,.1,.11,.15,.17,.04,.03,.08,.07,.11,.11,2.4,2.53,4.29,5.55,5.51,8.89,.02,.07,.05,.13,.07,.19,.96,2.69,1.48,5.59,1.48,8.62Z"/><g class="l"><rect class="f" x="26.36" y="55.63" width="51.51" height=".2"/><path class="f" d="M52.01,29.6v51.51c-.07,0-.13,0-.2,0V29.61c.07,0,.13,0,.2,0Z"/><path class="f" d="M44.67,47.91c-.32,2.51-.44,5.09-.36,7.73,0,.07,0,.13,0,.2,.06,1.81,.22,3.65,.46,5.52,0,.06,.02,.13,.03,.2,.26,1.94,.62,3.91,1.09,5.9,.18,.78,.38,1.55,.58,2.31,.02,.06,.04,.13,.06,.2,.6,2.17,1.29,4.24,2.09,6.2,.02,.06,.05,.13,.08,.19,.68,1.66,1.43,3.25,2.25,4.74-.08,0-.16,0-.23,0-.81-1.49-1.55-3.06-2.22-4.7-.03-.06-.06-.13-.08-.19-.79-1.96-1.49-4.03-2.08-6.2-.02-.06-.04-.13-.06-.2-.2-.75-.4-1.52-.57-2.29-.46-2-.83-3.98-1.09-5.93-.01-.06-.02-.13-.03-.2-.25-1.87-.4-3.72-.46-5.53,0-.07,0-.14,0-.2-.08-2.64,.04-5.23,.36-7.74,0-.07,.02-.13,.02-.2,0-.05,.01-.1,.02-.16,.4-2.94,1.07-5.78,2-8.48,.02-.06,.04-.13,.07-.2,.71-2.01,1.56-3.94,2.55-5.76,.04-.07,.07-.13,.11-.2,.63-1.15,1.31-2.25,2.04-3.3,.08,0,.17,0,.25,0-.75,1.06-1.44,2.16-2.07,3.31-.04,.06-.08,.13-.11,.2-1,1.82-1.86,3.75-2.57,5.77-.02,.07-.05,.13-.07,.2-.93,2.7-1.61,5.54-2.01,8.49,0,.04-.01,.09-.02,.14-.01,.07-.02,.13-.02,.2Z"/><path class="f" d="M46.54,80.51c-.14-.03-.27-.06-.4-.09-.94-.87-1.83-1.85-2.65-2.96-.04-.06-.08-.11-.13-.17-1.31-1.79-2.46-3.89-3.46-6.29-.02-.06-.05-.13-.08-.19-.34-.83-.67-1.7-.97-2.61-.66-1.97-1.18-3.93-1.57-5.87-.02-.06-.03-.13-.04-.2-.42-2.13-.67-4.23-.76-6.29,0-.06,0-.13,0-.2-.11-2.83,.08-5.58,.6-8.2,0-.06,.02-.13,.04-.2,.09-.48,.2-.95,.32-1.43,.67-2.69,1.71-5.25,3.05-7.57,.04-.06,.07-.13,.11-.19,1.15-1.97,2.52-3.76,4.06-5.33h0c.06-.06,.12-.12,.18-.18,.95-.95,1.97-1.82,3.05-2.59,.15-.03,.29-.05,.44-.07-1.14,.79-2.22,1.69-3.23,2.69-.06,.05-.12,.11-.18,.18h0c-1.56,1.56-2.94,3.37-4.1,5.34-.04,.06-.08,.12-.11,.19-1.35,2.32-2.4,4.88-3.07,7.58-.12,.46-.22,.93-.31,1.39-.02,.06-.03,.13-.04,.2-.51,2.62-.71,5.36-.6,8.18,0,.06,0,.13,0,.2,.09,2.05,.35,4.15,.77,6.27,.01,.06,.02,.13,.04,.2,.38,1.93,.91,3.88,1.56,5.83,.31,.91,.63,1.8,.98,2.64,.02,.06,.05,.13,.08,.19,1,2.4,2.16,4.49,3.47,6.27,.04,.06,.08,.12,.13,.17,.88,1.17,1.83,2.21,2.84,3.11Z"/><path class="f" d="M33.94,72.38c.49,.94,1.04,1.84,1.61,2.7-.19-.16-.37-.32-.55-.48-.45-.7-.87-1.43-1.26-2.17-.03-.06-.07-.12-.1-.18-1.17-2.23-2.11-4.63-2.79-7.17-.16-.57-.3-1.15-.43-1.74-.02-.07-.03-.13-.05-.2-.2-.92-.36-1.85-.49-2.79-.07-.48-.12-.94-.17-1.41h0c-.11-1.05-.17-2.08-.19-3.11v-.2c-.05-3.06,.28-6.03,.98-8.84,.01-.06,.03-.13,.05-.19,.49-1.92,1.15-3.77,1.98-5.52,.66-1.39,1.42-2.71,2.29-3.94,.04-.06,.08-.12,.12-.18,.57-.81,1.19-1.59,1.84-2.32,.25-.19,.51-.37,.77-.55-.86,.9-1.67,1.88-2.4,2.91-.04,.06-.09,.12-.12,.18-.88,1.25-1.66,2.57-2.32,3.98-.82,1.73-1.47,3.56-1.95,5.45-.02,.07-.04,.13-.05,.19-.7,2.8-1.03,5.76-.98,8.81v.2c.02,.95,.08,1.92,.17,2.89h0c.05,.54,.11,1.07,.19,1.61,.13,.94,.29,1.87,.49,2.79,.01,.06,.02,.13,.04,.2,.13,.6,.28,1.19,.44,1.78,.68,2.51,1.62,4.9,2.78,7.1,.03,.06,.06,.12,.1,.18Z"/><path class="f" d="M59.68,55.63c0,.06,0,.13,0,.2-.06,1.68-.17,3.36-.34,5.03,0,.07-.01,.13-.02,.2-.27,2.61-.67,5.21-1.2,7.78-.01,.07-.02,.13-.04,.2-.46,2.22-1.02,4.42-1.68,6.58-.02,.07-.04,.13-.06,.2-.53,1.74-1.13,3.47-1.78,5.17-.07,0-.15,.02-.22,.02,.66-1.7,1.26-3.44,1.8-5.19,.02-.07,.04-.13,.06-.2,.65-2.16,1.22-4.36,1.68-6.58,.02-.06,.03-.13,.04-.2,.53-2.57,.93-5.17,1.2-7.78,0-.07,.02-.13,.02-.2,.17-1.67,.28-3.35,.34-5.03,0-.07,0-.13,0-.2,.08-2.55,.04-5.11-.14-7.65,0-.07-.01-.14-.02-.2-.11-1.54-.27-3.07-.47-4.59-.16-1.15-.36-2.44-.64-3.8-.01-.06-.03-.13-.04-.2-.43-2.02-1.06-4.19-2-6.27-.03-.06-.06-.13-.09-.19-.48-1.05-1.04-2.07-1.7-3.04,.09,0,.17,.02,.26,.02,.64,.96,1.19,1.97,1.66,2.99,.03,.06,.06,.13,.09,.19,.93,2.09,1.55,4.26,1.98,6.28,.02,.06,.03,.13,.04,.2,.28,1.35,.48,2.63,.64,3.78,.21,1.53,.37,3.07,.48,4.61,0,.07,.01,.14,.02,.2,.17,2.54,.22,5.09,.14,7.65Z"/><path class="f" d="M68.29,55.63c0,.07,0,.13,0,.2-.03,1.73-.15,3.53-.36,5.38,0,.06-.01,.13-.02,.2-.29,2.48-.74,5.06-1.35,7.78-.02,.07-.03,.14-.05,.21-.02,.06-.03,.13-.05,.2-.49,2.12-1.15,4.61-2.13,7.14-.02,.06-.05,.12-.07,.18-.19,.49-.4,.99-.61,1.48-.09,.05-.18,.1-.28,.14,.25-.55,.48-1.11,.69-1.67h0c.02-.06,.05-.12,.07-.18,.97-2.52,1.63-4.99,2.12-7.11,.02-.07,.03-.13,.05-.2,.02-.08,.04-.15,.05-.23,.61-2.7,1.06-5.28,1.35-7.74,.01-.07,.02-.14,.02-.2,.21-1.85,.33-3.64,.36-5.37,0-.07,0-.13,0-.2,.04-2.83-.16-5.51-.61-8.06,0-.07-.02-.13-.04-.2-.02-.12-.04-.23-.06-.34-.56-2.93-1.49-5.72-2.71-8.27h0c-.03-.06-.06-.12-.09-.18-1.15-2.34-2.55-4.46-4.17-6.32-.05-.06-.1-.12-.15-.17-.51-.57-1.04-1.13-1.59-1.64,.13,.03,.26,.07,.4,.11h0c.49,.47,.96,.97,1.41,1.49,.05,.06,.1,.11,.15,.17,1.61,1.86,3.01,4,4.15,6.34,.03,.06,.06,.12,.09,.19,1.23,2.55,2.15,5.33,2.71,8.26,.02,.12,.04,.24,.06,.36,.02,.07,.03,.13,.04,.2,.45,2.55,.66,5.24,.61,8.08Z"/><path class="f" d="M74.36,55.63c0,.07,0,.13,0,.2-.04,1.99-.19,3.96-.44,5.9,0,.06-.02,.13-.03,.2-.39,2.97-1.02,5.87-1.89,8.66-.02,.06-.04,.13-.06,.19-.17,.55-.36,1.09-.55,1.64-.12,.13-.23,.26-.35,.38,.25-.68,.48-1.37,.7-2.07,.02-.06,.04-.13,.06-.19,.86-2.78,1.49-5.67,1.88-8.63,.01-.06,.02-.13,.02-.2,.25-1.93,.4-3.9,.44-5.88,0-.07,0-.13,0-.2,.02-1.2,0-2.4-.06-3.61-.08-1.77-.24-3.43-.49-4.99,0-.06-.02-.13-.03-.19-.48-2.99-1.26-5.62-2.36-7.95-.21-.45-.44-.89-.67-1.31l-.1-.18h0c-.06-.1-.11-.2-.18-.3,.1,.09,.19,.18,.28,.28,.03,0,.07-.02,.1-.02,.03,.06,.06,.12,.1,.18,.02,.04,.05,.08,.07,.12,.21,.38,.4,.76,.59,1.16,1.11,2.36,1.9,5.01,2.38,8.02,.01,.06,.02,.13,.03,.19,.24,1.56,.41,3.23,.49,5,.06,1.21,.08,2.42,.06,3.62Z"/><path class="f" d="M62.43,31.75c-.59,.17-1.19,.32-1.8,.46-.07,.02-.14,.04-.22,.05-1.3,.29-2.64,.5-4.02,.65-.07,0-.14,.01-.21,.02-1.35,.14-2.73,.21-4.17,.23-.07,0-.13,0-.2,0h-.26c-.72,0-1.46-.02-2.2-.05-.08,0-.15,0-.23,0-1.36-.07-2.78-.19-4.23-.36h0c-.08,0-.17-.01-.25-.03h0c-.93-.1-1.88-.24-2.85-.4-.29-.05-.59-.1-.89-.16,.1-.05,.2-.1,.31-.14,.21,.03,.41,.07,.62,.1,1.02,.17,2.02,.31,3,.42,.09,.01,.17,.02,.25,.03,1.43,.17,2.81,.28,4.16,.34,.08,0,.15,0,.22,0,.79,.04,1.58,.05,2.35,.05,.07,0,.13,0,.2,0,1.4-.01,2.76-.09,4.08-.22,.07,0,.14-.02,.21-.02,1.36-.15,2.68-.36,3.96-.63,.08-.01,.15-.03,.22-.05,.56-.12,1.12-.26,1.66-.41,.1,.04,.19,.08,.29,.12Z"/><path class="f" d="M70.75,37.53s-.03,.01-.04,.01c-.05,.02-.11,.03-.16,.04-1.84,.48-3.74,.86-5.68,1.15-.06,.01-.13,.02-.2,.03h0c-2.04,.31-4.12,.52-6.25,.63-.06,0-.13,0-.2,0-.4,.02-.8,.04-1.2,.05-.79,.02-1.58,.04-2.37,.04-.87,0-1.76-.02-2.64-.05-.07,0-.13,0-.2,0-1.67-.06-3.37-.18-5.09-.35-.07,0-.14-.01-.2-.02-1.9-.19-3.84-.46-5.82-.78l-.22-.04c-1.69-.28-3.41-.62-5.17-1-.08-.02-.17-.04-.26-.06-.07-.02-.14-.03-.21-.05-.25-.06-.5-.11-.75-.17,.06-.06,.11-.11,.17-.16,.24,.06,.48,.11,.71,.16,.07,.02,.14,.03,.21,.04,.06,.02,.12,.03,.18,.04,1.78,.39,3.53,.72,5.24,1.01,.07,.02,.14,.03,.22,.04,1.97,.33,3.9,.59,5.78,.77,.07,.01,.14,.02,.2,.02,1.7,.17,3.38,.29,5.02,.35,.07,0,.14,0,.2,0,1.69,.06,3.36,.06,5,0,.39-.01,.77-.03,1.16-.05,.07,0,.14,0,.2,0,2.12-.11,4.19-.32,6.21-.62,.07,0,.14-.02,.2-.03,1.94-.29,3.83-.67,5.67-1.15h0s.07-.02,.1-.02c.03,0,.07-.02,.1-.02,.03,.06,.06,.12,.1,.18Z"/><path class="f" d="M76.39,46.74c-.86,.1-1.72,.2-2.57,.28-.07,.01-.13,.02-.2,.02-1.98,.21-3.96,.38-5.94,.52-.07,0-.13,.01-.2,.01-2.64,.19-5.29,.33-7.93,.42-.06,0-.13,0-.2,0-2.06,.06-4.12,.1-6.18,.1-.39,0-.77,0-1.16,0-.07,0-.13,0-.2,0-2.38-.01-4.76-.07-7.14-.17-.07,0-.14,0-.2,0-2.4-.1-4.8-.25-7.19-.45-.07,0-.13,0-.2-.02-2.12-.17-4.24-.37-6.36-.61-.07,0-.14-.02-.2-.02-.87-.1-1.73-.2-2.59-.31,.02-.06,.05-.13,.08-.19,.85,.11,1.71,.22,2.57,.31,.07,.01,.14,.02,.2,.02,2.11,.24,4.23,.44,6.34,.61,.07,0,.13,.01,.2,.02,2.39,.19,4.78,.34,7.18,.44,.07,0,.14,0,.2,0,2.37,.1,4.74,.16,7.11,.17,.07,0,.13,0,.2,0,2.44,.02,4.88-.01,7.32-.09,.07,0,.14,0,.2,0,2.64-.08,5.28-.22,7.91-.41,.07,0,.14,0,.2-.02,1.98-.14,3.96-.31,5.94-.52,.07,0,.14-.01,.2-.02,.85-.09,1.7-.18,2.54-.28,.02,.06,.04,.13,.06,.19Z"/><path class="f" d="M76.98,62.09c-.02,.06-.04,.13-.05,.2-1.01-.13-2.02-.25-3.03-.36-.06,0-.13-.02-.2-.02-1.92-.2-3.86-.37-5.79-.5h-.2c-2.79-.2-5.59-.31-8.39-.34h-.2c-2.37-.03-4.74,0-7.11,.08-.07,0-.14,0-.2,0-2.34,.08-4.68,.21-7.01,.4-.07,0-.13,0-.2,.02-2.38,.19-4.75,.43-7.11,.73-.07,0-.14,.02-.2,.03-2.23,.28-4.45,.61-6.66,.99-.06,0-.13,.02-.2,.03-.88,.15-1.76,.31-2.65,.48-.02-.06-.04-.13-.06-.19,.89-.17,1.78-.34,2.67-.49,.06-.01,.13-.02,.2-.04,2.21-.38,4.43-.71,6.66-.99,.07,0,.13-.02,.2-.02,2.37-.3,4.75-.55,7.13-.73,.07,0,.14-.01,.2-.02,2.34-.19,4.69-.32,7.04-.4,.07,0,.13,0,.2,0,2.38-.08,4.75-.1,7.13-.08h.2c2.8,.04,5.6,.15,8.4,.33,.07,0,.13,0,.2,.02,1.93,.13,3.86,.3,5.79,.5,.07,0,.14,.01,.2,.02,1.02,.11,2.04,.23,3.06,.36Z"/><path class="f" d="M72.72,70.81c-.04,.06-.08,.12-.13,.17-.21-.07-.42-.13-.63-.2-.06-.02-.13-.04-.2-.05-1.69-.49-3.46-.87-5.3-1.14-.07-.01-.13-.02-.2-.03-1.11-.16-2.26-.29-3.42-.38-1.59-.12-3.19-.16-4.76-.14-.07,0-.14,0-.21,0-2.01,.02-3.98,.13-5.86,.29-.07,0-.14,.01-.2,.02-1.87,.16-3.65,.38-5.29,.59-.07,.01-.13,.02-.2,.03-.39,.06-.77,.11-1.14,.16-1.67,.24-3.37,.5-5.08,.82-.07,0-.14,.02-.2,.04-1.99,.37-3.98,.82-5.96,1.39-.06,.02-.13,.04-.2,.06l-.72,.22c-.05-.06-.1-.11-.15-.17,.26-.08,.52-.16,.77-.23,.06-.02,.13-.04,.2-.06,1.98-.57,3.98-1.02,5.98-1.39,.07-.01,.14-.03,.2-.04,1.72-.32,3.44-.59,5.13-.83,.36-.05,.73-.1,1.11-.16,.06,0,.13-.02,.2-.03,1.65-.22,3.45-.43,5.35-.6,.07,0,.13-.01,.2-.02,1.9-.16,3.88-.28,5.9-.29,.07,0,.14,0,.2,0,1.56-.02,3.15,.03,4.73,.14,1.18,.09,2.33,.21,3.46,.38,.07,0,.13,.02,.2,.03,1.85,.28,3.62,.66,5.31,1.14,.06,.02,.13,.03,.19,.05,.24,.07,.48,.14,.71,.22Z"/><path class="f" d="M64.33,76.73c.51,.13,1.01,.27,1.51,.42-.07,.05-.14,.1-.22,.14-.45-.14-.9-.26-1.36-.38-.06-.02-.13-.04-.2-.05h0c-2.46-.61-5.05-.96-7.72-1.03-.07,0-.14,0-.21,0-1.36-.04-2.73,0-4.12,.12-.07,0-.14,.01-.2,.02-.3,.02-.59,.05-.88,.08-.74,.08-1.49,.18-2.24,.3-.07,0-.14,.02-.2,.03-1.57,.25-3.17,.59-4.79,1.03-.07,.02-.14,.04-.21,.05-.99,.27-1.98,.57-2.99,.9-.08-.04-.17-.08-.25-.13,1.05-.35,2.08-.66,3.11-.93,.07-.02,.14-.04,.21-.06,1.63-.44,3.25-.79,4.83-1.05,.07-.01,.14-.02,.2-.03,.77-.12,1.54-.22,2.3-.31,.3-.03,.6-.06,.9-.08,.07,0,.13-.01,.2-.02,1.41-.12,2.8-.15,4.18-.12,.07,0,.14,0,.21,0,2.67,.08,5.27,.44,7.73,1.05,.07,.02,.13,.03,.2,.05Z"/></g></g></g><path class="h" d="M63.1,52.87c.23-.16,.46-.28,.64-.45,.22-.21,.54-.45,.55-.69,.06-1.08,.03-2.16,.03-3.29-.84,0-1.6,0-2.36,0-.72,0-1.58,.2-2.13-.12-.5-.29-.68-1.15-.97-1.77-.15-.34-.36-.42-.71-.41-1.34,.02-2.68,0-4.02,0h-1.18c0-.64-.02-1.22,0-1.79,.02-.36-.1-.56-.43-.7-.61-.27-1.2-.58-1.84-.9,.2-.4,.41-.77,.56-1.15,.31-.82,.85-1.41,1.57-1.9,1.06-.72,2.07-1.52,3.09-2.29,.15-.11,.28-.23,.35-.29-.39-.4-.74-.77-1.12-1.15-1.5,.9-3.03,1.8-4.54,2.73-.64,.39-1.26,.79-2.07,.65-.16-.03-.34,.06-.5,.11-.82,.26-1.63,.56-2.46,.79-.47,.13-.68,.34-.59,.83,.22,1.21-.25,2.08-1.16,2.88-1.18,1.03-2.23,2.2-3.36,3.33,.11,.12,.19,.22,.28,.31,1.32,1.33,2.06,2.85,1.99,4.8-.04,1.2-.2,2.28-.8,3.33-.27,.47-.5,.76-1.07,.68-.15-.02-.43,.11-.48,.24-.38,1.03-.71,2.08-1.06,3.12,1.48,.73,3.43,1.17,4.96,1.19,.8,.01,1.61,.03,2.39,.18,2.07,.39,3.73,1.48,5.03,3.12,.02,.03,.05,.05,.08,.08,.6,.63,1.47,1.12,1.12,2.3,1.45-.36,2.78-.69,4.12-1,.2-.05,.44-.12,.61-.04,.71,.31,1.41,.68,2.14,1.04-.38,.78-.74,1.51-1.12,2.27,.75,.38,1.46,.74,2.28,1.15,0-1.71-.06-3.3,.02-4.89,.07-1.33-.19-2.51-.86-3.66-.27-.46-.27-1.06-.42-1.7h1.23v-1.11c-.38-.02-.74-.04-1.06-.06v-2.2h4.5v2.23c.24,0,.41,0,.58,0,.17,0,.33-.02,.48-.03,.41-2.34-.57-4.11-2.3-5.77Zm-22.11,5.44c-.03,.18-.1,.36-.17,.6,.08-.24,.14-.41,.17-.6Zm2.7-3.72c-.05,.35-.18,.69-.35,1.02,.17-.33,.29-.67,.35-1.02Zm2.45-12.85c0-.12,.04-.2,.07-.28-.04,.08-.06,.16-.07,.28Zm.42-.58c.15-.07,.34-.13,.6-.22-.26,.09-.45,.16-.6,.22Zm16.1,10.76c-.31,.37-.7,.7-1.08,1.04,.37-.34,.77-.67,1.08-1.04Zm-4.59-4.38c-.14-.18-.32-.27-.6-.27,.28,0,.46,.08,.6,.27Zm-6.28-2.69c.07,.2,.08,.43,.05,.71,.03-.28,.02-.51-.05-.71Zm3.63,2.43c-.67,0-1.34,0-2.01,0,.67,0,1.34,0,2.01,0Z"/><g><path class="k" d="M26.15,73.64c-1.31,.77-2.19,2.17-2.13,3.72,.09,2.64,2.77,4.52,5.27,3.77,.54-.16,1.05-.44,1.48-.8,.29-.25,.54-.53,.74-.83,.01,.02,.02,.03,.02,.03l.03-.09c.42-.64,.63-.92,.92-2.15l1.14-4.48h-4.24c-1.1-.01-2.27,.27-3.23,.83Z"/><path class="d" d="M26.44,75.18c1.08-.91,2.69-.77,3.59,.3,.91,1.08,.77,2.69-.3,3.59-1.08,.91-2.69,.77-3.59-.3-.91-1.08-.77-2.69,.3-3.59Z"/></g></g></g></g></svg>