<?xml version="1.0" encoding="UTF-8"?><svg xmlns="http://www.w3.org/2000/svg" viewBox="0 0 107.55 119.66"><defs><style>.d{fill:#fde89a;}.e{fill:#143827;}.f{fill:#3595e0;}.g{fill:#99c3e1;}.h{fill:#6445e1;}.i{fill:#4981c2;}</style></defs><g id="a"/><g id="b"><g id="c"><rect class="h" width="107.55" height="119.66" rx="6.82" ry="6.82"/><g><g><g><path class="e" d="M54.59,30.18l-4.37,4.37c-.2,.2-.2,.52,0,.72,.2,.2,.52,.2,.72,0l4.37-4.37c.2-.2,.2-.52,0-.72s-.52-.2-.72,0Z"/><path class="e" d="M50.29,25.88l-4.37,4.37c-.2,.2-.2,.52,0,.72,.2,.2,.52,.2,.72,0l4.37-4.37c.2-.2,.2-.52,0-.72s-.52-.2-.72,0Z"/></g><rect class="i" x="49.73" y="14.61" width="20.97" height="12.73" rx=".63" ry=".63" transform="translate(2.8 48.72) rotate(-45)"/><polygon class="g" points="60.93 20.98 65.07 25.12 64.35 25.84 60.21 21.7 53.16 28.76 52.44 28.03 59.49 20.98 55.35 16.84 55.35 16.84 56.07 16.12 56.07 16.12 60.21 20.26 67.27 13.2 67.99 13.93 60.93 20.98"/><g><path class="e" d="M32.91,44.71l4.37-4.37c.2-.2,.2-.52,0-.72-.2-.2-.52-.2-.72,0l-4.37,4.37c-.2,.2-.2,.52,0,.72s.52,.2,.72,0Z"/><path class="e" d="M37.21,49.01l4.37-4.37c.2-.2,.2-.52,0-.72-.2-.2-.52-.2-.72,0l-4.37,4.37c-.2,.2-.2,.52,0,.72s.52,.2,.72,0Z"/></g><path class="i" d="M46.1,47.8s.03,.03,.05,.04h0s.04,.03,.06,.05h.02s.03,.03,.05,.04h.01s.04,.03,.07,.04h.02s.03,.02,.05,.03h.02s.05,.02,.07,.03h0s.05,.01,.07,.02h.02s.04,0,.06,.01h.02s.05,0,.08,0h.01s.05,0,.07,0h.03s.04,0,.07,0h.02s.06,0,.09,0h.02s.05,0,.08-.01h.03s.06-.01,.08-.02h.01s.07-.01,.1-.02h.03s.06-.02,.09-.03h.02s.07-.02,.11-.04h.03s.07-.03,.11-.04h.01s.09-.03,.13-.05h.03s.09-.04,.13-.06h.02c.05-.03,.11-.05,.16-.08h.02c.06-.03,.11-.06,.17-.08h.03l.08-.05,.04-.02s.05-.03,.08-.04l.03-.02s.07-.04,.11-.06h.02s.06-.04,.1-.06h.03c.06-.05,.13-.09,.19-.13h.02c.06-.05,.13-.09,.19-.13h.02c.07-.06,.13-.1,.2-.14h.02c.07-.06,.14-.11,.21-.15h.01c.07-.06,.15-.11,.22-.17h0c.07-.06,.14-.11,.22-.17h.02c.07-.07,.14-.12,.21-.18l.02-.02c.07-.05,.13-.11,.2-.17l.02-.02c.11-.09,.22-.19,.33-.29h.01c.09-.09,.17-.17,.26-.25l.02-.02c.07-.07,.15-.14,.22-.21l.04-.04c.06-.06,.13-.13,.19-.19h0c.07-.08,.14-.16,.21-.23h0c.07-.08,.13-.15,.19-.22l.02-.02c.06-.07,.12-.14,.18-.21l.02-.02c.06-.07,.11-.14,.17-.21l.02-.02c.06-.07,.11-.14,.17-.21h.01c.06-.09,.12-.17,.18-.25h0c.06-.09,.11-.17,.17-.25v-.02c.07-.09,.13-.17,.19-.26l.02-.03s.05-.07,.07-.11l.02-.03s.05-.09,.08-.13v-.02c.04-.05,.07-.1,.1-.15h0c.03-.06,.06-.11,.09-.16v-.02c.05-.07,.09-.14,.12-.2h0c.04-.08,.07-.15,.1-.22l.02-.04,.02-.05,.02-.04,.02-.05,.02-.04,.02-.05,.02-.04,.02-.05,.02-.04,.02-.05,.02-.04,.02-.05v-.04l.03-.05v-.04l.03-.05v-.04l.02-.05v-.04l.02-.04v-.04l.02-.04v-.04l.02-.04v-.08l.02-.04v-.08l.02-.04v-.22s.01-.02,.01-.03v-.2l-.02-.03v-.06l-.02-.03v-.03l-.02-.03v-.03l-.02-.03v-.03l-.02-.03v-.03l-.02-.02v-.03l-.03-.02-.02-.03v-.02l-.03-.03v-.02l-.04-.03h-.01s-.03-.04-.04-.06l5.65,5.64s.03,.03,.04,.04h.01l.02,.04v.02l.03,.03v.02l.03,.03v.02l.03,.03v.02l.02,.03v.03l.02,.03v.03l.02,.03v.03l.02,.03v.06l.02,.03v.1l.02,.03v.1s0,.02,0,.03v.22l-.02,.04v.08l-.02,.04v.08l-.02,.04v.04l-.02,.04v.04l-.02,.04v.04l-.02,.04v.04l-.03,.05v.04l-.03,.05v.04l-.03,.05-.02,.04-.02,.05-.02,.04-.02,.05-.02,.04-.02,.05-.02,.04-.02,.05-.02,.04-.02,.05-.02,.04h0c-.03,.07-.07,.14-.1,.21h0c-.03,.08-.07,.14-.11,.21h0v.03c-.04,.05-.06,.1-.09,.15h0c-.03,.06-.06,.11-.09,.16h0v.02s-.06,.09-.09,.13l-.02,.03s-.05,.07-.07,.11v.02h-.02c-.06,.09-.11,.18-.17,.26h0v.02c-.06,.08-.12,.16-.18,.24h0c-.06,.09-.12,.17-.18,.25h-.01c-.06,.09-.11,.16-.17,.23h0v.02c-.07,.07-.12,.14-.18,.21h-.01v.02c-.07,.07-.13,.14-.19,.21h-.01v.02c-.07,.07-.13,.14-.2,.21h0c-.07,.08-.14,.16-.21,.23h0c-.06,.07-.12,.14-.19,.2l-.03,.03h-.01c-.07,.08-.15,.15-.22,.22h-.01v.02c-.1,.08-.18,.16-.27,.24h-.01c-.11,.11-.22,.21-.33,.3h0v.02c-.08,.06-.15,.11-.21,.17l-.02,.02c-.07,.06-.14,.11-.21,.16h-.02c-.07,.07-.14,.12-.22,.18h0c-.07,.06-.15,.11-.22,.16h-.01c-.07,.06-.14,.1-.21,.15h-.02c-.07,.06-.13,.1-.2,.14h-.02c-.06,.06-.13,.09-.19,.13h-.02c-.06,.05-.13,.09-.19,.12h-.02s-.07,.05-.1,.07h-.02s-.08,.05-.11,.07l-.03,.02-.08,.04-.04,.02-.08,.04h-.03c-.06,.04-.11,.07-.17,.09h-.02c-.05,.03-.11,.05-.16,.08h-.02s-.09,.04-.13,.06h-.03s-.09,.04-.13,.05h-.01s-.07,.03-.11,.04h-.03s-.08,.03-.11,.04h-.02s-.06,.02-.09,.03h-.03s-.07,.02-.1,.03h-.01s-.06,.01-.08,.01h-.03s-.05,0-.08,.01h-.02s-.06,0-.09,0h-.02s-.04,0-.07,0c0,0,0,0-.01,0h-.01s-.05,0-.07,0h-.01s-.05,0-.08,0h-.02s-.04,0-.06-.01h-.02s-.05-.01-.07-.02h0s-.05-.01-.07-.02h-.02s-.03-.02-.05-.03h-.02s-.04-.03-.07-.04h-.01s-.04-.03-.05-.04h-.02s-.04-.04-.06-.05h0s-.04-.03-.05-.05h0l-.02-.02-5.65-5.64,.02,.02Z"/><path class="i" d="M49.85,35.87c.22-.22,.22-.58,0-.8l-3.2-3.2c-.22-.22-.58-.22-.8,0-.22,.22-.22,.58,0,.8l3.2,3.2c.22,.22,.58,.22,.8,0Z"/><path class="i" d="M41.86,43.22c.22-.22,.22-.58,0-.8l-3.2-3.2c-.22-.22-.58-.22-.8,0s-.22,.58,0,.8l3.2,3.2c.22,.22,.58,.22,.8,0Z"/><path class="i" d="M45.16,38.73c.22-.22,.22-.58,0-.8l-3.2-3.2c-.22-.22-.58-.22-.8,0-.22,.22-.22,.58,0,.8l3.2,3.2c.22,.22,.58,.22,.8,0Z"/><rect class="i" x="16.79" y="47.54" width="20.97" height="12.73" rx=".63" ry=".63" transform="translate(-30.13 35.08) rotate(-45)"/><polygon class="g" points="26.56 53.91 22.42 49.77 23.14 49.05 27.28 53.19 34.33 46.13 35.06 46.86 28 53.91 32.14 58.05 32.14 58.05 31.42 58.77 31.42 58.77 27.28 54.63 20.23 61.69 19.5 60.96 26.56 53.91"/><g><path class="i" d="M71.59,63.67c.09-.09,.14-.2,.15-.33,.02-.28-.2-.52-.48-.54l-16.63-.97c-.28-.02-.52,.2-.54,.48-.02,.28,.2,.52,.48,.54l16.63,.97c.15,0,.29-.05,.39-.15Z"/><path class="i" d="M71.59,63.67c.1-.1,.16-.24,.15-.39l-.98-16.68c-.02-.28-.26-.5-.54-.48-.28,.02-.5,.26-.48,.54l.98,16.68c.02,.28,.26,.5,.54,.48,.13,0,.25-.06,.33-.15Z"/><path class="i" d="M71.59,63.67c.2-.2,.2-.52,0-.72l-9.6-9.6c-.2-.2-.52-.2-.72,0s-.2,.52,0,.72l9.6,9.6c.2,.2,.52,.2,.72,0Z"/><path class="f" d="M69.94,64.6c.3,.3,1.13-.03,1.84-.75,.72-.72,1.05-1.54,.75-1.84s-1.13,.03-1.84,.75c-.72,.72-1.05,1.54-.75,1.84Z"/><path class="g" d="M51.13,68.45c-4.29-4.29-2.45-13.08,4.11-19.64,6.56-6.56,15.35-8.4,19.64-4.11"/></g></g><rect class="d" x="29.9" y="24.34" width="16.69" height="15.22" transform="translate(-11.39 36.4) rotate(-45)"/><rect class="d" x="41.74" y="36.18" width="16.69" height="15.22" transform="translate(-16.29 48.24) rotate(-45)"/></g><g><path class="d" d="M80.76,88.53c.61-3.59-.61-7.34-3.52-9.62-4.97-3.89-12.53-1.87-15.02,3.87-.54,1.24-.81,2.58-.81,3.93,0,.91,.14,1.8,.38,2.64-.05,0-.08,0-.08-.01l.12,.19c.53,1.75,.71,2.57,2.52,5l6.44,8.97,6.54-7.75c1.7-2.02,2.98-4.59,3.43-7.22Z"/><path class="f" d="M77.5,86.68c.01,3.37-2.71,6.11-6.08,6.12-3.37,.01-6.11-2.71-6.12-6.08-.01-3.37,2.71-6.11,6.08-6.12,3.37-.01,6.11,2.71,6.12,6.08Z"/></g></g></g></svg>