<?xml version="1.0" encoding="UTF-8"?><svg xmlns="http://www.w3.org/2000/svg" viewBox="0 0 153.56 207.89"><defs><style>.d{fill:#f5ce44;}.e{fill:#f1685a;}.f{fill:#fdf6e6;}.g{fill:#3595e0;}.h{fill:#1a2e35;}</style></defs><g id="a"/><g id="b"><g id="c"><g><rect class="e" width="153.56" height="203.38" rx="26.05" ry="26.05"/><rect class="g" x="10.89" y="10.72" width="131.78" height="164.77" rx="26.05" ry="26.05"/></g><path class="f" d="M127.44,97.63c1.04-.71,2.05-1.24,2.84-2,.96-.92,2.41-2.01,2.47-3.09,.27-4.81,.12-9.64,.12-14.64-3.72,0-7.12,.03-10.51,0-3.22-.04-7.04,.87-9.49-.55-2.22-1.29-3.05-5.1-4.31-7.89-.68-1.5-1.61-1.85-3.16-1.83-5.97,.09-11.94,.04-17.91,.04h-5.24c0-2.87-.09-5.42,.03-7.96,.08-1.58-.44-2.48-1.91-3.13-2.71-1.2-5.34-2.6-8.2-4.01,.88-1.8,1.84-3.41,2.49-5.14,1.38-3.64,3.79-6.28,7-8.47,4.71-3.22,9.2-6.77,13.77-10.19,.65-.49,1.25-1.04,1.56-1.3-1.74-1.79-3.32-3.42-4.97-5.12-6.66,4-13.48,8.03-20.23,12.17-2.86,1.76-5.62,3.51-9.23,2.91-.69-.12-1.49,.25-2.22,.49-3.65,1.17-7.24,2.51-10.94,3.52-2.08,.57-3.04,1.52-2.65,3.69,.98,5.37-1.1,9.24-5.19,12.81-5.25,4.57-9.92,9.8-14.94,14.84,.47,.53,.84,.98,1.25,1.39,5.87,5.91,9.17,12.69,8.88,21.37-.17,5.34-.89,10.17-3.57,14.83-1.19,2.08-2.21,3.39-4.78,3.01-.67-.1-1.93,.5-2.14,1.06-1.68,4.61-3.18,9.28-4.72,13.9,6.61,3.24,15.27,5.2,22.1,5.32,3.55,.06,7.15,.14,10.62,.78,9.22,1.72,16.62,6.57,22.42,13.91,.1,.13,.24,.24,.36,.36,2.68,2.82,6.54,4.98,5,10.24,6.47-1.58,12.4-3.05,18.34-4.47,.89-.21,1.98-.51,2.72-.19,3.18,1.4,6.26,3.01,9.51,4.61-1.71,3.46-3.31,6.7-5,10.12,3.34,1.69,6.5,3.29,10.17,5.14,0-7.63-.27-14.71,.08-21.76,.3-5.9-.83-11.19-3.81-16.31-1.18-2.03-1.21-4.73-1.88-7.59h5.46v-4.93c-1.71-.09-3.27-.17-4.7-.25v-9.8h20.05v9.94c1.05,0,1.82,.02,2.58,0,.74-.02,1.48-.09,2.12-.13,1.85-10.43-2.55-18.31-10.25-25.69ZM28.99,121.86c-.14,.81-.42,1.6-.77,2.65,.35-1.06,.63-1.84,.77-2.65Zm12.01-16.56c-.24,1.56-.81,3.07-1.55,4.56,.74-1.49,1.31-3,1.55-4.56Zm10.91-57.22c.04-.52,.16-.91,.32-1.24-.16,.34-.28,.72-.32,1.24Zm1.88-2.58c.65-.3,1.52-.6,2.66-1-1.14,.4-2.01,.7-2.66,1Zm71.69,47.93c-1.39,1.63-3.14,3.1-4.8,4.62,1.66-1.52,3.42-2.99,4.8-4.62Zm-20.45-19.48c-.62-.82-1.42-1.18-2.69-1.19,1.27,0,2.07,.37,2.69,1.19Zm-27.98-11.96c.3,.87,.36,1.91,.21,3.14,.15-1.23,.09-2.27-.21-3.14Zm16.15,10.83c-2.98,0-5.97-.02-8.95-.02,2.98,0,5.97,.02,8.95,.02Z"/><g><path class="e" d="M90.04,85.69c1.05-3.63,.22-7.64-2.52-10.33-4.67-4.58-12.71-3.38-15.94,2.25-.7,1.22-1.13,2.57-1.29,3.96-.1,.94-.06,1.87,.08,2.76-.05,0-.08-.02-.08-.02l.11,.21c.34,1.87,.44,2.74,2.02,5.45l5.61,10,7.64-7.24c1.99-1.89,3.6-4.39,4.37-7.05Z"/><path class="h" d="M86.89,83.4c-.38,3.48-3.5,5.99-6.98,5.61-3.48-.38-5.99-3.5-5.61-6.98,.38-3.48,3.5-5.99,6.98-5.61,3.48,.38,5.99,3.5,5.61,6.98Z"/></g><g><path class="e" d="M51.87,47.5c-.01-3.78-1.93-7.4-5.32-9.21-5.77-3.09-13.14,.32-14.67,6.63-.33,1.36-.37,2.79-.12,4.17,.17,.93,.46,1.81,.86,2.63-.05,0-.09,0-.08,0l.16,.18c.85,1.69,1.19,2.5,3.47,4.66l8.19,8.02,5.3-9.09c1.38-2.37,2.23-5.22,2.21-7.99Z"/><path class="h" d="M48.21,46.19c.61,3.44-1.68,6.73-5.12,7.34-3.44,.61-6.73-1.68-7.34-5.12-.61-3.44,1.68-6.73,5.12-7.34,3.44-.61,6.73,1.68,7.34,5.12Z"/></g><g><path class="d" d="M145.98,197.36v6.67c0,2.13-1.73,3.86-3.86,3.86h0c-2.66,0-6.65-3.49-6.65-3.49l-29.5-27.42s-10.21,2.07-15.31-3.19c-.23-.24-.5-.51-.81-.83-.78-.8-1.82-1.84-3.05-3.08-.18-.18-.35-.36-.53-.54-1.99-2-4.41-4.46-6.99-7.1-2.38-2.43-4.9-5.03-7.35-7.61-.17-.17-.32-.34-.5-.52-1.27-1.34-2.52-2.67-3.72-3.97-.12-.13-.25-.26-.37-.39-.87-.94-1.71-1.85-2.5-2.73-.06-.08-.13-.16-.2-.23-1.72-1.91-3.25-3.67-4.46-5.16-.82-1.01-1.49-1.9-1.98-2.63-.1-.15-.18-.28-.26-.41,0-.02-.02-.03-.03-.04-.49-.8-.7-1.35-.57-1.6,.02-.03,.03-.06,.05-.09,.49-.92,1.31-2.14,2.4-3.13,0,0,0-.02,.02-.02,.11-.11,.25-.22,.37-.32,.92-.75,2-1.33,3.23-1.46,.93-.11,1.93,.04,3.02,.54l.02,.02c.2,.09,.41,.19,.62,.32,.98,.57,2.24,1.46,3.63,2.53,.13,.11,.27,.21,.42,.32,.93,.73,1.92,1.52,2.91,2.35,.18,.16,.38,.32,.57,.47,4.01,3.34,8,6.97,9.17,8.04,.19,.18,.31,.29,.34,.32-.03-.05-.15-.26-.35-.62,0,0,0,0,0,0-.65-1.12-2.11-3.64-3.93-6.77-.15-.26-.3-.53-.45-.79h0c-.09-.16-.18-.32-.28-.48-1.02-1.74-2.11-3.62-3.22-5.52-.11-.18-.21-.35-.31-.51-1.01-1.73-2.03-3.47-3-5.12-.13-.21-.25-.42-.38-.63-.29-.49-.57-.97-.85-1.44-.02-.02-.03-.04-.03-.05-1.15-1.94-2.21-3.69-3.05-5.09-.1-.17-.19-.32-.28-.46-.28-.45-.53-.85-.74-1.2-.98-1.57-1.97-3.16-2.9-4.7-.81-1.36-1.58-2.68-2.22-3.9-.02-.02-.03-.04-.04-.06-.34-.66-.65-1.28-.91-1.86-.08-.16-.14-.32-.2-.46-.38-.88-.65-1.66-.78-2.34-.12-.6-.13-1.12,0-1.52,.03-.12,.09-.24,.15-.34,.1-.14,.2-.29,.32-.45,.36-.48,.84-1,1.38-1.51h0c1.82-1.72,4.32-3.26,5.46-2.58,.67,.4,3.39,3.75,6.35,7.55,.15,.19,.31,.39,.46,.59,.16,.2,.32,.41,.47,.61,.12,.16,.25,.32,.36,.46,.83,1.08,1.66,2.15,2.45,3.18,2.4,3.13,4.41,5.82,4.95,6.53,.1,.12,.14,.18,.14,.18l.08-.05c.15-.08,.49-.27,.95-.52,1.86-.99,5.67-2.86,6.63-2.14,1.04,.79,2.31,2.33,2.72,2.85,.09,.11,.14,.18,.14,.18,0,0,0,0,.02,0,.02,0,.06-.04,.11-.06,.11-.06,.28-.15,.5-.26,1.44-.74,4.95-2.4,6.07-1.9,0,0,0,0,.02,0,.18,.08,.39,.25,.64,.47,.02,.02,.03,.03,.04,.04,1.17,1.09,2.98,3.47,4.08,4.99,.13,.18,.25,.35,.36,.5,.1,.14,.18,.27,.26,.38,.12,.18,.21,.3,.26,.38,.04,.06,.07,.1,.07,.1,0,0,.05-.07,.16-.19,.05-.05,.11-.11,.18-.18,.1-.11,.23-.22,.37-.34,.16-.14,.34-.28,.54-.4,.07-.05,.14-.09,.21-.13,.16-.1,.33-.18,.51-.25,.69-.26,1.51-.32,2.35,.23,.1,.06,.3,.25,.58,.55,.15,.14,.31,.32,.48,.52,.67,.72,1.6,1.76,2.75,3.08,1.73,1.98,3.96,4.58,6.52,7.6,1.11,1.3,2.28,2.7,3.51,4.15l.2,.24c14.2,16.79,21.99,38.07,21.99,60.06Z"/><path class="h" d="M92,129.56c.08,.1,.06,.25-.04,.33-.1,.08-.25,.06-.33-.04-.11-.15-5.93-9.07-11.8-16.73"/><path class="h" d="M100.07,128.18c-.08,0-.15-.04-.19-.1-2.8-4.18-8.43-12.29-9.66-13.09-1.2-.78-5.75,1.69-7.4,2.71-.11,.07-.25,.03-.32-.08-.07-.11-.03-.25,.08-.32,.63-.39,6.23-3.79,7.9-2.71,1.62,1.05,9.46,12.72,9.79,13.22,.07,.11,.04,.25-.06,.32-.04,.03-.09,.04-.13,.04Z"/><path class="h" d="M108.36,126.59c-.07,0-.15-.04-.19-.1-2.31-3.41-6.95-10.05-7.99-10.78-.9-.64-4.68,1.09-6.84,2.32-.11,.06-.26,.02-.32-.09-.06-.11-.02-.26,.09-.32,.6-.34,5.91-3.31,7.35-2.3,1.37,.97,7.84,10.5,8.11,10.9,.07,.11,.04,.25-.06,.33-.04,.03-.09,.04-.13,.04Z"/></g><circle class="g" cx="80.6" cy="188.25" r="6.33"/></g></g></svg>