<?xml version="1.0" encoding="UTF-8"?><svg xmlns="http://www.w3.org/2000/svg" viewBox="0 0 1395.28 238.94"><defs><style>.d{fill:#f3cc44;}.e{fill:#ee685a;}.f{fill:#ee9234;}.g{fill:#10acd5;}.h{fill:#1c313a;}.i{fill:#57bb8b;}</style></defs><g id="a"/><g id="b"><g id="c"><polygon class="i" points="294.1 238.94 0 0 0 238.94 294.1 238.94"/><g><g><polygon class="d" points="1055.66 238.94 1127.71 167.02 1199.93 238.94 1055.66 238.94"/><polygon class="f" points="1276.37 120.65 1157.47 238.94 1395.28 238.94 1276.37 120.65"/></g><g><path class="d" d="M1330.45,181.82c6.04,5.25,8.03,12.85,8.03,12.85,0,0-7.8-.92-13.83-6.18-6.04-5.25-8.03-12.85-8.03-12.85,0,0,7.8,.92,13.83,6.18Z"/><path class="g" d="M1365.26,162.29c0-14.83-12.02-26.86-26.86-26.86s-26.86,12.02-26.86,26.86h53.72Z"/><path class="e" d="M1355.57,162.29c0-9.48-7.69-17.17-17.17-17.17s-17.17,7.69-17.17,17.17h34.35Z"/><g><g><path class="g" d="M1346.82,202.87c-6.04,5.25-8.42,12.4-8.42,12.4,0,0,7.41-1.37,13.45-6.62,6.04-5.25,8.42-12.4,8.42-12.4,0,0-7.41,1.37-13.45,6.62Z"/><rect class="h" x="1337.78" y="162.29" width="1.42" height="76.65"/></g><rect class="h" x="1309.05" y="161.58" width="58.71" height="1.42"/></g></g></g></g></g></svg>