<?xml version="1.0" encoding="UTF-8"?><svg xmlns="http://www.w3.org/2000/svg" xmlns:xlink="http://www.w3.org/1999/xlink" viewBox="0 0 367.53 242.3"><defs><style>.e,.f{fill:none;}.g{fill:#f5ce44;}.h{fill:#f1685a;}.i{fill:#3f91cf;}.j{fill:#1c313a;}.k,.l{fill:#57bd8d;}.m{fill:#5f5b90;}.l{stroke:#57bd8d;}.l,.f{stroke-miterlimit:10;}.f{stroke:#1c313a;}.n{clip-path:url(#d);}.o{fill:#494949;opacity:.3;}</style><clipPath id="d"><polygon class="e" points="281.59 241.06 174.73 241.37 174.61 0 281.59 0 281.59 241.06"/></clipPath></defs><g id="a"/><g id="b"><g id="c"><line class="f" x1="367.53" y1="241.8" y2="241.8"/><g class="n"><g><polygon class="j" points="205.17 158.05 208.79 155.03 217.24 155.03 217.74 162.27 205.17 158.05"/><polygon class="j" points="252.73 158.05 249.1 155.03 240.65 155.03 240.15 162.27 252.73 158.05"/><rect class="l" x="218.95" y="40.64" width="20.83" height="21.08"/><path class="l" d="M239.77,40.64h-20.83l1.05-11.57c.17-1.87,1.72-3.3,3.57-3.3h11.59c1.85,0,3.4,1.43,3.57,3.3l1.05,11.57Z"/><path class="l" d="M239.77,61.71h-20.83l1.05,11.57c.17,1.87,1.72,3.3,3.57,3.3h11.59c1.85,0,3.4-1.43,3.57-3.3l1.05-11.57Z"/><path class="h" d="M223.57,74.39c-.74,0-1.35-.56-1.42-1.31l-.83-9.18h16.09l-.83,9.19c-.07,.75-.68,1.31-1.42,1.31h-11.59Z"/><rect class="h" x="259.58" y="91.79" width="7.53" height="10.42" rx="2.25" ry="2.25"/><ellipse class="j" cx="229.36" cy="51.17" rx="8.06" ry="8.15"/><path class="g" d="M255.44,16.69c-1.57-5.77-7-5.97-7-5.97h-38.16s-5.42,.2-7,5.97c-1.57,5.77-2.95,19.16-2.95,19.16h18.56s-.82-5.02-5.29-5.22l1.48-12.41c.2-1.67,1.6-2.92,3.26-2.92h22.05c1.66,0,3.06,1.25,3.26,2.92l1.48,12.41c-4.48,.2-5.29,5.22-5.29,5.22h18.56s-1.38-13.39-2.95-19.16Z"/><path class="k" d="M200.33,35.85s-5.81,22.42-2.43,72.21c.14,2.11,1.88,3.76,3.97,3.76h7.55V35.85h-9.09Z"/><path class="k" d="M258.39,35.85s5.81,22.42,2.43,72.21c-.14,2.11-1.88,3.76-3.97,3.76h-7.55V35.85h9.09Z"/><polygon class="j" points="249.67 123.34 209.04 123.34 203.99 111.81 254.72 111.81 249.67 123.34"/><rect class="h" x="225.82" y="123.34" width="7.08" height="7.17"/><rect class="h" x="222.39" y="123.34" width="3.43" height="7.17"/><rect class="h" x="232.9" y="123.34" width="3.43" height="7.17"/><path class="h" d="M250.39,123.34h-42.06c-1.64,0-2.97,1.33-2.97,2.97v1.23c0,1.64,1.33,2.97,2.97,2.97h42.06c1.64,0,2.97-1.33,2.97-2.97v-1.23c0-1.64-1.33-2.97-2.97-2.97Z"/><rect class="i" x="224.23" y="29.95" width="10.26" height="6.66" rx="1.99" ry="1.99"/><path class="j" d="M230.99,33.28c0,.91-.73,1.65-1.63,1.65s-1.63-.74-1.63-1.65,.73-1.65,1.63-1.65,1.63,.74,1.63,1.65Z"/><path class="i" d="M241.09,13.57h-23.47c-7.6,0-6.8,5.85-8.2,22.28v53.43l9.52-3.77V36.68c0-.76-.14-1.52-.43-2.23-.61-1.5-2-3.7-4.92-3.83l1.48-12.41c.2-1.67,1.6-2.92,3.26-2.92h22.05c1.66,0,3.06,1.25,3.26,2.92l1.48,12.41c-2.93,.13-4.32,2.33-4.92,3.83-.29,.71-.43,1.46-.43,2.23v48.83l9.39,3.2,.13-52.87c-1.4-16.43-.6-22.28-8.2-22.28Z"/><rect class="h" x="206.68" y="85.51" width="45.36" height="26.3" rx="7.86" ry="7.86"/><ellipse class="j" cx="244.53" cy="68.64" rx="3.27" ry="3.31"/><path class="j" d="M246.46,68.64c0,1.08-.86,1.95-1.93,1.95s-1.93-.87-1.93-1.95,.86-1.95,1.93-1.95,1.93,.87,1.93,1.95Z"/><polygon class="h" points="221.21 180.72 200.01 176.03 204.12 156.99 225.32 161.68 221.21 180.72"/><polygon class="h" points="203.58 176.82 200.01 176.03 204.12 156.99 207.69 157.78 203.58 176.82"/><polygon class="o" points="221.21 180.72 219.36 180.31 223.48 161.27 225.32 161.68 221.21 180.72"/><polygon class="h" points="236.68 180.72 257.88 176.03 253.77 156.99 232.57 161.68 236.68 180.72"/><polygon class="h" points="254.43 176.79 257.88 176.03 253.77 156.99 250.32 157.75 254.43 176.79"/><polygon class="o" points="236.68 180.72 238.53 180.31 234.42 161.27 232.57 161.68 236.68 180.72"/><path class="h" d="M254.37,149.79v4.8c0,1.21-1.12,2.2-2.49,2.2h-45.86c-1.37,0-2.49-.99-2.49-2.2v-4.8c0-1.21,1.13-2.2,2.49-2.2h45.86c1.37,0,2.49,.99,2.49,2.2Z"/><rect class="j" x="215.43" y="130.33" width="27.03" height="17.26"/><rect class="h" x="213.52" y="158.66" width="30.85" height="19.49"/><rect class="m" x="220.15" y="168.14" width="17.59" height="4.01"/><rect class="m" x="213.52" y="158.66" width="2.68" height="19.49"/><rect class="m" x="241.69" y="158.66" width="2.68" height="19.49"/><polygon class="i" points="192.48 244.74 206.98 177.57 200.01 176.03 185.17 244.74 192.48 244.74"/><polygon class="i" points="207.5 244.74 221.32 180.74 214.34 179.2 200.19 244.74 207.5 244.74"/><rect class="j" x="213.52" y="178.15" width="8.45" height="66.59"/><polygon class="i" points="257.7 244.74 243.55 179.2 236.57 180.74 250.39 244.74 257.7 244.74"/><rect class="j" x="235.92" y="178.15" width="8.45" height="66.59"/><polyline class="i" points="257.88 176.03 250.91 177.57 265.41 244.74 272.72 244.74"/></g></g></g></g></svg>