<?xml version="1.0" encoding="UTF-8"?><svg xmlns="http://www.w3.org/2000/svg" viewBox="0 0 330.53 129.03"><defs><style>.d{fill:#f5ce44;}.e{fill:#fff;}.f{fill:#f1685a;}.g{fill:#fde89a;}.h{fill:#3f91cf;}.i{fill:#1c313a;}.j{fill:#3595e0;}.k{fill:#57bb8b;}.l{fill:#5f5b90;}</style></defs><g id="a"/><g id="b"><g id="c"><g><g><g><path class="i" d="M194.09,75.54l8.16,4.1c11.8,5.93,21.82,14.89,29.03,25.95l14.15,21.72c.35,.54,1,.8,1.63,.65h0c1-.24,1.48-1.39,.94-2.27l-14.9-24.57c-6.02-9.92-14.26-18.3-24.08-24.48l-6.86-4.32-8.08,3.22Z"/><path class="i" d="M136.49,75.91l-8.11,4.21c-11.72,6.08-21.63,15.16-28.7,26.32l-13.88,21.9c-.34,.54-.99,.81-1.62,.67h0c-1-.23-1.5-1.37-.97-2.25l14.59-24.76c5.89-10,14.03-18.48,23.77-24.78l6.81-4.41,8.12,3.11Z"/></g><g><g><g><path class="g" d="M225.63,6.27c.01,2.01,6.84,3.6,15.25,3.55,8.41-.05,37.22-1.87,37.21-3.88-.01-2.01-28.84-3.46-37.25-3.41-8.41,.05-15.21,1.73-15.2,3.74Z"/><path class="g" d="M330.53,5.61c-.01-2.01-6.84-3.6-15.25-3.55-8.41,.05-37.22,1.87-37.21,3.88,.01,2.01,28.84,3.46,37.25,3.41,8.41-.05,15.21-1.73,15.2-3.74Z"/></g><path class="k" d="M277.44,23.23h1.49c1.71-.02,3.12,2.5,3.11,.79l-.13-20.93c-.01-1.71-1.41-3.09-3.12-3.08h-1.49c-1.71,.02-3.09,1.42-3.08,3.13l.13,20.93c.01,1.71,1.38-.83,3.1-.84Z"/><path class="i" d="M272.78,15.72h10.94c2.61,0,4.73,2.12,4.73,4.73v25.89c0,.59-.48,1.06-1.06,1.06h-18.26c-.59,0-1.06-.48-1.06-1.06V20.45c0-2.61,2.12-4.73,4.73-4.73Z" transform="translate(556.68 61.37) rotate(179.64)"/></g><g><g><path class="g" d="M0,7.69c.01,2.01,6.84,3.6,15.25,3.55,8.41-.05,37.22-1.87,37.21-3.88S23.61,3.89,15.2,3.95C6.79,4-.01,5.68,0,7.69Z"/><path class="g" d="M104.9,7.03c-.01-2.01-6.84-3.6-15.25-3.55-8.41,.05-37.22,1.87-37.21,3.88s28.84,3.46,37.25,3.41c8.41-.05,15.21-1.73,15.2-3.74Z"/></g><path class="k" d="M51.81,24.65h1.49c1.71-.02,3.12,2.5,3.11,.79l-.13-20.93c-.01-1.71-1.41-3.09-3.12-3.08h-1.49c-1.71,.02-3.09,1.42-3.08,3.13l.13,20.93c.01,1.71,1.38-.83,3.1-.84Z"/><path class="i" d="M47.15,17.14h10.94c2.61,0,4.73,2.12,4.73,4.73v25.89c0,.59-.48,1.06-1.06,1.06h-18.26c-.59,0-1.06-.48-1.06-1.06V21.87c0-2.61,2.12-4.73,4.73-4.73Z" transform="translate(105.43 65.63) rotate(179.64)"/></g></g><g><g><rect class="l" x="159.96" y="65.41" width="5.32" height="16.35" rx="1.23" ry="1.23" transform="translate(-.46 1.03) rotate(-.36)"/><rect class="l" x="165.28" y="65.37" width="5.32" height="16.35" rx="1.23" ry="1.23" transform="translate(-.46 1.06) rotate(-.36)"/></g><g><path class="f" d="M119.83,55.69c.01,2.01-1.6,3.64-3.61,3.66-2.01,.01-3.64-1.6-3.66-3.61s1.6-3.64,3.61-3.66,3.64,1.6,3.66,3.61Z"/><path class="f" d="M217.76,55.07c.01,2.01-1.6,3.64-3.61,3.66-2.01,.01-3.64-1.6-3.66-3.61s1.6-3.64,3.61-3.66c2.01-.01,3.64,1.6,3.66,3.61Z"/></g><path class="j" d="M288.63,24.38l-5.77,.04c-7.86,.05-15.47,2.73-21.63,7.61l-17.78,14.09c-7.46,5.91-16.69,9.16-26.21,9.22h0c-5.83,.04-11.36-2.6-15.01-7.16h0c-3.69-4.62-9.29-7.29-15.2-7.25l-21.96,.14-21.96,.14c-5.91,.04-11.48,2.78-15.11,7.44h0c-3.59,4.6-9.08,7.31-14.92,7.35h0c-9.52,.06-18.78-3.07-26.32-8.88l-17.96-13.86c-6.22-4.8-13.87-7.38-21.72-7.33l-5.64,.04c-1.59,0-3,1.16-3.17,2.74-.17,1.55,.83,2.95,2.3,3.32l6.37,1.61c5.37,1.36,10.3,4.07,14.32,7.88l6,5.68c18.84,17.86,43.42,28.43,69.34,29.83l11.45,.62c11.49,.62,23.01,.55,34.5-.22l11.44-.76c25.9-1.72,50.35-12.6,68.96-30.7l5.92-5.76c3.97-3.86,8.87-6.64,14.22-8.06l6.23-1.66c1.25-.33,2.24-1.36,2.38-2.65,.21-1.87-1.25-3.44-3.08-3.43Z"/><g><line class="h" x1="174.86" y1="69.53" x2="174.52" y2="69.54"/><path class="h" d="M173.47,51.01c0-.51,.41-.93,.92-.94"/></g></g></g><g><path class="i" d="M152.75,101.56l.06,9.14c.05,7.24,5.95,13.07,13.19,13.03,7.24-.05,13.07-5.95,13.03-13.19l-.06-9.14-26.22,.17Z"/><g><rect class="l" x="162.05" y="78.93" width="7.4" height="9.45" transform="translate(-.52 1.05) rotate(-.36)"/><g><rect class="d" x="148.37" y="88.38" width="34.99" height="25.55" rx="3.83" ry="3.83" transform="translate(-.63 1.05) rotate(-.36)"/><g><path class="i" d="M175.5,101.1c.03,5.1-4.08,9.26-9.18,9.29-5.1,.03-9.26-4.08-9.29-9.18-.03-5.1,4.08-9.26,9.18-9.29,5.1-.03,9.26,4.08,9.29,9.18Z"/><path class="e" d="M173.35,101.11c.02,3.91-3.13,7.1-7.04,7.13-3.91,.02-7.1-3.13-7.13-7.04-.02-3.91,3.13-7.1,7.04-7.13,3.91-.02,7.1,3.13,7.13,7.04Z"/></g></g></g></g></g></g></g></svg>