<?xml version="1.0" encoding="UTF-8"?><svg xmlns="http://www.w3.org/2000/svg" viewBox="0 0 367.53 159.28"><defs><style>.d{fill:#002040;}.e{fill:#f5ce44;}.f{fill:#f1685a;}.g{fill:none;stroke:#1c313a;stroke-miterlimit:10;}</style></defs><g id="a"/><g id="b"><g id="c"><line class="g" x1="367.53" y1="158.78" y2="158.78"/><g><path class="d" d="M267.47,81.94h0c4.34-8.06,6.76-17.29,6.63-27.09C273.68,24.15,248.45-.41,217.75,0c-30.7,.41-55.26,25.64-54.84,56.34,.13,9.8,2.8,18.97,7.36,26.9h0l.08,.12c1.18,2.05,2.48,4.01,3.9,5.88l45.64,68.69,43.77-69.89c1.37-1.91,2.62-3.91,3.75-5.98l.07-.12Z"/><path class="e" d="M255.03,52.7c.27,20.19-15.88,36.78-36.07,37.05-20.19,.28-36.78-15.87-37.05-36.07-.27-20.19,15.87-36.78,36.06-37.05,20.19-.27,36.78,15.87,37.05,36.07Z"/><path class="f" d="M234.01,52.99c.12,8.59-6.75,15.64-15.33,15.76-8.59,.12-15.64-6.75-15.76-15.34-.12-8.59,6.75-15.64,15.34-15.75,8.59-.12,15.64,6.75,15.75,15.34Z"/></g></g></g></svg>