<?xml version="1.0" encoding="UTF-8"?><svg xmlns="http://www.w3.org/2000/svg" viewBox="0 0 331.75 108.36"><defs><style>.d{fill:#002040;}.e{fill:#f0ece7;}.f{fill:#f5ce44;}.g{fill:#fff;}.h{fill:#f1685a;}.i{fill:#cdcfc2;}.j{fill:#d94244;}.k{fill:#5f5b90;}</style></defs><g id="a"/><g id="b"><g id="c"><g><g><g><path class="j" d="M99.44,75.57c-3.81,4.92-6.33,9.79-7.42,12.09-.37,.78,.06,1.87,1,2.56,1.09,.81,2.45,.77,2.97-.07,3.8-6.23,7.79-10.72,11.55-13.98-2.62-.68-5.39-.89-8.1-.6Z"/><path class="d" d="M118.75,50.19l-.6,7.23c-.23,2.76-1.75,4.99-4.28,6.09-5.93,2.58-10.78,7.35-14.43,12.07,2.71-.29,5.48-.08,8.1,.6,6.38-5.52,12.13-7.45,15.23-8.12,1.66-.36,3.04-1.18,3.94-2.4l5.01-6.77-12.97-8.7Z"/><path class="h" d="M106.57,81.76l-.06-.04c-.74-.49-1.66-.6-2.49-.31-.9,.3-1.85,.58-2.85,.83-11.72,2.86-16.13,13.79-16.81,22.96-.11,1.52,.95,2.94,2.45,3.14,1.7,.23,3.19-1.06,3.24-2.74,.16-4.82,1.71-14.23,11.1-17.15,1.76-.55,3.37-1.1,4.84-1.64,2.19-.81,2.52-3.77,.58-5.05Z"/></g><g><path class="j" d="M232.31,75.57c3.81,4.92,6.33,9.79,7.42,12.09,.37,.78-.06,1.87-1,2.56-1.09,.81-2.45,.77-2.97-.07-3.8-6.23-7.79-10.72-11.55-13.98,2.62-.68,5.39-.89,8.1-.6Z"/><path class="d" d="M213,50.19l.6,7.23c.23,2.76,1.75,4.99,4.28,6.09,5.93,2.58,10.78,7.35,14.43,12.07-2.71-.29-5.48-.08-8.1,.6-6.38-5.52-12.13-7.45-15.23-8.12-1.66-.36-3.04-1.18-3.94-2.4l-5.01-6.77,12.97-8.7Z"/><path class="h" d="M225.18,81.76l.06-.04c.74-.49,1.66-.6,2.49-.31,.9,.3,1.85,.58,2.85,.83,11.72,2.86,16.13,13.79,16.81,22.96,.11,1.52-.95,2.94-2.45,3.14-1.7,.23-3.19-1.06-3.24-2.74-.16-4.82-1.71-14.23-11.1-17.15-1.76-.55-3.37-1.1-4.84-1.64-2.19-.81-2.52-3.77-.58-5.05Z"/></g></g><g><path class="h" d="M106.91,32.62c0,2.02-1.64,3.66-3.66,3.66s-3.66-1.64-3.66-3.66,1.64-3.66,3.66-3.66,3.66,1.64,3.66,3.66Z"/><circle class="h" cx="228.51" cy="32.62" r="3.66"/></g><g><g><g><g><path class="i" d="M230.8,5.71c0,1.94,6.56,3.51,14.65,3.51s35.83-1.57,35.83-3.51-27.74-3.51-35.83-3.51-14.65,1.57-14.65,3.51Z"/><path class="i" d="M331.75,5.71c0-1.94-6.56-3.51-14.65-3.51s-35.83,1.57-35.83,3.51,27.74,3.51,35.83,3.51,14.65-1.57,14.65-3.51Z"/></g><path class="e" d="M280.56,22.35h1.44c1.65,0,2.99,2.43,2.99,.79V2.99c0-1.65-1.34-2.99-2.99-2.99h-1.44c-1.65,0-2.98,1.34-2.98,2.99V23.13c0,1.65,1.34-.79,2.98-.79Z"/></g><g><ellipse class="d" cx="281.28" cy="37.38" rx="16.14" ry="21.15"/><path class="j" d="M298.19,44.75h-33.83c.64,2.54,1.61,4.88,2.83,6.94h28.16c1.22-2.07,2.19-4.41,2.83-6.94Z"/><path class="k" d="M267.2,51.69c3.26,5.5,8.35,9.05,14.08,9.05s10.82-3.54,14.08-9.05h-28.16Z"/><path class="k" d="M299.1,37.38c0-4.15-.83-8.04-2.28-11.42-.59-1.38-1.96-2.26-3.45-2.26h-24.19c-1.5,0-2.86,.88-3.45,2.26-1.45,3.38-2.28,7.27-2.28,11.42,0,2.57,.32,5.05,.91,7.36h33.83c.59-2.32,.91-4.79,.91-7.36Z"/></g><path class="d" d="M182.71,62.16l98.93-19.37c2.41-.47,4.15-2.58,4.15-5.04h0c0-2.83-2.3-5.13-5.13-5.13h-97.95v29.54Z"/></g><g><g><g><path class="i" d="M100.95,5.71c0,1.94-6.56,3.51-14.65,3.51s-35.83-1.57-35.83-3.51,27.74-3.51,35.83-3.51,14.65,1.57,14.65,3.51Z"/><path class="i" d="M0,5.71c0-1.94,6.56-3.51,14.65-3.51s35.83,1.57,35.83,3.51-27.74,3.51-35.83,3.51S0,7.65,0,5.71Z"/></g><path class="e" d="M51.2,22.35h-1.44c-1.65,0-2.98,2.43-2.98,.79V2.99c0-1.65,1.34-2.99,2.98-2.99h1.44c1.65,0,2.98,1.34,2.98,2.99V23.13c0,1.65-1.34-.79-2.98-.79Z"/></g><g><ellipse class="d" cx="50.48" cy="37.38" rx="16.14" ry="21.15"/><path class="j" d="M33.56,44.75h33.83c-.64,2.54-1.61,4.88-2.83,6.94h-28.16c-1.22-2.07-2.19-4.41-2.83-6.94Z"/><path class="k" d="M64.56,51.69c-3.26,5.5-8.35,9.05-14.08,9.05s-10.82-3.54-14.08-9.05h28.16Z"/><path class="k" d="M32.65,37.38c0-4.15,.83-8.04,2.28-11.42,.59-1.38,1.96-2.26,3.45-2.26h24.19c1.5,0,2.86,.88,3.45,2.26,1.45,3.38,2.28,7.27,2.28,11.42,0,2.57-.32,5.05-.91,7.36H33.56c-.59-2.32-.91-4.79-.91-7.36Z"/></g><path class="d" d="M149.04,62.16L50.11,42.79c-2.41-.47-4.15-2.58-4.15-5.04h0c0-2.83,2.3-5.13,5.13-5.13h97.95v29.54Z"/></g></g><g><ellipse class="d" cx="165.88" cy="50.74" rx="38.12" ry="49.95"/><path class="g" d="M166.14,8.81c.45,3.02-1.63,5.83-4.64,6.29-3.02,.45-5.83-1.63-6.29-4.64-.45-3.02,1.63-5.83,4.64-6.29,3.02-.45,5.83,1.63,6.29,4.64Z"/><path class="g" d="M170.57,17.51c.23,1.56-.84,3.01-2.39,3.24-1.56,.23-3.01-.84-3.24-2.39-.23-1.56,.84-3.01,2.39-3.24,1.56-.23,3.01,.84,3.24,2.39Z"/><path class="j" d="M205.82,68.13H125.93c1.52,5.99,3.8,11.52,6.69,16.4h66.5c2.89-4.88,5.17-10.41,6.69-16.4Z"/><path class="f" d="M132.63,84.53c7.7,13,19.72,21.37,33.25,21.37s25.55-8.37,33.25-21.37h-66.5Z"/><path class="f" d="M207.97,50.74c0-9.8-1.95-18.99-5.37-26.96-1.39-3.25-4.62-5.34-8.16-5.34h-57.12c-3.54,0-6.76,2.08-8.16,5.34-3.42,7.97-5.37,17.17-5.37,26.96,0,6.08,.76,11.92,2.15,17.39h79.89c1.39-5.47,2.15-11.31,2.15-17.39Z"/></g><g><rect class="j" x="154.24" y="40.86" width="2.8" height="19.75" rx=".59" ry=".59"/><rect class="j" x="161.06" y="40.86" width="2.8" height="19.75" rx=".59" ry=".59"/><rect class="j" x="167.89" y="40.86" width="2.8" height="19.75" rx=".59" ry=".59"/><rect class="j" x="174.71" y="40.86" width="2.8" height="19.75" rx=".59" ry=".59"/></g></g></g></g></svg>