<?xml version="1.0" encoding="UTF-8"?><svg xmlns="http://www.w3.org/2000/svg" viewBox="0 0 367.53 181.89"><defs><style>.d{fill:#f09433;}.e{fill:#f5ce44;}.f{fill:#f1685a;}.g{fill:none;stroke:#1c313a;stroke-miterlimit:10;}</style></defs><g id="a"/><g id="b"><g id="c"><line class="g" x1="367.53" y1="181.39" y2="181.39"/><g><g><polygon class="e" points="212.15 38.38 288.17 38.38 309.88 58.08 309.34 58.59 212.15 58.59 212.15 38.38"/><polygon class="d" points="309.34 58.59 288.19 78.8 212.15 78.8 212.15 58.59 309.34 58.59"/></g><g><polygon class="e" points="128.47 89.05 150.18 69.35 226.2 69.35 226.2 89.56 129 89.56 128.47 89.05"/><polygon class="d" points="226.2 89.56 226.2 109.77 150.16 109.77 129 89.56 226.2 89.56"/></g><g><polygon class="e" points="128.47 27.1 150.18 7.41 226.2 7.41 226.2 27.62 129 27.62 128.47 27.1"/><polygon class="d" points="226.2 27.62 226.2 47.83 150.16 47.83 129 27.62 226.2 27.62"/></g><g><path class="f" d="M227.74,8.72V179.12h-8.72V0c4.82,0,8.72,3.9,8.72,8.72Z"/><path class="f" d="M210.3,8.72c0-4.81,3.9-8.72,8.72-8.72V179.12h-8.72V8.72Z"/></g></g></g></g></svg>