<?xml version="1.0" encoding="UTF-8"?><svg xmlns="http://www.w3.org/2000/svg" viewBox="0 0 198.39 222.81"><defs><style>.d{fill:none;}.e{fill:#ee9234;}.f{fill:#1c313a;}</style></defs><g id="a"/><g id="b"><g id="c"><g><path class="f" d="M20.79,213.65h0c10.7,11.57,28.91,12.28,40.48,1.58l86.21-79.72c11.57-10.7,12.28-28.91,1.58-40.48h0c-10.7-11.57-28.91-12.28-40.48-1.58L22.37,173.16c-11.57,10.7-12.28,28.91-1.58,40.48Z"/><g><g><path class="e" d="M10.2,182.73c12.75,13.13,33.26,14.49,47.6,3.85,1.27-.94,2.49-1.98,3.65-3.11l15.36-14.91,33.47-32.51,.78-38.36v-.19c.18-2.85,2.58-5.12,5.46-5.1,2.94,.02,5.29,2.45,5.23,5.39l-.56,27.67,21.26-20.65c14.13-13.73,14.63-36.42,1.22-50.75-.15-.17-.31-.33-.47-.49-6.55-6.75-15.14-10.38-23.89-10.89-9.8-.57-19.8,2.8-27.35,10.13l-39.41,38.28,26.83-6.91c.37-.1,.75-.13,1.12-.11,1.54,.09,2.9,1.16,3.29,2.73,.48,1.94-.72,3.94-2.67,4.44l-39.1,10.07-19.43,18.88-11.63,11.29c-2.03,1.97-3.79,4.14-5.25,6.44-8.85,13.84-7.4,32.55,4.51,44.81Z"/><rect class="f" x="7.44" y="128.4" width="68.11" height="2.51" transform="translate(-29.47 13.48) rotate(-13.67)"/><rect class="f" x="26.37" y="110.15" width="68.22" height="2.51" transform="translate(-24.54 17.38) rotate(-13.62)"/><rect class="f" x="35.89" y="149.24" width="61.83" height="2.51" transform="translate(-96.35 172.75) rotate(-73.83)"/><rect class="f" x="54.67" y="131.3" width="63.02" height="2.51" transform="translate(-64.56 180.28) rotate(-74.54)"/><rect class="f" x="-2.67" y="81.17" width="233.39" height="2.51" transform="translate(-25.14 103.1) rotate(-44.31)"/></g><path class="d" d="M30.29,103.64c.48,1.54,1.9,2.53,3.44,2.53,.37,0,.74-.06,1.11-.18l6.8-2.18,38.45-12.31c1.92-.61,3-2.67,2.41-4.58-.48-1.54-1.9-2.53-3.44-2.53-.37,0-.74,.06-1.11,.18l-26.39,8.45h0l-18.86,6.04c-1.91,.62-2.99,2.67-2.4,4.58Z"/></g></g></g></g></svg>