<?xml version="1.0" encoding="UTF-8"?><svg xmlns="http://www.w3.org/2000/svg" viewBox="0 0 202.92 242.64"><defs><style>.d{fill:#03aed7;}.e{fill:#f09433;}.f{fill:#f5ce44;}.g{fill:#f2a742;}.h{fill:#f1685a;}.i{fill:#fdf6e6;}.j{fill:#fde89a;}.k{fill:#07aa7d;}.l{fill:#3595e0;}</style></defs><g id="a"/><g id="b"><g id="c"><circle class="l" cx="116.46" cy="122.89" r="80.59"/><path class="i" d="M163.8,120.37c1.04-.71,2.05-1.24,2.84-2,.96-.92,2.41-2.01,2.47-3.09,.27-4.81,.12-9.64,.12-14.64-3.72,0-7.12,.03-10.51,0-3.22-.04-7.04,.87-9.49-.55-2.22-1.29-3.05-5.1-4.31-7.89-.68-1.5-1.61-1.85-3.16-1.83-5.97,.09-11.94,.04-17.91,.04h-5.24c0-2.87-.09-5.42,.03-7.96,.08-1.58-.44-2.48-1.91-3.13-2.71-1.2-5.34-2.6-8.2-4.01,.88-1.8,1.84-3.41,2.49-5.14,1.38-3.64,3.79-6.28,7-8.47,4.71-3.22,9.2-6.77,13.77-10.19,.65-.49,1.25-1.04,1.56-1.3-1.74-1.79-3.32-3.42-4.97-5.12-6.66,4-13.48,8.03-20.23,12.17-2.86,1.76-5.62,3.51-9.23,2.91-.69-.12-1.49,.25-2.22,.49-3.65,1.17-7.24,2.51-10.94,3.52-2.08,.57-3.04,1.52-2.65,3.69,.98,5.37-1.1,9.24-5.19,12.81-5.25,4.57-9.92,9.8-14.94,14.84,.47,.53,.84,.98,1.25,1.39,5.87,5.91,9.17,12.69,8.88,21.37-.17,5.34-.89,10.17-3.57,14.83-1.19,2.08-2.21,3.39-4.78,3.01-.67-.1-1.93,.5-2.14,1.06-1.68,4.61-3.18,9.28-4.72,13.9,6.61,3.24,15.27,5.2,22.1,5.32,3.55,.06,7.15,.14,10.62,.78,9.22,1.72,16.62,6.57,22.42,13.91,.1,.13,.24,.24,.36,.36,2.68,2.82,6.54,4.98,5,10.24,6.47-1.58,12.4-3.05,18.34-4.47,.89-.21,1.98-.51,2.72-.19,3.18,1.4,6.26,3.01,9.51,4.61-1.71,3.46-3.31,6.7-5,10.12,3.34,1.69,6.5,3.29,10.17,5.14,0-7.63-.27-14.71,.08-21.76,.3-5.9-.83-11.19-3.81-16.31-1.18-2.03-1.21-4.73-1.88-7.59h5.46v-4.93c-1.71-.09-3.27-.17-4.7-.25v-9.8h20.05v9.94c1.05,0,1.82,.02,2.58,0,.74-.02,1.48-.09,2.12-.13,1.85-10.43-2.55-18.31-10.25-25.69Zm-98.45,24.23c-.14,.81-.42,1.6-.77,2.65,.35-1.06,.63-1.84,.77-2.65Zm12.01-16.56c-.24,1.56-.81,3.07-1.55,4.56,.74-1.49,1.31-3,1.55-4.56Zm10.91-57.22c.04-.52,.16-.91,.32-1.24-.16,.34-.28,.72-.32,1.24Zm1.88-2.58c.65-.3,1.52-.6,2.66-1-1.14,.4-2.01,.7-2.66,1Zm71.69,47.93c-1.39,1.63-3.14,3.1-4.8,4.62,1.66-1.52,3.42-2.99,4.8-4.62Zm-20.45-19.48c-.62-.82-1.42-1.18-2.69-1.19,1.27,0,2.07,.37,2.69,1.19Zm-27.98-11.96c.3,.87,.36,1.91,.21,3.14,.15-1.23,.09-2.27-.21-3.14Zm16.15,10.83c-2.98,0-5.97-.02-8.95-.02,2.98,0,5.97,.02,8.95,.02Z"/><path class="g" d="M111.08,226.7c-.15,0-.27,.44-.27,.29V.27c0-.15,.12-.27,.27-.27s.27,.12,.27,.27V226.99c0,.15-.12-.29-.27-.29Z"/><path class="g" d="M202.65,126.12H12.95c-.15,0-.27-.12-.27-.27s.12-.27,.27-.27H202.65c.15,0,.27,.12,.27,.27s-.12,.27-.27,.27Z"/><path class="g" d="M111.08,122.58c-1.8,0-3.27,1.46-3.27,3.27s1.46,3.27,3.27,3.27,3.27-1.46,3.27-3.27-1.46-3.27-3.27-3.27"/><circle class="e" cx="171.56" cy="58.92" r="25.49"/><path class="d" d="M169.42,11.19c-1.33,1.97-2.1,4.33-2.1,6.88v12.83h-.96l-7.97-4.11c-1.46,1.81-2.34,4.12-2.34,6.64s.88,4.82,2.34,6.64l7.97-4.11h.96v12.83c0,2.55,.77,4.92,2.1,6.88l1.3,1.61c.64,.67,1.34,1.27,2.12,1.78l1.3,.75c.66,.33,1.35,.6,2.07,.81l1.3,.3c.7,.12,1.41,.19,2.14,.19v-26.1l7.42-.18c0-.98-.76-1.78-1.72-1.86-.38-1.32-1.59-2.28-3.03-2.28h-2.68V5.75c-.73,0-1.45,.07-2.14,.19l-1.3,.3c-.72,.21-1.41,.48-2.07,.81l-1.3,.75c-.77,.51-1.48,1.11-2.12,1.78l-1.3,1.61Z"/><g><rect class="j" x="55.26" y="140.7" width="5.61" height="5.61" transform="translate(-84.47 83.09) rotate(-45)"/><rect class="j" x="70.14" y="140.7" width="5.61" height="5.61" transform="translate(-80.11 93.61) rotate(-45)"/><rect class="j" x="10.63" y="140.7" width="5.61" height="5.61" transform="translate(-97.54 51.54) rotate(-45)"/><rect class="j" x="25.51" y="140.7" width="5.61" height="5.61" transform="translate(-93.18 62.06) rotate(-45)"/><rect class="j" x="40.39" y="140.7" width="5.61" height="5.61" transform="translate(-88.83 72.57) rotate(-45)"/><polyline class="h" points="41.06 171.99 41.05 211.18 44.68 211.18 44.69 172.7"/><path class="f" d="M57.67,183.84c-9.17,0-16.61,7.44-16.61,16.61v5.24l31.37-21.85h-14.77Z"/><path class="h" d="M41.07,205.8v36.84h3.62v-36.95h11.15c1.61,0,3.17-.23,4.64-.66,.49-.14,.97-.31,1.44-.49,.63-.25,1.24-.53,1.83-.85,.94-.51,1.83-1.11,2.65-1.79,.82-.68,1.57-1.43,2.25-2.25,2.37-2.87,3.79-6.55,3.79-10.56v-5.24l-31.37,21.96Z"/><path class="f" d="M41.07,196c0-7.77-6.3-14.07-14.07-14.07H14.48l26.59,18.52v-4.44Z"/><path class="h" d="M41.07,200.44l-26.59-18.52v4.44c0,1.46,.22,2.86,.63,4.18,.27,.88,.63,1.73,1.07,2.52,.6,1.1,1.33,2.11,2.19,3,.64,.67,1.35,1.28,2.11,1.82,.29,.2,.58,.39,.88,.57,2.11,1.26,4.57,1.98,7.2,1.98h12.51Z"/><path class="k" d="M44.18,176.85c18.72,0,35.12-9.95,44.18-24.86H0c9.07,14.9,25.46,24.86,44.18,24.86"/></g></g></g></svg>