<?xml version="1.0" encoding="UTF-8"?><svg xmlns="http://www.w3.org/2000/svg" viewBox="0 0 118.55 125"><defs><style>.d{fill:#03aed7;}.e{fill:#f09433;}</style></defs><g id="a"/><g id="b"><g id="c"><circle class="e" cx="46.01" cy="46.01" r="46.01"/><path class="d" d="M86.69,34.88c-2.39,3.55-3.79,7.82-3.79,12.43v23.16h-1.74l-14.39-7.41c-2.64,3.27-4.23,7.44-4.23,11.98s1.59,8.71,4.23,11.98l14.39-7.41h1.73v23.16c0,4.6,1.4,8.88,3.79,12.43l2.34,2.91c1.15,1.21,2.43,2.29,3.82,3.21l2.34,1.36c1.19,.6,2.44,1.09,3.74,1.47l2.34,.54c1.26,.22,2.55,.34,3.87,.34v-47.12l13.4-.32c0-1.77-1.36-3.22-3.1-3.35-.68-2.38-2.86-4.12-5.46-4.12h-4.84V25.06c-1.32,0-2.61,.12-3.87,.34l-2.34,.54c-1.3,.38-2.55,.87-3.74,1.47l-2.34,1.36c-1.39,.93-2.67,2-3.82,3.21l-2.34,2.9Z"/></g></g></svg>