<?xml version="1.0" encoding="UTF-8"?><svg xmlns="http://www.w3.org/2000/svg" viewBox="0 0 318.33 266.44"><defs><style>.d{fill:#f3cc44;}.e{fill:#ee685a;}.f{fill:#ee9234;}.g{fill:#10acd5;}.h{fill:#1c313a;}.i{fill:#5a5788;}.j{fill:#57bb8b;}.k{fill:#5f5b8e;}.l{fill:none;stroke:#1c313a;stroke-miterlimit:10;stroke-width:5px;}</style></defs><g id="a"/><g id="b"><g id="c"><g><g><path class="g" d="M195.67,48.8h122.66c0,60.17-48.85,109.03-109.03,109.03h-13.63V48.8h0Z" transform="translate(514 206.63) rotate(-180)"/><rect class="j" x="195.67" y="157.42" width="122.66" height="109.03" transform="translate(514 423.86) rotate(-180)"/><path class="f" d="M73.01,157.35h122.66c0,60.14-48.82,108.96-108.96,108.96h-13.69v-108.96h0Z" transform="translate(268.68 423.65) rotate(-180)"/><g><rect class="e" x="218.27" y="201.05" width="77.62" height="52.93" transform="translate(484.59 -29.57) rotate(90)"/><circle class="h" cx="257" cy="190.27" r="26.55" transform="translate(51.89 435.59) rotate(-86.62)"/></g></g><g><path class="d" d="M124.84,167.17s-16.59,20.29,22.04,27.8c17.93,3.49,36.2-15.5,44.87-29,.56-.87-.64-1.78-1.32-1-9.72,11.08-27.58,25.46-50.23,16.87-34.79-13.19-15.36-14.67-15.36-14.67Z"/><g><path class="e" d="M150.14,250.83l-7.86,15.61h-8.48l2.69-4.45,4.56-.41,4.13-13.44-10.87-23.98-2.16-4.77-9.33-7.52c-5.49-5.11-4.11-14.15,2.65-17.39,1.5-.72,3.06-1.05,4.6-1.05,4.98,0,9.6,3.53,10.51,8.86l6.31,31.98,3.27,16.57Z"/><path class="d" d="M144.59,202.17l1.66,15.54,8.75,11.16,9.81,27.46-5.73,10.11h-8.3l2.87-3.77,7.39-6.1-16.29-30.07-23-15.52h0c-.37-6.25,5.07-11.27,11.27-10.41l11.57,1.6Z"/><path class="d" d="M67.36,222.37l-4.86-38.28c-.81-6.4-6.83-10.8-13.17-9.63h0c-7.46,1.37-11.45,9.58-7.91,16.29l15.1,28.64,7.47,29.14-4.83,12.19c-3.05,.15-5.48,2.66-5.48,5.74h9.18l7.72-18.82-3.24-25.25Z"/><path class="e" d="M57.58,221.63l-4.86-38.28c-.81-6.4-6.83-10.8-13.17-9.63h0c-7.46,1.37-11.45,9.58-7.91,16.29l15.1,28.64,7.47,29.14-4.83,12.19c-3.05,.15-5.48,2.66-5.48,5.74h9.18l7.72-18.82-3.24-25.25Z"/><g><path class="d" d="M145.32,204.04c0,6.62-5.02,12.19-11.64,12.82-4.85,.47-9.54-1.84-12.12-5.97-5.49-8.77-15.6-23.17-23.68-24.77l-.42-.09c-7.86-1.56-15.97,.91-21.63,6.57l-2.49,2.5-7.06,7.07c-5.78,5.78-14.56,7.31-21.95,3.84l-.3-.14c-.98-.46-2.11-1.29-3.3-2.32-7.84-6.82-13.12-17.03-12-27.36,.24-2.2,1.79-4.54,1.79-6.95,0-6.19,.64-12.38,1.92-18.48h0l-.17-.89-1.49-7.63-1.56-8.01-.1-.52-1.2-6.14v-.03l-20.2-4.78c-1.98-.47-3.77-1.46-5.21-2.83,.64-.24,1.19-.62,1.59-1.2,1.04-1.52,.31-3.74-1.14-4.87l15.25-3.37,.06-.13c1.65-3.08,4.86-5.01,8.35-5.01h5.33c3.18,0,5.97,2.17,6.74,5.26l7.08,23.9,1.17,3.93,2.19,7.42,.7,2.37c7.27,5.87,15.01,9.04,23.92,9.05h.02c1.38,0,2.78-.08,4.22-.23,10.26-1.09,20.64-.31,30.62,2.32l1.9,.5c29.06,7.07,34.47,29.6,34.84,43.82,0,.12,0,.24,0,.36Z"/><path class="d" d="M45.58,133.98c-.09,.06-.19,.12-.29,.17-2.2,1.2-5.21,.26-6.62-1.81-1.42-2.07-1.34-4.95-.12-7.15,.76-1.38,1.92-2.53,2.46-4.01,.28-.78,.17-1.74-.02-2.7l4.59,15.5Z"/><path class="i" d="M4.07,118.72c-.4,.58-.95,.96-1.59,1.2-.78-.75-1.46-1.61-2.01-2.57l-.21-.37c-.65-1.12-.01-2.55,1.25-2.82l1.42-.31c1.45,1.13,2.18,3.35,1.14,4.87Z"/><path class="f" d="M28.61,113.39c-2.35-4.06,.97-9.23,5.61-8.51,.16,.02,.32,.06,.48,.09l8.75,2.04c2.85,.66,4.86,3.13,4.85,5.95l-.02,13.88c0,3.07-2.69,5.5-5.87,5.31h0c-1.9-.11-3.6-1.15-4.53-2.75l-9.26-16.02Z"/><path class="e" d="M49.1,145.85c-4.75,2.64-10.13,4.03-15.55,4.03-.43,0-.86,0-1.29-.02l-1.49-7.63c5.57,.64,11.43-.75,16.14-3.8l2.19,7.42Z"/></g></g></g><line class="l" x1="114.02" y1="0" x2="114.02" y2="265.62"/><path class="k" d="M114.02,134.09h0c9.94,0,18.07-8.13,18.07-18.07V29.73c0-9.94-8.13-18.07-18.07-18.07h0c-9.94,0-18.07,8.13-18.07,18.07V116.02c0,9.94,8.13,18.07,18.07,18.07Z"/></g></g></g></svg>