<?xml version="1.0" encoding="UTF-8"?><svg xmlns="http://www.w3.org/2000/svg" viewBox="0 0 226.86 170.77"><defs><style>.d{fill:#ee9234;}.e{fill:#10acd5;}.f{fill:#1c313a;}.g{fill:#57bb8b;}.h{fill:#ffeddb;opacity:.37;}</style></defs><g id="a"/><g id="b"><g id="c"><g><g><g><path class="d" d="M.63,48.04l.2,.04h.01c16.35,3.41,30.28,12.85,44.11,22.8,.29,.2,.58,.41,.87,.62,8.62,6.21,17.21,12.58,26.32,17.77,4.68,2.67,9.5,5.02,14.43,7.2,.33,.15,.65,.28,.98,.44,11.82,5.16,24.1,9.35,35.95,14.45,4.92,2.12,9.76,4.39,14.51,6.85,.37,.19,.73,.37,1.08,.57,.24,.12,.48,.25,.71,.38,1.22,.63,2.41,1.27,3.6,1.94h.01c2.05,1.11,4.07,2.26,6.08,3.45,1.08,.63,2.15,1.27,3.21,1.93,6.99,4.27,13.76,8.92,20.21,13.96,.33,.24,.66,.5,.99,.75,7.78,6.12,15.1,12.77,21.86,19.9,5.82,6.15,13.9,9.67,22.37,9.67h0c8.79-8.27,11.2-21.27,5.97-32.14l-5.97-12.41c0-5.16-1.5-10.23-4.46-14.46l-.05-.07c-1.11-1.6-2.25-3.17-3.42-4.73h0c-1.3-1.73-2.62-3.44-3.98-5.1-.24-.3-.49-.59-.73-.9-2.34-2.82-4.77-5.55-7.31-8.2-3.4-3.6-6.99-7.02-10.72-10.28-18-15.8-39.42-27.77-62.18-35.28-.87-.29-1.73-.57-2.59-.83-7.39-2.37-14.61-4.35-21.74-5.92h-.01c-2-.45-3.97-.86-5.95-1.23-3.29-.63-6.57-1.19-9.85-1.64h-.01c-9.69-1.36-19.33-1.96-29.16-1.74-.49,.01-.98,.03-1.45,.04-10.42,.32-21.03,1.52-32.13,3.66-10.22,1.97-16.89,5.59-21.85,7.53-.01,0-.03,.03-.04,.04-.44,.2-.37,.85,.12,.94Z"/><path class="f" d="M218.16,153.74v-2.01c-3.61-6.01-7.47-11.84-11.59-17.49h0c-.12-.2-.25-.38-.4-.56h-.01c-2.54-3.5-5.21-6.94-7.96-10.27-.25-.33-.52-.65-.79-.98h0c-2.46-2.97-4.98-5.87-7.57-8.68-.03-.04-.07-.08-.09-.11-4.9-5.35-10.03-10.44-15.39-15.25-3.58-3.25-7.26-6.36-11.01-9.33-.04-.04-.09-.07-.13-.11-2.84-2.25-5.74-4.42-8.67-6.5-.01-.01-.03-.03-.04-.03s-.01,0-.03-.03c-.08-.07-.17-.12-.25-.17-4.8-3.41-9.72-6.61-14.74-9.6-.03,0-.04-.01-.05-.03-1.63-.97-3.24-1.89-4.88-2.8-3.11-1.72-6.27-3.37-9.45-4.92h-.01c-.38-.19-.75-.37-1.14-.56-.33-.17-.67-.34-1.02-.5h-.01c-4.94-2.34-9.98-4.48-15.1-6.4,0,0-.01,0-.03-.01-2.42-.93-4.89-1.81-7.35-2.63-.83-.29-1.67-.57-2.5-.83h-.01c-10.76-3.48-21.76-6.05-32.85-7.73-.46-.08-.94-.15-1.41-.21-21.22-3.05-42.67-2.76-63.16,1.1-.03,0-.07,.01-.09,.01-.28,.05-.46,.32-.41,.59,.05,.28,.3,.46,.59,.41,.07-.01,.16-.03,.22-.04h.01c20.69-3.87,42.39-4.1,63.81-.89,.05,.01,.11,.03,.16,.03h.01c5.37,.79,10.72,1.81,16.03,3.07h.01c.52,.11,1.02,.22,1.52,.36,5.83,1.39,11.59,3.05,17.29,4.96,7.6,2.54,15.06,5.53,22.33,8.94,.34,.16,.69,.33,1.04,.49,1,.48,2,.96,3,1.45,2.7,1.35,5.35,2.75,8,4.22,7.1,3.94,14,8.34,20.65,13.14,.11,.05,.2,.13,.3,.21,2.43,1.74,4.84,3.56,7.19,5.43,.08,.05,.16,.11,.22,.17,3.71,2.92,7.34,5.97,10.87,9.15,2.66,2.39,5.27,4.84,7.83,7.38,.01,0,.03,.01,.04,.03h.01c.09,.09,.2,.2,.29,.29,2.45,2.42,4.84,4.9,7.16,7.44,.04,.04,.08,.08,.11,.12,5.75,6.24,11.17,12.82,16.23,19.71,.25,.32,.49,.63,.7,.95"/></g><path class="f" d="M44.96,70.88c.29,.21,.57,.41,.86,.63,10.97-8.71,23.15-15.63,36.3-20.62,.12-.04,.22-.14,.27-.25,.07-.12,.08-.27,.03-.41-.11-.27-.4-.41-.67-.3-.3,.11-.6,.23-.89,.36-12.99,5.02-25.04,11.94-35.9,20.6Z"/><path class="f" d="M54.53,35.87c3.36,3.08,6.44,6.47,9.14,10.13,.25,.33,.49,.66,.72,1,.07,.1,.16,.16,.26,.19,.05,.01,.1,.03,.15,.03h.01c.11,0,.19-.03,.29-.1,.23-.16,.29-.48,.12-.71-.04-.07-.1-.12-.14-.19-2.67-3.76-5.73-7.25-9.09-10.39-.49,.01-.98,.03-1.46,.04Z"/><path class="f" d="M86.58,96.47c.33,.15,.66,.29,.98,.44,5.42-5.85,11.23-11.04,16.36-15.62,6.35-5.66,12.6-11.17,19.13-16.26,.3-.25,.6-.48,.9-.7,.14-.12,.27-.22,.41-.33,.23-.18,.27-.49,.1-.72-.18-.22-.49-.26-.71-.1-.27,.21-.55,.42-.82,.64h-.01c-.3,.23-.6,.47-.9,.71-6.43,5.02-12.55,10.43-18.78,15.99-5.22,4.66-11.15,9.96-16.66,15.95Z"/><path class="f" d="M197.52,123.99s.08,.01,.12,.01c.23,0,.44-.15,.51-.38,.01-.07,.04-.14,.05-.21,1.93-7.44,4.62-14.66,8.04-21.55-.23-.3-.48-.6-.72-.9-3.42,6.87-6.14,14.06-8.11,21.47-.1,.31-.18,.63-.26,.94-.07,.27,.1,.55,.37,.62Z"/></g><g><path class="g" d="M93.65,49.66c12.21,12.92,40.5,34.92,40.5,34.92l17.46,13.96s-.33,.66-.63,1.79h0c-.79,3.05-1.29,9.41,5.69,15.5,6.84,5.98,20.43,1.23,41.73-4.36,16.06-4.21,28.82-13.79,5.24-19.56,0,0,1.75-33.16-20.95-47.48-22.69-14.32-47.48-23.4-53.08-27.59-5.58-4.18-4.88-11.53-12.91-15.36-8.03-3.84-11.87,1.04-18.5,1.04-6.46,0-18.52-5.27-21.1,1.81-.08,.21-.15,.41-.21,.64-2.09,8.03,4.54,31.77,16.77,44.69Z"/><path class="h" d="M93.65,49.66c12.21,12.92,40.5,34.92,40.5,34.92l17.46,13.96s-.33,.66-.63,1.79c3.69-4.69,8.22-8.73,13.29-11.86-16.22-9.89-32.29-20.17-46.84-32.43-14.54-12.24-27.57-26.55-36.69-43.22-1.49-2.71-2.87-5.54-3.65-8.51-.08,.21-.15,.41-.21,.64-2.09,8.03,4.54,31.77,16.77,44.69Z"/><circle class="e" cx="108.77" cy="38.01" r="14.32"/><path class="f" d="M159.99,116.18s-11.7,17.63-12.92,16.06c-1.22-1.57,6.63-15.89,6.63-15.89,0,0-14.67,7.68-16.06,5.76-1.4-1.92,12.92-9.78,12.92-9.78,0,0-16.41,.52-16.76-1.57-.35-2.1,19.73-7.33,19.73-7.33l6.46,12.75Z"/><path class="g" d="M142.7,60.13s14.84,22.35,12.4,29.86c-2.44,7.51-35.97,2.97-44,1.75-8.03-1.22-18.16-6.29-17.98-7.33,.17-1.05,14.84,2.27,14.84,2.27,0,0-13.44-10.48-11.52-12.22,1.92-1.75,15.19,7.68,15.19,7.68,0,0-6.81-13.27-5.41-13.97,1.4-.7,10.65,11.87,10.65,11.87l18.16,1.4-14.67-24.44,18.86,1.22,3.49,1.92Z"/><path class="g" d="M152.55,97.36c-5.31,4.52-1.93,13.27,3.12,17.67,5.65,4.92,13.68,3.75,20.33,2.03,12.18-3.16,25.9-4.39,36.76-11.25,4.59-2.9,5.2-7.16,.23-10.29-10.17-6.41-21.48-2.86-31.69,1.38-1.49,.62-7.29,4.11-9.1,3.43,0,0,9.27-27.57-19.65-2.96Z"/></g></g></g></g></svg>