<svg xmlns="http://www.w3.org/2000/svg" xmlns:xlink="http://www.w3.org/1999/xlink" viewBox="0 0 135.74 114.66"><defs><style>.cls-1{fill:none;}.cls-2{fill:#efc844;}.cls-3{fill:#ea8e33;}.cls-4{fill:#358fda;}.cls-5{fill:#5f5b8a;}.cls-6{clip-path:url(#clip-path);}.cls-7{fill:#1c313a;}.cls-10,.cls-8{fill:#57b787;}.cls-8{stroke:#57b787;stroke-miterlimit:10;}.cls-9{fill:#eb685a;}.cls-11{fill:#3f8bc9;}.cls-12{fill:#494949;opacity:0.3;isolation:isolate;}.cls-13{fill:#f7e294;}.cls-14{fill:#57b585;}.cls-15{fill:#fff;}</style><clipPath id="clip-path"><polygon class="cls-1" points="48.59 5.23 96.41 5.23 96.33 113.11 48.59 113.02 48.59 5.23"/></clipPath></defs><g id="Capa_2" data-name="Capa 2"><g id="Capa_1-2" data-name="Capa 1"><path class="cls-2" d="M99.29.13l-.22.18L93.72,4.08l-.48.3.31.48,2.58,3.77.31.49L99,12.89l.3.48,2.59,3.77.3.48,2.68,3.86.22.3.08.18,6.36-4.39-.09-.17-.22-.31L99.55,0Zm8.94,13.59,2.41,3.46-3.59-.09,1.18-3.37Zm-3.11,7.1-2.24-3.29,3.38.09-1.14,3.2ZM103.06,17l4.51-3.12-1.14,3.2L103.06,17Zm-.27-.49,1.1-3.15,3.33.09Zm4.91-3.59-3.63-.13,1.22-3.38,2.41,3.51Zm-3.11-3.2L103.5,12.8l-3.25-.09Zm-.31-.48-4.38,3L101,9.16l3.28.09Zm.53-.57-3.64-.13,1.23-3.38,2.41,3.51Zm-7.49-.22,4.38-3-1.1,3.12-3.28-.09ZM101.44,5,96.92,8l1.14-3.2,3.38.13Zm.43-.57-3.63-.13L99.46.88l2.41,3.5Zm-4.2-.08-3.2-.09,4.25-2.94S97.67,4.25,97.67,4.3Zm-3.55.43,3.33.09L96.35,8,94.12,4.73ZM97.05,9l3.38.09-1.14,3.15L97.05,9Zm2.9,4.21,3.37.08-1.14,3.16L100,13.24Zm5.82,7.62,1.1-3.24,3.46.09-4.56,3.15Z"/><path class="cls-2" d="M120.11,30.07l-.18.13-.22.17-5.43,3.73-.49.3.31.49,2.59,3.77.3.48,2.59,3.77.31.48,2.58,3.77.31.48,2.67,3.86.22.3.09.18,6.35-4.34-.08-.17-.22-.31-11.7-17.09Zm8.67,13.71,2.41,3.47-3.59-.09,1.18-3.38Zm-3.11,7.1-2.23-3.28,3.37.08-1.14,3.2Zm-2.06-3.81L128.13,44,127,47.16l-3.38-.09Zm-.26-.48,1.1-3.16,3.33.09S123.35,46.55,123.35,46.59ZM128.26,43l-3.64-.13,1.23-3.38L128.26,43Zm-3.11-3.2-1.1,3.07-3.24-.09Zm-.31-.48-4.38,3,1.09-3.11,3.29.09Zm.53-.53-3.64-.13L123,35.24l2.42,3.5Zm-7.5-.22,4.38-3-1.09,3.11-3.29-.09ZM122,35l-4.51,3.11,1.14-3.2L122,35Zm.44-.57-3.64-.13L120,30.94l2.41,3.51Zm-4.21-.13-3.2-.09,4.25-2.94Zm-3.55.48,3.38.09L116.91,38l-2.24-3.24Zm2.94,4.29,3.37.09-1.14,3.16-2.23-3.25Zm2.89,4.21,3.38.09-1.14,3.16L120.5,43.3Zm5.83,7.63,1.1-3.25,3.46.09-4.56,3.16Z"/><rect class="cls-2" x="107.27" y="20.53" width="0.57" height="1.45" transform="translate(6.78 64.43) rotate(-34.37)"/><rect class="cls-2" x="109.82" y="18.77" width="0.57" height="1.45" transform="translate(8.22 65.56) rotate(-34.37)"/><rect class="cls-2" x="114.97" y="31.8" width="0.57" height="1.45" transform="translate(1.76 70.74) rotate(-34.37)"/><rect class="cls-2" x="117.53" y="30.05" width="0.57" height="1.45" transform="translate(3.2 71.88) rotate(-34.37)"/><rect class="cls-3" x="117.34" y="11.7" width="14.68" height="12.18" transform="translate(11.72 73.49) rotate(-34.37)"/><rect class="cls-3" x="102.6" y="21.75" width="14.68" height="12.18" transform="matrix(0.83, -0.56, 0.56, 0.83, 3.48, 66.92)"/><rect class="cls-4" x="115.76" y="18.43" width="3.11" height="8.77" transform="translate(7.6 70.21) rotate(-34.37)"/><rect class="cls-4" x="130.43" y="8.38" width="3.11" height="8.77" transform="translate(15.84 76.73) rotate(-34.37)"/><rect class="cls-5" x="104.69" y="25.13" width="0.7" height="12.18" transform="translate(0.71 64.75) rotate(-34.37)"/><rect class="cls-5" x="129.02" y="8.46" width="0.7" height="12.18" transform="translate(14.37 75.57) rotate(-34.37)"/><rect class="cls-4" x="101.03" y="31.98" width="3.11" height="1.8" transform="translate(-0.65 63.65) rotate(-34.37)"/><path class="cls-4" d="M102.18,33.31a11.35,11.35,0,0,1,1,11.09l-11-16.09a11.41,11.41,0,0,1,10,5Z"/><rect class="cls-4" x="96.35" y="27.28" width="0.88" height="19.5" transform="translate(-4.01 61.1) rotate(-34.37)"/><path class="cls-4" d="M102,45.27l-.09.09L89.3,42.64a.9.9,0,0,1-.36.53.91.91,0,1,1-1-1.53.83.83,0,0,1,.65-.14l2.33-12.27H91L88.68,41.5a1,1,0,0,1,.53.36L96.26,37l0,0L89.25,41.9a.89.89,0,0,1,.13.66L102,45.27Z"/><g class="cls-6"><polygon class="cls-7" points="77.15 77.77 77.32 74.51 81.15 74.51 82.78 75.9 77.15 77.77"/><polygon class="cls-7" points="67.12 77.77 66.87 74.51 63.12 74.51 61.49 75.9 67.12 77.77"/><rect class="cls-8" x="67.28" y="23.43" width="9.3" height="9.38"/><path class="cls-8" d="M67.61,18.29a1.66,1.66,0,0,1,1.63-1.47h5.22a1.6,1.6,0,0,1,1.63,1.47l.49,5.14h-9.3Z"/><path class="cls-8" d="M67.61,38a1.66,1.66,0,0,0,1.63,1.47h5.22A1.6,1.6,0,0,0,76.09,38l.49-5.14h-9.3Z"/><path class="cls-9" d="M74.54,38.53H69.48a.64.64,0,0,1-.65-.58l-.41-4.08H75.6L75.2,38a.71.71,0,0,1-.66.58Z"/><path class="cls-9" d="M58.39,47.5v2.12a1.2,1.2,0,0,1-1.23,1.23h-.81a1.2,1.2,0,0,1-1.23-1.23V47.5a1.2,1.2,0,0,1,1.23-1.22h.81A1.2,1.2,0,0,1,58.39,47.5Z"/><ellipse class="cls-7" cx="71.93" cy="28.16" rx="3.59" ry="3.67"/><path class="cls-2" d="M60.26,12.74c-.65,2.53-1.3,8.57-1.47,8.57h8.33s-.33-2.29-2.37-2.37l.65-5.55a1.5,1.5,0,0,1,1.47-1.3h9.88a1.49,1.49,0,0,1,1.46,1.3l.66,5.55c-2,.08-2.37,2.37-2.37,2.37h8.32a71.79,71.79,0,0,0-1.3-8.57,3.44,3.44,0,0,0-3.1-2.69H63.36a3.51,3.51,0,0,0-3.1,2.69Z"/><path class="cls-10" d="M84.91,21.39H80.83V55.33h3.34A1.79,1.79,0,0,0,86,53.62c1.55-22.28-1.06-32.31-1.06-32.31Z"/><path class="cls-10" d="M59,21.39H63V55.33H59.69a1.78,1.78,0,0,1-1.79-1.71C56.35,31.34,59,21.31,59,21.31Z"/><polygon class="cls-7" points="60.59 55.25 83.27 55.25 80.99 60.39 62.88 60.39 60.59 55.25"/><rect class="cls-9" x="70.3" y="60.39" width="3.18" height="3.18"/><rect class="cls-9" x="73.48" y="60.39" width="1.55" height="3.18"/><rect class="cls-9" x="68.83" y="60.39" width="1.55" height="3.18"/><path class="cls-9" d="M61.24,61.7v.57a1.3,1.3,0,0,0,1.31,1.31H81.32a1.29,1.29,0,0,0,1.3-1.31V61.7a1.29,1.29,0,0,0-1.3-1.31H62.55A1.24,1.24,0,0,0,61.24,61.7Z"/><path class="cls-11" d="M74.22,19.76v.73a1.12,1.12,0,0,1-1.15,1.14H70.71a1.11,1.11,0,0,1-1.14-1.14v-.73a1.11,1.11,0,0,1,1.14-1.14h2.36A1.11,1.11,0,0,1,74.22,19.76Z"/><path class="cls-7" d="M71.93,19.35a.74.74,0,1,1-.73.73A.78.78,0,0,1,71.93,19.35Z"/><path class="cls-11" d="M66.71,11.35c-3.43-.08-3,2.53-3.67,10L63.12,45l4.16-1.47V21.72a2.09,2.09,0,0,0-.16-1A2.53,2.53,0,0,0,64.91,19l.66-5.55A1.49,1.49,0,0,1,67,12.17h9.87a1.5,1.5,0,0,1,1.47,1.3L79,19a2.52,2.52,0,0,0-2.2,1.72,4.11,4.11,0,0,0-.17,1V43.5l4.25,1.72V21.31c-.66-7.35-.25-10-3.67-10Z"/><path class="cls-9" d="M82.05,47.91v2.94a4.39,4.39,0,0,1-4.41,4.4H66.14a4.39,4.39,0,0,1-4.41-4.4V47.91a4.39,4.39,0,0,1,4.41-4.41h11.5A4.39,4.39,0,0,1,82.05,47.91Z"/><circle class="cls-7" cx="65.16" cy="35.91" r="1.47"/><path class="cls-7" d="M65.16,35a.9.9,0,1,1-.9.89A.9.9,0,0,1,65.16,35Z"/><polygon class="cls-9" points="73.73 77.53 83.19 75.41 85.07 83.89 75.6 86.02 73.73 77.53"/><polygon class="cls-9" points="81.64 75.73 83.19 75.41 85.07 83.89 83.44 84.3 81.64 75.73"/><polygon class="cls-12" points="73.73 77.53 74.54 77.37 76.42 85.85 75.6 86.02 73.73 77.53"/><polygon class="cls-9" points="70.46 77.53 61 75.41 59.2 83.89 68.67 86.02 70.46 77.53"/><polygon class="cls-9" points="62.55 75.73 61 75.41 59.2 83.89 60.75 84.3 62.55 75.73"/><polygon class="cls-12" points="70.46 77.53 69.65 77.37 67.85 85.85 68.67 86.02 70.46 77.53"/><path class="cls-9" d="M61.9,71.25H82.38a1,1,0,0,1,1.14,1v2.13a1,1,0,0,1-1.14,1H61.9a1,1,0,0,1-1.15-1V72.22A1,1,0,0,1,61.9,71.25Z"/><rect class="cls-7" x="66.06" y="63.49" width="12.08" height="7.67"/><rect class="cls-9" x="65.24" y="76.14" width="13.79" height="8.73"/><rect class="cls-5" x="68.18" y="80.38" width="7.83" height="1.8"/><rect class="cls-5" x="77.81" y="76.14" width="1.22" height="8.73"/><rect class="cls-5" x="65.16" y="76.14" width="1.22" height="8.73"/><polygon class="cls-11" points="91.68 114.66 85.07 83.89 81.97 84.63 88.42 114.66 91.68 114.66"/><polygon class="cls-11" points="84.99 114.66 78.62 85.36 75.52 86.02 81.72 114.66 84.99 114.66"/><rect class="cls-7" x="75.28" y="84.87" width="3.75" height="29.78"/><polygon class="cls-11" points="62.55 114.66 68.67 86.02 65.57 85.36 59.28 114.66 62.55 114.66"/><rect class="cls-7" x="65.24" y="84.87" width="3.75" height="29.78"/><polyline class="cls-11" points="52.59 114.66 55.86 114.66 62.3 84.63 59.2 83.89"/></g><path class="cls-7" d="M31.12,34.52l-1.77.21-.82,1.43a15,15,0,0,0-2,6.66l-.31,5.83a.33.33,0,0,0,.38.32h0c.13-.07.23-.17.22-.28l.47-5.23A14.65,14.65,0,0,1,30,36l1.08-1.52Z"/><path class="cls-7" d="M41.46,29.11l1.12-1.34,1.64.13a15.13,15.13,0,0,1,6.63,2.18l5,3a.31.31,0,0,1,0,.5h0a.29.29,0,0,1-.35,0L50.93,31a15.3,15.3,0,0,0-7.65-2l-1.82,0Z"/><path class="cls-13" d="M18.82,25.13c-.13-.35-1.53,0-3.09.8S9.2,29.73,9.4,30.1s5.52-2.05,7-2.86,2.58-1.75,2.39-2.11Z"/><path class="cls-13" d="M0,35.05c.18.32,1.58,0,3.09-.81s6.53-3.8,6.33-4.16-5.52,2.05-7,2.85S-.17,34.68,0,35.05Z"/><path class="cls-14" d="M11.18,33.14c.33-.18.81.14.64-.19l-2-3.78A.62.62,0,0,0,9,28.91L8.73,29a.63.63,0,0,0-.27.87l2,3.79c.17.32.18-.26.5-.43l.25-.13Z"/><path class="cls-7" d="M11.05,37.51,8.69,33a.22.22,0,0,1,.09-.32L12,31a.23.23,0,0,1,.32.1l2.35,4.51a1.14,1.14,0,0,1-.46,1.51L12.51,38A1.06,1.06,0,0,1,11.05,37.51Z"/><path class="cls-13" d="M59.38,3.86c-.2-.36-1.58,0-3.09.81S49.76,8.47,50,8.84,55.48,6.78,57,6s2.58-1.75,2.39-2.12Z"/><path class="cls-13" d="M40.52,13.76c.19.37,1.57,0,3.08-.8s6.53-3.8,6.34-4.17-5.52,2.06-7,2.86-2.59,1.75-2.39,2.11Z"/><path class="cls-14" d="M51.71,11.83c.33-.17.82.15.66-.14l-2-3.82a.64.64,0,0,0-.88-.27l-.24.13a.63.63,0,0,0-.27.88l2,3.78c.18.33.18-.25.51-.43l.24-.13Z"/><path class="cls-7" d="M51.54,16.23l-2.36-4.52a.22.22,0,0,1,.1-.31l3.23-1.72a.21.21,0,0,1,.31.09l2.36,4.52a1.13,1.13,0,0,1-.46,1.5L53,16.71A1.06,1.06,0,0,1,51.54,16.23Z"/><path class="cls-5" d="M36.38,29.72l1.29,2.41a.32.32,0,0,1-.12.38l-.45.24a.3.3,0,0,1-.37-.12l-1.29-2.41a.31.31,0,0,1,.11-.38L36,29.6A.28.28,0,0,1,36.38,29.72Z"/><path class="cls-5" d="M35.44,30.22l1.29,2.41a.32.32,0,0,1-.12.38l-.45.24a.3.3,0,0,1-.37-.12L34.5,30.72a.29.29,0,0,1,.12-.37l.44-.24A.27.27,0,0,1,35.44,30.22Z"/><path class="cls-9" d="M42.81,22.88a.74.74,0,0,1,.7,1.31.75.75,0,0,1-1-.31A.74.74,0,0,1,42.81,22.88Z"/><path class="cls-9" d="M25.22,32.1a.74.74,0,1,1-.31,1A.75.75,0,0,1,25.22,32.1Z"/><path class="cls-4" d="M9.29,34.41a.59.59,0,0,0-.12,1,.65.65,0,0,0,.67.28l1.25-.31a6.48,6.48,0,0,1,3.3.08l1.6.46A22,22,0,0,0,31.27,34.8l2.11-1a59.75,59.75,0,0,0,6.19-3.25l2-1.21a22.28,22.28,0,0,0,9.57-12l.51-1.59A6.59,6.59,0,0,1,53.44,13l1-.9a.64.64,0,0,0-.76-1l-1,.54A7.14,7.14,0,0,0,49.48,15l-1.9,4.21a8.47,8.47,0,0,1-3.85,4.1h0a3.86,3.86,0,0,1-3.35.11h0a3.81,3.81,0,0,0-3.42.09l-3.94,2-3.94,2.05a4,4,0,0,0-2,2.77h0a3.83,3.83,0,0,1-2,2.7h0a8.54,8.54,0,0,1-5.57.88l-4.53-.84a7.25,7.25,0,0,0-4.6.72l-1,.55Z"/><line class="cls-1" x1="34.03" y1="31.6" x2="33.99" y2="31.63"/><path class="cls-11" d="M32.22,28.11a.2.2,0,0,1,.25.08"/><path class="cls-7" d="M36.28,37.7l.87,1.63a2.66,2.66,0,1,0,4.72-2.46L41,35.23Z"/><rect class="cls-5" x="36.22" y="32.32" width="1.48" height="1.9" transform="translate(-11.23 21) rotate(-27.71)"/><path class="cls-2" d="M41.19,33.71l1.13,2.13a1.4,1.4,0,0,1-.57,1.88l-3.86,2A1.39,1.39,0,0,1,36,39.15L34.87,37a1.39,1.39,0,0,1,.58-1.88l3.86-2A1.37,1.37,0,0,1,41.19,33.71Z"/><path class="cls-7" d="M37.67,34.8a1.88,1.88,0,1,1-.8,2.53A1.87,1.87,0,0,1,37.67,34.8Z"/><path class="cls-15" d="M37.87,35.17a1.43,1.43,0,1,1-.59,1.94A1.45,1.45,0,0,1,37.87,35.17Z"/></g></g></svg>