<?xml version="1.0" encoding="utf-8"?>
<!-- Generator: Adobe Illustrator 26.2.1, SVG Export Plug-In . SVG Version: 6.00 Build 0)  -->
<svg version="1.1" id="Capa_1" xmlns="http://www.w3.org/2000/svg" xmlns:xlink="http://www.w3.org/1999/xlink" x="0px" y="0px"
	 viewBox="0 0 483.7 250" style="enable-background:new 0 0 483.7 250;" xml:space="preserve">
<style type="text/css">
	.st0{fill:#F5CE44;}
	.st1{fill:#F09433;}
	.st2{fill:#3595E0;}
	.st3{fill:#5F5B90;}
	.st4{clip-path:url(#SVGID_00000060001702728152892850000018377361610296592562_);}
	.st5{fill:#1C313A;}
	.st6{fill:#57BD8D;stroke:#57BD8D;stroke-miterlimit:10;}
	.st7{fill:#F1685A;}
	.st8{fill:#57BD8D;}
	.st9{fill:#3F91CF;}
	.st10{opacity:0.3;fill:#494949;enable-background:new    ;}
	.st11{opacity:0.47;fill:#03AED7;enable-background:new    ;}
	.st12{fill:#FDE89A;}
	.st13{fill:#57BB8B;}
	.st14{fill:none;}
	.st15{fill:#FFFFFF;}
</style>
<g>
	<g id="a">
	</g>
	<g id="b">
		<g id="c">
			<g>
				<g>
					<g>
						<path class="st0" d="M82.6,0L55.9,39l-0.5,0.7l-0.2,0.4l14.5,10l0.2-0.4l0.5-0.7l6.1-8.8l0.7-1.1l5.9-8.6l0.7-1.1l5.9-8.6
							l0.7-1.1l5.9-8.6l0.7-1.1l-1.1-0.7L83.7,0.7l-0.5-0.4L82.6,0z M62.8,31.3l2.7,7.7l-8.2,0.2L62.8,31.3L62.8,31.3z M69.9,47.5
							l-2.6-7.3l7.7-0.2L69.9,47.5L69.9,47.5z M74.6,38.8L66.9,39l-2.6-7.3L74.6,38.8L74.6,38.8z M65.1,30.7l7.6-0.2l2.5,7.2
							L65.1,30.7z M64,29.5l5.5-8l2.8,7.7L64,29.5L64,29.5z M81,29l-7.4,0.2l-2.5-7C71.1,22.2,81,29,81,29z M71.8,21.1l7.5-0.2
							l2.5,7.1L71.8,21.1L71.8,21.1z M70.6,19.8l5.5-8l2.8,7.7L70.6,19.8L70.6,19.8z M87.7,19.3l-7.5,0.2l-2.5-7.1L87.7,19.3
							L87.7,19.3z M78.3,11.3L86,11l2.6,7.3L78.3,11.3L78.3,11.3z M77.3,10l5.5-8l2.8,7.7L77.3,10L77.3,10z M84.5,2.9l9.7,6.7
							l-7.3,0.2C86.9,9.7,84.5,2.9,84.5,2.9z M95,10.8l-5.1,7.4L87.4,11L95,10.8L95,10.8z M88.3,20.6L83.2,28l-2.6-7.2L88.3,20.6
							L88.3,20.6z M81.7,30.2l-5.1,7.4l-2.6-7.2L81.7,30.2L81.7,30.2z M68.4,47.6L58,40.4l7.9-0.2L68.4,47.6L68.4,47.6z"/>
						<path class="st0" d="M35.7,68.6L9,107.6l-0.5,0.7l-0.2,0.4l14.5,9.9l0.2-0.4l0.5-0.7l6.1-8.8l0.7-1.1l5.9-8.6l0.7-1.1l5.9-8.6
							l0.7-1.1l5.9-8.6l0.7-1.1l-1.1-0.7l-12.4-8.5l-0.5-0.4L35.7,68.6L35.7,68.6z M15.9,99.9l2.7,7.7l-8.2,0.2L15.9,99.9L15.9,99.9
							z M23,116.1l-2.6-7.3l7.7-0.2L23,116.1L23,116.1z M27.7,107.4l-7.7,0.2l-2.6-7.3L27.7,107.4L27.7,107.4z M18.2,99.3l7.6-0.2
							l2.5,7.2C28.3,106.2,18.2,99.3,18.2,99.3z M17.1,98l5.5-8l2.8,7.7L17.1,98L17.1,98z M34.1,97.5l-7.4,0.2l-2.5-7L34.1,97.5z
							 M24.9,89.6l7.5-0.2l2.5,7.1L24.9,89.6L24.9,89.6z M23.7,88.4l5.5-8l2.8,7.7L23.7,88.4L23.7,88.4z M40.8,87.9l-7.5,0.2
							L30.8,81L40.8,87.9L40.8,87.9z M31.4,79.9l7.7-0.2l2.6,7.3L31.4,79.9L31.4,79.9z M30.4,78.6l5.5-8l2.8,7.7L30.4,78.6
							L30.4,78.6z M37.6,71.4l9.7,6.7L40,78.3C40,78.3,37.6,71.4,37.6,71.4z M48.1,79.4L43,86.8l-2.6-7.2L48.1,79.4L48.1,79.4z
							 M41.4,89.2l-5.1,7.4l-2.6-7.2L41.4,89.2L41.4,89.2z M34.8,98.8l-5.1,7.4L27.1,99L34.8,98.8L34.8,98.8z M21.5,116.2L11.1,109
							l7.9-0.2L21.5,116.2L21.5,116.2z"/>
						<g>
							
								<rect x="62.7" y="47.8" transform="matrix(0.5645 -0.8254 0.8254 0.5645 -11.9891 74.2638)" class="st0" width="3.3" height="1.3"/>
							
								<rect x="56.9" y="43.8" transform="matrix(0.5645 -0.8254 0.8254 0.5645 -11.2302 67.7116)" class="st0" width="3.3" height="1.3"/>
						</g>
						<g>
							
								<rect x="45.1" y="73.5" transform="matrix(0.5645 -0.8254 0.8254 0.5645 -40.8334 70.9439)" class="st0" width="3.3" height="1.3"/>
							
								<rect x="39.3" y="69.5" transform="matrix(0.5645 -0.8254 0.8254 0.5645 -40.0839 64.4053)" class="st0" width="3.3" height="1.3"/>
						</g>
					</g>
					<g>
						<g>
							<g>
								
									<rect x="11.4" y="23.8" transform="matrix(0.5645 -0.8254 0.8254 0.5645 -22.4853 38.5895)" class="st1" width="27.8" height="33.5"/>
								
									<rect x="45" y="46.8" transform="matrix(0.5645 -0.8254 0.8254 0.5645 -26.8079 76.2566)" class="st1" width="27.8" height="33.5"/>
							</g>
							
								<rect x="32.1" y="48.5" transform="matrix(0.5645 -0.8254 0.8254 0.5645 -24.6512 57.4225)" class="st2" width="20" height="7.1"/>
							
								<rect x="-1.4" y="25.6" transform="matrix(0.5645 -0.8254 0.8254 0.5645 -20.3161 19.7593)" class="st2" width="20" height="7.1"/>
						</g>
						
							<rect x="56.2" y="70.4" transform="matrix(0.5645 -0.8254 0.8254 0.5645 -28.2619 88.9015)" class="st3" width="27.8" height="1.6"/>
						
							<rect x="0.7" y="32.4" transform="matrix(0.5645 -0.8254 0.8254 0.5645 -21.0931 26.5128)" class="st3" width="27.8" height="1.6"/>
					</g>
				</g>
				<g>
					
						<rect x="73.6" y="71.5" transform="matrix(0.5645 -0.8254 0.8254 0.5645 -28.9763 95.0848)" class="st2" width="4.1" height="7.1"/>
					<path class="st2" d="M76.6,76c5.3-7.8,14-11.8,22.8-11.4l-25.1,36.7C70.7,93.3,71.3,83.8,76.6,76L76.6,76z"/>
					
						<rect x="66.6" y="83.5" transform="matrix(0.5645 -0.8254 0.8254 0.5645 -30.9894 110.1345)" class="st2" width="44.5" height="2"/>
					<path class="st2" d="M77.1,103.3l28.7-6.2c-0.1-0.5,0-1,0.3-1.5L90,84.6l0.1-0.1l16.1,11c0.3-0.4,0.8-0.7,1.2-0.8l-5.3-28
						l0.2,0l5.3,28c0.5-0.1,1.1,0,1.5,0.3c1,0.7,1.2,2,0.6,2.9c-0.7,1-2,1.2-2.9,0.6c-0.4-0.3-0.7-0.7-0.8-1.2l-28.7,6.2L77.1,103.3
						L77.1,103.3z"/>
				</g>
			</g>
			<g>
				<defs>
					<polygon id="SVGID_1_" points="470.5,252.1 412,252.2 411.9,120 470.5,120 					"/>
				</defs>
				<clipPath id="SVGID_00000165202158423674334000000002768110789139553939_">
					<use xlink:href="#SVGID_1_"  style="overflow:visible;"/>
				</clipPath>
				<g style="clip-path:url(#SVGID_00000165202158423674334000000002768110789139553939_);">
					<g>
						<polygon class="st5" points="428.6,206.6 430.6,204.9 435.3,204.9 435.5,208.9 						"/>
						<polygon class="st5" points="454.7,206.6 452.7,204.9 448.1,204.9 447.8,208.9 						"/>
						<rect x="436.2" y="142.3" class="st6" width="11.4" height="11.5"/>
						<path class="st6" d="M447.6,142.3h-11.4l0.6-6.3c0.1-1,0.9-1.8,2-1.8h6.4c1,0,1.9,0.8,2,1.8L447.6,142.3z"/>
						<path class="st6" d="M447.6,153.8h-11.4l0.6,6.3c0.1,1,0.9,1.8,2,1.8h6.4c1,0,1.9-0.8,2-1.8L447.6,153.8z"/>
						<path class="st7" d="M438.7,160.8c-0.4,0-0.7-0.3-0.8-0.7l-0.5-5h8.8l-0.5,5c0,0.4-0.4,0.7-0.8,0.7H438.7L438.7,160.8z"/>
						<path class="st7" d="M460,170.3h1c0.9,0,1.5,0.7,1.5,1.5v2.6c0,0.9-0.7,1.5-1.5,1.5h-1c-0.9,0-1.5-0.7-1.5-1.5v-2.6
							C458.5,171,459.1,170.3,460,170.3z"/>
						<ellipse class="st5" cx="441.9" cy="148.1" rx="4.4" ry="4.5"/>
						<path class="st0" d="M456.2,129.2c-0.9-3.2-3.8-3.3-3.8-3.3h-20.9c0,0-3,0.1-3.8,3.3c-0.9,3.2-1.6,10.5-1.6,10.5h10.2
							c0,0-0.5-2.8-2.9-2.9l0.8-6.8c0.1-0.9,0.9-1.6,1.8-1.6h12.1c0.9,0,1.7,0.7,1.8,1.6l0.8,6.8c-2.5,0.1-2.9,2.9-2.9,2.9h10.2
							C457.8,139.7,457,132.3,456.2,129.2L456.2,129.2z"/>
						<path class="st8" d="M426,139.7c0,0-3.2,12.3-1.3,39.6c0.1,1.2,1,2.1,2.2,2.1h4.1v-41.6H426L426,139.7z"/>
						<path class="st8" d="M457.8,139.7c0,0,3.2,12.3,1.3,39.6c-0.1,1.2-1,2.1-2.2,2.1h-4.1v-41.6H457.8L457.8,139.7z"/>
						<polygon class="st5" points="453,187.6 430.8,187.6 428,181.3 455.8,181.3 						"/>
						<rect x="440" y="187.6" class="st7" width="3.9" height="3.9"/>
						<rect x="438.1" y="187.6" class="st7" width="1.9" height="3.9"/>
						<rect x="443.8" y="187.6" class="st7" width="1.9" height="3.9"/>
						<path class="st7" d="M453.4,187.6h-23c-0.9,0-1.6,0.7-1.6,1.6v0.7c0,0.9,0.7,1.6,1.6,1.6h23c0.9,0,1.6-0.7,1.6-1.6v-0.7
							C455.1,188.3,454.3,187.6,453.4,187.6z"/>
						<path class="st9" d="M440.5,136.4h2.9c0.8,0,1.4,0.6,1.4,1.4v0.9c0,0.8-0.6,1.4-1.4,1.4h-2.9c-0.8,0-1.4-0.6-1.4-1.4v-0.9
							C439.1,137,439.7,136.4,440.5,136.4z"/>
						<path class="st5" d="M442.8,138.2c0,0.5-0.4,0.9-0.9,0.9s-0.9-0.4-0.9-0.9s0.4-0.9,0.9-0.9S442.8,137.8,442.8,138.2z"/>
						<path class="st9" d="M448.3,127.5h-12.9c-4.2,0-3.7,3.2-4.5,12.2v29.3l5.2-2.1v-26.7c0-0.4-0.1-0.8-0.2-1.2
							c-0.3-0.8-1.1-2-2.7-2.1l0.8-6.8c0.1-0.9,0.9-1.6,1.8-1.6h12.1c0.9,0,1.7,0.7,1.8,1.6l0.8,6.8c-1.6,0.1-2.4,1.3-2.7,2.1
							c-0.2,0.4-0.2,0.8-0.2,1.2v26.7l5.1,1.8l0.1-29C452,130.6,452.5,127.4,448.3,127.5L448.3,127.5z"/>
						<path class="st7" d="M434.9,166.9h14.1c3,0,5.4,2.4,5.4,5.4v3.6c0,3-2.4,5.4-5.4,5.4h-14.1c-3,0-5.4-2.4-5.4-5.4v-3.6
							C429.5,169.3,431.9,166.9,434.9,166.9z"/>
						<ellipse class="st5" cx="450.2" cy="157.6" rx="1.8" ry="1.8"/>
						<path class="st5" d="M451.3,157.6c0,0.6-0.5,1.1-1.1,1.1s-1.1-0.5-1.1-1.1s0.5-1.1,1.1-1.1S451.3,157,451.3,157.6z"/>
						<polygon class="st7" points="437.4,219 425.8,216.4 428.1,206 439.7,208.6 						"/>
						<polygon class="st7" points="427.8,216.9 425.8,216.4 428.1,206 430,206.4 						"/>
						<polygon class="st10" points="437.4,219 436.4,218.8 438.7,208.4 439.7,208.6 						"/>
						<polygon class="st7" points="445.9,219 457.5,216.4 455.3,206 443.7,208.6 						"/>
						<polygon class="st7" points="455.6,216.9 457.5,216.4 455.3,206 453.4,206.4 						"/>
						<polygon class="st10" points="445.9,219 446.9,218.8 444.7,208.4 443.7,208.6 						"/>
						<path class="st7" d="M455.6,202.1v2.6c0,0.7-0.6,1.2-1.4,1.2h-25.1c-0.8,0-1.4-0.5-1.4-1.2v-2.6c0-0.7,0.6-1.2,1.4-1.2h25.1
							C455,200.9,455.6,201.4,455.6,202.1z"/>
						<rect x="434.3" y="191.4" class="st5" width="14.8" height="9.4"/>
						<rect x="433.2" y="206.9" class="st7" width="16.9" height="10.7"/>
						<rect x="436.9" y="212.1" class="st3" width="9.6" height="2.2"/>
						<rect x="433.2" y="206.9" class="st3" width="1.5" height="10.7"/>
						<rect x="448.7" y="206.9" class="st3" width="1.5" height="10.7"/>
						<polygon class="st9" points="421.7,254.1 429.6,217.3 425.8,216.4 417.7,254.1 						"/>
						<polygon class="st9" points="429.9,254.1 437.5,219 433.7,218.2 425.9,254.1 						"/>
						<rect x="433.2" y="217.6" class="st5" width="4.6" height="36.5"/>
						<polygon class="st9" points="457.4,254.1 449.7,218.2 445.9,219 453.4,254.1 						"/>
						<rect x="445.5" y="217.6" class="st5" width="4.6" height="36.5"/>
						<polyline class="st9" points="457.5,216.4 453.7,217.3 461.6,254.1 465.6,254.1 						"/>
					</g>
				</g>
			</g>
			<polygon class="st11" points="142.8,252.2 106.7,98.4 483.7,251.8 			"/>
			<polygon class="st11" points="447.6,252.2 441.9,152.5 106.7,251.8 			"/>
			<polygon class="st11" points="447.6,252.2 318.6,71.2 106.7,251.8 			"/>
			<g>
				<g>
					<g>
						<path class="st5" d="M330.7,56.9l3.6,1.8c5.2,2.6,9.6,6.5,12.7,11.4l6.2,9.5c0.1,0.2,0.4,0.3,0.7,0.3l0,0
							c0.4-0.1,0.6-0.6,0.4-1l-6.5-10.8c-2.6-4.3-6.2-8-10.5-10.7l-3-1.9L330.7,56.9L330.7,56.9z"/>
						<path class="st5" d="M305.5,57.1l-3.5,1.8c-5.1,2.7-9.5,6.6-12.6,11.5l-6.1,9.6c-0.1,0.2-0.4,0.4-0.7,0.3l0,0
							c-0.4-0.1-0.7-0.6-0.4-1l6.4-10.8c2.6-4.4,6.1-8.1,10.4-10.9l3-1.9L305.5,57.1L305.5,57.1z"/>
					</g>
					<g>
						<g>
							<g>
								<path class="st12" d="M344.6,26.5c0,0.9,3,1.6,6.7,1.6s16.3-0.8,16.3-1.7s-12.6-1.5-16.3-1.5
									C347.5,24.9,344.5,25.7,344.6,26.5L344.6,26.5z"/>
								<path class="st12" d="M390.5,26.3c0-0.9-3-1.6-6.7-1.6s-16.3,0.8-16.3,1.7s12.6,1.5,16.3,1.5S390.5,27.1,390.5,26.3
									L390.5,26.3z"/>
							</g>
							<path class="st13" d="M367.3,34h0.6c0.8,0,1.4,1.1,1.4,0.3l-0.1-9.2c0-0.8-0.6-1.4-1.4-1.4h-0.6c-0.8,0-1.4,0.6-1.4,1.4
								l0.1,9.2C365.9,35.1,366.5,34,367.3,34L367.3,34z"/>
							<path class="st5" d="M369.7,44.6l-4.2,0c-1.3,0-2.4-1.1-2.4-2.4l-0.1-11c0-0.3,0.2-0.5,0.5-0.5l7.9,0c0.3,0,0.5,0.2,0.5,0.5
								l0.1,11C372.1,43.5,371.1,44.5,369.7,44.6z"/>
						</g>
						<g>
							<g>
								<path class="st12" d="M245.7,27.2c0,0.9,3,1.6,6.7,1.6s16.3-0.8,16.3-1.7s-12.6-1.5-16.3-1.5
									C248.7,25.6,245.7,26.3,245.7,27.2L245.7,27.2z"/>
								<path class="st12" d="M291.7,26.9c0-0.9-3-1.6-6.7-1.6s-16.3,0.8-16.3,1.7s12.6,1.5,16.3,1.5S291.7,27.8,291.7,26.9
									L291.7,26.9z"/>
							</g>
							<path class="st13" d="M268.4,34.6h0.6c0.8,0,1.4,1.1,1.4,0.3l-0.1-9.2c0-0.8-0.6-1.4-1.4-1.4h-0.6c-0.8,0-1.4,0.6-1.4,1.4
								L267,35C267,35.7,267.6,34.6,268.4,34.6L268.4,34.6z"/>
							<path class="st5" d="M270.9,45.2l-4.2,0c-1.3,0-2.4-1.1-2.4-2.4l-0.1-11c0-0.3,0.2-0.5,0.5-0.5l7.9,0c0.3,0,0.5,0.2,0.5,0.5
								l0.1,11C273.3,44.1,272.2,45.2,270.9,45.2z"/>
						</g>
					</g>
					<g>
						<g>
							<path class="st3" d="M316.4,52.5l1.1,0c0.3,0,0.6,0.3,0.6,0.6l0,5.9c0,0.3-0.3,0.6-0.6,0.6l-1.1,0c-0.3,0-0.6-0.3-0.6-0.6
								l0-5.9C315.8,52.8,316,52.5,316.4,52.5z"/>
							<path class="st3" d="M318.7,52.5l1.1,0c0.3,0,0.6,0.3,0.6,0.6l0,5.9c0,0.3-0.3,0.6-0.6,0.6l-1.1,0c-0.3,0-0.6-0.3-0.6-0.6
								l0-5.9C318.1,52.7,318.4,52.5,318.7,52.5z"/>
						</g>
						<g>
							<path class="st7" d="M298.2,48.2c0,0.9-0.7,1.6-1.6,1.6c-0.9,0-1.6-0.7-1.6-1.6s0.7-1.6,1.6-1.6S298.2,47.3,298.2,48.2z"/>
							<path class="st7" d="M341.1,47.9c0,0.9-0.7,1.6-1.6,1.6c-0.9,0-1.6-0.7-1.6-1.6s0.7-1.6,1.6-1.6S341.1,47,341.1,47.9z"/>
						</g>
						<path class="st2" d="M372.2,34.5l-2.5,0c-3.4,0-6.8,1.2-9.5,3.3l-7.8,6.2c-3.3,2.6-7.3,4-11.5,4l0,0c-2.6,0-5-1.1-6.6-3.1l0,0
							c-1.6-2-4.1-3.2-6.7-3.2l-9.6,0.1l-9.6,0.1c-2.6,0-5,1.2-6.6,3.3l0,0c-1.6,2-4,3.2-6.5,3.2l0,0c-4.2,0-8.2-1.3-11.5-3.9
							l-7.9-6.1c-2.7-2.1-6.1-3.2-9.5-3.2l-2.5,0c-0.7,0-1.3,0.5-1.4,1.2c-0.1,0.7,0.4,1.3,1,1.5l2.8,0.7c2.4,0.6,4.5,1.8,6.3,3.5
							l2.6,2.5c8.3,7.8,19,12.5,30.4,13.1l5,0.3c5,0.3,10.1,0.2,15.1-0.1l5-0.3c11.4-0.8,22.1-5.5,30.2-13.5l2.6-2.5
							c1.7-1.7,3.9-2.9,6.2-3.5l2.7-0.7c0.5-0.2,1-0.6,1-1.2C373.6,35.2,373,34.5,372.2,34.5L372.2,34.5z"/>
						<g>
							<line class="st14" x1="322.3" y1="54.3" x2="322.2" y2="54.3"/>
							<path class="st9" d="M321.7,46.2c0-0.2,0.2-0.4,0.4-0.4"/>
						</g>
					</g>
				</g>
				<g>
					<path class="st5" d="M312.6,68.3l0,4c0,3.2,2.6,5.7,5.8,5.7s5.7-2.6,5.7-5.8l0-4L312.6,68.3z"/>
					<g>
						
							<rect x="316.7" y="58.4" transform="matrix(1 -6.283144e-03 6.283144e-03 1 -0.3737 2.0013)" class="st3" width="3.2" height="4.1"/>
						<g>
							<path class="st0" d="M313.7,62.6l9.4-0.1c1.6,0,3,1.3,3,3l0,5.2c0,1.6-1.3,3-3,3l-9.4,0.1c-1.6,0-3-1.3-3-3l0-5.2
								C310.7,63.9,312,62.6,313.7,62.6z"/>
							<g>
								<path class="st5" d="M322.6,68.1c0,2.2-1.8,4.1-4,4.1c-2.2,0-4.1-1.8-4.1-4s1.8-4.1,4-4.1C320.8,64.1,322.6,65.9,322.6,68.1
									z"/>
								<path class="st15" d="M321.6,68.1c0,1.7-1.4,3.1-3.1,3.1s-3.1-1.4-3.1-3.1s1.4-3.1,3.1-3.1S321.6,66.4,321.6,68.1z"/>
							</g>
						</g>
					</g>
				</g>
			</g>
		</g>
	</g>
</g>
</svg>
