<?xml version="1.0" encoding="UTF-8"?><svg xmlns="http://www.w3.org/2000/svg" viewBox="0 0 482.56 207.42"><defs><style>.d{fill:#fff;}.e{fill:#fde89a;}.f{fill:#0e233f;}.g{fill:#3595e0;}.h{fill:#6445e1;}.i{fill:#282359;}</style></defs><g id="a"/><g id="b"><g id="c"><g><path class="e" d="M0,22.54H83s-.61-10.04-15.98-10.04c0,0-3.89-12.5-19.67-12.5-7.4,0-12.09,1.23-17.83,6.15C29.51,6.15,0,2.62,0,22.54Z"/><g><g><circle class="h" cx="414.66" cy="147.76" r="29.64"/><circle class="g" cx="460.47" cy="109.08" r="22.09" transform="translate(249.23 532.54) rotate(-76.81)"/><rect class="e" x="459.1" y="111.66" width="2.75" height="95.52"/><path class="e" d="M459.88,184.87c-12.43-5.92-16.04-17.85-16.19-18.36l2.64-.77-1.32,.38,1.32-.39c.03,.11,3.44,11.27,14.73,16.65l-1.18,2.48Z"/><rect class="e" x="451.93" y="146.68" width="35.33" height="2.75" transform="translate(100.39 473.82) rotate(-58.92)"/></g><rect class="e" x="413.28" y="152.23" width="2.75" height="54.96"/></g><polygon class="h" points="283.93 169.71 320.82 169.71 336.56 152 299.67 152 283.93 169.71"/><polygon class="g" points="301.31 153.67 288.1 167.94 288.1 207.42 314.52 207.42 314.52 167.94 301.31 153.67"/><rect class="i" x="314.52" y="167.94" width="35.23" height="39.48"/><polygon class="e" points="351.95 169.71 315.05 169.71 299.31 152 336.21 152 351.95 169.71"/><rect class="d" x="294.28" y="173.66" width="2.23" height="5.47"/><rect class="d" x="306.32" y="173.66" width="2.23" height="5.47"/><rect class="d" x="294.28" y="183.58" width="2.23" height="5.47"/><rect class="d" x="306.32" y="183.58" width="2.23" height="5.47"/><rect class="d" x="319.58" y="173.66" width="2.23" height="5.47"/><rect class="d" x="331.63" y="173.66" width="2.23" height="5.47"/><rect class="d" x="319.58" y="183.58" width="2.23" height="5.47"/><rect class="d" x="331.63" y="183.58" width="2.23" height="5.47"/><path class="f" d="M304.5,207.42h-6.38v-9.82c0-1.76,1.43-3.19,3.19-3.19s3.19,1.43,3.19,3.19v9.82Z"/></g></g></g></svg>