<svg xmlns="http://www.w3.org/2000/svg" xmlns:xlink="http://www.w3.org/1999/xlink" viewBox="0 0 131.54 127"><defs><style>.cls-1,.cls-4{fill:none;}.cls-2{fill:#4271ff;}.cls-3{fill:#07a47d;}.cls-4{stroke:#0e233f;stroke-miterlimit:10;}.cls-5{clip-path:url(#clip-path);}.cls-6{fill:#ff0c24;}.cls-7{fill:#4c7cff;}.cls-8{fill:#5145ad;}.cls-9{fill:#d33c2b;}.cls-10{fill:#0e233f;}</style><clipPath id="clip-path" transform="translate(-1.62)"><path class="cls-1" d="M46.1,86.41c-22.94,0-42,17.48-46.1,40.58H92.2c-4.06-23.1-23.15-40.58-46.1-40.58Z"/></clipPath></defs><g id="Capa_2" data-name="Capa 2"><g id="Capa_1-2" data-name="Capa 1"><g id="b"><g id="c"><ellipse class="cls-2" cx="50.39" cy="103.28" rx="3.7" ry="3.92"/><path class="cls-3" d="M99.13,37.23l-1-1.06S8.25,105.64,8.32,105.86L92.2,126.15l6.93-88.91Z" transform="translate(-1.62)"/><line class="cls-4" x1="87.74" y1="116.09" x2="96.65" y2="37.02"/><line class="cls-4" x1="75.46" y1="99.81" x2="96.65" y2="37.02"/><line class="cls-4" x1="61.93" y1="98.6" x2="96.65" y2="37.02"/><line class="cls-4" x1="47.58" y1="99.36" x2="96.65" y2="37.02"/><line class="cls-4" x1="35.78" y1="89.98" x2="96.65" y2="37.02"/><path class="cls-2" d="M46.1,87.63C24,87.63,5.54,104.5,1.62,126.79h89C86.66,104.5,68.24,87.63,46.1,87.63Z" transform="translate(-1.62)"/><g class="cls-5"><path class="cls-6" d="M97.16,127h-56c0-3.32-2.87-4.51-5.87-4.51H23.45a5.15,5.15,0,0,1-.06-10.24H95.78C95.66,112.37,97.16,127,97.16,127Z" transform="translate(-1.62)"/><path class="cls-6" d="M3.84,86.74c.08.09-1.44,21.14-1.44,21.14H84.13l4.2-4.66H39.27a4.48,4.48,0,0,1,0-8.91H48a3.81,3.81,0,0,0,0-7.58H3.84Z" transform="translate(-1.62)"/></g><path class="cls-7" d="M106.37,14.94a.4.4,0,0,0,0,.52l2.95,3.13a.34.34,0,0,0,.49,0,.38.38,0,0,0,0-.51l-3-3.14A.34.34,0,0,0,106.37,14.94Z" transform="translate(-1.62)"/><path class="cls-7" d="M109.28,11.87a.36.36,0,0,0,0,.51l3,3.13a.31.31,0,0,0,.48,0,.36.36,0,0,0,0-.51l-2.95-3.13A.31.31,0,0,0,109.28,11.87Z" transform="translate(-1.62)"/><path class="cls-6" d="M110.81,10.76l-5.48,5.81a.4.4,0,0,1-.6,0l-9.41-10a.45.45,0,0,1,0-.63L100.8.13a.41.41,0,0,1,.59,0l9.42,10A.49.49,0,0,1,110.81,10.76Z" transform="translate(-1.62)"/><polygon class="cls-8" points="96.19 3.29 96.68 2.78 101.44 7.83 104.24 4.86 104.24 4.86 104.72 5.38 104.72 5.38 101.93 8.35 106.69 13.4 106.2 13.92 101.44 8.87 98.64 11.84 98.16 11.31 100.95 8.35 96.19 3.29"/><path class="cls-7" d="M122,25.35a.36.36,0,0,0,0-.51l-3-3.14a.34.34,0,0,0-.49,0,.4.4,0,0,0,0,.52l3,3.13A.33.33,0,0,0,122,25.35Z" transform="translate(-1.62)"/><path class="cls-7" d="M119.08,28.44a.4.4,0,0,0,0-.52l-3-3.13a.31.31,0,0,0-.48,0,.36.36,0,0,0,0,.51l3,3.14A.34.34,0,0,0,119.08,28.44Z" transform="translate(-1.62)"/><path class="cls-3" d="M112.61,27.55c.57-.6-.18-2.38-1.67-4s-3.16-2.38-3.74-1.78.18,2.38,1.68,4S112,28.16,112.61,27.55Z" transform="translate(-1.62)"/><path class="cls-3" d="M112.57,27.6v0l-3.81,4.05h0l0,0h0l0,0h0l0,0h0l0,0h0l0,0h0l0,0H108l-.07,0h0l-.06,0h0l-.07,0h0l-.07,0h0l-.09,0h0l-.09,0h0l-.11-.06h0l-.11-.05h0l-.06,0h0l0,0h0l-.07-.05h0l-.07,0h0a.57.57,0,0,0-.13-.08h0l-.13-.09h0l-.14-.09h0l-.14-.11h0l-.15-.11h0L106,30.7h0l-.14-.12h0l-.13-.12h0l-.23-.21h0c0-.06-.12-.11-.17-.18h0l-.15-.15h0l0,0a.64.64,0,0,1-.13-.15h0l-.14-.16h0a1,1,0,0,1-.13-.16h0l-.12-.15h0l-.12-.14v0h0l-.12-.15h0l-.13-.17h0a1.77,1.77,0,0,0-.12-.17h0l-.12-.19h0v0l0-.08,0,0,0-.1h0l-.06-.11h0l-.06-.12v0h0c0-.05,0-.1-.08-.14h0l-.07-.15h0v-.1l0,0v0l0,0v-.48l0,0v-.68l0,0V26h0a0,0,0,0,1,0,0v0h0l0,0h0l0,0,3.81-4.05,0,0h0a0,0,0,0,1,0,0v0l0,0h0v.86l0,0v.41l0,0v.07l0,0v0l0,0v.07l.07.15h0l.07.15v0l.06.11h0l.06.11v0a.41.41,0,0,0,0,.09l0,0s0,0,0,.08v0l.12.19h0a1,1,0,0,0,.12.17h0l.12.17h0l.11.15,0,0,.11.14,0,0a1.58,1.58,0,0,0,.12.15h0l.12.16h0l.14.17h0l.13.14,0,0,.15.15h0l.17.18h0l.23.2h0l.14.12v0l.14.12h0l.15.12h0l.14.11h0l.14.1h0l.13.1h0l.13.08h0a.57.57,0,0,0,.13.08h0l.06,0h0l.07,0h0l0,0h0l0,0h0l.12.06h0l.11.06h0l.09,0h0l.09,0h0l.07,0h0l.07,0h0l0,0h.6l0,0h0l0,0h0l0,0h0l0,0h0l0,0h0l0,0Z" transform="translate(-1.62)"/><path class="cls-8" d="M117.31,24.05c.65-.69-.34-2.87-2.22-4.87s-3.93-3.05-4.58-2.36.34,2.88,2.22,4.87S116.66,24.74,117.31,24.05Z" transform="translate(-1.62)"/><path class="cls-7" d="M117.27,24l0,0-6,6.34,0,0h0l0,0h0l-.06,0h0l0,0h0l0,0h0l0,0h-.6l-.07,0h0l-.08,0h0l-.07,0h0l-.09,0h0l-.09,0h0l-.11,0h0l-.11-.05h0l-.14-.07h0l-.14-.07h0l-.07,0h0l-.07,0,0,0-.09-.05h0L109,29.9v0h0l-.16-.1,0,0-.16-.11h0l-.17-.12h0l-.17-.14h0l-.19-.15h0l-.18-.15h0l-.18-.14v0l-.18-.15v0h0l-.29-.26h0l-.22-.23h0l-.18-.19h0l0,0-.16-.18h0c-.07-.06-.12-.13-.19-.19h0l-.16-.2h0l-.15-.18h0l-.15-.19h0l-.15-.19h0l-.16-.21h0l-.16-.21v0h0a1.82,1.82,0,0,1-.15-.23h0v0l-.07-.1v0l-.07-.12h0a1,1,0,0,0-.08-.14h0s0-.09-.08-.14h0a1.62,1.62,0,0,1-.1-.18h0a1.11,1.11,0,0,1-.09-.19h0l0,0,0-.05,0,0,0-.05v0l0,0,0,0,0-.05v-.07l0,0v0l0,0v0l0,0V23.38a0,0,0,0,0,0,0v-.07l0,0h0a.1.1,0,0,1,0,0h0l0,0h0l0,0,6-6.34,0,0h0l0,0h0l0,0v0a0,0,0,0,1,0,0v0a.1.1,0,0,1,0,0v0a0,0,0,0,1,0,0v0a.1.1,0,0,1,0,0v0a.1.1,0,0,1,0,0v.07a0,0,0,0,0,0,0v1l0,0v0l0,.05v.07l0,0v0l0,0a.14.14,0,0,1,0,0v0l0,.05v0a.14.14,0,0,1,0,0l0,0,0,0v0a1.62,1.62,0,0,0,.1.18h0l.09.18v0a1,1,0,0,0,.08.14h0l.08.13v0a.75.75,0,0,1,.07.12l0,0,.06.09,0,0,.15.22v0l.15.21h0l.15.21v0l.15.19,0,0,.14.18,0,0,.15.19h0a1.46,1.46,0,0,0,.16.19h0l.18.2h0l.16.17,0,0,.19.19h0l.22.22h0l.29.26v0l.18.15,0,0,.17.14h0l.18.16h0c.06.05.13.09.19.15h0l.17.13h0l.17.12h0l.16.12h0l.16.1,0,0,.08.05h0l.1.05,0,0,.06,0,0,0,.06,0h0l.14.07h0l.13.07h0l.11.05h0l.11.05h0a.2.2,0,0,1,.08,0h0l.09,0h0l.07,0h0l.09,0h0l.06,0h0l.06,0H117l0,0h0l0,0h0l0,0h0l0,0h0l0,0h0l.05,0Z" transform="translate(-1.62)"/><path class="cls-9" d="M111.69,17.87l2.16-2.3a.44.44,0,0,0,0-.57.36.36,0,0,0-.54,0l-2.16,2.29a.43.43,0,0,0,0,.58A.38.38,0,0,0,111.69,17.87Z" transform="translate(-1.62)"/><path class="cls-9" d="M116.86,23.36,119,21.07a.43.43,0,0,0,0-.58.37.37,0,0,0-.53,0l-2.17,2.3a.44.44,0,0,0,0,.57A.36.36,0,0,0,116.86,23.36Z" transform="translate(-1.62)"/><path class="cls-9" d="M113.76,21.07l2.16-2.29a.43.43,0,0,0,0-.58.37.37,0,0,0-.53,0l-2.17,2.3a.44.44,0,0,0,0,.57A.36.36,0,0,0,113.76,21.07Z" transform="translate(-1.62)"/><path class="cls-8" d="M123,18.06c.66-.7-.34-2.87-2.22-4.87s-3.93-3-4.58-2.36.35,2.88,2.22,4.87S122.3,18.75,123,18.06Z" transform="translate(-1.62)"/><path class="cls-7" d="M122.91,18l0,0-4.37,4.63,0,0h0l0,0h0l-.06,0h0l0,0h0l0,0h0l0,0h-.6l-.07,0h0l-.09,0h0l-.07,0h0l-.09,0h0l-.09,0h0l-.11-.05h0l-.11-.05h0l-.13-.06h0l-.14-.08h0l-.06,0h0l-.06,0,0,0-.1,0h0l-.08-.05v0h0l-.16-.1h0l-.16-.12h0l-.17-.12h0l-.17-.14h0a1.33,1.33,0,0,1-.19-.14h0l-.18-.16h0l-.17-.14,0,0-.17-.15v0h0l-.29-.26h0a2.44,2.44,0,0,1-.22-.23h0l-.19-.19h0l0,0a1.37,1.37,0,0,0-.17-.17v0h0l-.18-.19h0l-.16-.2h0l-.15-.18h0l-.15-.18h0l-.15-.2h0l-.16-.21h0c0-.07-.1-.14-.15-.21v0h0a1.88,1.88,0,0,1-.16-.23h0v0l-.07-.09v0l-.07-.12h0l-.08-.14h0l-.08-.13v0h0a1.62,1.62,0,0,1-.1-.18h0a.76.76,0,0,1-.09-.18h0l0,0a.14.14,0,0,1,0,0l0,0,0-.05v0l0,0,0,0,0-.05v0l0,0V17l0,0v-.05l0,0v-.37l0,0v-.69l0,0v-.2a.1.1,0,0,1,0,0h0l0,0h0l0,0,4.37-4.64,0,0h0v0l0,0V11a0,0,0,0,0,0,0v.07a0,0,0,0,1,0,0v.08a0,0,0,0,0,0,0v.95l0,0v.08l0,0v0l0,0v0l0,0v.05l0,0,0,0v0l0,.05,0,0,0,.05,0,0,.09.18h0a1,1,0,0,1,.1.17v0a.64.64,0,0,0,.08.14h0a1,1,0,0,0,.08.14v0l.07.11,0,0,.06.1,0,0L117,14h0l.15.22h0l.15.21h0l.15.2v0l.15.18,0,0,.15.18,0,0,.16.19h0c.06.06.11.13.18.19h0l.17.18,0,0,.19.19v0l.22.22h0l.28.26h0l.17.16h0l.18.15h0l.18.15h0l.19.15h0a1.09,1.09,0,0,0,.17.13h0l.17.12,0,0,.16.11,0,0,.16.1h0l.09.05h0l.09.06h0l.07,0,0,0,.07,0h0l.14.08h0l.13.06h0l.11.05h0l.11.05h0l.08,0h0l.09,0h0l.07,0h0l.09,0h0l.06,0h.54l.05,0h0l0,0h0l.06,0h0l0,0h0l0,0h0l0,0Z" transform="translate(-1.62)"/><path class="cls-6" d="M133,34.36l-5.48,5.81a.4.4,0,0,1-.6,0l-9.41-10a.45.45,0,0,1,0-.63L123,23.73a.4.4,0,0,1,.6,0l9.41,10A.47.47,0,0,1,133,34.36Z" transform="translate(-1.62)"/><ellipse class="cls-7" cx="102.9" cy="32.03" rx="2.65" ry="10.91" transform="translate(4.25 78.92) rotate(-43.08)"/><path class="cls-6" d="M98,37.28a.36.36,0,0,0,.26.11l11.23-.7a.37.37,0,0,0,.33-.39.36.36,0,0,0-.37-.34l-11.23.69a.37.37,0,0,0-.32.39.33.33,0,0,0,.1.24Z" transform="translate(-1.62)"/><path class="cls-6" d="M98,37.29a.29.29,0,0,0,.22.1.36.36,0,0,0,.37-.34l.65-11.95a.35.35,0,1,0-.69-.05l-.65,12a.35.35,0,0,0,.1.28Z" transform="translate(-1.62)"/><path class="cls-6" d="M98.52,37.28,105,30.4a.4.4,0,0,0,0-.52.34.34,0,0,0-.49,0L98,36.77a.36.36,0,0,0,0,.51A.33.33,0,0,0,98.52,37.28Z" transform="translate(-1.62)"/><ellipse class="cls-7" cx="98.28" cy="37.02" rx="0.54" ry="1.28" transform="translate(-0.77 76.21) rotate(-42.55)"/><path class="cls-8" d="M95.42,24.08c1.69-1.79,6.73,0,10.86,4.36s5.8,9.74,4.11,11.53c1-1.07-1.53-5.49-5.67-9.88S96.42,23,95.42,24.08Z" transform="translate(-1.62)"/><polygon class="cls-8" points="128.93 37 128.44 37.52 123.68 32.47 120.88 35.44 120.88 35.44 120.39 34.92 120.39 34.92 123.19 31.95 118.42 26.89 118.92 26.38 123.68 31.43 126.47 28.47 126.96 28.98 124.16 31.95 128.93 37"/><path class="cls-10" d="M71.44,118v4.12a1.86,1.86,0,0,1-1.8,1.91h0a1.86,1.86,0,0,1-1.8-1.91V118a1.86,1.86,0,0,1,1.8-1.92h0A1.86,1.86,0,0,1,71.44,118Z" transform="translate(-1.62)"/><path class="cls-10" d="M30.25,97.75v4.12a1.87,1.87,0,0,1-1.8,1.92h0a1.86,1.86,0,0,1-1.8-1.92V97.75a1.86,1.86,0,0,1,1.8-1.92h0A1.87,1.87,0,0,1,30.25,97.75Z" transform="translate(-1.62)"/><path class="cls-10" d="M43.67,117v4.12a1.86,1.86,0,0,1-1.8,1.91h0a1.85,1.85,0,0,1-1.8-1.91V117a1.86,1.86,0,0,1,1.8-1.92h0A1.87,1.87,0,0,1,43.67,117Z" transform="translate(-1.62)"/><path class="cls-10" d="M61.61,101.22v4.12a1.87,1.87,0,0,1-1.81,1.92h0a1.87,1.87,0,0,1-1.8-1.92v-4.12a1.86,1.86,0,0,1,1.8-1.91h0A1.86,1.86,0,0,1,61.61,101.22Z" transform="translate(-1.62)"/><path class="cls-10" d="M22.15,111.43v4.12a1.86,1.86,0,0,1-1.81,1.91h0a1.86,1.86,0,0,1-1.8-1.91v-4.12a1.87,1.87,0,0,1,1.8-1.92h0A1.87,1.87,0,0,1,22.15,111.43Z" transform="translate(-1.62)"/><polygon class="cls-4" points="18.73 113.49 40.25 119.04 68.02 120.07 57.88 103.79 26.11 99.81 18.73 113.49"/><polygon class="cls-4" points="40.25 119.04 57.88 103.79 18.73 112.05 68.02 120.07 26.83 101.21 40.25 119.04"/></g></g></g></g></svg>