<?xml version="1.0" encoding="UTF-8"?><svg xmlns="http://www.w3.org/2000/svg" viewBox="0 0 498.75 207.66"><defs><style>.d{fill:#fde89a;}.e{fill:#1a2e35;}.f{fill:#6445e1;}</style></defs><g id="a"/><g id="b"><g id="c"><g><rect class="d" x="447.48" y="129.11" width="6.98" height="20.41"/><g><g><polyline class="e" points="459.77 74.55 476.9 120.97 460.04 120.97"/><polyline class="f" points="460.22 120.92 443.28 120.92 459.75 74.49"/><rect class="e" x="443.21" y="120.44" width="16.89" height="4.09"/><polygon class="e" points="498.75 116.62 498.75 149.13 476.55 149.13 476.55 136.97 498.75 116.62"/><rect class="f" x="460.05" y="124.28" width="16.91" height="25.24"/><rect class="e" x="478.93" y="187.48" width="3.83" height="7.33"/><rect class="e" x="466.94" y="187.48" width="3.83" height="7.33"/></g><polygon class="f" points="455.88 169.97 405.1 169.97 392.01 159.5 450.45 159.5 455.88 169.97"/><rect class="e" x="391.97" y="153.24" width="50.87" height="6.26"/><polygon class="e" points="451.81 170 405.21 170 405.14 207.66 424.78 207.64 424.78 191.15 451.81 170"/><path class="d" d="M459.88,149.13h38.77v33.83h-22.74l-14.45-14.45-15.9,22.64h-20.79s34.93-42.02,35.11-42.02Z"/><polygon class="f" points="475.92 182.96 461.42 168.54 490.1 168.54 475.92 182.96"/></g></g><circle class="d" cx="18.41" cy="18.41" r="18.41"/></g></g></svg>