<?xml version="1.0" encoding="UTF-8"?><svg xmlns="http://www.w3.org/2000/svg" xmlns:xlink="http://www.w3.org/1999/xlink" viewBox="0 0 279.61 251.23"><defs><style>.e,.f{fill:none;}.g{fill:#ff0c24;}.h{fill:#d93c2b;}.i,.j{fill:#07aa7d;}.k{fill:#4271ff;}.l{fill:#0e233f;}.m{fill:#4c7cff;}.n{fill:#5145b3;}.j{mix-blend-mode:multiply;}.f{stroke:#0e233f;stroke-miterlimit:10;}.o{clip-path:url(#d);}.p{isolation:isolate;}</style><clipPath id="d"><path class="e" d="M182.81,170.94c-48.18,0-88.27,34.59-96.8,80.29h193.6c-8.53-45.7-48.62-80.29-96.8-80.29Z"/></clipPath></defs><g class="p"><g id="a"/><g id="b"><g id="c"><circle class="k" cx="170.41" cy="204.32" r="7.76"/><path class="j" d="M71.47,73.67l14.54,175.9,176.14-40.15c.14-.44-188.59-137.86-188.59-137.86l-2.1,2.1Z"/><line class="f" x1="73.26" y1="73.24" x2="91.98" y2="229.66"/><line class="f" x1="73.26" y1="73.24" x2="117.77" y2="197.46"/><line class="f" x1="73.26" y1="73.24" x2="146.17" y2="195.07"/><line class="f" x1="73.26" y1="73.24" x2="176.3" y2="196.56"/><line class="f" x1="73.26" y1="73.24" x2="201.09" y2="178"/><g><path class="k" d="M182.81,173.36c-46.48,0-85.16,33.38-93.39,77.47h186.79c-8.23-44.09-46.91-77.47-93.39-77.47Z"/><g class="o"><path class="g" d="M78.5,222.04H230.5c5.3,.07,9.57,4.58,9.57,10.13s-4.34,10.13-9.7,10.13h-24.87v.02c-6.28,0-11.37,5.33-11.37,11.9s5.1,11.9,11.39,11.9h59.47l-11.91,12.44H74.42s4.32-56.26,4.08-56.52Z"/><path class="g" d="M271.56,171.58h-92.89c-3.92,.05-7.08,3.39-7.08,7.5s3.21,7.5,7.18,7.5h18.39c4.65,.01,8.43,3.95,8.43,8.82s-3.77,8.8-8.43,8.8H94.14l8.81,9.21h171.62s-3.2-41.63-3.02-41.82Z"/></g></g><g><g><path class="m" d="M55.24,29.57l-6.2,6.2c-.28,.28-.28,.74,0,1.02,.28,.28,.74,.28,1.02,0l6.2-6.2c.28-.28,.28-.74,0-1.02-.28-.28-.74-.28-1.02,0Z"/><path class="m" d="M49.14,23.48l-6.2,6.2c-.28,.28-.28,.74,0,1.02,.28,.28,.74,.28,1.02,0l6.2-6.2c.28-.28,.28-.74,0-1.02-.28-.28-.74-.28-1.02,0Z"/></g><rect class="g" x="48.34" y="7.5" width="29.73" height="18.05" rx=".89" ry=".89" transform="translate(6.83 49.54) rotate(-45)"/><polygon class="n" points="64.24 16.52 70.11 22.39 69.08 23.42 63.21 17.55 53.21 27.55 52.19 26.52 62.19 16.52 56.32 10.65 56.32 10.65 57.34 9.63 57.34 9.63 63.21 15.5 73.21 5.5 74.24 6.52 64.24 16.52"/><g><path class="m" d="M24.5,50.16l6.2-6.2c.28-.28,.28-.74,0-1.02s-.74-.28-1.02,0l-6.2,6.2c-.28,.28-.28,.74,0,1.02s.74,.28,1.02,0Z"/><path class="m" d="M30.6,56.26l6.2-6.2c.28-.28,.28-.74,0-1.02-.28-.28-.74-.28-1.02,0l-6.2,6.2c-.28,.28-.28,.74,0,1.02s.74,.28,1.02,0Z"/></g><g><path class="i" d="M51,51c3.13-3.14,4.71-6.65,3.51-7.84-1.2-1.2-4.7,.38-7.84,3.51-3.13,3.14-4.7,6.65-3.51,7.84,1.2,1.2,4.7-.38,7.84-3.51Z"/><path class="i" d="M43.2,54.55s.05,.04,.07,.06h0s.06,.05,.09,.07h.02s.05,.04,.07,.06h.02s.06,.04,.09,.05h.03s.05,.03,.07,.04h.03s.07,.03,.1,.04h0s.06,.02,.1,.02h.03s.05,.01,.08,.02h.03s.07,.01,.11,.01h.02s.07,0,.1,0c.01,0,.02,0,.04,0,.03,0,.06,0,.09,0h.03s.08,0,.13,0h.02s.07-.01,.11-.01h.04s.08-.02,.12-.02h.02s.1-.02,.14-.03h.04s.08-.03,.12-.04h.03c.05-.02,.11-.03,.16-.05h.04s.1-.04,.15-.06h.02c.06-.03,.12-.05,.19-.07h.04c.06-.04,.12-.06,.19-.08h.03c.08-.04,.15-.07,.23-.11h.03c.08-.05,.16-.08,.24-.12l.04-.02s.07-.03,.11-.05l.05-.03s.08-.04,.11-.06l.05-.02c.05-.03,.11-.06,.16-.08h.03s.09-.06,.14-.09l.04-.02c.09-.05,.18-.1,.27-.16l.03-.02c.09-.05,.18-.11,.27-.17l.03-.02c.09-.06,.19-.12,.28-.18l.03-.02c.1-.07,.2-.13,.29-.2h.02c.1-.08,.21-.16,.31-.23h0c.1-.08,.2-.16,.31-.24l.02-.02c.1-.08,.19-.15,.29-.23l.03-.03c.09-.08,.19-.16,.29-.24l.03-.02c.16-.13,.32-.27,.47-.41l.02-.02c.12-.11,.25-.23,.37-.34l.03-.03c.1-.1,.21-.2,.31-.3l.06-.06c.09-.09,.18-.18,.27-.27h.01c.1-.12,.2-.22,.3-.33h.01c.09-.11,.18-.21,.27-.32l.02-.03c.09-.1,.17-.19,.25-.29l.03-.03c.08-.1,.16-.19,.24-.29l.03-.03c.08-.1,.16-.2,.24-.3l.02-.02c.09-.11,.17-.22,.25-.33v-.02c.1-.11,.18-.22,.25-.34l.02-.03c.08-.12,.17-.24,.25-.37l.02-.04c.03-.05,.07-.1,.1-.16l.03-.04c.04-.06,.08-.12,.11-.18l.02-.03c.04-.07,.09-.14,.13-.22h0c.04-.09,.08-.16,.12-.23l.02-.03c.05-.1,.1-.19,.15-.29h0c.05-.11,.1-.21,.14-.31l.03-.06,.03-.08,.03-.06,.03-.07,.03-.06,.03-.07,.02-.06,.03-.07,.02-.06,.03-.07,.02-.06,.02-.07,.02-.06,.02-.07,.02-.06,.02-.06,.02-.06,.02-.06,.02-.06,.02-.06v-.06l.03-.06v-.06l.02-.06v-.05l.02-.06v-.05l.02-.06v-.11l.02-.05v-.26s.01-.03,.01-.05v-.19l-.02-.05v-.09l-.02-.04v-.05l-.02-.04v-.04l-.02-.04v-.04l-.03-.04-.02-.04v-.04l-.03-.04-.02-.03-.02-.04-.02-.03-.02-.04-.02-.03s-.02-.03-.03-.04l-.02-.03s-.02-.03-.03-.04l-.02-.02s-.04-.04-.05-.06l8.01,8s.04,.04,.05,.06l.02,.02s.02,.03,.03,.04l.02,.03s.02,.03,.03,.04l.02,.03s.02,.03,.02,.04l.02,.03,.02,.04,.02,.03,.02,.04v.04l.03,.04v.04l.03,.04v.04l.02,.04v.04l.02,.05v.09l.02,.04v.19l.02,.05s0,.03,0,.05v.26l-.02,.05v.11l-.02,.06v.05l-.02,.06v.05l-.02,.06v.06l-.03,.06v.06l-.03,.06-.02,.06-.02,.06-.02,.06-.02,.06-.02,.06-.02,.07-.02,.06-.02,.07-.02,.06-.03,.07-.02,.06-.03,.07-.02,.06-.03,.07-.03,.06-.03,.07-.03,.06-.03,.08-.02,.05h0c-.04,.1-.09,.2-.14,.3v.02c-.06,.09-.11,.19-.16,.29h0v.04c-.05,.07-.09,.14-.13,.22h0c-.04,.09-.08,.16-.13,.23v.02h-.02c-.04,.07-.08,.13-.11,.2l-.03,.04c-.03,.05-.07,.1-.1,.16l-.02,.03h0c-.08,.13-.16,.25-.25,.37h0v.03c-.09,.11-.17,.22-.25,.34h0v.02c-.09,.11-.17,.22-.26,.33h0v.02c-.09,.1-.17,.2-.25,.3h-.01v.03c-.09,.1-.17,.19-.26,.29v.02l-.03,.02c-.08,.1-.17,.19-.25,.29v.02h-.02c-.09,.11-.18,.21-.27,.31h-.01c-.1,.12-.2,.22-.3,.33h-.01c-.09,.11-.18,.2-.27,.29l-.04,.04-.02,.02c-.1,.1-.21,.2-.31,.3l-.02,.02h-.01c-.12,.13-.25,.24-.37,.35h0v.02c-.17,.14-.32,.28-.48,.41h-.01l-.02,.02c-.1,.08-.19,.16-.29,.24l-.03,.03c-.1,.08-.19,.16-.29,.23l-.02,.02c-.1,.08-.2,.16-.31,.23h0c-.1,.08-.21,.16-.31,.23h-.02c-.1,.08-.2,.15-.29,.21l-.03,.02c-.09,.06-.19,.12-.28,.18l-.03,.02c-.09,.06-.18,.11-.27,.17l-.03,.02c-.09,.05-.18,.11-.27,.16h-.02l-.02,.02s-.09,.05-.14,.08h-.02c-.05,.04-.11,.07-.16,.1l-.05,.02s-.08,.04-.11,.06l-.05,.03s-.07,.04-.11,.05l-.03,.02h-.01c-.08,.04-.16,.08-.24,.11h-.03c-.08,.05-.15,.08-.23,.11h-.03c-.06,.04-.13,.06-.19,.08h-.04c-.06,.04-.13,.06-.19,.08h-.02c-.05,.02-.1,.04-.15,.05h-.04c-.05,.03-.11,.04-.16,.05h-.03s-.08,.03-.12,.04h-.04s-.1,.03-.14,.04h-.02s-.08,.02-.12,.02h-.04s-.07,.01-.11,.02h-.03s-.08,0-.13,.01h-.03s-.06,0-.09,0c0,0-.01,0-.02,0h-.02s-.07,0-.1,0h-.02s-.08,0-.11-.01h-.03s-.06-.01-.08-.02h-.03s-.07-.02-.1-.03h0s-.07-.02-.1-.03h-.03s-.05-.03-.07-.04h-.02s-.06-.04-.09-.05h-.02s-.05-.04-.07-.05h-.02s-.06-.05-.09-.07h0s-.05-.05-.07-.07h-.01l-.02-.03-8.01-8s.02,.02,.03,.03Z"/></g><g><path class="n" d="M42.91,42.92c3.94-3.95,6.03-8.26,4.66-9.63-1.37-1.37-5.68,.72-9.62,4.66-3.94,3.95-6.03,8.26-4.66,9.63,1.37,1.37,5.68-.72,9.62-4.66Z"/><path class="m" d="M33.34,47.62s.06,.05,.09,.07h0s.07,.05,.1,.07l.03,.02s.06,.03,.09,.05h.02s.07,.04,.11,.06h.03s.06,.03,.09,.04h.03s.08,.03,.12,.04h0s.08,.02,.12,.02h.04s.07,.01,.1,.01h.04s.09,0,.13,0c0,0,.01,0,.02,0,.04,0,.08,0,.12,0h.04s.08,0,.11,0h.04s.1-.01,.15-.02h.03s.09-.02,.13-.03h.05s.1-.03,.14-.04h.02c.06-.02,.12-.03,.18-.05h.05s.1-.04,.15-.05h.04c.06-.03,.13-.05,.19-.07h.05c.06-.04,.12-.06,.18-.08h.02c.08-.04,.15-.07,.23-.1l.04-.02c.08-.03,.15-.06,.23-.1l.04-.02c.09-.04,.19-.08,.28-.13l.04-.02c.1-.05,.19-.09,.29-.14l.05-.03s.09-.05,.13-.07l.07-.04s.09-.05,.14-.08l.06-.03c.06-.04,.13-.07,.2-.11l.03-.02c.06-.03,.11-.06,.17-.1l.04-.03c.11-.07,.22-.13,.33-.2l.04-.03c.11-.07,.22-.14,.34-.22l.04-.03c.12-.08,.23-.15,.35-.24l.03-.02c.12-.08,.24-.17,.36-.26h.02c.13-.11,.26-.2,.39-.3h0c.13-.1,.25-.2,.38-.3l.03-.02c.12-.1,.24-.19,.36-.29l.04-.03c.12-.1,.24-.2,.36-.3l.04-.03c.2-.17,.39-.34,.59-.52l.02-.02c.15-.14,.31-.28,.46-.43l.04-.03c.13-.12,.26-.25,.39-.38l.07-.07c.11-.11,.23-.23,.34-.34l.02-.02c.13-.13,.25-.26,.37-.39l.02-.02c.12-.13,.23-.25,.34-.38l.03-.03c.11-.12,.22-.24,.32-.36l.04-.04c.1-.12,.21-.24,.31-.36l.03-.04c.1-.13,.21-.25,.31-.38l.02-.03c.11-.14,.22-.28,.32-.42l.02-.02c.11-.14,.21-.28,.31-.42l.03-.03c.11-.15,.21-.3,.32-.45l.03-.05c.04-.06,.09-.13,.13-.19l.04-.05c.05-.08,.1-.15,.15-.23l.03-.04c.06-.09,.11-.18,.16-.27v-.02c.06-.09,.12-.18,.17-.27l.02-.04c.07-.12,.13-.24,.2-.35v-.02c.08-.12,.14-.24,.2-.36l.03-.07s.03-.06,.05-.09l.04-.07s.03-.06,.04-.09l.03-.08,.04-.09,.03-.08s.02-.06,.04-.09l.03-.07,.03-.08,.03-.08,.03-.08,.03-.07,.03-.08,.03-.07,.03-.08,.02-.07,.03-.08,.02-.07,.02-.08,.02-.07,.02-.07,.02-.07,.02-.07,.02-.07,.02-.07v-.07l.03-.07v-.06l.02-.07v-.06l.02-.07v-.13l.02-.06v-.18s0-.04,0-.06v-.23l-.02-.06v-.05s-.01-.04-.02-.06v-.05l-.02-.05v-.05s-.02-.03-.02-.05v-.05s-.02-.03-.03-.05l-.02-.04s-.01-.03-.02-.05l-.02-.04s-.02-.03-.02-.05l-.02-.04s-.02-.03-.03-.05l-.02-.03s-.02-.03-.03-.05l-.02-.03s-.03-.03-.04-.05l-.02-.02s-.04-.05-.06-.07l12.55,12.54s.04,.04,.06,.07l.02,.02s.03,.03,.04,.05l.02,.03s.02,.03,.03,.05l.02,.03s.02,.03,.03,.05l.02,.04s.02,.03,.02,.05l.02,.04s.01,.03,.02,.05v.04s.03,.03,.03,.05v.04s.02,.03,.03,.05v.05l.02,.05v.05l.02,.05v.11l.02,.05v.17s0,.04,0,.06v.24l-.02,.06v.06l-.02,.07v.06l-.02,.07v.06l-.02,.07v.07l-.03,.07-.02,.07-.02,.07-.02,.07-.02,.07-.02,.07-.02,.08-.02,.07-.03,.08-.02,.07-.03,.08-.03,.07-.03,.08-.03,.07-.03,.08-.03,.07-.03,.08-.03,.07-.04,.09-.03,.08-.04,.09-.03,.08-.04,.09-.04,.07s-.03,.06-.05,.09l-.03,.07h0c-.06,.12-.12,.24-.19,.37v.02c-.07,.12-.14,.23-.21,.35v.02l-.03,.03c-.05,.09-.1,.18-.16,.27v.02c-.06,.09-.12,.18-.17,.27l-.02,.02h0c-.05,.09-.1,.17-.15,.24l-.03,.05c-.04,.06-.09,.13-.13,.19l-.02,.04h0c-.1,.16-.21,.31-.32,.46h-.01v.03c-.11,.14-.22,.28-.32,.42h-.01v.02c-.11,.14-.22,.28-.33,.41h0v.03c-.11,.13-.22,.25-.32,.38v.02l-.03,.02c-.1,.12-.2,.24-.31,.36l-.02,.02-.02,.02c-.1,.12-.21,.24-.32,.36l-.02,.02h-.01c-.11,.14-.23,.26-.34,.39h-.01v.02c-.13,.13-.25,.26-.38,.39h0v.02c-.12,.11-.24,.23-.35,.34l-.05,.05-.02,.02c-.13,.13-.26,.26-.39,.38l-.02,.02h-.02c-.15,.16-.31,.31-.46,.45h-.01v.02c-.21,.18-.41,.35-.6,.52h-.01l-.02,.03c-.12,.1-.24,.2-.36,.3l-.04,.03c-.12,.1-.24,.2-.36,.29l-.03,.02c-.13,.1-.25,.2-.38,.3h0c-.13,.1-.26,.2-.39,.29h-.02c-.12,.1-.24,.19-.36,.27l-.03,.02c-.12,.08-.23,.16-.35,.24l-.04,.03c-.11,.07-.23,.15-.34,.22l-.04,.03c-.11,.07-.22,.14-.34,.2h-.02l-.02,.03c-.06,.03-.11,.07-.17,.1l-.03,.02c-.07,.04-.13,.07-.2,.11l-.06,.03s-.09,.05-.14,.08l-.07,.03s-.09,.05-.14,.07l-.04,.02h-.01c-.1,.06-.19,.1-.29,.15l-.03,.02c-.1,.04-.19,.09-.28,.13h-.02l-.02,.02c-.08,.03-.15,.07-.23,.1l-.04,.02c-.08,.03-.15,.06-.23,.09h-.02c-.06,.03-.12,.05-.18,.07l-.05,.02c-.07,.02-.13,.04-.19,.06h-.04c-.05,.02-.1,.04-.15,.05h-.05c-.06,.03-.12,.04-.18,.05h-.02s-.1,.02-.14,.03h-.05s-.09,.02-.13,.03h-.03c-.05,.01-.1,.02-.15,.02h-.04s-.08,0-.11,.01h-.04s-.08,0-.12,0c0,0-.01,0-.02,0-.05,0-.09,0-.13,0h-.04s-.07,0-.1-.01h-.04s-.08-.02-.12-.02h0s-.08-.02-.12-.03h-.03s-.06-.03-.09-.04h-.03s-.07-.04-.11-.06h-.02s-.06-.04-.09-.06h-.02v-.02s-.08-.04-.11-.07h0s-.06-.05-.09-.08h-.01l-.03-.04-12.55-12.54s.03,.03,.04,.04Z"/></g><path class="h" d="M46.23,35.35c.31-.31,.31-.82,0-1.13l-4.54-4.54c-.31-.31-.82-.31-1.13,0-.31,.31-.31,.82,0,1.13l4.54,4.54c.31,.31,.82,.31,1.13,0Z"/><path class="h" d="M35.36,46.22c.31-.31,.31-.82,0-1.13l-4.54-4.54c-.31-.31-.82-.31-1.13,0-.31,.31-.31,.82,0,1.13l4.54,4.54c.31,.31,.82,.31,1.13,0Z"/><path class="h" d="M41.87,41.69c.31-.31,.31-.82,0-1.13l-4.54-4.54c-.31-.31-.82-.31-1.13,0-.31,.31-.31,.82,0,1.13l4.54,4.54c.31,.31,.82,.31,1.13,0Z"/><g><path class="n" d="M31.06,31.07c3.94-3.95,6.03-8.26,4.66-9.63-1.37-1.37-5.68,.72-9.62,4.66-3.94,3.95-6.03,8.26-4.66,9.63,1.37,1.37,5.68-.72,9.62-4.66Z"/><path class="m" d="M21.48,35.76s.06,.05,.09,.07h0s.07,.05,.1,.07l.03,.02s.06,.03,.09,.05h.02s.07,.04,.11,.06h.03s.06,.03,.09,.04h.03s.08,.03,.12,.04h0s.08,.02,.12,.02h.04s.07,.01,.1,.01h.04s.09,0,.13,0c0,0,.01,0,.02,0,.04,0,.08,0,.12,0h.04s.08,0,.11,0h.04s.1-.01,.15-.02h.03s.09-.02,.13-.03h.05s.1-.03,.14-.04h.02c.06-.02,.12-.03,.18-.05h.05s.1-.04,.15-.05h.04c.06-.03,.13-.05,.19-.07h.05c.06-.04,.12-.06,.18-.08h.02c.08-.04,.15-.07,.23-.1l.04-.02c.08-.03,.15-.06,.23-.1l.04-.02c.09-.04,.19-.08,.28-.13l.04-.02c.1-.05,.19-.09,.29-.14l.05-.03s.09-.05,.13-.07l.07-.04s.09-.05,.14-.08l.06-.03c.06-.04,.13-.07,.2-.11l.03-.02c.06-.03,.11-.06,.17-.1l.04-.03c.11-.07,.22-.13,.33-.2l.04-.03c.11-.07,.22-.14,.34-.22l.04-.03c.12-.08,.23-.15,.35-.24l.03-.02c.12-.08,.24-.17,.36-.26h.02c.13-.11,.26-.2,.39-.3h0c.13-.1,.25-.2,.38-.3l.03-.02c.12-.1,.24-.19,.36-.29l.04-.03c.12-.1,.24-.2,.36-.3l.04-.03c.2-.17,.39-.34,.59-.52l.02-.02c.15-.14,.31-.28,.46-.43l.04-.03c.13-.12,.26-.25,.39-.38l.07-.07c.11-.11,.23-.23,.34-.34l.02-.02c.13-.13,.25-.26,.37-.39l.02-.02c.12-.13,.23-.25,.34-.38l.03-.03c.11-.12,.22-.24,.32-.36l.04-.04c.1-.12,.21-.24,.31-.36l.03-.04c.1-.13,.21-.25,.31-.38l.02-.03c.11-.14,.22-.28,.32-.42l.02-.02c.11-.14,.21-.28,.31-.42l.03-.03c.11-.15,.21-.3,.32-.45l.03-.05c.04-.06,.09-.13,.13-.19l.04-.05c.05-.08,.1-.15,.15-.23l.03-.04c.06-.09,.11-.18,.16-.27v-.02c.06-.09,.12-.18,.17-.27l.02-.04c.07-.12,.13-.24,.2-.35v-.02c.08-.12,.14-.24,.2-.36l.03-.07s.03-.06,.05-.09l.04-.07s.03-.06,.04-.09l.03-.08,.04-.09,.03-.08,.04-.09,.03-.07,.03-.08,.03-.08,.03-.08,.03-.07,.03-.08,.03-.07,.03-.08,.02-.07,.03-.08,.02-.07,.02-.08,.02-.07,.02-.07,.02-.07,.02-.07,.02-.07,.02-.07v-.07l.03-.07v-.06l.02-.07v-.06l.02-.07v-.13l.02-.06v-.18s0-.04,0-.06v-.23l-.02-.06v-.05s-.01-.04-.02-.06v-.05l-.02-.05v-.05s-.02-.03-.02-.05v-.05s-.02-.03-.03-.05l-.02-.04s-.01-.03-.02-.05l-.02-.04s-.02-.03-.02-.05l-.02-.04s-.02-.03-.03-.05l-.02-.03s-.02-.03-.03-.05l-.02-.03s-.03-.03-.04-.05l-.02-.02s-.04-.05-.06-.07l9.18,9.17s.04,.04,.06,.07l.02,.02s.03,.03,.04,.05l.02,.03s.02,.03,.03,.05l.02,.03s.02,.03,.03,.05l.02,.04s.02,.03,.02,.05l.02,.04s.01,.03,.02,.05l.02,.04s.01,.03,.02,.05v.04s.02,.03,.03,.05v.05s.02,.04,.02,.05v.05l.02,.05v.11l.02,.05v.17s0,.04,0,.06v.24l-.02,.06v.06l-.02,.07v.06l-.02,.07v.06l-.02,.07v.07l-.03,.07-.02,.07-.02,.07-.02,.07-.02,.07-.02,.07-.02,.08-.02,.07-.03,.08-.02,.07-.03,.08-.03,.07-.03,.08-.03,.07-.03,.08-.03,.07-.03,.08-.03,.07-.04,.09-.03,.08-.04,.09-.03,.08-.04,.09-.04,.07s-.03,.06-.05,.09l-.03,.07h0c-.06,.12-.12,.24-.19,.37v.02c-.07,.12-.14,.23-.21,.35v.02l-.03,.03c-.05,.09-.1,.18-.16,.27v.02c-.06,.09-.12,.18-.17,.27l-.02,.02h0c-.05,.09-.1,.17-.15,.24l-.03,.05c-.04,.06-.09,.13-.13,.19l-.02,.04h0c-.1,.16-.21,.31-.32,.46h-.01v.03c-.11,.14-.22,.28-.32,.42h-.01v.02c-.11,.14-.22,.28-.33,.41h0v.03c-.11,.13-.22,.25-.32,.38v.02l-.03,.02c-.1,.12-.2,.24-.31,.36l-.02,.02-.02,.02c-.1,.12-.21,.24-.32,.36l-.02,.02h-.01c-.11,.14-.23,.26-.34,.39h-.01v.02c-.13,.13-.25,.26-.38,.39h0v.02c-.12,.11-.24,.23-.35,.34l-.05,.05-.02,.02c-.13,.13-.26,.26-.39,.38l-.02,.02h-.02c-.15,.16-.31,.31-.46,.45h-.01v.02c-.21,.18-.41,.35-.6,.52h-.01l-.02,.03c-.12,.1-.24,.2-.36,.3l-.04,.03c-.12,.1-.24,.2-.36,.29l-.03,.02c-.13,.1-.25,.2-.38,.3h0c-.13,.1-.26,.2-.39,.29h-.02c-.12,.1-.24,.19-.36,.27l-.03,.02c-.12,.08-.23,.16-.35,.24l-.04,.03c-.11,.07-.23,.15-.34,.22l-.04,.03c-.11,.07-.22,.14-.34,.2h-.02l-.02,.03c-.06,.03-.11,.07-.17,.1l-.03,.02c-.07,.04-.13,.07-.2,.11l-.06,.03s-.09,.05-.14,.08l-.07,.03s-.09,.05-.14,.07l-.04,.02h-.01c-.1,.06-.19,.1-.29,.15l-.03,.02c-.1,.04-.19,.09-.28,.13h-.02l-.02,.02c-.08,.03-.15,.07-.23,.1l-.04,.02c-.08,.03-.15,.06-.23,.09h-.02c-.06,.03-.12,.05-.18,.07l-.05,.02c-.07,.02-.13,.04-.19,.06h-.04c-.05,.02-.1,.04-.15,.05h-.05c-.06,.03-.12,.04-.18,.05h-.02s-.1,.02-.14,.03h-.05s-.09,.02-.13,.03h-.03c-.05,.01-.1,.02-.15,.02h-.04s-.08,0-.11,.01h-.04s-.08,0-.12,0c0,0-.01,0-.02,0-.05,0-.09,0-.13,0h-.04s-.07,0-.1-.01h-.04s-.08-.02-.12-.02h0s-.08-.02-.12-.03h-.03s-.06-.03-.09-.04h-.03s-.07-.04-.11-.06h-.02s-.06-.04-.09-.06h-.02v-.02s-.08-.04-.11-.07h0s-.06-.05-.09-.08h-.01l-.03-.04-9.18-9.17s.03,.03,.04,.04Z"/></g><rect class="g" x="1.66" y="54.19" width="29.73" height="18.05" rx=".89" ry=".89" transform="translate(-39.86 30.2) rotate(-45)"/><ellipse class="m" cx="63.54" cy="63.36" rx="22.22" ry="5.41" transform="translate(-26.19 63.49) rotate(-45)"/><path class="g" d="M73.76,73.76c.12-.12,.2-.29,.21-.47,.02-.4-.28-.74-.68-.77l-23.58-1.38c-.4-.02-.74,.28-.77,.68-.02,.4,.28,.74,.68,.77l23.58,1.38c.21,.01,.41-.07,.55-.21Z"/><path class="g" d="M73.76,73.76c.14-.14,.22-.34,.21-.55l-1.38-23.64c-.02-.4-.37-.7-.77-.68-.4,.02-.7,.37-.68,.77l1.38,23.64c.02,.4,.37,.7,.77,.68,.18-.01,.35-.09,.47-.21Z"/><path class="g" d="M73.76,73.76c.28-.28,.28-.74,0-1.02l-13.62-13.62c-.28-.28-.74-.28-1.02,0-.28,.28-.28,.74,0,1.02l13.62,13.62c.28,.28,.74,.28,1.02,0Z"/><ellipse class="m" cx="73.25" cy="73.24" rx="2.6" ry="1.1" transform="translate(-30.34 73.24) rotate(-45)"/><path class="n" d="M59.72,59.54c-8.68,8.68-14,17.43-11.89,19.54-3.55-3.55-.07-14.14,8.61-22.82s19.26-12.16,22.82-8.61c-2.11-2.11-10.86,3.21-19.54,11.89Z"/><polygon class="n" points="15.5 63.21 9.63 57.34 10.65 56.32 16.52 62.19 26.52 52.19 27.55 53.21 17.55 63.21 23.42 69.08 23.42 69.08 22.39 70.11 22.39 70.11 16.52 64.24 6.52 74.24 5.5 73.21 15.5 63.21"/></g><rect class="l" x="129.6" y="229.66" width="7.57" height="15.73" rx="3.79" ry="3.79"/><rect class="l" x="216.09" y="189.59" width="7.57" height="15.73" rx="3.79" ry="3.79"/><rect class="l" x="187.91" y="227.63" width="7.57" height="15.73" rx="3.79" ry="3.79"/><rect class="l" x="150.25" y="196.46" width="7.57" height="15.73" rx="3.79" ry="3.79"/><rect class="l" x="233.11" y="216.65" width="7.57" height="15.73" rx="3.79" ry="3.79"/><polygon class="f" points="221.39 197.46 154.68 205.32 133.39 237.53 191.69 235.49 236.89 224.51 221.39 197.46"/><polygon class="f" points="219.87 200.22 133.39 237.53 236.89 221.67 154.68 205.32 191.69 235.49 219.87 200.22"/></g></g></g></svg>