<?xml version="1.0" encoding="UTF-8"?><svg xmlns="http://www.w3.org/2000/svg" viewBox="0 0 196.16 115.63"><defs><style>.d{fill:#ee4a36;}.e{fill:#f5ce44;}.f{fill:#3595e0;}.g{fill:#6e97ba;}.h{fill:#5045b1;}</style></defs><g id="a"/><g id="b"><g id="c"><g><rect class="f" x="74.26" y="76.93" width="9.6" height="24.21" transform="translate(35.52 -21.79) rotate(20.15)"/><path class="h" d="M101.65,88.94l-39.76-14.59c-5.21-1.91-8.89-6.61-9.51-12.12l-2.18-19.52,80.84,29.67-14.3,13.47c-4.04,3.81-9.88,5-15.09,3.09Z"/><g><path class="h" d="M27.78,44.05h0c-2.51-.92-3.8-3.7-2.88-6.21l2.26-6.17,9.09,3.34-2.26,6.17c-.92,2.51-3.7,3.8-6.21,2.88Z"/><rect class="g" x="36.26" y="16.27" width="2.07" height="6.74" transform="translate(9.05 -11.65) rotate(20.15)"/><rect class="h" x="27.58" y="18.58" width="13.4" height="15.56" transform="translate(11.18 -10.2) rotate(20.15)"/><path class="d" d="M.7,2.62l37.76,13.86,.83-2.27s-3.58-.92-10.11-4.77C23.12,5.86,15.9-2.17,.89,.55-.19,.75-.33,2.24,.7,2.62Z"/><path class="d" d="M76.22,30.33l-37.76-13.86,.83-2.27s3.32,1.61,10.79,2.9c6.94,1.2,17.63-.26,27.32,11.53,.7,.85-.16,2.08-1.19,1.7Z"/><path class="h" d="M40.6,18.92l-5.36-1.97s3.41-9.34,6.09-8.36c2.68,.98-.73,10.32-.73,10.32Z"/></g><g><rect class="g" x="154.76" y="59.76" width="2.07" height="6.74" transform="translate(280.3 176.08) rotate(-159.85)"/><path class="h" d="M147.25,87.9h0c2.51,.92,5.29-.37,6.21-2.88l2.26-6.17-9.09-3.34-2.26,6.17c-.92,2.51,.37,5.29,2.88,6.21Z"/><rect class="h" x="147.05" y="62.43" width="13.4" height="15.56" transform="translate(273.89 189.1) rotate(-159.85)"/><path class="d" d="M194.71,73.83l-37.76-13.86,.83-2.27s3.32,1.61,10.79,2.9c6.94,1.2,17.63-.26,27.32,11.53,.7,.85-.16,2.08-1.19,1.7Z"/><path class="d" d="M119.2,46.11l37.76,13.86,.83-2.27s-3.58-.92-10.11-4.77c-6.07-3.57-13.28-11.6-28.29-8.88-1.08,.2-1.22,1.69-.19,2.06Z"/><path class="h" d="M153.74,60.45l5.36,1.97s3.44-9.33,.76-10.31c-2.68-.98-6.12,8.34-6.12,8.34Z"/></g><path class="e" d="M97.62,4.58l22.28,8.18c4.57,1.68,6.92,6.74,5.24,11.32h0l-38.84-14.25h0c1.68-4.57,6.74-6.92,11.32-5.24Z"/><rect class="f" x="79.69" y="16.18" width="51.27" height="3.72" transform="translate(12.66 -35.18) rotate(20.15)"/><rect class="f" x="94.42" y="22.27" width="4.67" height="38.21" transform="translate(20.18 -30.8) rotate(20.15)"/><polygon class="h" points="119.01 33.33 84.99 20.84 85.26 12.66 124.1 26.91 119.01 33.33"/><rect class="e" x="16.27" y="53.19" width="149.4" height="6.74" transform="translate(25.06 -27.88) rotate(20.15)"/><rect class="e" x="62.73" y="95" width="23.95" height="17.55" rx="1.82" ry="1.82" transform="translate(40.33 -19.38) rotate(20.15)"/></g></g></g></svg>