<?xml version="1.0" encoding="UTF-8"?><svg xmlns="http://www.w3.org/2000/svg" viewBox="0 0 289 238.07"><defs><style>.d{fill:#03aed7;}.e{fill:#ee4a36;}.f{fill:#07aa7d;}.g{fill:#1a2e35;}.h{fill:#58304d;}.i{opacity:.41;}</style></defs><g id="a"/><g id="b"><g id="c"><g><path class="f" d="M289,208.51v2.7c-.03,1.19-.06,2.37-.12,3.56-.34,7.96-1.32,15.73-2.9,23.3H3.04C1.23,229.37,.21,220.39,.03,211.21v-1.11c-.03-.52-.03-1.07-.03-1.59,0-17.5,3.13-34.22,8.78-49.73,.04-.1,.07-.19,.12-.28l.31-.8c7.47-19.88,19.23-37.7,34.12-52.29h.01c.31-.34,.61-.62,.92-.93,4.5-4.36,9.29-8.38,14.33-12.12,1.42-1.04,2.86-2.07,4.33-3.07,4.56-3.16,9.3-6,14.22-8.59,1.47-.8,2.93-1.54,4.46-2.27,.55-.27,1.14-.56,1.73-.8,11.64-5.5,24.18-9.45,37.32-11.6h.03c.3-.06,.58-.1,.87-.16,.53-.09,1.07-.18,1.6-.25h.01c5.44-.81,11.01-1.33,16.67-1.48,.47-.03,.92-.03,1.39-.03h.03c.5-.03,1.01-.03,1.54-.03,.37-.03,.73-.03,1.11-.03h.59c4.33,0,8.56,.19,12.76,.56,.49,.04,.96,.09,1.44,.13,7.72,.74,15.24,2.1,22.58,4.03,.74,.18,1.48,.39,2.21,.61h.03c5.93,1.63,11.66,3.66,17.24,6.03,.53,.22,1.07,.43,1.63,.7,9.57,4.19,18.62,9.39,26.99,15.48,6.03,4.37,11.72,9.2,16.99,14.49t.03,.03h.01c.27,.27,.52,.5,.77,.76,.27,.27,.52,.53,.79,.8h.01c.3,.3,.58,.59,.84,.92h.01c.24,.21,.41,.4,.59,.61,.01,0,.01,.01,.01,.01,13.47,14.21,24.06,31.13,30.89,49.88h.01c.1,.37,.25,.73,.36,1.1,4.77,13.35,7.59,27.61,8.18,42.46,.07,1.96,.12,3.91,.12,5.88Z"/><path class="d" d="M229.56,111.78h0c-.1,.41-.24,.83-.4,1.23-.73,2.1-1.76,4.09-3.19,5.9-1.64,2.1-3.69,3.78-5.96,5.19,0,.01-.01,.01-.01,.01-.31,.18-.61,.36-.92,.56-.01,.01-.03,.01-.04,.03-3.39,1.9-7.23,3.17-11.04,4.16-7.36,1.91-15.56,2.98-22.28-.59-1.73-.9-3.26-2.07-4.7-3.39-.49-.41-.93-.87-1.39-1.33-1.38-1.38-2.7-2.87-4.03-4.37-.31-.37-.64-.74-.98-1.1-.96-1.07-1.96-2.1-2.99-3.07-4.77-4.37-12.41-7.26-17.53-3.33-2.06,1.6-3.26,4.06-3.63,6.64-.06,.39-.1,.76-.1,1.13-.09,1.27,.04,2.62,.37,3.84,1.01,4.16,3.78,7.63,6.83,10.62,7.01,6.89,16.01,11.72,25.67,13.76h.01c.19,.03,.36,.09,.53,.12,.19,.01,.4,.07,.59,.1h.01c12.03,2.3,26.8,1.87,32.96,12.37,.77,1.32,1.36,2.79,1.57,4.28,.06,.37,.07,.71,.07,1.08h0c0,.64-.04,1.26-.18,1.88-.86,3.75-4.46,6.18-7.85,7.97-7.5,3.93-15.66,6.53-24.01,7.76-.37,.09-.71,.13-1.08,.16h-.03c-3.07,.43-6.13,.64-9.21,.67-5.6,.06-12.13-.13-15.66,4.22-1.63,2.03,5.44,12.75,10.91,20.3,3.51,4.86,8.14,8.8,13.49,11.52h0c.39-.1,.77-.19,1.14-.27,4.73-1.07,9.66-1.54,14.22-.03,5.2,1.73,9.66,6.73,9.14,12.19-.19,2.18-1.1,4.18-2.34,6.07h-64.68c.04-.89,.01-1.78-.07-2.65-.16-1.66-.55-3.29-1.14-4.87-.43-1.17-.96-2.31-1.61-3.38-.8-1.36-1.76-2.62-2.87-3.73-.55-.53-1.11-1.05-1.7-1.51-6-4.92-14.25-6.71-22.07-6.59-4.13,.07-8.37,.58-12.47,.27h-.01c-.39,0-.74-.06-1.11-.12-1.5-.15-2.99-.44-4.43-.93-2.09-.71-3.97-1.87-5.57-3.33-.4-.34-.79-.71-1.16-1.11h-.01c-5.29-5.76-7.01-15.02-2.92-21.85,3.57-5.99,10.33-9.45,15.1-14.44h.01c.44-.44,.9-.95,1.29-1.45h.01c1.09-1.3,2.01-2.75,2.72-4.39,.17-.4,.28-.82,.33-1.25,.04-.31,.06-.62,.02-.94v-.07c-.16-1.2-.9-2.09-1.94-2.73h-.01c-.31-.24-.7-.4-1.07-.53-1.17-.47-2.56-.64-3.81-.53-4.06,.33-7.93,2.16-12.01,2.53-4.06,.4-8.93-1.36-9.87-5.36-1.7-7.36,11.02-13.93,6.93-20.3-1.97-3.13-6.59-2.96-10.06-1.72-1.73,.65-3.47,1.48-5.23,2.09-.44,.16-.87,.3-1.33,.4h-.01c-1.33,.34-2.65,.5-4.01,.33-6.9-1.02-9.13-10.49-6.46-16.95,2-4.83,5.59-8.76,8.59-12.99,.24-.36,.49-.65,.68-1.01,.01,0,.01-.01,.01-.01,.77-1.14,1.5-2.28,2.13-3.51,2.27-4.43,3.23-9.36,4.76-14.09,1.17-3.72,2.74-7.26,4.67-10.62,1.47-.8,2.93-1.54,4.46-2.27,.55-.27,1.14-.56,1.73-.8,11.64-5.5,24.18-9.45,37.32-11.6h.03c.3-.06,.58-.1,.87-.16,.53-.09,1.07-.18,1.6-.25h.01c5.44-.81,11.01-1.33,16.67-1.48,.47-.03,.92-.03,1.39-.03h.03c.5-.03,1.01-.03,1.54-.03,.37-.03,.73-.03,1.11-.03h.59c4.33,0,8.56,.19,12.76,.56,.49,.04,.96,.09,1.44,.13,7.72,.74,15.24,2.1,22.58,4.03,.74,.18,1.48,.39,2.21,.61h.03c5.93,1.63,11.66,3.66,17.24,6.03,.53,.22,1.07,.43,1.63,.7,9.57,4.19,18.62,9.39,26.99,15.48,.16,.7,.27,1.38,.4,2.06,1.1,5.97,1.47,12.43-.21,18.13Z"/><g class="i"><rect class="g" x=".04" y="210.09" width="288.95" height="1.12"/><path class="g" d="M143.91,64.04V238.07h-1.11V64.07c.37-.03,.73-.03,1.11-.03Z"/><path class="g" d="M141.24,64.09s0,.01-.01,.01c-4.16,5.93-8.04,12.13-11.58,18.56-.01,0-.01,.01-.01,.01-.22,.36-.43,.73-.59,1.08h-.01c-5.6,10.25-10.41,21.07-14.4,32.38-.13,.37-.27,.73-.39,1.1-5.05,14.56-8.73,29.87-10.99,45.73-.09,.62-.18,1.26-.27,1.88-.04,.24-.07,.5-.09,.76-.07,.39-.12,.74-.13,1.13-.24,1.87-.46,3.73-.65,5.61-1.33,12.3-1.78,24.89-1.39,37.73,0,.39,.01,.74,.01,1.13,.04,1.45,.1,2.92,.18,4.39,.36,7.41,.99,14.9,1.9,22.47h-1.14c-.9-7.6-1.53-15.14-1.87-22.59-.07-1.44-.13-2.84-.18-4.27,0-.39-.03-.76-.03-1.13-.37-12.34,.04-24.46,1.23-36.3,.22-2.39,.49-4.74,.79-7.1,.04-.39,.09-.74,.15-1.13,.04-.3,.06-.58,.1-.87,.1-.76,.21-1.51,.31-2.25,2.25-15.7,5.93-30.9,10.93-45.32,.12-.36,.25-.71,.39-1.1,3.96-11.29,8.73-22.09,14.28-32.3,.21-.39,.39-.73,.59-1.08h.01c3.51-6.44,7.35-12.62,11.47-18.52,.47-.01,.95-.04,1.41-.04Z"/><path class="g" d="M123.15,65.61c-6.41,4.41-12.46,9.47-18.12,15.11h-.01c-.34,.31-.67,.64-.99,1.01h-.03c-8.73,8.79-16.47,18.89-22.98,29.95-.22,.33-.43,.7-.61,1.05-4.83,8.31-8.96,17.17-12.3,26.41-1.91,5.26-3.54,10.64-4.9,16.12-.65,2.56-1.23,5.18-1.75,7.81-.09,.36-.15,.74-.22,1.1-2.86,14.7-3.99,30.09-3.38,45.91,.01,.37,.04,.74,.04,1.13,.09,2.09,.22,4.18,.39,6.28,.49,6.79,1.29,13.66,2.43,20.58h-1.16c-1.13-6.98-1.93-13.88-2.4-20.73-.15-2.06-.27-4.09-.36-6.13-.03-.36-.04-.74-.04-1.13-.62-15.85,.47-31.29,3.36-46,.04-.36,.13-.74,.22-1.1,.52-2.68,1.11-5.35,1.76-8,1.3-5.24,2.86-10.4,4.65-15.44,3.36-9.48,7.54-18.53,12.44-27.02,.19-.36,.4-.71,.59-1.05,6.47-11.04,14.13-21.13,22.78-29.93h.03c.33-.34,.62-.65,.96-.99h.01c5.33-5.35,11.05-10.24,17.05-14.53,.01,0,.01-.01,.03-.01,.3-.06,.58-.1,.87-.15,.53-.09,1.07-.18,1.6-.25Z"/><path class="g" d="M62.92,89.29c-4.83,5.07-9.36,10.53-13.48,16.33-.24,.36-.47,.65-.67,1.01h-.01c-4.92,6.99-9.29,14.44-13.02,22.34-4.62,9.72-8.28,19.96-10.96,30.61-.12,.37-.22,.71-.3,1.1-3.93,15.7-5.76,32.31-5.5,49.42v1.13c.1,5.35,.43,10.76,.96,16.21h0c.27,3.01,.61,6,1.04,9.01,.07,.55,.15,1.1,.24,1.64h-1.14c-.09-.49-.15-.98-.22-1.48-.37-2.67-.7-5.29-.93-7.93v-.03c-.61-5.87-.96-11.66-1.07-17.42v-1.13c-.27-17.16,1.57-33.79,5.5-49.55,.09-.36,.19-.76,.27-1.1,2.76-10.78,6.46-21.14,11.13-30.95,3.69-7.79,7.98-15.18,12.83-22.12h.01c.21-.34,.41-.67,.68-.99h0c3.21-4.58,6.67-8.92,10.33-13.02,1.42-1.04,2.86-2.07,4.33-3.07Z"/><path class="g" d="M186.96,210.08c0,.37-.03,.74-.04,1.13-.09,2.87-.22,5.75-.39,8.62-.33,6.07-.79,12.16-1.39,18.24h-1.11c.58-5.97,1.04-11.97,1.36-17.97,.18-2.96,.3-5.93,.4-8.89,.03-.39,.04-.74,.04-1.13,.3-8.9,.31-17.81,.03-26.7-.15-5.41-.41-10.8-.79-16.19-.04-.37-.07-.76-.09-1.11-.43-6.16-1.02-12.31-1.73-18.43-.28-2.44-.59-4.89-.92-7.33-.7-5.17-1.57-10.83-2.7-16.78-.28-1.5-.59-3.01-.9-4.53-.07-.36-.16-.74-.25-1.1-2.41-11.36-5.93-23.48-11.2-35.15h0c-.15-.37-.31-.71-.47-1.07h-.01c-2.68-5.88-5.84-11.64-9.54-17.08,.49,.04,.96,.09,1.44,.13,3.59,5.38,6.65,11.04,9.29,16.8h0c.16,.37,.31,.71,.5,1.07h0c5.23,11.76,8.71,23.9,11.13,35.26,.09,.36,.18,.74,.25,1.1,.41,2,.8,3.97,1.17,5.91,.99,5.41,1.76,10.55,2.4,15.3,.36,2.56,.68,5.14,.96,7.7h.01c.71,6.04,1.27,12.1,1.69,18.18,.03,.39,.07,.77,.09,1.13,.36,5.35,.62,10.7,.79,16.04,.28,8.95,.28,17.9-.01,26.86Z"/><path class="g" d="M235.27,210.08c.01,.39,0,.74,0,1.13-.15,8.68-.71,17.63-1.69,26.86h-1.13c.98-9.24,1.53-18.16,1.69-26.86,0-.39,.03-.74,0-1.13,.25-15.9-.92-30.92-3.45-45.23-.04-.39-.1-.74-.19-1.1-.09-.65-.22-1.29-.34-1.93-2.49-12.99-6.22-25.47-11.07-37.17-1.3-3.14-2.68-6.22-4.13-9.24h-.03c-.16-.34-.34-.7-.49-1.02-6.43-13.11-14.3-25.05-23.39-35.44-.27-.34-.53-.65-.84-.96-2.84-3.23-5.82-6.31-8.93-9.23,.74,.18,1.48,.39,2.21,.61h.03c2.73,2.64,5.38,5.42,7.93,8.33,.3,.31,.56,.64,.86,.96,9.04,10.44,16.87,22.43,23.29,35.54,.15,.37,.34,.7,.49,1.07,1.39,2.89,2.71,5.82,3.96,8.81,4.92,11.82,8.73,24.41,11.23,37.54,.13,.67,.25,1.36,.36,2.03,.09,.39,.16,.74,.21,1.13,2.53,14.34,3.69,29.39,3.45,45.3Z"/><path class="g" d="M269.33,210.08c0,.39-.01,.74-.01,1.13-.19,9.04-.76,18-1.72,26.86h-1.14c.98-8.86,1.56-17.82,1.73-26.86,0-.39,.03-.74,.03-1.13,.1-6.71,0-13.45-.33-20.24-.46-9.93-1.36-19.24-2.76-28-.04-.36-.1-.71-.18-1.08-2.68-16.77-7.07-31.51-13.23-44.61-1.19-2.5-2.44-4.98-3.79-7.36-.18-.34-.36-.68-.53-1.01h-.01c-.33-.58-.62-1.13-.98-1.67h-.01v-.03c.27,.25,.53,.5,.79,.77,.27,.27,.52,.53,.79,.8h.01c.18-.04,.37-.1,.55-.15,.18,.33,.36,.65,.53,.99,.13,.22,.27,.43,.37,.68,.01,0,.01,.01,.01,.01,1.16,2.1,2.24,4.28,3.29,6.49,6.21,13.21,10.64,28.09,13.35,44.98,.06,.36,.13,.71,.18,1.07,1.36,8.79,2.28,18.13,2.76,28.07,.31,6.79,.43,13.57,.31,20.28Z"/><path class="g" d="M202.37,76.11c-3.34,.96-6.7,1.81-10.09,2.56-.4,.11-.8,.21-1.23,.29-7.31,1.6-14.81,2.8-22.57,3.66-.4,.05-.8,.08-1.2,.13-7.55,.77-15.34,1.2-23.37,1.28-.37,.03-.75,.03-1.12,.03h-1.44c-4.06,0-8.16-.11-12.33-.29-.43,0-.85,0-1.28-.03-7.66-.37-15.61-1.04-23.72-2h-.03c-.45-.05-.93-.08-1.39-.19h-.03c-5.23-.59-10.54-1.36-15.98-2.24-1.65-.27-3.34-.56-5.02-.88,.56-.27,1.15-.56,1.73-.8,1.17,.19,2.32,.4,3.47,.56,5.71,.96,11.31,1.73,16.81,2.37,.48,.08,.96,.13,1.41,.16,8,.96,15.77,1.57,23.35,1.92,.43,.03,.83,.03,1.25,.03,4.46,.21,8.86,.27,13.18,.27,.37,0,.72,0,1.12-.03,7.84-.08,15.47-.48,22.89-1.23,.4-.05,.77-.11,1.17-.13,7.63-.83,15.02-2,22.22-3.55,.43-.08,.83-.19,1.23-.29,3.15-.69,6.27-1.47,9.31-2.29,.53,.21,1.07,.43,1.63,.69Z"/><path class="g" d="M249.06,108.5c-.09,.04-.16,.07-.22,.07-.29,.09-.6,.16-.9,.22-10.35,2.67-20.96,4.82-31.87,6.47-.36,.07-.74,.13-1.12,.16h-.02c-11.42,1.72-23.09,2.91-35.07,3.54-.36,.02-.74,.04-1.12,.04-2.24,.13-4.48,.22-6.72,.29-4.41,.13-8.85,.22-13.28,.22-4.9,0-9.85-.09-14.83-.27-.38,0-.74-.02-1.12-.04-9.36-.34-18.88-.99-28.55-1.97-.38-.02-.76-.07-1.14-.11-10.68-1.08-21.54-2.55-32.68-4.39-.4-.07-.81-.13-1.21-.2-9.47-1.59-19.13-3.47-29-5.6-.47-.11-.96-.2-1.46-.31-.38-.09-.78-.18-1.19-.27-1.39-.31-2.82-.63-4.23-.96,.31-.31,.63-.6,.94-.92,1.34,.31,2.67,.6,3.99,.9,.4,.09,.81,.18,1.19,.25,.34,.09,.65,.16,.99,.22,10.01,2.17,19.8,4.05,29.38,5.64,.4,.09,.81,.16,1.21,.2,11.06,1.84,21.86,3.29,32.45,4.34,.38,.07,.76,.09,1.14,.11,9.56,.96,18.95,1.61,28.17,1.95,.38,.02,.76,.04,1.12,.04,9.5,.34,18.83,.34,28.06,.04,2.17-.07,4.34-.16,6.52-.27,.38-.02,.76-.02,1.12-.04,11.87-.63,23.49-1.77,34.83-3.47,.38-.04,.76-.09,1.14-.18,10.88-1.63,21.48-3.78,31.8-6.43h.02c.18-.02,.38-.09,.56-.13,.18-.04,.38-.09,.56-.13,.18,.31,.36,.65,.54,.99Z"/><path class="g" d="M280.7,160.17c-4.82,.56-9.63,1.1-14.45,1.57-.38,.07-.74,.09-1.12,.11-11.11,1.16-22.22,2.13-33.33,2.93-.38,.04-.74,.07-1.12,.07-14.83,1.08-29.65,1.84-44.5,2.33-.36,0-.74,.02-1.12,.02-11.53,.36-23.09,.54-34.65,.54-2.17,0-4.34,0-6.52-.04-.38,.02-.74,.02-1.12,0-13.35-.07-26.7-.4-40.04-.96-.38-.02-.76-.04-1.14-.04-13.46-.58-26.92-1.41-40.36-2.51-.38-.02-.74-.04-1.12-.09-11.89-.94-23.78-2.08-35.65-3.43-.38-.04-.76-.09-1.12-.13-4.86-.54-9.7-1.12-14.56-1.75,.13-.36,.27-.72,.43-1.07,4.79,.63,9.61,1.21,14.4,1.72,.38,.07,.76,.11,1.14,.13,11.85,1.34,23.72,2.49,35.59,3.43,.38,.04,.74,.07,1.12,.09,13.42,1.07,26.83,1.9,40.27,2.49,.38,.02,.76,.02,1.14,.04,13.3,.56,26.61,.9,39.91,.96,.38,.02,.74,.02,1.12,0,13.71,.11,27.39-.07,41.07-.49,.38,0,.76-.02,1.12-.02,14.8-.47,29.61-1.23,44.39-2.31,.38-.02,.76-.04,1.12-.09,11.13-.78,22.24-1.75,33.35-2.89,.38-.04,.76-.07,1.12-.11,4.77-.49,9.52-1.01,14.27-1.57,.11,.36,.25,.72,.36,1.08Z"/></g></g><g><polygon class="e" points="94.73 144.83 124.41 159.41 92.78 174.19 94.73 144.83"/><path class="h" d="M89.29,215.02s-.03,0-.05,0c-.35-.03-.61-.33-.58-.68l5.51-69.76c.03-.35,.32-.6,.68-.58,.35,.03,.61,.33,.58,.68l-5.51,69.76c-.03,.33-.3,.58-.63,.58Z"/><path class="g" d="M78.95,215.91s2.1-8.59,10.61-8.38c8.51,.21,12.45,10.18,12.45,10.18l-23.29-1.14,.23-.66Z"/></g><g><polygon class="e" points="106.36 .84 137.83 11.01 108.65 30.18 106.36 .84"/><path class="h" d="M110.8,71.07c-.25-.07-.44-.29-.46-.57L105.77,.67c-.02-.35,.24-.65,.59-.67,.34-.02,.65,.24,.67,.59l4.56,69.83c.02,.35-.24,.65-.59,.67-.07,0-.14,0-.21-.02Z"/><path class="g" d="M100.96,73.46s.84-8.8,9.29-9.82c8.45-1.02,13.78,8.29,13.78,8.29l-23.21,2.22"/></g></g></g></svg>