<?xml version="1.0" encoding="utf-8"?>
<!-- Generator: Adobe Illustrator 26.2.1, SVG Export Plug-In . SVG Version: 6.00 Build 0)  -->
<svg version="1.1" id="Capa_1" xmlns="http://www.w3.org/2000/svg" xmlns:xlink="http://www.w3.org/1999/xlink" x="0px" y="0px"
	 viewBox="0 0 745.1 567.5" style="enable-background:new 0 0 745.1 567.5;" xml:space="preserve">
<style type="text/css">
	.st0{fill:#07AA7D;}
	.st1{fill:#F4F5D2;}
	.st2{fill:#F5CE44;}
	.st3{fill:#F1685A;}
	.st4{opacity:0.34;}
	.st5{fill:#1A2E35;}
	.st6{fill:#0E233F;}
	.st7{fill:#03AED7;}
	.st8{opacity:0.41;}
	.st9{fill:#58304D;}
	.st10{opacity:0.42;fill:#A9D8FF;enable-background:new    ;}
	.st11{fill:#038C71;}
	.st12{fill:#D83C2B;}
	.st13{fill:#F4CD43;}
	.st14{fill:#0E243F;}
	.st15{fill:#5B578A;}
	.st16{fill:#00AED7;}
</style>
<g id="a">
</g>
<g id="b">
	<g id="c">
		<g>
			<g>
				<path class="st0" d="M371.5,297.4v152.2H74.6v-92.9c0-9.9,0-19.8,0-29.7v-29.6c0-1.5,0-3,0.1-4.5c0-0.3,0-0.5,0-0.8
					c0.2-5.3,0.7-10.5,1.4-15.6c0-0.3,0.1-0.5,0.1-0.8c0.4-2.8,0.9-5.5,1.4-8.2c0.2-1.1,0.5-2.3,0.8-3.4c0.2-0.8,0.4-1.6,0.6-2.4
					c0,0,0-0.1,0-0.1c0.6-2.4,1.2-4.8,2-7.1c0.1-0.3,0.2-0.5,0.2-0.8c0.7-2.2,1.4-4.4,2.2-6.6c0.6-1.6,1.2-3.3,1.9-4.9
					c0.7-1.7,1.4-3.3,2.1-5c0.1-0.3,0.2-0.5,0.3-0.8c0.6-1.4,1.2-2.7,1.9-4c0.1-0.3,0.3-0.6,0.4-0.8c0.9-1.8,1.8-3.6,2.7-5.3
					c0-0.1,0.1-0.1,0.1-0.1c0.2-0.5,0.5-0.9,0.8-1.4c1.3-2.4,2.8-4.8,4.2-7.1c1.6-2.5,3.3-4.9,5-7.3c0.1-0.1,0.1-0.2,0.2-0.3
					c0.1-0.2,0.2-0.3,0.4-0.5c0.1-0.1,0.1-0.2,0.2-0.2c0.6-0.9,1.3-1.8,2-2.7v0l0,0l0.8-1v0c1-1.3,2-2.5,3.1-3.8
					c1.4-1.6,2.8-3.3,4.3-4.9c0.2-0.3,0.5-0.6,0.8-0.8c0.3-0.4,0.7-0.7,1-1.1c2.2-2.3,4.4-4.5,6.7-6.6c0.3-0.3,0.6-0.5,0.9-0.8
					c1.4-1.3,2.9-2.6,4.4-3.9c0.1-0.1,0.2-0.1,0.2-0.2c0.2-0.2,0.4-0.3,0.6-0.5c2-1.7,4.1-3.3,6.2-4.9c0.2-0.2,0.5-0.4,0.8-0.6
					l0.8-0.6c0.3-0.2,0.5-0.4,0.8-0.6c3.8-2.7,7.7-5.2,11.7-7.6h0c1.1-0.6,2.1-1.2,3.2-1.8c0.3-0.2,0.7-0.4,1-0.6
					c0.5-0.3,1-0.6,1.5-0.8c0.3-0.2,0.7-0.4,1-0.5c0.3-0.1,0.5-0.3,0.8-0.4c2.2-1.1,4.4-2.1,6.6-3.1l1.3-0.6
					c0.6-0.2,1.1-0.5,1.7-0.7c0.3-0.1,0.5-0.2,0.8-0.3c1-0.4,1.9-0.8,2.9-1.2c0.6-0.2,1.1-0.4,1.7-0.6c1.7-0.6,3.4-1.2,5.2-1.8
					c0.3-0.1,0.5-0.2,0.8-0.2c5.7-1.9,11.6-3.4,17.7-4.6c0.3-0.1,0.5-0.1,0.8-0.1c0.6-0.1,1.1-0.2,1.7-0.3c0.2-0.1,0.5-0.1,0.8-0.1
					c6.6-1.1,13.3-1.8,20.1-2c0.3,0,0.5,0,0.8,0c1.4-0.1,2.8-0.1,4.2-0.1h0.2c0.3,0,0.5,0,0.8,0c5.1,0,10.1,0.3,15,0.8
					c0.3,0,0.5,0.1,0.8,0.1c3.9,0.4,7.8,1,11.6,1.8c0.2,0.1,0.5,0.1,0.8,0.1c2.6,0.5,5.2,1.1,7.8,1.8c0.3,0.1,0.5,0.1,0.8,0.2
					c6.3,1.6,12.4,3.7,18.3,6.1c0.2,0.1,0.5,0.2,0.7,0.3c0.4,0.1,0.7,0.3,1,0.4c0.3,0.1,0.5,0.2,0.8,0.3c1.6,0.7,3.2,1.4,4.8,2.2
					c1.8,0.8,3.5,1.7,5.2,2.6c0,0,0.1,0,0.1,0.1c0.5,0.3,1,0.5,1.5,0.8c1,0.6,2.1,1.1,3.1,1.7c0.5,0.3,1,0.6,1.5,0.9
					c0.2,0.1,0.3,0.2,0.5,0.3c0.6,0.4,1.2,0.7,1.8,1.1c0.5,0.3,1,0.6,1.5,0.9c0.3,0.1,0.5,0.3,0.8,0.5c1.2,0.8,2.5,1.6,3.7,2.4
					c0.1,0.1,0.2,0.2,0.4,0.3c0.1,0.1,0.2,0.1,0.4,0.2c0.5,0.3,1,0.6,1.4,1c1,0.7,1.9,1.4,2.8,2.1c0.9,0.6,1.7,1.3,2.5,1.9
					c1.4,1.1,2.8,2.2,4.2,3.4c0.8,0.7,1.6,1.3,2.4,2c0.8,0.7,1.6,1.4,2.4,2.1c0.2,0.1,0.4,0.3,0.5,0.5c0.1,0.1,0.2,0.1,0.3,0.2
					c0.2,0.2,0.4,0.4,0.6,0.6c0.7,0.6,1.4,1.2,2,1.9c0.7,0.6,1.4,1.3,2,2c0.3,0.3,0.7,0.7,1,1c0.4,0.4,0.7,0.7,1.1,1.1
					c0.1,0.1,0.3,0.3,0.4,0.4c0.7,0.8,1.4,1.5,2.1,2.3c0.2,0.2,0.5,0.5,0.7,0.8c0,0,0,0.1,0,0.1c0.4,0.4,0.7,0.8,1,1.2
					c0,0,0.1,0.1,0.1,0.1c0.1,0.1,0.1,0.2,0.2,0.3c0,0,0.1,0.1,0.1,0.1c0.2,0.2,0.4,0.5,0.6,0.7c1.4,1.6,2.7,3.2,4,4.8
					c0.6,0.7,1.1,1.4,1.7,2.2c0.5,0.7,1.1,1.4,1.6,2.1c0,0.1,0.1,0.1,0.1,0.1c0.2,0.3,0.4,0.6,0.6,0.8c0,0,0,0,0,0.1
					c0.3,0.4,0.5,0.7,0.8,1.1c0.4,0.5,0.7,1,1,1.5c0.7,1,1.4,2.1,2.1,3.1c0.4,0.7,0.9,1.3,1.3,2c0.2,0.3,0.3,0.5,0.5,0.8
					c0.5,0.7,0.9,1.4,1.4,2.2c0.1,0.2,0.3,0.5,0.5,0.8c0.4,0.7,0.8,1.3,1.2,2c0.1,0.2,0.3,0.5,0.4,0.7c0.4,0.6,0.7,1.2,1,1.8
					c0.4,0.8,0.8,1.5,1.2,2.3c0.1,0.2,0.3,0.5,0.4,0.8c0.1,0.2,0.3,0.5,0.4,0.7c0,0,0,0.1,0,0.1c0.2,0.4,0.4,0.9,0.7,1.3
					c0.1,0.3,0.3,0.6,0.4,0.8c0.3,0.7,0.7,1.5,1,2.2v0c0.1,0.1,0.1,0.2,0.2,0.3c0,0.1,0,0.1,0.1,0.1v0c0.2,0.5,0.4,0.9,0.7,1.4v0
					c0.1,0.3,0.3,0.7,0.4,1c1.1,2.6,2.2,5.2,3.2,7.9c0.3,0.8,0.6,1.6,0.9,2.4c0.1,0.2,0.1,0.4,0.2,0.6c0.3,0.8,0.6,1.7,0.9,2.5
					c0.2,0.5,0.4,1.1,0.5,1.6c0.1,0.4,0.2,0.7,0.4,1.1c0.1,0.3,0.2,0.5,0.2,0.8c0.3,0.9,0.5,1.7,0.8,2.6c0.1,0.5,0.3,1,0.4,1.5
					c0,0.1,0,0.1,0.1,0.2c0.1,0.3,0.1,0.5,0.2,0.8c0,0,0,0.1,0,0.1c0.2,0.8,0.4,1.5,0.6,2.2c0.1,0.3,0.1,0.5,0.2,0.8
					c0.2,0.6,0.3,1.2,0.4,1.9c0.4,1.9,0.8,3.8,1.2,5.7c0.1,0.8,0.3,1.6,0.4,2.4c0,0.2,0.1,0.5,0.1,0.7c0.1,0.8,0.2,1.5,0.4,2.2
					c0,0,0,0.1,0,0.1c0.1,0.3,0.1,0.5,0.1,0.8c0.1,0.7,0.2,1.4,0.3,2.2c0,0.3,0.1,0.5,0.1,0.8c0.1,0.7,0.2,1.4,0.2,2.1
					c0,0,0,0,0,0.1c0.1,0.5,0.1,1.1,0.2,1.6c0.1,1.4,0.2,2.8,0.3,4.2c0,0.3,0,0.5,0.1,0.8c0.1,1.8,0.2,3.6,0.2,5.5v0.1
					C371.5,295.1,371.5,296.2,371.5,297.4L371.5,297.4z"/>
				<g>
					<path class="st1" d="M371.5,297.5v152.2H74.6V297.5c0-1.7,0-3.4,0.1-5.1c0-0.3,0-0.5,0-0.8c0.2-5.1,0.7-10.1,1.3-15
						c0-0.3,0.1-0.5,0.1-0.8c0.6-4.3,1.4-8.6,2.4-12.8c0.1-0.3,0.1-0.5,0.2-0.8c0.6-2.6,1.3-5.1,2.1-7.6c0.1-0.3,0.2-0.6,0.2-0.8
						c0.7-2.2,1.4-4.4,2.2-6.6c0.6-1.7,1.2-3.3,1.8-4.9c1.1-2.8,2.3-5.5,3.6-8.2c0.1-0.3,0.3-0.5,0.4-0.8c0.1-0.2,0.2-0.5,0.3-0.7
						c0.1-0.3,0.3-0.6,0.4-0.8c0.8-1.8,1.8-3.5,2.7-5.3c0,0,0.1-0.1,0.1-0.1c0.2-0.5,0.5-0.9,0.8-1.4c1.3-2.4,2.8-4.8,4.2-7.1
						c0.3-0.4,0.5-0.8,0.8-1.2v0c0.3-0.5,0.6-0.9,0.9-1.4v0c1.1-1.6,2.2-3.2,3.3-4.7c0.2-0.3,0.4-0.6,0.6-0.8c0.7-1,1.5-2,2.2-2.9
						c0.3-0.4,0.6-0.7,0.8-1c0.2-0.3,0.4-0.5,0.6-0.8c2.1-2.7,4.4-5.3,6.7-7.9c0.3-0.3,0.5-0.6,0.8-0.8c0.3-0.4,0.7-0.7,1-1.1
						c2.2-2.3,4.4-4.5,6.7-6.6c0.3-0.3,0.6-0.5,0.9-0.8c1.5-1.4,3.1-2.7,4.7-4.1l3.1,0.5l0.8,0.1l6.2,1l22.3,3.5l0.8,0.1l28.5,4.4
						l0.8,0.1v0l28.5,4.4l0.8,0.1l28.5,4.4l0.8,0.1l7,1.1l0.3,0l1.6-0.1l18.2-1l1.8-0.1l0.8-0.1l29-1.6l0.8-0.1l26.1-1.5
						c0.1,0.2,0.3,0.3,0.4,0.5c0.8,0.8,1.5,1.7,2.2,2.6c0.3,0.3,0.5,0.6,0.7,0.9v0c0.6,0.7,1.1,1.3,1.6,2c0.6,0.7,1.1,1.4,1.7,2.1
						c0.6,0.7,1.1,1.4,1.6,2.1c0,0.1,0.1,0.1,0.1,0.1c0.2,0.3,0.4,0.6,0.6,0.8c0,0,0,0,0,0.1c0.3,0.4,0.5,0.7,0.8,1.1
						c0.4,0.5,0.7,1,1,1.5c0.7,1,1.4,2.1,2.1,3.1c0.4,0.7,0.9,1.3,1.3,2c0.2,0.3,0.3,0.5,0.5,0.8c0.5,0.7,0.9,1.4,1.4,2.2
						c0.1,0.3,0.3,0.5,0.4,0.8c0.4,0.7,0.8,1.3,1.2,2c0.1,0.2,0.2,0.4,0.4,0.6c0,0,0,0.1,0.1,0.1c0.1,0.3,0.3,0.5,0.4,0.8h0
						c0.2,0.4,0.4,0.7,0.6,1.1c0.4,0.8,0.8,1.6,1.2,2.3c0.3,0.5,0.5,1,0.8,1.5c0.2,0.5,0.4,0.9,0.7,1.4c0.1,0.3,0.3,0.6,0.4,0.8
						c0.3,0.7,0.7,1.5,1,2.2v0c0.1,0.1,0.1,0.2,0.1,0.3c0.4,0.8,0.8,1.7,1.2,2.6c1.1,2.6,2.2,5.2,3.2,7.9c0.3,0.8,0.6,1.6,0.8,2.4
						c0,0.1,0,0.1,0.1,0.2v0c0.1,0.1,0.1,0.2,0.1,0.3c0.2,0.5,0.4,1.1,0.5,1.6v0c0.1,0.3,0.2,0.6,0.3,0.9c0.2,0.5,0.4,1.1,0.5,1.6
						c0.1,0.4,0.2,0.7,0.4,1.1c0.1,0.3,0.1,0.6,0.2,0.8c0.1,0.2,0.2,0.5,0.2,0.8h0c0.1,0.3,0.1,0.6,0.2,0.8h0c0.1,0.3,0.2,0.6,0.3,1
						c0.1,0.5,0.3,1,0.4,1.5c0.1,0.4,0.2,0.8,0.3,1.1c0.2,0.8,0.4,1.5,0.6,2.2c0.1,0.3,0.1,0.5,0.2,0.8c0.2,0.6,0.3,1.2,0.4,1.9
						c0.4,1.9,0.8,3.8,1.1,5.7c0.2,0.8,0.3,1.6,0.4,2.4c0.1,0.2,0.1,0.5,0.1,0.7c0.1,0.8,0.2,1.5,0.3,2.2c0,0,0,0.1,0,0.1
						c0.1,0.3,0.1,0.5,0.1,0.8c0.1,0.7,0.2,1.4,0.3,2.1c0,0.3,0.1,0.5,0.1,0.8c0.1,0.7,0.2,1.4,0.2,2.1c0,0,0,0,0,0.1
						c0.1,0.5,0.1,1.1,0.2,1.6c0.1,0.7,0.1,1.4,0.2,2.2c0,0.3,0,0.5,0.1,0.8c0.2,2.5,0.3,5,0.4,7.5v0.1
						C371.5,295.1,371.5,296.3,371.5,297.5L371.5,297.5z"/>
					<path class="st2" d="M319.2,382.6c-5,3.2-8.9,9-8.2,14.9c0.4,2.9,1.7,5.5,2.2,8.4c0.7,4-0.5,8.3-3.2,11.3
						c-1.6,1.9-3.8,3.4-4.6,5.7c-0.4,1.2-0.4,2.6-0.2,3.9c1.3,7.8,9.4,13,17.3,13.4c7.9,0.4,15.4-3,22.2-7
						c6.2-3.7,12.4-8.2,15.4-14.8c2.5-5.5,2.5-11.8,1.3-17.8c-1.2-6.2-3.7-12.3-8.2-16.8C344.2,375,329.1,376.2,319.2,382.6
						L319.2,382.6z"/>
					<path class="st2" d="M205.4,449.7H74.6V297.5c0-1.7,0-3.4,0.1-5.1c0-0.3,0-0.5,0-0.8c0.2-5.1,0.7-10,1.3-15
						c0-0.3,0.1-0.5,0.1-0.8c0.6-4.3,1.4-8.6,2.4-12.8c0.1-0.3,0.1-0.5,0.2-0.8c0.6-2.6,1.3-5.1,2.1-7.6c0.1-0.3,0.2-0.6,0.2-0.8
						c0.7-2.2,1.4-4.4,2.2-6.6c0.6-1.6,1.2-3.3,1.9-4.9c1.1-2.8,2.3-5.5,3.6-8.2c0.1-0.3,0.3-0.5,0.4-0.8l0.3-0.7
						c0.1-0.3,0.3-0.6,0.4-0.8c0.8-1.8,1.8-3.5,2.7-5.3c0,0,0.1-0.1,0.1-0.1c0.2-0.5,0.5-0.9,0.8-1.4c1.3-2.4,2.8-4.8,4.2-7.1
						c0.3-0.4,0.5-0.8,0.8-1.2v0c0.3-0.5,0.6-0.9,0.9-1.4v0c1.1-1.6,2.2-3.2,3.3-4.7c0.2-0.3,0.4-0.6,0.6-0.8c0.7-1,1.5-2,2.2-2.9
						c0.3-0.4,0.6-0.7,0.8-1c0.2-0.3,0.4-0.5,0.6-0.8c2.1-2.7,4.4-5.3,6.7-7.9c0.3-0.3,0.5-0.6,0.8-0.8c0.3-0.4,0.7-0.7,1-1.1
						c2.2-2.3,4.4-4.5,6.7-6.6c0.3-0.3,0.6-0.5,0.9-0.8c1.5-1.4,3.1-2.7,4.7-4.1l3.1,0.5l0.8,0.1l6.2,1c0.5,2.3,0.6,4.7,0.3,6.9
						c-0.8,5.7-3.7,10.9-6.5,15.8c-1.9,3.3-3.7,7.9-0.8,10.4c3.3,2.8,7.9-0.8,11.9-2.5c9.4-4.1,20.6,4.8,21.6,15
						c0.9,10.2-6,19.7-14.5,25.2c-8.6,5.5-18.7,8-28.4,11.1c-8.5,2.6-16.8,5.8-24.9,9.4c-4.6,2-9.2,4.3-12.6,8
						c-3.4,3.7-5.4,9-3.8,13.8c0.6,1.9,1.8,3.6,3.6,4.5c4.5,2.4,10-1.5,14.9-0.5c10.3,2,8.9,20.3,18.9,23.4
						c4.4,1.4,9.1-1.1,12.5-4.2c3.4-3.1,6.4-6.9,10.4-9c8.8-4.6,20.6,0.6,24.9,9.5c4.3,9,2.1,20.1-3.6,28.2
						c-5.7,8.1-14.4,13.7-23.4,18c-9,4.3-18.4,7.5-27.2,12.1c-8.8,4.6-17.2,10.8-22,19.5c-2.7,4.8-4.2,10.5-2.7,15.8
						c1.5,5.3,6.7,9.7,12.1,9c4.6-0.6,8.1-4.3,12.2-6.6c7-3.8,17-2.3,21.2,4.4c1.6,2.5,2.3,5.6,4.2,7.9c3.2,4,9.2,4.9,14.2,3.7
						s9.5-4.1,14.1-6.4c11.8-6,28-7.8,36.7,2.2C205.4,435,206.6,442.6,205.4,449.7L205.4,449.7z"/>
					<path class="st3" d="M371.5,297.5v58.8c0-0.1-0.1-0.1-0.1-0.2c-7.9-9.6-22.2-11.2-34.4-8.7c-8.7,1.8-17.3,5.5-23.5,11.9
						c-4.5,4.6-7.5,10.4-11.1,15.7c-3.6,5.3-8.1,10.4-14.2,12.5c-6.1,2.1-13.9,0.3-16.8-5.5c-4-8.1,3.4-17.9,0.9-26.6
						c-1.9-6.7-9.4-10.6-16.3-10.6s-13.6,3-19.8,6.1c-3.7,1.8-7.6,3.8-11.8,3.9c-4.1,0.1-8.7-2.1-9.8-6.1c-1-3.8,1.3-7.8,4.1-10.5
						c2.8-2.8,6.2-5,8.4-8.3c2.7-4.1,2.9-9.8,0.2-13.9c-2.7-4.1-8.3-6.2-12.9-4.4c-4.1,1.6-7.1,5.8-11.4,6.7
						c-5.5,1.2-11.2-4.8-9.6-10.3c2-7.2,12.5-9,15-16.1c1.4-4.1-0.4-8.5-1.3-12.8c-2.4-10.2,0.4-21.5,7.3-29.5s17.6-12.4,28.1-11.6
						c3.3,0.3,6.6,1,9.9,0.7c7.2-0.7,12.8-6.1,17.9-11.2c1.8-1.8,3.6-3.7,4.6-6c1.9-4.6,0.1-9.8,0.4-14.7c0.1-1.4,0.3-2.7,0.7-4
						l1.8-0.1l0.8-0.1l29-1.6l0.8-0.1l26.1-1.5c0.1,0.2,0.3,0.3,0.5,0.5c0.8,0.9,1.5,1.7,2.2,2.6c0.3,0.3,0.5,0.6,0.7,0.9v0
						c0.6,0.7,1.1,1.3,1.6,2c0.6,0.7,1.1,1.4,1.7,2.1c0.6,0.7,1.1,1.4,1.6,2.1c0,0.1,0.1,0.1,0.1,0.1c0.2,0.3,0.4,0.6,0.6,0.8
						c0,0,0,0,0,0.1c0.3,0.4,0.5,0.7,0.8,1.1c0.4,0.5,0.7,1,1,1.5c0.7,1,1.4,2.1,2.1,3.1c0.4,0.7,0.9,1.3,1.3,2
						c0.2,0.3,0.3,0.5,0.5,0.8c0.5,0.7,0.9,1.4,1.4,2.2c0.1,0.3,0.3,0.5,0.5,0.8c0.4,0.7,0.8,1.3,1.2,2c0.1,0.2,0.2,0.4,0.4,0.6
						c0,0,0,0.1,0.1,0.1c0.1,0.3,0.3,0.5,0.4,0.8h0c0.2,0.4,0.4,0.7,0.6,1.1c0.4,0.8,0.8,1.6,1.2,2.3c0.3,0.5,0.5,1,0.8,1.5
						c0.2,0.4,0.5,0.9,0.7,1.4c0.1,0.3,0.3,0.6,0.4,0.8c0.3,0.7,0.7,1.5,1,2.2v0c0.1,0.1,0.1,0.2,0.2,0.3c0.4,0.9,0.8,1.7,1.2,2.6
						c1.1,2.6,2.2,5.2,3.2,7.9c0.3,0.8,0.6,1.6,0.9,2.4c0,0.1,0,0.1,0.1,0.2v0c0,0.1,0.1,0.2,0.1,0.3c0.2,0.5,0.4,1.1,0.5,1.6v0
						c0.1,0.3,0.2,0.6,0.3,0.9c0.2,0.6,0.4,1.1,0.5,1.6c0.1,0.4,0.2,0.7,0.4,1.1c0.1,0.3,0.2,0.6,0.2,0.8c0.1,0.3,0.2,0.5,0.2,0.8h0
						c0.1,0.3,0.2,0.6,0.2,0.8h0c0.1,0.3,0.2,0.6,0.3,1c0.1,0.5,0.3,1,0.4,1.5c0.1,0.4,0.2,0.8,0.3,1.1c0.2,0.8,0.4,1.5,0.6,2.2
						c0.1,0.3,0.1,0.5,0.2,0.8c0.2,0.6,0.3,1.2,0.5,1.9c0.4,1.9,0.8,3.8,1.1,5.7c0.2,0.8,0.3,1.6,0.4,2.4c0,0.2,0.1,0.5,0.1,0.7
						c0.1,0.8,0.2,1.5,0.3,2.2c0,0,0,0.1,0,0.1c0.1,0.3,0.1,0.5,0.1,0.8c0.1,0.7,0.2,1.4,0.3,2.1c0,0.3,0.1,0.5,0.1,0.8
						c0.1,0.7,0.2,1.4,0.2,2.1c0,0,0,0,0,0.1c0.1,0.5,0.1,1.1,0.2,1.6c0.1,0.7,0.1,1.4,0.2,2.2c0,0.3,0,0.5,0.1,0.8
						c0.2,2.5,0.3,5,0.4,7.5v0.1C371.5,295.1,371.5,296.3,371.5,297.5L371.5,297.5z"/>
					<g class="st4">
						<g>
							<path class="st5" d="M98.4,216.7c0.3-0.5,0.6-0.9,0.9-1.4L97.9,234l-0.1,0.8l-2.3,28.7l-0.1,0.8L93.2,293l-0.1,0.8l-2.3,28.7
								l-0.1,0.8L88.5,352l-0.1,0.8l-2.3,28.7l-0.1,0.8L83.8,411l-0.1,0.8l-2.3,28.7l-0.1,0.8l-0.7,8.4h-0.8l0.7-8.4l0.1-0.8
								l2.3-28.7L83,411l2.3-28.7l0.1-0.8l2.3-28.7l0.1-0.8l2.3-28.7l0.1-0.8l2.3-28.7l0.1-0.8l2.3-28.7l0.1-0.8l2.3-28.7l0.1-0.8
								L98.4,216.7L98.4,216.7L98.4,216.7z"/>
							<polygon class="st5" points="131.5,184.3 129.7,206.9 129.7,207.7 127.4,236.4 127.3,237.2 125,265.9 124.9,266.7 
								122.7,295.4 122.6,296.2 120.3,324.9 120.2,325.7 117.9,354.4 117.9,355.2 115.6,383.9 115.5,384.7 113.2,413.4 113.2,414.2 
								110.9,442.9 110.8,443.7 110.3,449.7 109.5,449.7 110,443.6 110.1,442.8 112.4,414.1 112.4,413.3 114.7,384.6 114.8,383.8 
								117.1,355.1 117.1,354.3 119.4,325.6 119.5,324.8 121.8,296.1 121.8,295.3 124.2,266.6 124.2,265.8 126.5,237.1 126.6,236.3 
								128.9,207.6 128.9,206.8 130.7,184.2 							"/>
							<polygon class="st5" points="160.8,188.9 159.2,209.2 159.2,210 156.9,238.7 156.8,239.5 154.5,268.2 154.4,269 152.1,297.7 
								152.1,298.5 149.8,327.2 149.7,328 147.4,356.7 147.4,357.5 145.1,386.2 145,387 142.7,415.7 142.7,416.5 140.4,445.2 
								140.3,446 140,449.7 139.2,449.7 139.5,446 139.6,445.2 141.9,416.5 141.9,415.7 144.2,387 144.3,386.2 146.6,357.5 
								146.6,356.7 148.9,328 149,327.2 151.3,298.5 151.4,297.7 153.6,269 153.7,268.2 156,239.5 156.1,238.7 158.4,210 
								158.4,209.2 160.1,188.8 							"/>
							<polygon class="st5" points="190.2,193.5 190.2,193.5 188.7,211.6 188.7,212.4 186.4,241.1 186.3,241.9 184,270.6 
								183.9,271.4 181.6,300.1 181.6,300.9 179.3,329.6 179.2,330.4 176.9,359.1 176.9,359.9 174.6,388.6 174.5,389.4 172.2,418.1 
								172.2,418.9 169.9,447.6 169.8,448.4 169.7,449.7 168.9,449.7 169,448.3 169.1,447.5 171.4,418.8 171.4,418 173.7,389.3 
								173.8,388.5 176.1,359.8 176.1,359 178.4,330.3 178.5,329.5 180.8,300.8 180.9,300 183.1,271.3 183.2,270.5 185.5,241.8 
								185.6,241 187.9,212.3 187.9,211.5 189.4,193.4 							"/>
							<polygon class="st5" points="219.5,198.1 218.2,213.9 218.2,214.7 215.9,243.4 215.8,244.2 213.5,273 213.4,273.7 
								211.1,302.5 211.1,303.2 208.8,332 208.7,332.7 206.4,361.5 206.4,362.2 204.1,391 204,391.8 201.7,420.5 201.7,421.2 
								199.4,449.7 199.4,450 198.6,449.9 198.6,449.7 200.9,421.2 200.9,420.4 203.2,391.7 203.3,390.9 205.6,362.2 205.6,361.4 
								207.9,332.7 208,331.9 210.3,303.2 210.4,302.4 212.7,273.7 212.7,272.9 215,244.2 215.1,243.4 217.4,214.7 217.4,213.9 
								218.7,197.9 							"/>
							<polygon class="st5" points="248.8,202.6 247.7,216.3 247.7,217.1 245.4,245.8 245.3,246.6 243,275.3 243,276.1 240.6,304.8 
								240.6,305.6 240.6,305.6 238.3,334.3 238.2,335.1 235.9,363.8 235.9,364.6 235.9,364.6 233.6,393.3 233.5,394.1 231.2,422.8 
								231.2,423.6 229.1,449.7 228.3,449.7 230.4,423.5 230.4,422.7 232.7,394 232.8,393.2 235.1,364.5 235.1,363.7 237.4,335 
								237.5,334.2 239.8,305.5 239.9,304.7 242.2,276 242.2,275.2 244.5,246.6 244.6,245.8 246.9,217 246.9,216.2 248,202.5 
															"/>
							<polygon class="st5" points="278.5,202.5 277.2,218.6 277.1,219.4 274.9,248.1 274.8,248.9 272.5,277.7 272.4,278.5 
								270.1,307.2 270.1,308 267.8,336.7 267.7,337.5 265.4,366.2 265.4,367 263.1,395.7 263,396.5 260.7,425.2 260.7,426 
								258.8,449.7 258,449.7 259.9,425.9 259.9,425.1 262.2,396.4 262.3,395.6 264.6,366.9 264.6,366.9 264.6,366.1 266.9,337.4 
								267,336.6 269.3,307.9 269.4,307.1 271.7,278.4 271.7,277.6 274,248.9 274.1,248.1 276.4,219.4 276.4,218.6 277.7,202.5 
															"/>
							<polygon class="st5" points="308.3,200.8 306.7,221 306.6,221.8 304.4,250.5 304.3,251.3 302,280 301.9,280.8 299.6,309.5 
								299.6,310.3 297.3,339 297.2,339.8 295,368.5 294.9,369.3 292.6,398 292.5,398.8 290.2,427.5 290.2,428.3 288.5,449.7 
								287.7,449.7 289.4,428.2 289.4,427.5 291.7,398.8 291.8,398 294.1,369.2 294.1,368.5 296.4,339.7 296.5,339 298.8,310.3 
								298.9,309.5 301.1,280.7 301.2,280 303.5,251.2 303.6,250.4 305.9,221.8 305.9,220.9 307.5,200.8 							"/>
							<path class="st5" d="M337.8,203.3L337.8,203.3l-1.6,20l-0.1,0.8l-2.3,28.7l-0.1,0.8l-2.3,28.7l-0.1,0.8l-2.3,28.7l-0.1,0.8
								l-2.3,28.7l-0.1,0.8l-2.3,28.7l-0.1,0.8l-2.3,28.7l-0.1,0.8l-2.3,28.7l-0.1,0.8l-1.5,19h-0.8l1.5-19.1l0.1-0.8l2.3-28.7
								l0.1-0.8l2.3-28.7l0.1-0.8l2.3-28.7l0.1-0.8l2.3-28.7l0.1-0.8l2.3-28.7l0.1-0.8l2.3-28.7l0.1-0.8l2.3-28.7l0.1-0.8l1.7-20.8
								C337.4,202.8,337.6,203.1,337.8,203.3L337.8,203.3z"/>
							<path class="st5" d="M363.8,250.1L363.8,250.1l-0.4,5.1l-0.1,0.8l-2.3,28.7l-0.1,0.8l-2.3,28.7l-0.1,0.8l-2.3,28.7l-0.1,0.8
								l-2.3,28.7l-0.1,0.8l-2.3,28.7l-0.1,0.8l-2.3,28.7l-0.1,0.8l-1.3,16.6h-0.8l1.3-16.7l0.1-0.8l2.3-28.7l0.1-0.8l2.3-28.7
								l0.1-0.8l2.3-28.7l0.1-0.8l2.3-28.7l0.1-0.8l2.3-28.7l0.1-0.8l2.3-28.7l0.1-0.8l0.5-6.9c0,0.1,0.1,0.2,0.1,0.3
								C363.4,249.1,363.6,249.6,363.8,250.1L363.8,250.1z"/>
						</g>
						<g>
							<path class="st5" d="M352.9,225.5l-16.7-1.4l-0.8-0.1l-28.7-2.3l-0.8-0.1l-28.7-2.3l-0.8-0.1l-28.7-2.3l-0.8-0.1l-28.7-2.3
								l-0.8-0.1l-28.7-2.3l-0.8-0.1l-28.7-2.3l-0.8-0.1l-28.7-2.3l-0.8-0.1l-22.6-1.8c0.2-0.3,0.4-0.5,0.6-0.8l22.1,1.8l0.8,0.1
								l28.7,2.3l0.8,0.1l28.7,2.3l0.8,0.1l28.7,2.3l0.8,0.1l28.7,2.3l0.8,0.1l28.7,2.3l0.8,0.1l28.7,2.3l0.8,0.1l28.7,2.3l0.8,0.1
								l16.2,1.3c0,0,0,0.1,0.1,0.1C352.6,225,352.8,225.2,352.9,225.5L352.9,225.5z"/>
							<path class="st5" d="M365.6,256.2l-2.3-0.2l-0.8-0.1l-28.7-2.3l-0.8-0.1l-28.7-2.3l-0.8-0.1l-28.7-2.3l-0.8-0.1l-28.7-2.3
								l-0.8-0.1l-28.7-2.3l-0.8-0.1l-28.7-2.3l-0.8-0.1l-28.7-2.3l-0.8-0.1l-28.7-2.3l-0.8-0.1l-28.7-2.3l-0.8-0.1l-8.3-0.7
								c0.1-0.3,0.3-0.5,0.4-0.8l7.9,0.6l0.8,0.1l28.7,2.3l0.8,0.1l28.7,2.3l0.8,0.1l28.7,2.3l0.8,0.1l28.7,2.3l0.8,0.1l28.7,2.3
								l0.8,0.1l28.7,2.3l0.8,0.1l28.7,2.3l0.8,0.1l28.7,2.3l0.8,0.1l28.7,2.3l0.8,0.1l2,0.2h0C365.5,255.7,365.6,255.9,365.6,256.2
								z"/>
							<path class="st5" d="M371.1,286.3l-10.1-0.8l-0.8-0.1l-28.7-2.3l-0.8-0.1l-28.7-2.3l-0.8-0.1l-28.7-2.3l-0.8-0.1l-28.7-2.3
								l-0.8-0.1l-28.7-2.3l-0.8-0.1l-28.7-2.3l-0.8-0.1l-28.7-2.3l-0.8-0.1l-28.7-2.3l-0.8-0.1l-28.7-2.3l-0.8-0.1l-16-1.3
								c0.1-0.3,0.1-0.5,0.2-0.8l15.9,1.3l0.8,0.1l28.7,2.3l0.8,0.1l28.7,2.3l0.8,0.1l28.7,2.3l0.8,0.1l28.7,2.3l0.8,0.1l28.7,2.3
								l0.8,0.1l28.7,2.3l0.8,0.1l28.7,2.3l0.8,0.1l28.7,2.3l0.8,0.1l28.7,2.3l0.8,0.1l10,0.8C371,285.8,371.1,286.1,371.1,286.3
								L371.1,286.3z"/>
							<path class="st5" d="M371.5,315.3v0.8l-12.9-1l-0.8-0.1l-28.7-2.3l-0.8-0.1l-28.7-2.3l-0.8-0.1l-28.7-2.3l-0.8-0.1l-28.7-2.3
								v0l-0.8,0l-28.7-2.3l-0.8-0.1l-28.7-2.3l-0.8-0.1l-28.7-2.3l-0.8-0.1l-28.7-2.3l-0.8-0.1l-28.7-2.3l-0.8-0.1l-17.6-1.4
								c0-0.3,0-0.5,0-0.8l17.7,1.4l0.8,0.1l28.7,2.3l0.8,0.1l28.7,2.3l0.8,0.1l28.7,2.3l0.8,0.1l28.7,2.3l0.8,0.1l28.7,2.3l0.8,0.1
								l28.7,2.3l0.8,0.1l28.7,2.3l0.8,0.1l28.7,2.3l0.8,0.1l28.7,2.3l0.8,0.1L371.5,315.3L371.5,315.3z"/>
							<polygon class="st5" points="371.5,345 371.5,345.7 356.2,344.5 355.4,344.5 326.7,342.2 325.9,342.1 297.2,339.8 
								296.4,339.7 267.7,337.5 266.9,337.4 238.2,335.1 237.4,335 208.7,332.7 207.9,332.7 179.2,330.4 178.4,330.3 149.7,328 
								148.9,328 120.2,325.7 119.4,325.6 90.7,323.3 89.9,323.2 74.6,322 74.6,321.2 90,322.4 90.8,322.5 119.5,324.8 120.3,324.9 
								149,327.2 149.8,327.2 178.5,329.5 179.3,329.6 208,331.9 208.8,332 237.5,334.2 238.3,334.3 267,336.6 267.8,336.7 
								296.5,339 297.3,339 326,341.3 326.8,341.4 355.5,343.7 356.3,343.7 							"/>
							<polygon class="st5" points="371.5,374.6 371.5,375.4 353.9,374 353.1,374 324.4,371.7 323.6,371.6 294.9,369.3 294.1,369.2 
								265.4,367 264.6,366.9 264.6,366.9 235.9,364.6 235.9,364.6 235.1,364.5 206.4,362.2 205.6,362.2 176.9,359.9 176.1,359.8 
								147.4,357.5 146.6,357.5 117.9,355.2 117.1,355.1 88.4,352.8 87.6,352.8 74.6,351.7 74.6,350.9 87.6,352 88.4,352 
								117.1,354.3 117.9,354.4 146.6,356.7 147.4,356.7 176.1,359 176.9,359.1 205.6,361.4 206.4,361.5 235.1,363.7 235.9,363.8 
								264.6,366.1 265.4,366.2 294.1,368.5 295,368.5 323.6,370.8 324.5,370.9 353.1,373.2 354,373.2 							"/>
							<polygon class="st5" points="371.5,404.3 371.5,405.1 351.5,403.5 350.7,403.5 322,401.2 321.2,401.1 292.5,398.8 
								291.7,398.8 263,396.5 262.2,396.4 233.5,394.1 232.7,394 204,391.8 203.2,391.7 174.5,389.4 173.7,389.3 145,387 144.2,387 
								115.5,384.7 114.7,384.6 86,382.3 85.2,382.3 74.6,381.4 74.6,380.6 85.3,381.5 86.1,381.5 114.8,383.8 115.6,383.9 
								144.3,386.2 145.1,386.2 173.8,388.5 174.6,388.6 203.3,390.9 204.1,391 232.8,393.2 233.6,393.3 262.3,395.6 263.1,395.7 
								291.8,398 292.6,398 321.3,400.3 322.1,400.4 350.8,402.7 351.6,402.7 							"/>
							<polygon class="st5" points="371.5,434 371.5,434.8 349.2,433 348.4,433 319.7,430.7 318.9,430.6 290.2,428.3 289.4,428.2 
								260.7,426 259.9,425.9 231.2,423.6 230.4,423.5 201.7,421.2 200.9,421.2 172.2,418.9 171.4,418.8 142.7,416.5 141.9,416.5 
								113.2,414.2 112.4,414.1 83.7,411.8 82.9,411.8 74.6,411.1 74.6,410.3 82.9,411 83.7,411 112.4,413.3 113.2,413.4 
								141.9,415.7 142.7,415.7 171.4,418 172.2,418.1 200.9,420.4 201.7,420.5 230.4,422.7 231.2,422.8 259.9,425.1 260.7,425.2 
								289.4,427.5 290.2,427.5 318.9,429.8 319.7,429.9 348.4,432.2 349.2,432.2 							"/>
							<polygon class="st5" points="195.9,449.7 185.8,449.7 169.8,448.4 169,448.3 140.3,446 139.5,446 110.8,443.7 110,443.6 
								81.3,441.3 80.5,441.3 74.6,440.8 74.6,440 80.6,440.5 81.4,440.5 110.1,442.8 110.9,442.9 139.6,445.2 140.4,445.2 
								169.1,447.5 169.9,447.6 							"/>
						</g>
					</g>
				</g>
				<polygon class="st6" points="352.8,420.7 346,424.2 342.5,431 339,424.2 332.2,420.7 339,417.2 342.5,410.4 346,417.2 				"/>
			</g>
			<g>
				<path class="st5" d="M83.6,412h237.7v157.3H0v-73.7C0,449.5,37.5,412,83.6,412z"/>
				<g>
					<path class="st0" d="M741.7,526.1v4.3c0,1.9-0.1,3.8-0.2,5.7c-0.5,12.7-2.1,25.1-4.6,37.2H285.7c-2.9-13.9-4.5-28.2-4.8-42.8
						v-1.8c0-0.8,0-1.7,0-2.5c0-27.9,5-54.6,14-79.3c0.1-0.2,0.1-0.3,0.2-0.5l0.5-1.3c11.9-31.7,30.7-60.1,54.4-83.4v0h0
						c0.5-0.5,1-1,1.5-1.5c7.2-6.9,14.8-13.4,22.8-19.3c2.3-1.6,4.6-3.3,6.9-4.9c7.3-5,14.8-9.6,22.7-13.7c2.3-1.3,4.7-2.5,7.1-3.6
						c0.9-0.4,1.8-0.9,2.8-1.3c18.6-8.8,38.5-15.1,59.5-18.5h0c0.5-0.1,0.9-0.2,1.4-0.3c0.9-0.1,1.7-0.3,2.5-0.4h0
						c8.7-1.3,17.5-2.1,26.6-2.4c0.8,0,1.5,0,2.2,0h0c0.8,0,1.6,0,2.5,0c0.6,0,1.2,0,1.8,0h0.9c6.9,0,13.6,0.3,20.3,0.9
						c0.8,0.1,1.5,0.1,2.3,0.2c12.3,1.2,24.3,3.4,36,6.4c1.2,0.3,2.4,0.6,3.5,1h0c9.5,2.6,18.6,5.8,27.5,9.6
						c0.8,0.4,1.7,0.7,2.6,1.1c15.3,6.7,29.7,15,43,24.7c9.6,7,18.7,14.7,27.1,23.1c5.6,5.6,5.6,5.6,0,0l0,0
						c0.4,0.4,0.8,0.8,1.2,1.2c0.4,0.4,0.8,0.9,1.2,1.3h0c0.5,0.5,0.9,0.9,1.3,1.5h0c0.4,0.3,0.7,0.6,0.9,1c0,0,0,0,0,0
						c21.5,22.6,38.4,49.6,49.2,79.5v0h0c0.2,0.6,0.4,1.1,0.6,1.7c7.6,21.3,12.1,44,13,67.7C741.6,519.8,741.6,522.9,741.7,526.1
						L741.7,526.1z"/>
					<g>
						<path class="st2" d="M409.9,573.2H304c0.9-3.8,2.3-7.4,4.2-10.7c0.9-1.5,1.8-2.9,2.9-4.3c0.5-0.7,1.1-1.3,1.6-2v0
							c7.1-8.1,17.3-13.4,28-14.2l15.6-1.3c5.1-0.9,10.5-1.1,15.7-0.5c0.6,0.1,1.2,0.1,1.8,0.2c7.4,1,14.5,3.6,20.6,8
							C402.5,554.3,408.4,563.5,409.9,573.2L409.9,573.2z"/>
						<path class="st7" d="M646.9,371.9L646.9,371.9c-0.2,0.7-0.4,1.3-0.6,2c-1.2,3.4-2.8,6.5-5.1,9.4c-2.6,3.4-5.9,6-9.5,8.3
							c0,0,0,0,0,0c-0.5,0.3-1,0.6-1.5,0.9c0,0,0,0-0.1,0c-5.4,3-11.5,5-17.6,6.6c-11.7,3-24.8,4.8-35.5-0.9
							c-2.8-1.4-5.2-3.3-7.5-5.4c-0.8-0.7-1.5-1.4-2.2-2.1c-2.2-2.2-4.3-4.6-6.4-7c-0.5-0.6-1-1.2-1.6-1.8c-1.5-1.7-3.1-3.4-4.8-4.9
							c-7.6-7-19.8-11.6-27.9-5.3c-3.3,2.5-5.2,6.5-5.8,10.6c-0.1,0.6-0.2,1.2-0.2,1.8c-0.1,2,0.1,4.2,0.6,6.1
							c1.6,6.6,6,12.2,10.9,16.9c11.2,11,25.5,18.7,40.9,21.9h0c0.3,0,0.6,0.1,0.8,0.2c0.3,0,0.6,0.1,0.9,0.2h0
							c19.2,3.7,42.7,3,52.5,19.7c1.2,2.1,2.2,4.4,2.5,6.8c0.1,0.6,0.1,1.1,0.1,1.7v0c0,1-0.1,2-0.3,3c-1.4,6-7.1,9.9-12.5,12.7
							c-12,6.3-25,10.4-38.3,12.4c-0.6,0.1-1.1,0.2-1.7,0.3h0c-4.9,0.7-9.8,1-14.7,1.1c-8.9,0.1-19.3-0.2-25,6.7
							c-2.6,3.2,8.7,20.3,17.4,32.4c5.6,7.7,13,14,21.5,18.4l0,0c0.6-0.2,1.2-0.3,1.8-0.4c7.5-1.7,15.4-2.5,22.7,0
							c8.3,2.8,15.4,10.7,14.6,19.4c-0.3,3.5-1.8,6.7-3.7,9.7H508.7c0.1-1.4,0-2.8-0.1-4.2c-0.3-2.7-0.9-5.2-1.8-7.8
							c-0.7-1.9-1.5-3.7-2.6-5.4c-1.3-2.2-2.8-4.2-4.6-6c-0.9-0.8-1.8-1.7-2.7-2.4c-9.6-7.8-22.7-10.7-35.2-10.5
							c-6.6,0.1-13.3,0.9-19.9,0.4h0c-0.6,0-1.2-0.1-1.8-0.2c-2.4-0.2-4.8-0.7-7.1-1.5c-3.3-1.1-6.3-3-8.9-5.3
							c-0.6-0.5-1.2-1.1-1.8-1.8l0,0c-8.4-9.2-11.2-23.9-4.6-34.8c5.7-9.5,16.5-15.1,24.1-23l0,0c0.7-0.7,1.4-1.5,2.1-2.3l0,0
							c1.7-2,3.2-4.4,4.3-7c0.3-0.6,0.5-1.3,0.5-2c0.1-0.5,0.1-1,0-1.5v-0.1c-0.3-1.9-1.4-3.3-3.1-4.4h0c-0.5-0.4-1.1-0.6-1.7-0.9
							c-1.9-0.8-4.1-1-6.1-0.9c-6.5,0.5-12.6,3.5-19.1,4c-6.5,0.6-14.2-2.2-15.7-8.5c-2.7-11.7,17.6-22.2,11-32.4
							c-3.1-5-10.5-4.7-16-2.7c-2.8,1-5.5,2.4-8.3,3.3c-0.7,0.3-1.4,0.5-2.1,0.6h0c-2.1,0.5-4.2,0.8-6.4,0.5
							c-11-1.6-14.5-16.7-10.3-27c3.2-7.7,8.9-14,13.7-20.7c0.4-0.6,0.8-1,1.1-1.6c0,0,0,0,0,0c1.2-1.8,2.4-3.6,3.4-5.6
							c3.6-7.1,5.1-14.9,7.6-22.5c1.9-5.9,4.4-11.6,7.4-16.9c2.3-1.3,4.7-2.5,7.1-3.6c0.9-0.4,1.8-0.9,2.8-1.3
							c18.6-8.8,38.5-15.1,59.5-18.5h0c0.5-0.1,0.9-0.2,1.4-0.3c0.9-0.1,1.7-0.3,2.5-0.4h0c8.7-1.3,17.5-2.1,26.6-2.4
							c0.8,0,1.5,0,2.2,0h0c0.8,0,1.6,0,2.5,0c0.6,0,1.2,0,1.8,0h0.9c6.9,0,13.7,0.3,20.3,0.9c0.8,0.1,1.5,0.1,2.3,0.2
							c12.3,1.2,24.3,3.4,36,6.4c1.2,0.3,2.4,0.6,3.5,1h0c9.5,2.6,18.6,5.8,27.5,9.6c0.8,0.4,1.7,0.7,2.6,1.1
							c15.3,6.7,29.7,15,43,24.7c0.3,1.1,0.4,2.2,0.6,3.3C649,352.5,649.6,362.8,646.9,371.9L646.9,371.9z"/>
					</g>
					<g class="st8">
						<rect x="281" y="528.6" class="st5" width="460.7" height="1.8"/>
						<path class="st5" d="M510.3,295.8v277.4h-1.8V295.8C509.1,295.8,509.7,295.8,510.3,295.8L510.3,295.8z"/>
						<path class="st5" d="M506.1,295.8C506.1,295.8,506.1,295.9,506.1,295.8c-6.7,9.5-12.8,19.4-18.5,29.6c0,0,0,0,0,0
							c-0.4,0.6-0.7,1.2-0.9,1.7l0,0c-8.9,16.3-16.6,33.6-23,51.6c-0.2,0.6-0.4,1.2-0.6,1.8c-8,23.2-13.9,47.6-17.5,72.9
							c-0.1,1-0.3,2-0.4,3c-0.1,0.4-0.1,0.8-0.1,1.2c-0.1,0.6-0.2,1.2-0.2,1.8c-0.4,3-0.7,6-1,9c-2.1,19.6-2.8,39.7-2.2,60.2
							c0,0.6,0,1.2,0,1.8c0.1,2.3,0.2,4.7,0.3,7c0.6,11.8,1.6,23.8,3,35.8H443c-1.4-12.1-2.4-24.1-3-36c-0.1-2.3-0.2-4.5-0.3-6.8
							c0-0.6,0-1.2,0-1.8c-0.6-19.7,0.1-39,2-57.9c0.4-3.8,0.8-7.6,1.2-11.3c0.1-0.6,0.1-1.2,0.2-1.8c0.1-0.5,0.1-0.9,0.2-1.4
							c0.2-1.2,0.3-2.4,0.5-3.6c3.6-25,9.5-49.3,17.4-72.2c0.2-0.6,0.4-1.1,0.6-1.8c6.3-18,13.9-35.2,22.8-51.5
							c0.3-0.6,0.6-1.2,0.9-1.7h0v0c5.6-10.2,11.7-20.1,18.3-29.5C504.6,295.9,505.3,295.8,506.1,295.8L506.1,295.8z"/>
						<path class="st5" d="M477.2,298.3c-10.2,7-19.9,15.1-28.9,24.1h0c-0.5,0.5-1.1,1-1.6,1.6h0c-13.9,14-26.3,30.1-36.6,47.8
							c-0.4,0.5-0.7,1.1-1,1.7c-7.7,13.2-14.3,27.4-19.6,42.1c-3,8.4-5.6,17-7.8,25.7c-1,4.1-2,8.3-2.8,12.5
							c-0.1,0.6-0.2,1.2-0.4,1.8c-4.6,23.4-6.4,48-5.4,73.2c0,0.6,0.1,1.2,0.1,1.8c0.1,3.3,0.4,6.7,0.6,10c0.8,10.8,2,21.8,3.9,32.8
							h-1.8c-1.8-11.1-3.1-22.1-3.8-33c-0.2-3.3-0.4-6.5-0.6-9.8c0-0.6-0.1-1.2-0.1-1.8c-1-25.3,0.8-49.9,5.4-73.3
							c0.1-0.6,0.2-1.2,0.4-1.8c0.8-4.3,1.8-8.5,2.8-12.8c2.1-8.4,4.6-16.6,7.4-24.6c5.4-15.1,12-29.5,19.8-43.1
							c0.3-0.6,0.6-1.1,0.9-1.7c10.3-17.6,22.5-33.7,36.3-47.7h0c0.5-0.5,1-1,1.5-1.6h0v0c8.5-8.5,17.6-16.3,27.2-23.1c0,0,0,0,0,0
							c0.5-0.1,0.9-0.2,1.4-0.2C475.5,298.5,476.4,298.4,477.2,298.3L477.2,298.3z"/>
						<path class="st5" d="M381.2,336c-7.7,8.1-14.9,16.8-21.5,26c-0.4,0.6-0.8,1-1.1,1.6h0v0c-7.8,11.1-14.8,23-20.8,35.6
							c-7.4,15.5-13.2,31.8-17.5,48.8c-0.2,0.6-0.4,1.1-0.5,1.8c-6.3,25-9.2,51.5-8.8,78.8v1.8c0.2,8.5,0.7,17.2,1.5,25.8v0
							c0.4,4.8,1,9.5,1.6,14.3c0.1,0.9,0.2,1.8,0.4,2.6h-1.8c-0.1-0.8-0.2-1.6-0.4-2.4c-0.6-4.2-1.1-8.4-1.5-12.6v0
							c-1-9.3-1.5-18.6-1.7-27.8v-1.8c-0.4-27.4,2.5-53.9,8.8-79c0.1-0.6,0.3-1.2,0.4-1.8c4.4-17.2,10.3-33.7,17.7-49.3
							c5.9-12.4,12.7-24.2,20.5-35.3v0h0c0.3-0.5,0.7-1,1.1-1.6v0c5.1-7.3,10.6-14.2,16.5-20.7C376.6,339.3,378.9,337.6,381.2,336
							L381.2,336z"/>
						<path class="st5" d="M579,528.6c0,0.6,0,1.2-0.1,1.8c-0.1,4.6-0.3,9.2-0.6,13.8c-0.5,9.7-1.2,19.4-2.2,29.1h-1.8
							c0.9-9.5,1.7-19.1,2.2-28.7c0.3-4.7,0.5-9.5,0.6-14.2c0-0.6,0.1-1.2,0.1-1.8c0.5-14.2,0.5-28.4,0-42.6
							c-0.2-8.6-0.7-17.2-1.2-25.8c-0.1-0.6-0.1-1.2-0.1-1.8c-0.7-9.8-1.6-19.6-2.8-29.4c-0.5-3.9-0.9-7.8-1.5-11.7
							c-1.1-8.2-2.5-17.3-4.3-26.8c-0.5-2.4-0.9-4.8-1.4-7.2c-0.1-0.6-0.3-1.2-0.4-1.8c-3.8-18.1-9.5-37.4-17.9-56v0
							c-0.2-0.6-0.5-1.1-0.8-1.7h0v0c-4.3-9.4-9.3-18.5-15.2-27.2c0.8,0.1,1.5,0.1,2.3,0.2c5.7,8.6,10.6,17.6,14.8,26.8v0
							c0.3,0.6,0.5,1.1,0.8,1.7v0c8.3,18.7,13.9,38.1,17.7,56.2c0.1,0.6,0.3,1.2,0.4,1.8c0.7,3.2,1.3,6.3,1.9,9.4
							c1.6,8.6,2.8,16.8,3.8,24.4c0.6,4.1,1.1,8.2,1.5,12.3h0c1.1,9.6,2,19.3,2.7,29c0,0.6,0.1,1.2,0.1,1.8c0.6,8.5,1,17,1.2,25.6
							C579.4,500,579.4,514.3,579,528.6L579,528.6z"/>
						<path class="st5" d="M656,528.6c0,0.6,0,1.2,0,1.8c-0.2,13.8-1.1,28.1-2.7,42.8h-1.8c1.6-14.7,2.4-29,2.7-42.8
							c0-0.6,0-1.2,0-1.8c0.4-25.3-1.5-49.3-5.5-72.1c-0.1-0.6-0.2-1.2-0.3-1.8c-0.1-1-0.3-2-0.5-3.1c-4-20.7-9.9-40.6-17.6-59.3
							c-2.1-5-4.3-9.9-6.6-14.7h0c-0.3-0.5-0.5-1.1-0.8-1.6c-10.2-20.9-22.8-39.9-37.3-56.5c-0.4-0.5-0.8-1-1.3-1.5
							c-4.5-5.1-9.3-10.1-14.2-14.7c1.2,0.3,2.4,0.6,3.5,1h0c4.3,4.2,8.6,8.6,12.6,13.3c0.5,0.5,0.9,1,1.4,1.5
							c14.4,16.6,26.9,35.8,37.1,56.7c0.2,0.6,0.5,1.1,0.8,1.7c2.2,4.6,4.3,9.3,6.3,14c7.8,18.9,13.9,38.9,17.9,59.9
							c0.2,1.1,0.4,2.2,0.6,3.2c0.1,0.6,0.3,1.2,0.3,1.8C654.5,479.2,656.4,503.2,656,528.6L656,528.6z"/>
						<path class="st5" d="M710.3,528.6c0,0.6,0,1.2,0,1.8c-0.3,14.4-1.2,28.7-2.7,42.8h-1.8c1.6-14.1,2.5-28.4,2.8-42.8
							c0-0.6,0-1.2,0-1.8c0.2-10.7,0-21.5-0.5-32.3c-0.7-15.8-2.2-30.7-4.4-44.6c-0.1-0.6-0.2-1.1-0.3-1.7
							c-4.3-26.7-11.3-50.2-21.1-71.1c-1.9-4-3.9-7.9-6-11.7c-0.3-0.5-0.6-1.1-0.8-1.6h0c-0.5-0.9-1-1.8-1.6-2.7l0,0v0
							c0.4,0.4,0.8,0.8,1.2,1.2c0.4,0.4,0.8,0.9,1.2,1.3h0c0.3-0.1,0.6-0.2,0.9-0.2c0.3,0.5,0.6,1,0.8,1.6c0.2,0.4,0.4,0.7,0.6,1.1
							c0,0,0,0,0,0c1.8,3.4,3.6,6.8,5.2,10.4c9.9,21.1,17,44.8,21.3,71.7c0.1,0.6,0.2,1.1,0.3,1.7c2.2,14,3.6,28.9,4.4,44.8
							C710.3,507.1,710.5,517.9,710.3,528.6L710.3,528.6z"/>
						<path class="st5" d="M603.5,315c-5.3,1.5-10.7,2.9-16.1,4.1c-0.6,0.2-1.3,0.3-2,0.5c-11.7,2.5-23.6,4.5-36,5.8
							c-0.6,0.1-1.3,0.1-1.9,0.2c-12,1.2-24.5,1.9-37.3,2c-0.6,0-1.2,0-1.8,0h-2.3c-6.5,0-13-0.2-19.6-0.5c-0.7,0-1.4,0-2,0
							c-12.2-0.6-24.9-1.7-37.8-3.2h0c-0.7-0.1-1.5-0.1-2.2-0.3h0c-8.3-0.9-16.8-2.2-25.5-3.6c-2.6-0.4-5.3-0.9-8-1.4
							c0.9-0.4,1.8-0.9,2.8-1.3c1.9,0.3,3.7,0.6,5.5,0.9c9.1,1.5,18,2.8,26.8,3.8c0.8,0.1,1.5,0.2,2.2,0.3
							c12.8,1.5,25.1,2.5,37.2,3.1c0.7,0,1.3,0,2,0c7.1,0.3,14.1,0.4,21,0.4c0.6,0,1.1,0,1.8,0c12.5-0.1,24.7-0.8,36.5-2
							c0.6-0.1,1.2-0.2,1.9-0.2c12.2-1.3,24-3.2,35.4-5.7c0.7-0.1,1.3-0.3,2-0.5c5-1.1,10-2.3,14.8-3.7
							C601.8,314.2,602.6,314.6,603.5,315L603.5,315z"/>
						<path class="st5" d="M678,366.6c-0.1,0.1-0.2,0.1-0.4,0.1c-0.5,0.1-1,0.2-1.4,0.4c-16.5,4.2-33.4,7.7-50.8,10.3
							c-0.6,0.1-1.2,0.2-1.8,0.2h0c-18.2,2.8-36.8,4.6-55.9,5.6c-0.6,0-1.2,0.1-1.8,0.1c-3.6,0.2-7.1,0.4-10.7,0.5
							c-7,0.2-14.1,0.4-21.2,0.4c-7.8,0-15.7-0.1-23.6-0.4c-0.6,0-1.2,0-1.8-0.1c-14.9-0.5-30.1-1.6-45.5-3.1
							c-0.6,0-1.2-0.1-1.8-0.2c-17-1.7-34.4-4.1-52.1-7c-0.6-0.1-1.3-0.2-1.9-0.3c-15.1-2.5-30.5-5.5-46.2-8.9
							c-0.8-0.2-1.5-0.3-2.3-0.5c-0.6-0.1-1.2-0.3-1.9-0.4c-2.2-0.5-4.5-1-6.8-1.5c0.5-0.5,1-1,1.5-1.5c2.1,0.5,4.2,1,6.4,1.4
							c0.6,0.1,1.3,0.3,1.9,0.4c0.5,0.1,1,0.2,1.6,0.4c16,3.5,31.6,6.5,46.9,9c0.6,0.1,1.3,0.2,1.9,0.3c17.6,2.9,34.9,5.2,51.7,6.9
							c0.6,0.1,1.2,0.1,1.8,0.2c15.2,1.5,30.2,2.6,44.9,3.1c0.6,0,1.2,0.1,1.8,0.1c15.1,0.5,30,0.5,44.7,0.1
							c3.5-0.1,6.9-0.2,10.4-0.4c0.6,0,1.2,0,1.8-0.1c18.9-1,37.5-2.8,55.5-5.5c0.6-0.1,1.2-0.1,1.8-0.3c17.3-2.6,34.2-6,50.7-10.2
							h0c0.3,0,0.6-0.1,0.9-0.2c0.3-0.1,0.6-0.1,0.9-0.2C677.4,365.6,677.7,366.1,678,366.6L678,366.6z"/>
						<path class="st5" d="M728.4,449c-7.7,0.9-15.3,1.8-23,2.5c-0.6,0.1-1.2,0.1-1.8,0.2c-17.7,1.9-35.4,3.4-53.1,4.7
							c-0.6,0.1-1.2,0.1-1.8,0.1c-23.6,1.7-47.3,2.9-71,3.7c-0.6,0-1.2,0-1.8,0c-18.4,0.6-36.8,0.9-55.2,0.9c-3.5,0-6.9,0-10.4-0.1
							c-0.6,0-1.2,0-1.8,0c-21.3-0.1-42.6-0.6-63.8-1.5c-0.6,0-1.2-0.1-1.8-0.1c-21.5-0.9-42.9-2.2-64.3-4c-0.6,0-1.2-0.1-1.8-0.1
							c-19-1.5-37.9-3.3-56.8-5.5c-0.6-0.1-1.2-0.1-1.8-0.2c-7.8-0.9-15.5-1.8-23.2-2.8c0.2-0.6,0.4-1.1,0.7-1.7
							c7.6,1,15.3,1.9,23,2.8c0.6,0.1,1.2,0.2,1.8,0.2c18.9,2.1,37.8,4,56.7,5.5c0.6,0.1,1.2,0.1,1.8,0.1c21.4,1.7,42.8,3,64.2,4
							c0.6,0,1.2,0,1.8,0.1c21.2,0.9,42.4,1.4,63.6,1.5c0.6,0,1.2,0,1.8,0c21.9,0.2,43.7-0.1,65.5-0.8c0.6,0,1.2,0,1.8,0
							c23.6-0.8,47.2-2,70.8-3.7c0.6,0,1.2-0.1,1.8-0.1c17.8-1.2,35.5-2.8,53.2-4.6c0.6-0.1,1.2-0.1,1.8-0.2
							c7.6-0.8,15.2-1.6,22.7-2.5C728,447.9,728.2,448.5,728.4,449L728.4,449z"/>
					</g>
				</g>
				<g>
					<polygon class="st3" points="635.2,397.2 682.6,420.5 632.1,444 					"/>
					<path class="st9" d="M626.6,509.1C626.6,509.1,626.5,509.1,626.6,509.1c-0.6,0-1-0.5-1-1.1l8.8-111.2c0-0.5,0.5-1,1.1-0.9
						c0.5,0,1,0.5,0.9,1.1l-8.8,111.2C627.5,508.8,627.1,509.2,626.6,509.1L626.6,509.1z"/>
					<path class="st5" d="M610.1,510.6c0,0,3.3-13.7,16.9-13.4c13.6,0.3,19.8,16.2,19.8,16.2l-37.1-1.8L610.1,510.6L610.1,510.6z"/>
				</g>
				<g>
					<polygon class="st3" points="450.5,193.9 500.6,210.1 454.1,240.6 					"/>
					<path class="st9" d="M457.5,305.8c-0.4-0.1-0.7-0.5-0.7-0.9l-7.3-111.3c0-0.6,0.4-1,0.9-1.1c0.5,0,1,0.4,1.1,0.9l7.3,111.3
						c0,0.5-0.4,1-0.9,1.1C457.8,305.9,457.6,305.9,457.5,305.8L457.5,305.8z"/>
					<path class="st5" d="M441.9,309.6c0,0,1.4-14,14.8-15.6s22,13.2,22,13.2l-37,3.5"/>
				</g>
				<path class="st10" d="M609.8,117.1l75.5,455.1l-479.8,0.8c-0.2-0.6,401.3-458.8,401.3-458.8L609.8,117.1L609.8,117.1z"/>
				<g>
					<g>
						<path class="st5" d="M618.4,41.2l12,7.2c0.5,0.3,0.7,1,0.4,1.6c-0.3,0.5-1,0.7-1.6,0.4l-12-7.2c-0.5-0.3-0.7-1-0.4-1.6
							C617.1,41,617.8,40.8,618.4,41.2z"/>
						<path class="st5" d="M625.5,29.4l12,7.2c0.5,0.3,0.7,1,0.4,1.6c-0.3,0.5-1,0.7-1.6,0.4l-12-7.2c-0.5-0.3-0.7-1-0.4-1.6
							C624.2,29.3,624.9,29.1,625.5,29.4z"/>
					</g>
					<path class="st3" d="M574,22.8l13.4-22.2c0.4-0.7,1.3-0.9,2-0.5l38.1,23c0.7,0.4,0.9,1.3,0.5,2l-13.4,22.2
						c-0.4,0.7-1.3,0.9-2,0.5l-38.1-23C573.9,24.4,573.6,23.5,574,22.8z"/>
					<polygon class="st1" points="599.5,24.4 592.6,35.7 594.6,36.9 601.5,25.6 620.7,37.3 621.9,35.3 602.7,23.6 609.5,12.3 
						609.5,12.3 607.5,11.1 607.5,11.1 600.7,22.5 581.4,10.8 580.2,12.8 					"/>
					<g>
						<path class="st5" d="M673.8,61.3l-12-7.2c-0.5-0.3-0.7-1-0.4-1.6s1-0.7,1.6-0.4l12,7.2c0.5,0.3,0.7,1,0.4,1.6
							S674.3,61.7,673.8,61.3z"/>
						<path class="st5" d="M666.7,73.1l-12-7.2c-0.5-0.3-0.7-1-0.4-1.6c0.3-0.5,1-0.7,1.6-0.4l12,7.2c0.5,0.3,0.7,1,0.4,1.6
							S667.2,73.4,666.7,73.1z"/>
					</g>
					<g>
						<path class="st11" d="M633.1,72.7c-6-3.7-9.8-8.5-8.4-10.8s7.4-1.2,13.5,2.5c6,3.7,9.8,8.5,8.4,10.8
							C645.2,77.5,639.1,76.4,633.1,72.7L633.1,72.7z"/>
						<path class="st0" d="M646.5,75.2c0,0-0.1,0.1-0.1,0.1l0,0c0,0.1-0.1,0.1-0.1,0.1l0,0c0,0-0.1,0.1-0.1,0.1l0,0
							c0,0-0.1,0.1-0.1,0.1l0,0c0,0-0.1,0.1-0.1,0.1l0,0c0,0-0.1,0.1-0.1,0.1l0,0c0,0-0.1,0.1-0.1,0.1l0,0c0,0-0.1,0-0.1,0.1l0,0
							c-0.1,0-0.1,0-0.2,0.1h0c0,0-0.1,0-0.2,0.1H645c0,0-0.1,0-0.2,0.1h0c-0.1,0-0.1,0-0.2,0h0c-0.1,0-0.1,0-0.2,0h-0.1
							c-0.1,0-0.1,0-0.2,0h0c-0.1,0-0.2,0-0.2,0h-0.1c-0.1,0-0.1,0-0.2,0c0,0,0,0,0,0c-0.1,0-0.2,0-0.3,0h-0.1c-0.1,0-0.2,0-0.2,0h0
							c-0.1,0-0.2,0-0.3,0h-0.1c-0.1,0-0.2,0-0.3,0h0c-0.1,0-0.3,0-0.4-0.1h0c-0.1,0-0.3-0.1-0.4-0.1l-0.1,0c-0.1,0-0.1,0-0.2,0
							l-0.1,0c-0.1,0-0.1,0-0.2-0.1l-0.1,0c-0.1,0-0.2-0.1-0.3-0.1h0c-0.1,0-0.2-0.1-0.2-0.1l-0.1,0c-0.2,0-0.3-0.1-0.5-0.1l-0.1,0
							c-0.2-0.1-0.3-0.1-0.5-0.2l-0.1,0c-0.2-0.1-0.3-0.1-0.5-0.2l0,0c-0.2-0.1-0.3-0.1-0.5-0.2h0c-0.2-0.1-0.4-0.2-0.6-0.2h0
							c-0.2-0.1-0.4-0.2-0.6-0.2l0,0c-0.2-0.1-0.4-0.2-0.5-0.2l-0.1,0c-0.2-0.1-0.3-0.2-0.5-0.3l0,0c-0.3-0.2-0.6-0.3-0.9-0.5l0,0
							c-0.2-0.1-0.5-0.3-0.7-0.4l-0.1,0c-0.2-0.1-0.4-0.2-0.6-0.3c0,0-0.1,0-0.1-0.1c-0.2-0.1-0.3-0.2-0.5-0.3l0,0
							c-0.2-0.1-0.4-0.2-0.6-0.4l0,0c-0.2-0.1-0.4-0.2-0.5-0.4l0,0c-0.2-0.1-0.3-0.2-0.5-0.3l-0.1,0c-0.2-0.1-0.3-0.2-0.5-0.4l0,0
							c-0.2-0.1-0.3-0.2-0.5-0.4l0,0c-0.2-0.1-0.3-0.3-0.5-0.4l0,0c-0.2-0.1-0.3-0.3-0.5-0.4l0,0c-0.2-0.2-0.3-0.3-0.5-0.5l0-0.1
							c-0.1-0.1-0.1-0.1-0.2-0.2l-0.1-0.1c-0.1-0.1-0.2-0.2-0.2-0.2l0,0c-0.1-0.1-0.2-0.2-0.3-0.3l0,0c-0.1-0.1-0.2-0.2-0.3-0.3
							l0-0.1c-0.1-0.1-0.2-0.3-0.3-0.4l0,0c-0.1-0.1-0.2-0.3-0.3-0.4l-0.1-0.1c0,0,0-0.1-0.1-0.1c0,0,0-0.1-0.1-0.1
							c0,0,0-0.1-0.1-0.1c0,0,0-0.1-0.1-0.1s0-0.1-0.1-0.1s0-0.1-0.1-0.1s0-0.1-0.1-0.1c0,0,0-0.1-0.1-0.1s0-0.1-0.1-0.1
							c0,0,0-0.1-0.1-0.1s0-0.1-0.1-0.1s0-0.1,0-0.1c0,0,0-0.1-0.1-0.1s0-0.1,0-0.1c0,0,0-0.1-0.1-0.1s0-0.1,0-0.1c0,0,0-0.1,0-0.1
							c0,0,0-0.1,0-0.1c0,0,0-0.1,0-0.1c0,0,0-0.1,0-0.1c0,0,0-0.1,0-0.1l0-0.1c0,0,0-0.1,0-0.1c0,0,0-0.1,0-0.1c0,0,0-0.1,0-0.1
							l0-0.1c0,0,0-0.1,0-0.1l0-0.1c0,0,0-0.1,0-0.1l0-0.1c0,0,0-0.1,0-0.1c0,0,0-0.1,0-0.1s0,0,0-0.1c0,0,0,0,0-0.1c0,0,0,0,0-0.1
							c0,0,0,0,0-0.1c0,0,0,0,0-0.1c0,0,0,0,0-0.1c0,0,0,0,0-0.1c0,0,0,0,0-0.1c0,0,0,0,0-0.1c0,0,0,0,0-0.1c0,0,0,0,0-0.1
							c0,0,0,0,0-0.1c0,0,0,0,0-0.1c0,0,0,0,0-0.1c0,0,0,0,0-0.1s0,0,0-0.1c0,0,0,0,0-0.1s0,0,0-0.1s0,0,0-0.1s0,0,0-0.1s0,0,0-0.1
							c0,0,0,0,0-0.1c0,0,0,0,0-0.1c0,0,0,0,0-0.1c0,0,0,0,0-0.1c0,0,0,0,0,0c0,0,0,0,0-0.1c0,0,0,0,0,0c0,0,0,0,0-0.1c0,0,0,0,0,0
							c0,0,0-0.1,0.1-0.1l-9.3,15.4c0,0,0,0.1-0.1,0.1c0,0,0,0,0,0c0,0,0,0.1,0,0.1c0,0,0,0,0,0.1c0,0,0,0.1,0,0.1c0,0,0,0,0,0.1
							c0,0,0,0.1,0,0.1s0,0,0,0.1c0,0,0,0.1,0,0.1c0,0,0,0,0,0.1c0,0,0,0.1,0,0.1c0,0,0,0,0,0.1s0,0.1,0,0.1s0,0,0,0.1s0,0.1,0,0.1
							s0,0,0,0.1c0,0,0,0.1,0,0.1s0,0,0,0.1c0,0,0,0.1,0,0.1s0,0.1,0,0.1c0,0,0,0.1,0,0.1c0,0,0,0.1,0,0.1c0,0,0,0.1,0,0.1
							c0,0,0,0.1,0,0.1c0,0,0,0.1,0,0.1c0,0,0,0.1,0,0.1c0,0,0,0.1,0,0.1c0,0,0,0.1,0,0.1c0,0,0,0.1,0,0.1c0,0,0,0.1,0,0.1
							c0,0,0,0.1,0,0.1l0,0.1c0,0,0,0.1,0,0.1l0,0.1c0,0,0,0.1,0,0.1l0,0.1c0,0,0,0.1,0,0.1l0,0.1c0,0,0,0.1,0,0.1c0,0,0,0.1,0,0.1
							c0,0,0,0.1,0,0.1c0,0,0,0.1,0,0.1c0,0,0,0.1,0,0.1c0,0,0,0.1,0,0.1c0,0,0,0.1,0,0.1c0,0,0,0.1,0,0.1c0,0,0,0.1,0,0.1
							c0,0,0,0.1,0,0.1c0,0,0,0.1,0.1,0.1s0,0.1,0,0.1c0,0,0,0.1,0.1,0.1s0,0.1,0,0.1c0,0,0,0.1,0.1,0.1s0,0.1,0.1,0.1
							s0,0.1,0.1,0.1c0,0,0,0.1,0.1,0.1s0,0.1,0.1,0.1c0,0,0,0.1,0.1,0.1s0,0.1,0.1,0.1s0,0.1,0.1,0.1c0,0,0,0.1,0.1,0.1
							c0,0,0,0.1,0.1,0.1c0,0,0,0.1,0.1,0.1c0,0,0,0.1,0.1,0.1l0,0c0.1,0.1,0.2,0.3,0.3,0.4l0,0c0.1,0.1,0.2,0.3,0.3,0.4v0l0,0
							c0.1,0.1,0.2,0.2,0.3,0.3l0,0c0.1,0.1,0.2,0.2,0.3,0.3l0,0h0c0.1,0.1,0.2,0.2,0.2,0.3l0.1,0.1c0.1,0.1,0.1,0.1,0.2,0.2l0,0h0
							c0.2,0.2,0.3,0.3,0.5,0.5l0,0l0,0c0.2,0.1,0.3,0.3,0.5,0.4h0v0c0.2,0.1,0.3,0.3,0.5,0.4h0l0,0c0.2,0.1,0.3,0.2,0.5,0.4l0,0
							l0,0c0.2,0.1,0.3,0.2,0.5,0.4l0,0l0,0c0.2,0.1,0.3,0.2,0.5,0.3l0,0h0c0.2,0.1,0.4,0.3,0.5,0.4h0v0c0.2,0.1,0.4,0.2,0.6,0.4
							l0,0l0,0c0.2,0.1,0.3,0.2,0.5,0.3l0.1,0.1l0,0c0.2,0.1,0.4,0.2,0.6,0.3l0,0h0c0.2,0.2,0.5,0.3,0.7,0.4h0l0,0
							c0.3,0.2,0.6,0.3,0.9,0.5h0l0,0c0.2,0.1,0.3,0.2,0.5,0.3l0.1,0c0.2,0.1,0.4,0.2,0.5,0.2l0,0c0.2,0.1,0.4,0.2,0.6,0.2h0
							c0.2,0.1,0.4,0.2,0.6,0.2h0c0.2,0.1,0.3,0.2,0.5,0.2l0,0c0.2,0.1,0.3,0.1,0.5,0.2l0.1,0c0.2,0.1,0.3,0.1,0.5,0.2l0.1,0
							c0.2,0.1,0.3,0.1,0.5,0.1h0l0,0c0.1,0,0.2,0,0.2,0.1h0c0.1,0,0.2,0.1,0.3,0.1l0.1,0c0.1,0,0.1,0,0.2,0.1l0.1,0
							c0.1,0,0.1,0,0.2,0h0.1l0,0c0.1,0,0.3,0.1,0.4,0.1h0c0.1,0,0.3,0.1,0.4,0.1h0c0.1,0,0.2,0,0.3,0.1h0.1c0.1,0,0.2,0,0.3,0h0
							c0.1,0,0.2,0,0.2,0h0.1c0.1,0,0.2,0,0.3,0h0c0,0,0,0,0,0c0.1,0,0.1,0,0.2,0h0.1c0.1,0,0.2,0,0.2,0h0c0.1,0,0.1,0,0.2,0h0.1
							c0.1,0,0.1,0,0.2,0h0c0.1,0,0.1,0,0.2,0h0c0,0,0.1,0,0.2,0h0.1c0,0,0.1,0,0.2-0.1h0c0.1,0,0.1,0,0.2-0.1h0l0,0
							c0,0,0.1,0,0.1-0.1l0,0c0,0,0.1,0,0.1-0.1h0c0,0,0.1-0.1,0.1-0.1l0,0c0,0,0.1-0.1,0.1-0.1l0,0h0c0,0,0.1-0.1,0.1-0.1l0,0
							c0,0,0.1-0.1,0.1-0.1l0,0h0c0-0.1,0.1-0.1,0.1-0.1l0,0c0-0.1,0.1-0.1,0.1-0.1v0l0-0.1l9.3-15.4
							C646.5,75.1,646.5,75.2,646.5,75.2L646.5,75.2z"/>
					</g>
					<g>
						<path class="st7" d="M642.5,57.1c-7.6-4.6-12.5-10.5-10.9-13.1c1.6-2.6,9.1-1.1,16.7,3.5c7.6,4.6,12.5,10.5,10.9,13.1
							C657.6,63.3,650.1,61.8,642.5,57.1z"/>
						<path class="st5" d="M659.1,60.8c0,0-0.1,0.1-0.1,0.1h0c0,0.1-0.1,0.1-0.1,0.2l0,0c0,0-0.1,0.1-0.1,0.1l0,0
							c0,0-0.1,0.1-0.2,0.1l0,0c0,0-0.1,0-0.1,0.1l0,0c-0.1,0-0.1,0.1-0.2,0.1h0c-0.1,0-0.1,0.1-0.2,0.1l-0.1,0c0,0-0.1,0-0.2,0l0,0
							c-0.1,0-0.1,0-0.2,0.1h0c-0.1,0-0.1,0-0.2,0h-0.1c-0.1,0-0.1,0-0.2,0H657c-0.1,0-0.2,0-0.2,0h0c-0.1,0-0.1,0-0.2,0h-0.1
							c-0.1,0-0.2,0-0.2,0h0c-0.1,0-0.2,0-0.3,0h-0.1c-0.1,0-0.2,0-0.2,0h-0.1c-0.1,0-0.2,0-0.3,0h-0.1c-0.1,0-0.2,0-0.3,0h0
							c-0.1,0-0.3,0-0.4,0h-0.1c-0.1,0-0.3,0-0.4-0.1h-0.1c-0.2,0-0.3-0.1-0.5-0.1h-0.1c-0.2,0-0.3-0.1-0.5-0.1l-0.1,0
							c-0.1,0-0.2,0-0.2-0.1c0,0-0.1,0-0.1,0c-0.1,0-0.2,0-0.2-0.1l-0.1,0c-0.1,0-0.2-0.1-0.3-0.1l-0.1,0c-0.1,0-0.2-0.1-0.3-0.1
							l-0.1,0c-0.2-0.1-0.4-0.1-0.6-0.2l-0.1,0c-0.2-0.1-0.4-0.1-0.6-0.2l-0.1,0c-0.2-0.1-0.4-0.2-0.6-0.2l-0.1,0
							c-0.2-0.1-0.4-0.2-0.7-0.3h0c-0.2-0.1-0.5-0.2-0.7-0.3h0c-0.2-0.1-0.5-0.2-0.7-0.3l0,0c-0.2-0.1-0.5-0.2-0.7-0.3l-0.1,0
							c-0.2-0.1-0.4-0.2-0.7-0.3l-0.1,0c-0.4-0.2-0.7-0.4-1.1-0.6l0,0c-0.3-0.2-0.6-0.3-0.9-0.5l-0.1,0c-0.2-0.1-0.5-0.3-0.8-0.4
							c0,0-0.1-0.1-0.1-0.1c-0.2-0.1-0.4-0.3-0.7-0.4l0,0c-0.2-0.2-0.5-0.3-0.7-0.5l0,0c-0.2-0.2-0.5-0.3-0.7-0.5l-0.1,0
							c-0.2-0.2-0.4-0.3-0.6-0.4l-0.1,0c-0.2-0.2-0.4-0.3-0.6-0.5l-0.1,0c-0.2-0.2-0.4-0.3-0.6-0.5l0,0c-0.2-0.2-0.4-0.3-0.7-0.5
							l0,0c-0.2-0.2-0.4-0.3-0.6-0.5l0,0c-0.2-0.2-0.5-0.4-0.7-0.6l-0.1-0.1c-0.1-0.1-0.2-0.2-0.3-0.2l-0.1-0.1
							c-0.1-0.1-0.2-0.2-0.3-0.3l0,0c-0.1-0.1-0.2-0.2-0.4-0.3l0,0c-0.1-0.1-0.2-0.2-0.3-0.3l0-0.1c-0.2-0.2-0.3-0.3-0.4-0.5l0,0
							c-0.2-0.2-0.3-0.3-0.4-0.5c0,0,0-0.1-0.1-0.1c0,0-0.1-0.1-0.1-0.1c0,0-0.1-0.1-0.1-0.1c0,0-0.1-0.1-0.1-0.1c0,0,0-0.1-0.1-0.1
							c0,0-0.1-0.1-0.1-0.1c0,0,0-0.1-0.1-0.1c0,0-0.1-0.1-0.1-0.1c0,0,0-0.1-0.1-0.1c0,0-0.1-0.1-0.1-0.1c0,0,0-0.1-0.1-0.1
							c0,0,0-0.1-0.1-0.1c0,0,0-0.1-0.1-0.1c0,0,0-0.1-0.1-0.1c0,0,0-0.1-0.1-0.1c0,0,0-0.1-0.1-0.1c0,0,0-0.1-0.1-0.1
							c0,0,0-0.1-0.1-0.1c0,0,0-0.1-0.1-0.1c0,0,0-0.1-0.1-0.1c0,0,0-0.1-0.1-0.1c0,0,0-0.1-0.1-0.1c0,0,0-0.1,0-0.1
							c0,0,0-0.1-0.1-0.1c0,0,0-0.1,0-0.1c0,0,0-0.1,0-0.1c0,0,0-0.1,0-0.1c0,0,0-0.1,0-0.1c0,0,0-0.1,0-0.1c0,0,0-0.1,0-0.1
							c0,0,0-0.1,0-0.1c0,0,0-0.1,0-0.1c0,0,0-0.1,0-0.1s0-0.1,0-0.1s0-0.1,0-0.1s0-0.1,0-0.1c0,0,0-0.1,0-0.1c0,0,0-0.1,0-0.1
							c0,0,0-0.1,0-0.1s0-0.1,0-0.1c0,0,0-0.1,0-0.1c0,0,0-0.1,0-0.1c0,0,0-0.1,0-0.1c0,0,0-0.1,0-0.1c0,0,0,0,0-0.1
							c0,0,0-0.1,0-0.1s0,0,0-0.1c0,0,0-0.1,0-0.1s0,0,0-0.1c0,0,0-0.1,0-0.1s0,0,0-0.1c0,0,0-0.1,0-0.1s0,0,0-0.1c0,0,0-0.1,0-0.1
							c0,0,0,0,0-0.1c0,0,0,0,0-0.1c0,0,0,0,0-0.1c0,0,0,0,0-0.1c0,0,0,0,0-0.1c0,0,0,0,0-0.1c0,0,0,0,0-0.1c0,0,0-0.1,0-0.1
							c0,0,0,0,0,0c0,0,0-0.1,0.1-0.1L617,68.2c0,0,0,0.1-0.1,0.1c0,0,0,0,0,0c0,0,0,0.1,0,0.1c0,0,0,0,0,0.1c0,0,0,0.1,0,0.1
							c0,0,0,0,0,0.1c0,0,0,0.1,0,0.1c0,0,0,0,0,0.1c0,0,0,0.1,0,0.1c0,0,0,0.1,0,0.1c0,0,0,0.1,0,0.1c0,0,0,0.1,0,0.1
							c0,0,0,0.1,0,0.1c0,0,0,0.1,0,0.1c0,0,0,0.1,0,0.1c0,0,0,0.1,0,0.1s0,0.1,0,0.1s0,0.1,0,0.1s0,0.1,0,0.1s0,0.1,0,0.1
							s0,0.1,0,0.1c0,0,0,0.1,0,0.1c0,0,0,0.1,0,0.1c0,0,0,0.1,0,0.1c0,0,0,0.1,0,0.1c0,0,0,0.1,0,0.1c0,0,0,0.1,0,0.1
							c0,0,0,0.1,0,0.1c0,0,0,0.1,0,0.1c0,0,0,0.1,0,0.1s0,0.1,0,0.1s0,0.1,0,0.1s0,0.1,0,0.1c0,0,0,0.1,0,0.1c0,0,0,0.1,0,0.1
							c0,0,0,0.1,0,0.1c0,0,0,0.1,0,0.1c0,0,0,0.1,0,0.1c0,0,0,0.1,0,0.1c0,0,0,0.1,0,0.1c0,0,0,0.1,0.1,0.1c0,0,0,0.1,0,0.1
							c0,0,0,0.1,0.1,0.1c0,0,0,0.1,0.1,0.1c0,0,0,0.1,0.1,0.1c0,0,0,0.1,0.1,0.1c0,0,0,0.1,0.1,0.1c0,0,0,0.1,0.1,0.1
							c0,0,0,0.1,0.1,0.1c0,0,0,0.1,0.1,0.1c0,0,0,0.1,0.1,0.1c0,0,0,0.1,0.1,0.1c0,0,0,0.1,0.1,0.1c0,0,0,0.1,0.1,0.1
							c0,0,0.1,0.1,0.1,0.1c0,0,0,0.1,0.1,0.1c0,0,0.1,0.1,0.1,0.1c0,0,0,0.1,0.1,0.1c0,0,0.1,0.1,0.1,0.1c0,0,0,0.1,0.1,0.1
							c0,0,0.1,0.1,0.1,0.1c0,0,0,0.1,0.1,0.1c0,0,0.1,0.1,0.1,0.1c0,0,0,0.1,0.1,0.1l0,0c0.1,0.2,0.3,0.3,0.4,0.5l0,0
							c0.1,0.2,0.3,0.3,0.4,0.5l0,0l0,0c0.1,0.1,0.2,0.2,0.3,0.3l0,0c0.1,0.1,0.2,0.2,0.4,0.3l0,0l0,0c0.1,0.1,0.2,0.2,0.3,0.3
							l0.1,0.1c0.1,0.1,0.2,0.2,0.3,0.2l0,0.1h0c0.2,0.2,0.4,0.4,0.7,0.6l0,0l0,0c0.2,0.2,0.4,0.3,0.6,0.5l0,0h0
							c0.2,0.2,0.4,0.4,0.7,0.5h0l0,0c0.2,0.2,0.4,0.3,0.6,0.5l0,0l0,0c0.2,0.2,0.4,0.3,0.6,0.4l0,0l0,0c0.2,0.2,0.4,0.3,0.6,0.4
							l0,0l0,0c0.2,0.2,0.5,0.3,0.7,0.4h0v0c0.2,0.2,0.5,0.3,0.7,0.5l0,0l0,0c0.2,0.1,0.4,0.3,0.7,0.4l0.1,0.1l0,0
							c0.2,0.2,0.5,0.3,0.8,0.4l0,0l0,0c0.3,0.2,0.6,0.3,0.9,0.5h0l0,0c0.4,0.2,0.7,0.4,1.1,0.6h0l0,0c0.2,0.1,0.4,0.2,0.7,0.3
							l0.1,0c0.2,0.1,0.5,0.2,0.7,0.3l0,0c0.2,0.1,0.5,0.2,0.7,0.3h0c0.2,0.1,0.5,0.2,0.7,0.3h0c0.2,0.1,0.4,0.2,0.7,0.3l0.1,0
							c0.2,0.1,0.4,0.2,0.6,0.2l0.1,0c0.2,0.1,0.4,0.1,0.6,0.2l0.1,0c0.2,0.1,0.4,0.1,0.6,0.2h0l0,0c0.1,0,0.2,0.1,0.3,0.1h0
							c0.1,0.1,0.2,0.1,0.3,0.1l0.1,0c0.1,0,0.2,0,0.2,0.1l0.1,0c0.1,0,0.2,0,0.2,0.1l0.1,0h0c0.2,0,0.3,0.1,0.5,0.1h0.1
							c0.2,0.1,0.3,0.1,0.5,0.1h0.1c0.1,0,0.3,0.1,0.4,0.1h0.1c0.1,0,0.3,0,0.4,0.1h0c0.1,0,0.2,0,0.3,0h0.1c0.1,0,0.2,0,0.3,0h0.1
							c0.1,0,0.2,0,0.2,0h0.1c0.1,0,0.2,0,0.3,0h0c0.1,0,0.2,0,0.2,0h0.1c0.1,0,0.1,0,0.2,0h0c0.1,0,0.2,0,0.2,0h0.1
							c0.1,0,0.1,0,0.2,0h0.1c0.1,0,0.1,0,0.2-0.1h0c0.1,0,0.1-0.1,0.2-0.1h0l0,0c0,0,0.1,0,0.2-0.1l0.1,0c0.1,0,0.1-0.1,0.2-0.1h0
							c0.1,0,0.1-0.1,0.2-0.1l0,0c0,0,0.1-0.1,0.1-0.1l0,0h0c0-0.1,0.1-0.1,0.2-0.1l0,0c0,0,0.1-0.1,0.1-0.1l0,0v0
							c0.1-0.1,0.1-0.1,0.1-0.1h0c0-0.1,0.1-0.1,0.1-0.2l0,0c0,0,0,0,0-0.1l14.6-24.2C659.2,60.6,659.2,60.7,659.1,60.8L659.1,60.8z
							"/>
					</g>
					<path class="st12" d="M634.5,46.7c-0.6-0.4-0.8-1.2-0.4-1.8l5.3-8.8c0.4-0.6,1.2-0.8,1.8-0.4c0.6,0.4,0.8,1.2,0.4,1.8l-5.3,8.8
						C635.9,46.9,635.1,47.1,634.5,46.7z"/>
					<path class="st12" d="M655.5,59.4c-0.6-0.4-0.8-1.2-0.4-1.8l5.3-8.8c0.4-0.6,1.2-0.8,1.8-0.4c0.6,0.4,0.8,1.2,0.4,1.8l-5.3,8.8
						C656.9,59.5,656.1,59.7,655.5,59.4z"/>
					<path class="st12" d="M643.7,54.8c-0.6-0.4-0.8-1.2-0.4-1.8l5.3-8.8c0.4-0.6,1.2-0.8,1.8-0.4c0.6,0.4,0.8,1.2,0.4,1.8l-5.3,8.8
						C645.1,55,644.3,55.2,643.7,54.8z"/>
					<g>
						<path class="st7" d="M656.3,34.3c-7.6-4.6-12.5-10.5-10.9-13.1c1.6-2.6,9.1-1.1,16.7,3.5c7.6,4.6,12.5,10.5,10.9,13.1
							C671.4,40.5,663.9,38.9,656.3,34.3z"/>
						<path class="st5" d="M673,37.9c0,0-0.1,0.1-0.1,0.1h0c0,0.1-0.1,0.1-0.1,0.2l0,0c0,0-0.1,0.1-0.1,0.1l0,0c0,0-0.1,0.1-0.2,0.1
							l0,0c0,0-0.1,0-0.1,0.1l0,0c-0.1,0-0.1,0.1-0.2,0.1h0c-0.1,0-0.1,0.1-0.2,0.1l-0.1,0c0,0-0.1,0-0.2,0l0,0
							c-0.1,0-0.1,0-0.2,0.1h0c-0.1,0-0.1,0-0.2,0H671c-0.1,0-0.1,0-0.2,0h-0.1c-0.1,0-0.2,0-0.2,0h0c-0.1,0-0.1,0-0.2,0h-0.1
							c-0.1,0-0.2,0-0.2,0h0c-0.1,0-0.2,0-0.3,0h-0.1c-0.1,0-0.2,0-0.2,0h-0.1c-0.1,0-0.2,0-0.3,0h-0.1c-0.1,0-0.2,0-0.3,0h0
							c-0.1,0-0.3,0-0.4,0h-0.1c-0.1,0-0.3,0-0.4-0.1h-0.1c-0.2,0-0.3-0.1-0.5-0.1h-0.1c-0.2,0-0.3-0.1-0.5-0.1l-0.1,0
							c-0.1,0-0.2,0-0.2-0.1c0,0-0.1,0-0.1,0c-0.1,0-0.2,0-0.2-0.1l-0.1,0c-0.1,0-0.2-0.1-0.3-0.1l-0.1,0c-0.1,0-0.2-0.1-0.3-0.1
							l-0.1,0c-0.2-0.1-0.4-0.1-0.6-0.2l-0.1,0c-0.2-0.1-0.4-0.1-0.6-0.2l-0.1,0c-0.2-0.1-0.4-0.2-0.6-0.2l-0.1,0
							c-0.2-0.1-0.4-0.2-0.7-0.3h0c-0.2-0.1-0.5-0.2-0.7-0.3h0c-0.2-0.1-0.5-0.2-0.7-0.3l0,0c-0.2-0.1-0.5-0.2-0.7-0.3l-0.1,0
							c-0.2-0.1-0.4-0.2-0.7-0.3l-0.1,0c-0.4-0.2-0.7-0.4-1.1-0.6l0,0c-0.3-0.2-0.6-0.3-0.9-0.5l-0.1,0c-0.2-0.1-0.5-0.3-0.8-0.4
							c0,0-0.1-0.1-0.1-0.1c-0.2-0.1-0.4-0.3-0.7-0.4l0,0c-0.2-0.2-0.5-0.3-0.7-0.5l0,0c-0.2-0.2-0.5-0.3-0.7-0.5l-0.1,0
							c-0.2-0.2-0.4-0.3-0.6-0.4l-0.1,0c-0.2-0.2-0.4-0.3-0.6-0.5l-0.1,0c-0.2-0.2-0.4-0.3-0.6-0.5l0,0c-0.2-0.2-0.4-0.4-0.7-0.5
							l0,0c-0.2-0.2-0.4-0.4-0.6-0.5l0,0c-0.2-0.2-0.5-0.4-0.7-0.6l-0.1-0.1c-0.1-0.1-0.2-0.2-0.3-0.2l-0.1-0.1
							c-0.1-0.1-0.2-0.2-0.3-0.3l0,0c-0.1-0.1-0.2-0.2-0.4-0.4l0,0c-0.1-0.1-0.2-0.2-0.3-0.4l0-0.1c-0.2-0.2-0.3-0.3-0.4-0.5l0,0
							c-0.2-0.2-0.3-0.3-0.4-0.5c0,0,0-0.1-0.1-0.1c0,0-0.1-0.1-0.1-0.1c0,0-0.1-0.1-0.1-0.1c0,0-0.1-0.1-0.1-0.1c0,0,0-0.1-0.1-0.1
							c0,0-0.1-0.1-0.1-0.1c0,0,0-0.1-0.1-0.1c0,0-0.1-0.1-0.1-0.1c0,0,0-0.1-0.1-0.1c0,0-0.1-0.1-0.1-0.1c0,0,0-0.1-0.1-0.1
							c0,0,0-0.1-0.1-0.1c0,0,0-0.1-0.1-0.1c0,0,0-0.1-0.1-0.1c0,0,0-0.1-0.1-0.1c0,0,0-0.1-0.1-0.1c0,0,0-0.1-0.1-0.1
							c0,0,0-0.1-0.1-0.1c0,0,0-0.1-0.1-0.1c0,0,0-0.1-0.1-0.1c0,0,0-0.1-0.1-0.1c0,0,0-0.1-0.1-0.1c0,0,0-0.1,0-0.1
							c0,0,0-0.1-0.1-0.1c0,0,0-0.1,0-0.1c0,0,0-0.1,0-0.1c0,0,0-0.1,0-0.1c0,0,0-0.1,0-0.1c0,0,0-0.1,0-0.1c0,0,0-0.1,0-0.1
							c0,0,0-0.1,0-0.1c0,0,0-0.1,0-0.1c0,0,0-0.1,0-0.1s0-0.1,0-0.1s0-0.1,0-0.1s0-0.1,0-0.1c0,0,0-0.1,0-0.1c0,0,0-0.1,0-0.1
							c0,0,0-0.1,0-0.1s0-0.1,0-0.1c0,0,0-0.1,0-0.1c0,0,0-0.1,0-0.1c0,0,0-0.1,0-0.1c0,0,0-0.1,0-0.1c0,0,0,0,0-0.1s0-0.1,0-0.1
							s0,0,0-0.1s0-0.1,0-0.1s0,0,0-0.1s0-0.1,0-0.1s0,0,0-0.1c0,0,0-0.1,0-0.1s0,0,0-0.1c0,0,0-0.1,0-0.1c0,0,0,0,0-0.1
							c0,0,0,0,0-0.1c0,0,0,0,0-0.1c0,0,0,0,0-0.1c0,0,0,0,0-0.1c0,0,0,0,0-0.1c0,0,0,0,0-0.1c0,0,0-0.1,0-0.1c0,0,0,0,0,0
							c0,0,0-0.1,0.1-0.1l-10.7,17.7c0,0,0,0.1-0.1,0.1c0,0,0,0,0,0c0,0,0,0.1,0,0.1c0,0,0,0,0,0.1c0,0,0,0,0,0.1c0,0,0,0,0,0.1
							c0,0,0,0,0,0.1c0,0,0,0,0,0.1c0,0,0,0,0,0.1c0,0,0,0,0,0.1c0,0,0,0,0,0.1c0,0,0,0,0,0.1c0,0,0,0.1,0,0.1s0,0,0,0.1
							c0,0,0,0.1,0,0.1c0,0,0,0,0,0.1c0,0,0,0.1,0,0.1s0,0,0,0.1c0,0,0,0.1,0,0.1s0,0,0,0.1c0,0,0,0.1,0,0.1c0,0,0,0.1,0,0.1
							c0,0,0,0.1,0,0.1c0,0,0,0.1,0,0.1c0,0,0,0.1,0,0.1c0,0,0,0.1,0,0.1c0,0,0,0.1,0,0.1c0,0,0,0.1,0,0.1c0,0,0,0.1,0,0.1
							c0,0,0,0.1,0,0.1s0,0.1,0,0.1s0,0.1,0,0.1s0,0.1,0,0.1c0,0,0,0.1,0,0.1c0,0,0,0.1,0,0.1c0,0,0,0.1,0,0.1c0,0,0,0.1,0,0.1
							c0,0,0,0.1,0,0.1c0,0,0,0.1,0,0.1c0,0,0,0.1,0,0.1c0,0,0,0.1,0.1,0.1c0,0,0,0.1,0,0.1c0,0,0,0.1,0.1,0.1c0,0,0,0.1,0.1,0.1
							c0,0,0,0.1,0.1,0.1c0,0,0,0.1,0.1,0.1c0,0,0,0.1,0.1,0.1c0,0,0,0.1,0.1,0.1c0,0,0,0.1,0.1,0.1c0,0,0,0.1,0.1,0.1
							c0,0,0,0.1,0.1,0.1c0,0,0,0.1,0.1,0.1c0,0,0,0.1,0.1,0.1c0,0,0,0.1,0.1,0.1c0,0,0.1,0.1,0.1,0.1c0,0,0,0.1,0.1,0.1
							c0,0,0.1,0.1,0.1,0.1c0,0,0,0.1,0.1,0.1c0,0,0.1,0.1,0.1,0.1c0,0,0,0.1,0.1,0.1c0,0,0.1,0.1,0.1,0.1c0,0,0,0.1,0.1,0.1
							c0,0,0.1,0.1,0.1,0.1c0,0,0,0.1,0.1,0.1l0,0c0.1,0.2,0.3,0.3,0.4,0.5l0,0c0.1,0.2,0.3,0.3,0.4,0.5l0,0l0,0
							c0.1,0.1,0.2,0.2,0.3,0.3l0,0c0.1,0.1,0.2,0.2,0.4,0.3l0,0l0,0c0.1,0.1,0.2,0.2,0.3,0.3L639,47c0.1,0.1,0.2,0.2,0.3,0.2l0,0h0
							c0.2,0.2,0.4,0.4,0.7,0.6l0,0l0,0c0.2,0.2,0.4,0.3,0.6,0.5l0,0h0c0.2,0.2,0.4,0.4,0.7,0.5h0l0,0c0.2,0.2,0.4,0.3,0.6,0.5l0,0
							l0,0c0.2,0.2,0.4,0.3,0.6,0.5l0,0l0,0c0.2,0.2,0.4,0.3,0.6,0.4l0,0l0,0c0.2,0.2,0.5,0.3,0.7,0.5h0v0c0.2,0.2,0.5,0.3,0.7,0.5
							l0,0l0,0c0.2,0.1,0.4,0.3,0.7,0.4l0.1,0.1l0,0c0.2,0.2,0.5,0.3,0.8,0.4l0,0l0,0c0.3,0.2,0.6,0.3,0.9,0.5h0l0,0
							c0.4,0.2,0.7,0.4,1.1,0.6h0l0,0c0.2,0.1,0.4,0.2,0.7,0.3l0.1,0c0.2,0.1,0.5,0.2,0.7,0.3l0,0c0.2,0.1,0.5,0.2,0.7,0.3h0
							c0.2,0.1,0.5,0.2,0.7,0.3h0c0.2,0.1,0.4,0.2,0.7,0.3l0.1,0c0.2,0.1,0.4,0.2,0.6,0.2l0.1,0c0.2,0.1,0.4,0.1,0.6,0.2l0.1,0
							c0.2,0.1,0.4,0.1,0.6,0.2h0l0,0c0.1,0,0.2,0.1,0.3,0.1h0c0.1,0,0.2,0.1,0.3,0.1l0.1,0c0.1,0,0.2,0,0.2,0.1l0.1,0
							c0.1,0,0.2,0,0.2,0.1l0.1,0h0c0.2,0,0.3,0.1,0.5,0.1h0.1c0.2,0,0.3,0.1,0.5,0.1h0.1c0.1,0,0.3,0,0.4,0.1h0.1
							c0.1,0,0.3,0,0.4,0.1h0c0.1,0,0.2,0,0.3,0h0.1c0.1,0,0.2,0,0.3,0h0.1c0.1,0,0.2,0,0.2,0h0.1c0.1,0,0.2,0,0.3,0h0
							c0.1,0,0.2,0,0.2,0h0.1c0.1,0,0.1,0,0.2,0h0c0.1,0,0.2,0,0.2,0h0.1c0.1,0,0.1,0,0.2,0h0.1c0.1,0,0.1,0,0.2-0.1h0
							c0.1,0,0.1,0,0.2-0.1h0l0,0c0,0,0.1,0,0.2,0l0.1,0c0.1,0,0.1,0,0.2-0.1h0c0.1,0,0.1-0.1,0.2-0.1l0,0c0,0,0.1,0,0.1-0.1l0,0h0
							c0,0,0.1-0.1,0.2-0.1l0,0c0,0,0.1-0.1,0.1-0.1l0,0v0c0.1,0,0.1-0.1,0.1-0.1h0c0-0.1,0.1-0.1,0.1-0.2l0,0c0,0,0,0,0,0L673,37.8
							C673,37.8,673,37.8,673,37.9L673,37.9z"/>
					</g>
					<path class="st3" d="M664.1,77.3l13.4-22.2c0.4-0.7,1.3-0.9,2-0.5l38.1,23c0.7,0.4,0.9,1.3,0.5,2l-13.4,22.2
						c-0.4,0.7-1.3,0.9-2,0.5l-38.1-23C663.9,78.8,663.7,77.9,664.1,77.3z"/>
					
						<ellipse transform="matrix(0.5174 -0.8557 0.8557 0.5174 215.7528 575.7537)" class="st5" cx="618.4" cy="96.6" rx="8.6" ry="35.4"/>
					<path class="st3" d="M606.5,116.6c-0.2-0.1-0.4-0.4-0.5-0.7c-0.2-0.6,0.2-1.3,0.8-1.4l36-11.1c0.6-0.2,1.3,0.2,1.4,0.8
						c0.2,0.6-0.2,1.3-0.8,1.4l-36,11.1C607.1,116.8,606.8,116.8,606.5,116.6L606.5,116.6z"/>
					<path class="st3" d="M606.6,116.6c-0.3-0.2-0.5-0.4-0.5-0.8l-6.9-37.1c-0.1-0.6,0.3-1.2,0.9-1.3c0.6-0.1,1.2,0.3,1.3,0.9
						l6.9,37.1c0.1,0.6-0.3,1.2-0.9,1.3C607.1,116.8,606.8,116.8,606.6,116.6z"/>
					<path class="st3" d="M606.6,116.6c-0.5-0.3-0.7-1-0.4-1.6L622,88.8c0.3-0.6,1-0.7,1.6-0.4c0.5,0.3,0.7,1,0.4,1.6l-15.9,26.3
						C607.8,116.8,607.1,116.9,606.6,116.6z"/>
					
						<ellipse transform="matrix(0.5174 -0.8557 0.8557 0.5174 194.0707 575.2915)" class="st5" cx="607.1" cy="115.6" rx="1.8" ry="4.1"/>
					<path class="st7" d="M622.9,89.2c16.7,10.1,28.3,21.6,25.8,25.7c4.1-6.8-5.3-21.9-22-32c-16.7-10.1-34.4-11.5-38.6-4.6
						C590.6,74.2,606.1,79.1,622.9,89.2z"/>
					<polygon class="st1" points="692.7,78.1 699.5,66.8 697.5,65.6 690.7,76.9 671.4,65.2 670.2,67.2 689.5,78.9 682.7,90.2 
						682.7,90.2 684.6,91.4 684.6,91.4 691.5,80.1 710.8,91.7 712,89.8 					"/>
				</g>
				<g>
					<path class="st7" d="M57.1,505.5l30.1,35.1v26.3H24.4v-27.4C24.4,539.5,57.1,505.7,57.1,505.5L57.1,505.5z"/>
					<polygon class="st13" points="57.5,507.8 24.4,539.5 9.7,539.5 50,500.7 					"/>
					<polyline class="st3" points="110.2,540.7 87.5,540.7 49.9,500.6 157.9,500.6 195.4,540.7 110.2,540.7 					"/>
					<rect x="48.8" y="548.3" class="st14" width="10.7" height="18.2"/>
					<rect x="103.4" y="549.3" class="st7" width="9.4" height="7.8"/>
					<rect x="126.8" y="549.3" class="st7" width="9.4" height="7.8"/>
					<rect x="150.2" y="549.3" class="st7" width="9.4" height="7.8"/>
				</g>
				<g>
					<polygon class="st0" points="290.5,377.9 294,403.4 287.1,403.4 					"/>
					<path class="st5" d="M285.6,403c0-2.7,2.2-5,5-5s5,2.2,5,5l-0.1,10h-9.9L285.6,403L285.6,403z"/>
					<path class="st2" d="M279.4,422c0-6.2,5-11.2,11.2-11.2s11.2,5,11.2,11.2l-0.2,22.7h-22.4L279.4,422L279.4,422z"/>
					<rect x="285.1" y="410.8" class="st15" width="10.8" height="2.4"/>
					<rect x="279.2" y="430.8" class="st7" width="22.6" height="33.9"/>
					<rect x="250.8" y="488.2" class="st7" width="79.4" height="82.1"/>
					<polygon class="st3" points="318.3,478.6 318.3,464.9 305.9,464.9 305.9,451.3 275.5,451.3 275.5,464.9 262.4,464.9 
						262.4,478.6 256.5,478.6 256.5,495.8 324.6,495.8 324.6,478.6 					"/>
					<rect x="242.4" y="495.8" class="st2" width="96.2" height="6.3"/>
					<path class="st2" d="M282.8,470.1c0-4.3,7.7-7.7,7.7-7.7s7.7,3.5,7.7,7.7v25.7h-15.4V470.1z"/>
					<circle class="st2" cx="290.5" cy="537.5" r="19.9"/>
					<rect x="278.3" y="428.1" class="st3" width="24.5" height="5.4"/>
					<rect x="281.7" y="409.3" class="st7" width="17.7" height="5.4"/>
				</g>
				<g>
					<g>
						<g>
							<path class="st16" d="M164.9,488.9c0,0,1.3,23.7,27.6,31.6L164.9,488.9L164.9,488.9z"/>
							<path class="st13" d="M164.9,489c0,0,26.6,8.3,27.6,31.6L164.9,489z"/>
						</g>
						<g>
							<path class="st16" d="M165.4,518.4c0,0,1.3,23.7,27.6,31.6L165.4,518.4z"/>
							<path class="st13" d="M165.5,518.5c0,0,26.6,8.3,27.6,31.6L165.5,518.5z"/>
						</g>
						<g>
							<path class="st16" d="M218.9,487.9c0,0-0.4,23.7-26.4,32.6L218.9,487.9z"/>
							<path class="st13" d="M218.9,487.9c0,0-26.2,9.3-26.4,32.6L218.9,487.9z"/>
						</g>
						<g>
							<path class="st16" d="M219.5,517.4c0,0-0.4,23.7-26.4,32.6L219.5,517.4z"/>
							<path class="st13" d="M219.5,517.4c0,0-26.2,9.3-26.4,32.6L219.5,517.4z"/>
						</g>
					</g>
					<rect x="189.9" y="491.5" class="st3" width="4.4" height="79"/>
				</g>
				<g>
					<path class="st16" d="M190.7,441.2c0,0-21.9,28.9,1.1,56.4L190.7,441.2z"/>
					<path class="st13" d="M190.7,441.3c0,0,23,28.1,1.1,56.4L190.7,441.3L190.7,441.3z"/>
				</g>
			</g>
			<g>
				<g>
					<path class="st2" d="M594.8,311.2c-6.4,5.6-15.7,8.6-23.8,10.7c-16.3,4.3-65.9,24.7-67.4,25.6c-2.7,1.6-1.2,12.4-0.6,12.8
						c0.7,0.6,114-18.2,114-18.2s21.8-42.2,21-44.9c-0.9-3.1-4.2-1.2-6.4-0.8c-3.2,0.6-6.2,1.5-9.4,2c-3.9,0.5-7.6,1.6-11.4,2.4
						c-1.8,0.4-3.7,1.3-5.5,1.5c-2.1,0.3-4.5,0.5-5.8,2.4C598,307,596.9,309.4,594.8,311.2L594.8,311.2z"/>
					<g>
						<g>
							<path class="st6" d="M586.7,292.1c4.4,0.2,8-1,12.4-1.3c4.2-0.3,8.3-1.5,12.6-1.8c8.5-0.5,16-5.6,24.2-7.5
								c6.5-1.6,13.1-3,19.6-4.4c3.2-0.7,6.4-0.9,9.6-1.5c1.4-0.3,78.5-12,79.9-11.5c0.1-2.2,0.3-15.2,0-28.1
								c-1.6,0.2-156.1,49-156.1,49l-45.3-9.6l-16.6-9c0,0-8.2,4.4-10.2,5.2c-1.7-1.7-5.2-2.9-7.5-3.5c-2.7,3-5.8,6-8.4,9.2
								c-1.9,2.3-3.9,6.5-6.1,8c4.9-0.4,9.6,0.2,14.5,0.6c5.6,0.4,11.1-0.1,16.7,0c6.2,0,30.6,3.9,36.6,4.7
								C570.1,291.7,579.1,291.9,586.7,292.1L586.7,292.1z"/>
							<path class="st6" d="M541.9,328.9c-1.9,1.1-13.8,4.4-13.8,4.4l-14.5-13.9l8.3-15.7l14.6,1.7c0,0-5.2,11.9-6.3,14.6
								L541.9,328.9L541.9,328.9z"/>
							<path class="st6" d="M557.5,318.7C551.6,321,503,345,503,345s1,6.2,1,7c-0.1,1.8,0.3,3.5,0.9,5.1c2.4-1.9,5.9-3.3,8.7-4.6
								c3.6-1.7,7.3-3.3,11.1-4.6c11.2-4,22.8-6.7,34.5-9.2c7.6-1.6,14.2-4.6,20.8-8.5c3.2-1.8,5-3.8,7.4-6.5"/>
						</g>
						<path class="st6" d="M489.8,307.6c1.6,1.7,4,9.5,4,9.5s18.4,22.1,19.1,23.1c1.4-1,3.6-2.8,3.7-4.2c0.5-8.6-6.7-11.1-6.7-11.1
							l-1.9-7.5l10.6-10.9l-21.1-6.9L489.8,307.6L489.8,307.6z"/>
						<path class="st2" d="M509.8,267.6c0,0,37,13.8,39.5,14.8c-4.8-1.5-44.6-9.3-44.6-9.3L509.8,267.6z"/>
						<path class="st2" d="M589.3,327.2c5.1,0.5,10.3,1.5,15.5,1.7c5.3,0.2,140.2,4.4,140.2,4.4v-87.5c-2,0.9-154,45.3-156.3,45.3
							c-2.7,0-95.2-12.5-97.4-12.7c-4-0.4-8,1.7-11.4,3.7c-2,1.2-56.2,27.6-57.3,28.7c0.7,0.6,3.9,6.1,6,6.8c2.8,0.8,9-2,16.1-4.5
							c15.9-5.6,39.4-12.2,41.8-12.4c2.8-0.2,68.8,18.2,79.5,21.1C573.7,323.8,581.3,326.4,589.3,327.2L589.3,327.2z"/>
					</g>
				</g>
				<g>
					<path class="st3" d="M515.8,360c1.5-8.6-1.5-17.7-8.5-23.2c-12-9.4-30.2-4.5-36.2,9.3c-1.3,3-2,6.2-1.9,9.5
						c0,2.2,0.3,4.3,0.9,6.4c-0.1,0-0.2,0-0.2,0l0.3,0.5c1.3,4.2,1.7,6.2,6.1,12l15.5,21.6l15.8-18.7
						C511.7,372.5,514.8,366.3,515.8,360L515.8,360z"/>
					<path class="st6" d="M508,355.5c0,8.1-6.5,14.7-14.7,14.8c-8.1,0-14.7-6.5-14.8-14.7c0-8.1,6.5-14.7,14.7-14.8
						C501.4,340.9,508,347.4,508,355.5z"/>
				</g>
				<path class="st2" d="M506.9,299.4l-23.1,34.3c0,0,3.8,9.1-4.9,16.1c-1.4,1.1-5.1,0.5-7.3,0.1c0.4-1.5,5.7-38.5,5.7-38.5
					s4.5-9.4,5.7-12.1L506.9,299.4L506.9,299.4z"/>
			</g>
			<g>
				<path class="st7" d="M111.8,436.7c5-13.7,2.9-29.4-7-40.5c-16.8-18.9-48.1-16.4-62,4.4c-3,4.5-5.1,9.6-6,14.9
					c-0.7,3.6-0.7,7.2-0.4,10.7c-0.2,0-0.3-0.1-0.3-0.1l0.3,0.9c0.8,7.3,1,10.7,6.3,21.5l19,40c0,0,31.3-25.9,31.3-25.9
					C101.2,455.9,108.1,446.7,111.8,436.7L111.8,436.7z"/>
				<path class="st2" d="M100.3,427.1c-2.4,13.3-15.1,22.1-28.4,19.8c-13.3-2.4-22.1-15.1-19.8-28.4c2.4-13.3,15.1-22.1,28.4-19.8
					C93.8,401.1,102.7,413.8,100.3,427.1z"/>
			</g>
			<g>
				<path class="st7" d="M202.3,298.2c0.1-11.4-5.6-22.3-15.7-27.8c-17.2-9.5-39.5,0.6-44.3,19.5c-1,4.1-1.2,8.4-0.5,12.5
					c0.5,2.8,1.3,5.5,2.5,7.9c-0.2,0-0.3,0-0.2,0l0.5,0.5c2.5,5.1,3.5,7.6,10.3,14.1l24.4,24.4c0,0,16.2-27.1,16.2-27.1
					C199.6,315,202.3,306.5,202.3,298.2L202.3,298.2z"/>
				<path class="st2" d="M191.3,294.1c1.7,10.4-5.3,20.2-15.6,21.9c-10.4,1.7-20.2-5.3-21.9-15.6c-1.7-10.4,5.3-20.2,15.6-21.9
					C179.8,276.8,189.6,283.8,191.3,294.1z"/>
			</g>
			<g>
				<path class="st7" d="M307.6,242.5c2.9-6.5,2.4-14.1-2-19.9c-7.5-9.8-22.7-9.7-30.2,0c-1.6,2.1-2.8,4.5-3.5,7
					c-0.4,1.7-0.6,3.5-0.6,5.2c-0.1,0-0.1-0.1-0.1-0.1l0.1,0.4c0.1,3.6,0.1,5.2,2.3,10.7l7.8,20.1l16.1-11.4
					C301.8,251.5,305.5,247.3,307.6,242.5L307.6,242.5z"/>
				<path class="st2" d="M302.4,237.4c-1.6,6.4-8.1,10.2-14.5,8.6c-6.4-1.6-10.2-8.1-8.6-14.5c1.6-6.4,8.1-10.2,14.5-8.6
					C300.1,224.6,304,231.1,302.4,237.4z"/>
			</g>
		</g>
	</g>
</g>
</svg>
