<?xml version="1.0" encoding="UTF-8"?><svg xmlns="http://www.w3.org/2000/svg" viewBox="0 0 745.11 573.22"><defs><style>.d{fill:#f4cd43;}.e{fill:#03aed7;}.f{fill:#00aed7;}.g{fill:#038c71;}.h{fill:#f5ce44;}.i{fill:#f4f5d2;}.j{fill:#f1685a;}.k{fill:#d83c2b;}.l{fill:#07aa7d;}.m{fill:#0e243f;}.n{fill:#0e233f;}.o{fill:#1a2e35;}.p{fill:#5b578a;}.q{fill:#58304d;}.r{opacity:.34;}.s{opacity:.41;}.t{fill:#a9d8ff;opacity:.42;}</style></defs><g id="a"/><g id="b"><g id="c"><g><g><path class="l" d="M371.49,297.43v152.23H74.57v-92.88c0-9.92,.02-19.84,0-29.74v-29.61c0-1.51,.03-3.03,.08-4.52,0-.26,.02-.5,.02-.75,.18-5.27,.66-10.47,1.38-15.59,.03-.26,.06-.53,.12-.79,.4-2.77,.87-5.5,1.42-8.21,.23-1.13,.47-2.28,.75-3.42,.18-.79,.37-1.59,.55-2.37,0-.03,.02-.06,.03-.09,.6-2.4,1.25-4.75,1.96-7.11,.08-.26,.15-.53,.24-.79,.67-2.22,1.41-4.42,2.19-6.59,.58-1.65,1.21-3.29,1.86-4.91,.67-1.67,1.36-3.33,2.09-4.97,.11-.26,.23-.5,.34-.75,.6-1.35,1.22-2.67,1.86-3.99,.12-.26,.26-.55,.41-.81,.86-1.79,1.77-3.55,2.72-5.27,.03-.05,.05-.09,.08-.14,.23-.46,.5-.9,.75-1.35,1.35-2.41,2.77-4.77,4.23-7.11,1.57-2.48,3.26-4.92,4.98-7.31,.06-.11,.14-.23,.23-.34,.11-.17,.24-.34,.37-.49,.06-.08,.12-.17,.18-.24,.64-.9,1.31-1.77,1.99-2.66v-.02l.03-.03,.83-1.04v-.02c.99-1.27,2.02-2.52,3.06-3.76,1.38-1.65,2.8-3.27,4.26-4.86,.24-.29,.5-.57,.78-.84,.34-.35,.66-.72,1.01-1.07,2.16-2.29,4.42-4.51,6.73-6.65,.27-.28,.58-.53,.87-.81,1.45-1.33,2.92-2.6,4.43-3.87,.08-.08,.15-.14,.23-.2,.2-.17,.4-.34,.61-.5,2.03-1.7,4.11-3.33,6.25-4.92,.24-.2,.52-.41,.78-.58l.83-.6c.26-.2,.54-.4,.81-.58,3.78-2.71,7.66-5.24,11.68-7.57h.02c1.07-.63,2.12-1.22,3.23-1.8,.32-.2,.67-.38,1.01-.57,.5-.28,1.01-.55,1.53-.81,.34-.18,.67-.37,1.01-.52,.26-.14,.52-.28,.79-.4,2.16-1.1,4.36-2.14,6.57-3.13l1.28-.55c.57-.24,1.13-.49,1.71-.72,.26-.12,.52-.23,.79-.34,.96-.41,1.94-.79,2.92-1.18,.55-.21,1.12-.43,1.67-.63,1.71-.64,3.42-1.25,5.17-1.83,.28-.09,.52-.18,.79-.24,5.73-1.88,11.63-3.41,17.67-4.57,.26-.06,.52-.11,.78-.15,.55-.11,1.12-.21,1.67-.31,.24-.05,.52-.09,.78-.14,6.57-1.12,13.28-1.8,20.11-2.02,.26-.02,.52-.03,.78-.03,1.39-.05,2.78-.06,4.17-.06h.23c.26,0,.52,0,.76,.02,5.07,.02,10.06,.31,14.96,.84,.26,.02,.53,.05,.78,.08,3.91,.44,7.78,1.02,11.59,1.77,.24,.05,.5,.09,.75,.15,2.61,.52,5.21,1.1,7.78,1.76,.28,.06,.54,.12,.79,.2,6.28,1.64,12.41,3.68,18.33,6.11,.24,.09,.47,.18,.72,.31,.35,.14,.7,.28,1.05,.43,.28,.11,.52,.21,.79,.34,1.62,.67,3.21,1.41,4.8,2.16,1.76,.84,3.52,1.7,5.23,2.6,.05,.02,.08,.03,.11,.06,.5,.28,1.01,.52,1.51,.81,1.05,.55,2.11,1.13,3.15,1.73,.52,.29,1.02,.6,1.53,.9,.17,.09,.34,.18,.5,.29,.61,.35,1.21,.72,1.8,1.07,.49,.31,.99,.6,1.48,.93,.27,.15,.53,.32,.79,.49,1.24,.79,2.46,1.59,3.67,2.41,.12,.09,.24,.17,.37,.26,.12,.08,.23,.15,.35,.23,.47,.32,.95,.64,1.41,.96,.95,.67,1.9,1.35,2.83,2.05,.87,.63,1.71,1.27,2.55,1.93,1.44,1.09,2.83,2.22,4.22,3.38,.79,.66,1.59,1.33,2.35,2,.79,.7,1.57,1.39,2.37,2.09,.17,.14,.35,.31,.52,.46,.08,.08,.17,.15,.26,.24,.21,.18,.4,.37,.61,.57,.69,.63,1.35,1.25,2.02,1.91,.69,.64,1.35,1.3,2,1.96,.34,.34,.66,.67,.98,1.01,.38,.37,.73,.72,1.09,1.1,.14,.14,.29,.29,.43,.44,.72,.75,1.44,1.51,2.11,2.28,.24,.24,.47,.5,.72,.76,.02,.02,.03,.05,.05,.06,.35,.4,.7,.79,1.04,1.19,.03,.03,.08,.08,.11,.12,.08,.09,.15,.18,.24,.28,.03,.03,.08,.08,.11,.12,.2,.23,.41,.46,.61,.7,1.38,1.56,2.71,3.18,3.99,4.81,.57,.7,1.13,1.42,1.67,2.16,.55,.7,1.09,1.41,1.6,2.14,.05,.05,.08,.09,.12,.14,.2,.26,.4,.55,.6,.83,.02,.02,.03,.03,.03,.05,.26,.35,.54,.72,.78,1.1,.35,.49,.67,.98,1.02,1.47,.72,1.01,1.42,2.05,2.09,3.1,.43,.67,.86,1.33,1.27,1.99,.17,.26,.32,.5,.47,.78,.46,.72,.9,1.44,1.35,2.17,.15,.24,.32,.5,.46,.76,.4,.67,.78,1.33,1.16,2,.14,.24,.29,.49,.41,.72,.35,.61,.67,1.22,1.01,1.83,.43,.76,.83,1.54,1.24,2.32,.14,.24,.26,.5,.38,.75,.14,.24,.26,.47,.38,.72,.02,.03,.03,.05,.03,.08,.23,.43,.43,.89,.66,1.33,.14,.26,.28,.55,.41,.81,.34,.73,.7,1.47,1.04,2.22v.02c.06,.11,.12,.23,.17,.34,.02,.05,.03,.08,.06,.12v.02c.21,.47,.44,.93,.66,1.41v.02c.15,.34,.31,.67,.44,1.01,1.15,2.6,2.22,5.24,3.21,7.92,.31,.79,.58,1.56,.86,2.35,.06,.18,.12,.35,.18,.55,.31,.83,.58,1.67,.86,2.51,.17,.53,.35,1.09,.5,1.62,.12,.37,.24,.73,.37,1.12,.09,.26,.17,.53,.23,.79,.26,.86,.52,1.73,.76,2.58,.14,.49,.28,.99,.38,1.48,.02,.06,.05,.14,.06,.2,.08,.28,.15,.53,.21,.79,.03,.05,.03,.09,.05,.14,.2,.75,.4,1.48,.57,2.23,.08,.28,.14,.52,.18,.79,.17,.61,.31,1.24,.44,1.86,.43,1.88,.83,3.79,1.16,5.7,.15,.78,.29,1.56,.41,2.35,.05,.21,.09,.46,.11,.69,.14,.76,.24,1.5,.35,2.25,0,.05,.02,.09,.02,.12,.06,.26,.09,.53,.12,.79,.11,.72,.21,1.44,.29,2.16,.03,.28,.08,.52,.09,.79,.11,.7,.18,1.42,.24,2.12,0,.02,.03,.03,0,.06,.08,.55,.12,1.09,.17,1.64,.14,1.39,.24,2.78,.34,4.19,.03,.26,.05,.52,.06,.78,.11,1.82,.18,3.65,.23,5.5v.11c.03,1.18,.05,2.34,.05,3.52Z"/><g><path class="i" d="M371.48,297.46v152.22H74.58v-152.22c0-1.72,.03-3.42,.09-5.12,0-.28,.02-.54,.03-.78,.2-5.07,.66-10.06,1.35-14.96,.03-.28,.06-.55,.12-.81,.61-4.34,1.44-8.61,2.44-12.81,.06-.26,.14-.52,.18-.78,.64-2.56,1.33-5.09,2.08-7.59,.08-.26,.15-.55,.23-.81,.67-2.21,1.41-4.4,2.21-6.58,.57-1.66,1.2-3.3,1.85-4.92,1.1-2.76,2.31-5.5,3.57-8.19,.14-.28,.26-.52,.38-.78,.12-.25,.23-.49,.34-.72,.14-.26,.26-.55,.43-.83,.84-1.78,1.76-3.54,2.7-5.27,.03-.03,.05-.08,.09-.12,.21-.46,.51-.9,.75-1.35,1.35-2.42,2.76-4.77,4.23-7.1,.26-.4,.49-.8,.77-1.2v-.02c.31-.46,.61-.9,.93-1.38v-.02c1.06-1.58,2.16-3.16,3.28-4.71,.17-.28,.38-.57,.6-.83,.72-.98,1.46-1.96,2.19-2.94,.28-.35,.55-.71,.81-1.04,.2-.26,.41-.52,.61-.77,2.13-2.7,4.38-5.33,6.71-7.88,.26-.29,.52-.55,.8-.83,.34-.35,.66-.72,1.01-1.07,2.15-2.3,4.4-4.51,6.71-6.65,.28-.28,.6-.54,.87-.81,1.53-1.39,3.07-2.73,4.66-4.06l3.1,.48,.8,.12,6.24,.98,22.3,3.46,.78,.14,28.54,4.45,.8,.12v.02l28.53,4.43,.8,.14,28.53,4.43,.8,.14,6.99,1.09,.31-.02,1.61-.09,18.21-1.01,1.78-.11,.8-.05,29.02-1.61,.8-.05,26.07-1.47c.15,.17,.31,.32,.44,.52,.78,.84,1.53,1.73,2.25,2.61,.26,.29,.49,.58,.72,.89v.02c.58,.66,1.1,1.33,1.64,2.01,.57,.71,1.13,1.43,1.66,2.15,.57,.71,1.09,1.41,1.61,2.15,.05,.05,.08,.09,.12,.14,.2,.26,.4,.55,.6,.83,.02,.02,.03,.03,.03,.05,.26,.35,.54,.72,.78,1.1,.35,.48,.67,.98,1.03,1.46,.71,1.01,1.41,2.05,2.08,3.11,.44,.67,.87,1.32,1.27,1.98,.17,.28,.32,.51,.48,.78,.46,.72,.9,1.44,1.35,2.16,.15,.26,.32,.52,.44,.77,.41,.67,.8,1.33,1.18,2.01,.11,.21,.23,.43,.35,.63,.03,.03,.05,.06,.06,.09,.14,.26,.28,.51,.4,.75h.02c.2,.35,.38,.72,.58,1.07,.43,.78,.83,1.56,1.24,2.33,.26,.51,.51,.98,.77,1.47,.23,.46,.44,.94,.69,1.39,.14,.28,.26,.57,.41,.83,.34,.74,.7,1.46,1.04,2.21v.02c.06,.11,.11,.23,.15,.34,.4,.84,.8,1.72,1.18,2.56,1.13,2.61,2.21,5.24,3.2,7.92,.31,.8,.57,1.56,.84,2.36,.03,.08,.05,.14,.08,.21v.03c.06,.09,.09,.18,.12,.29,.18,.54,.37,1.06,.54,1.59v.02c.12,.31,.21,.6,.31,.9,.18,.54,.35,1.09,.52,1.62,.11,.35,.23,.72,.37,1.1,.08,.26,.15,.55,.21,.81,.09,.25,.17,.52,.23,.8h.02c.08,.28,.15,.55,.23,.81h.02c.09,.32,.17,.64,.26,.97,.15,.49,.29,1,.4,1.47,.12,.38,.23,.78,.31,1.15,.21,.75,.41,1.47,.58,2.22,.06,.28,.12,.51,.18,.8,.17,.61,.31,1.24,.44,1.87,.41,1.87,.81,3.77,1.15,5.69,.17,.78,.29,1.56,.41,2.36,.06,.21,.11,.46,.12,.69,.12,.77,.23,1.5,.34,2.24,0,.05,.02,.09,.02,.12,.06,.26,.09,.54,.12,.81,.11,.71,.21,1.43,.29,2.15,.03,.28,.08,.51,.09,.8,.12,.69,.18,1.41,.25,2.12,0,.02,.03,.03,0,.06,.08,.55,.12,1.1,.17,1.64,.08,.72,.14,1.44,.2,2.16,.02,.28,.05,.55,.06,.83,.2,2.47,.31,4.97,.37,7.48v.11c.03,1.18,.05,2.33,.05,3.53Z"/><path class="h" d="M319.18,382.62c-5.04,3.23-8.94,8.97-8.22,14.92,.35,2.88,1.72,5.54,2.2,8.4,.67,3.99-.55,8.26-3.21,11.3-1.63,1.86-3.82,3.38-4.63,5.72-.43,1.25-.41,2.63-.19,3.93,1.31,7.76,9.4,12.99,17.26,13.37,7.86,.38,15.4-3.05,22.18-7.04,6.23-3.67,12.4-8.21,15.39-14.79,2.5-5.49,2.49-11.83,1.33-17.75-1.22-6.21-3.74-12.34-8.22-16.81-8.9-8.9-23.92-7.65-33.89-1.26Z"/><path class="h" d="M205.41,449.67H74.57v-152.22c0-1.72,.03-3.41,.1-5.11,0-.27,.02-.53,.03-.79,.19-5.07,.66-10.05,1.35-14.96,.03-.27,.06-.55,.13-.8,.61-4.34,1.44-8.63,2.44-12.83,.06-.26,.13-.51,.18-.77,.64-2.57,1.33-5.1,2.08-7.6,.08-.26,.16-.55,.24-.8,.67-2.21,1.41-4.41,2.2-6.59,.58-1.65,1.2-3.29,1.86-4.91,1.11-2.77,2.31-5.51,3.58-8.19,.13-.27,.26-.53,.38-.79l.34-.72c.13-.26,.26-.55,.42-.82,.85-1.78,1.76-3.54,2.71-5.27,.03-.03,.05-.08,.08-.13,.22-.47,.51-.9,.75-1.35,1.35-2.42,2.76-4.76,4.23-7.1,.26-.4,.5-.79,.77-1.19v-.02c.3-.46,.61-.91,.93-1.38v-.02c1.06-1.59,2.16-3.16,3.29-4.71,.16-.27,.38-.56,.59-.82,.72-.99,1.46-1.97,2.2-2.95,.27-.35,.55-.71,.82-1.04,.19-.26,.4-.51,.61-.77,2.13-2.69,4.38-5.32,6.72-7.87,.26-.29,.51-.56,.79-.83,.34-.35,.66-.72,1.01-1.07,2.15-2.29,4.41-4.51,6.72-6.65,.27-.27,.59-.53,.88-.8,1.52-1.39,3.06-2.74,4.65-4.07l3.09,.48,.8,.13,6.24,.98c.51,2.26,.58,4.67,.26,6.94-.82,5.69-3.66,10.85-6.54,15.82-1.92,3.27-3.69,7.92-.82,10.37,3.29,2.81,7.94-.79,11.9-2.52,9.35-4.09,20.63,4.81,21.55,14.97,.9,10.16-5.98,19.69-14.54,25.25-8.58,5.55-18.69,8.03-28.44,11.08-8.46,2.65-16.79,5.77-24.9,9.38-4.59,2.04-9.2,4.3-12.63,7.97-3.41,3.66-5.43,9.03-3.85,13.79,.61,1.86,1.81,3.59,3.56,4.52,4.47,2.36,9.96-1.48,14.94-.51,10.28,1.97,8.91,20.33,18.92,23.39,4.42,1.35,9.11-1.14,12.55-4.2,3.45-3.08,6.36-6.88,10.44-9.03,8.79-4.65,20.62,.59,24.91,9.54,4.31,8.95,2.07,20.06-3.64,28.18-5.71,8.11-14.38,13.69-23.36,17.96-8.96,4.28-18.42,7.47-27.24,12.06-8.82,4.57-17.15,10.79-22,19.46-2.66,4.78-4.18,10.5-2.68,15.76,1.49,5.27,6.67,9.67,12.1,8.99,4.62-.58,8.08-4.34,12.15-6.59,6.97-3.82,16.98-2.32,21.18,4.42,1.59,2.53,2.31,5.58,4.17,7.9,3.24,4.04,9.22,4.89,14.25,3.67,5.03-1.22,9.47-4.1,14.09-6.44,11.77-5.98,28.02-7.78,36.67,2.23,4.62,5.37,5.77,12.89,4.65,19.98Z"/><path class="j" d="M371.49,297.45v58.79c-.05-.06-.08-.11-.13-.16-7.9-9.59-22.2-11.22-34.39-8.74-8.74,1.8-17.33,5.45-23.55,11.85-4.49,4.6-7.52,10.39-11.14,15.7-3.61,5.32-8.13,10.42-14.2,12.55-6.06,2.13-13.88,.29-16.77-5.47-4.02-8.08,3.35-17.91,.9-26.6-1.89-6.7-9.35-10.6-16.3-10.6s-13.55,3.03-19.78,6.11c-3.74,1.84-7.6,3.77-11.77,3.88-4.15,.13-8.71-2.13-9.8-6.14-1.04-3.82,1.3-7.76,4.12-10.53,2.82-2.76,6.25-4.99,8.42-8.29,2.68-4.1,2.9-9.8,.22-13.88-2.69-4.1-8.29-6.17-12.86-4.44-4.15,1.57-7.05,5.77-11.38,6.69-5.51,1.19-11.16-4.84-9.65-10.26,2.04-7.2,12.54-9.03,15.01-16.1,1.43-4.09-.37-8.51-1.33-12.75-2.37-10.24,.42-21.53,7.28-29.5,6.86-7.97,17.62-12.41,28.1-11.61,3.3,.26,6.62,1.01,9.94,.69,7.15-.71,12.81-6.14,17.86-11.25,1.78-1.81,3.62-3.7,4.59-6.04,1.88-4.59,.08-9.8,.37-14.73,.08-1.38,.32-2.73,.71-4.01l1.78-.1,.8-.05,29.02-1.62,.8-.05,26.07-1.46c.14,.16,.3,.32,.45,.51,.77,.85,1.52,1.73,2.24,2.61,.26,.29,.5,.58,.72,.88v.02c.58,.66,1.11,1.33,1.64,2,.58,.71,1.14,1.43,1.67,2.15,.56,.71,1.09,1.41,1.6,2.15,.05,.05,.08,.1,.13,.14,.19,.26,.4,.55,.59,.82,.02,.02,.03,.03,.03,.05,.26,.35,.53,.72,.79,1.11,.35,.48,.67,.98,1.03,1.46,.71,1.01,1.41,2.05,2.08,3.11,.43,.67,.87,1.31,1.27,1.97,.18,.27,.32,.51,.48,.79,.45,.72,.9,1.44,1.35,2.16,.14,.26,.32,.51,.45,.77,.4,.67,.79,1.33,1.17,2,.11,.21,.24,.43,.35,.63,.03,.03,.05,.06,.06,.1,.14,.26,.27,.5,.4,.75h.02c.19,.35,.38,.72,.58,1.07,.43,.77,.83,1.56,1.25,2.32,.26,.5,.5,.98,.75,1.47,.24,.45,.45,.93,.69,1.39,.14,.27,.27,.56,.42,.82,.34,.74,.71,1.46,1.04,2.21v.02c.06,.11,.11,.22,.16,.34,.4,.85,.8,1.72,1.17,2.57,1.14,2.6,2.21,5.24,3.21,7.92,.3,.8,.58,1.56,.85,2.36,.03,.08,.05,.14,.08,.22v.02c.05,.1,.08,.19,.11,.3,.19,.53,.37,1.06,.55,1.59v.02c.11,.3,.21,.59,.3,.9,.18,.55,.35,1.09,.51,1.64,.11,.35,.24,.72,.37,1.11,.08,.26,.16,.55,.22,.8,.08,.26,.16,.53,.22,.8h.02c.08,.27,.16,.55,.22,.82h.02c.1,.32,.18,.64,.27,.96,.14,.48,.29,.99,.38,1.48,.13,.38,.24,.77,.32,1.14,.21,.75,.4,1.48,.58,2.23,.06,.27,.13,.51,.18,.8,.18,.61,.3,1.23,.45,1.86,.42,1.88,.82,3.78,1.15,5.69,.16,.79,.29,1.57,.42,2.36,.05,.22,.1,.46,.11,.69,.13,.77,.24,1.51,.34,2.24,0,.05,.02,.1,.02,.13,.06,.26,.1,.53,.13,.8,.11,.71,.21,1.43,.29,2.15,.03,.27,.08,.51,.1,.8,.11,.69,.18,1.41,.24,2.12,0,.02,.03,.03,0,.06,.08,.55,.13,1.09,.18,1.64,.06,.72,.13,1.44,.19,2.16,.02,.27,.05,.55,.06,.82,.19,2.47,.3,4.97,.37,7.49v.11c.03,1.17,.05,2.32,.05,3.51Z"/><g class="r"><g><path class="o" d="M98.43,216.73c.3-.46,.61-.91,.93-1.38l-1.49,18.68-.06,.8-2.29,28.7-.06,.79-2.29,28.71-.06,.79-2.29,28.7-.06,.8-2.29,28.71-.06,.8-2.29,28.7-.06,.8-2.29,28.7-.06,.8-2.29,28.7-.06,.8-.67,8.35h-.8l.67-8.42,.06-.8,2.29-28.7,.06-.8,2.29-28.7,.06-.8,2.29-28.7,.06-.8,2.29-28.71,.06-.8,2.29-28.7,.06-.79,2.29-28.71,.06-.79,2.29-28.7,.06-.8,1.36-17.22v-.02Z"/><polygon class="o" points="131.52 184.34 129.72 206.87 129.66 207.67 127.37 236.38 127.3 237.18 125.01 265.88 124.95 266.67 122.65 295.38 122.59 296.17 120.3 324.88 120.23 325.66 117.94 354.38 117.88 355.18 115.58 383.88 115.52 384.68 113.23 413.38 113.16 414.18 110.87 442.88 110.81 443.68 110.33 449.67 109.52 449.67 110 443.61 110.07 442.81 112.36 414.11 112.43 413.31 114.72 384.61 114.78 383.81 117.08 355.12 117.14 354.31 119.43 325.6 119.5 324.82 121.79 296.1 121.85 295.32 124.15 266.6 124.21 265.82 126.5 237.12 126.57 236.32 128.86 207.61 128.92 206.8 130.72 184.21 131.52 184.34"/><polygon class="o" points="160.84 188.91 159.22 209.22 159.16 210.03 156.87 238.74 156.8 239.54 154.51 268.24 154.45 269.02 152.15 297.74 152.09 298.52 149.8 327.24 149.73 328.02 147.44 356.74 147.38 357.54 145.08 386.23 145.02 387.04 142.73 415.73 142.66 416.53 140.37 445.23 140.31 446.03 140.02 449.67 139.22 449.67 139.5 445.97 139.57 445.17 141.86 416.47 141.92 415.67 144.22 386.97 144.28 386.17 146.57 357.47 146.64 356.67 148.93 327.96 148.99 327.17 151.29 298.46 151.35 297.67 153.64 268.96 153.71 268.17 156 239.48 156.06 238.68 158.36 209.96 158.42 209.16 160.06 188.78 160.84 188.91"/><polygon class="o" points="190.18 193.48 190.18 193.5 188.72 211.58 188.66 212.38 186.37 241.1 186.3 241.9 184.01 270.59 183.94 271.38 181.65 300.09 181.59 300.88 179.31 329.59 179.25 330.38 176.95 359.09 176.89 359.89 174.6 388.59 174.53 389.39 172.24 418.09 172.18 418.89 169.88 447.59 169.82 448.39 169.71 449.67 168.91 449.67 169.02 448.33 169.08 447.52 171.38 418.83 171.44 418.03 173.73 389.33 173.8 388.53 176.09 359.83 176.15 359.03 178.45 330.31 178.51 329.53 180.79 300.82 180.85 300.03 183.14 271.32 183.21 270.53 185.5 241.83 185.56 241.03 187.86 212.32 187.92 211.52 189.38 193.37 190.18 193.48"/><polygon class="o" points="219.5 198.07 218.22 213.94 218.16 214.74 215.86 243.45 215.8 244.25 213.51 272.95 213.44 273.74 211.15 302.45 211.09 303.24 208.79 331.95 208.73 332.74 206.44 361.45 206.37 362.25 204.08 390.95 204.02 391.75 201.72 420.45 201.66 421.25 199.38 449.67 199.37 449.95 198.58 449.88 198.6 449.67 200.87 421.18 200.94 420.38 203.23 391.68 203.3 390.88 205.59 362.19 205.65 361.38 207.94 332.67 208.01 331.89 210.3 303.17 210.37 302.39 212.66 273.67 212.72 272.89 215.01 244.19 215.08 243.39 217.37 214.68 217.44 213.87 218.7 197.94 219.5 198.07"/><polygon class="o" points="248.83 202.64 247.74 216.29 247.67 217.1 245.38 245.79 245.32 246.6 243.02 275.31 242.96 276.09 240.65 304.81 240.6 305.59 240.6 305.61 238.29 334.31 238.23 335.09 235.94 363.81 235.87 364.59 235.87 364.61 233.58 393.3 233.52 394.11 231.22 422.8 231.16 423.6 229.07 449.67 228.29 449.67 230.37 423.54 230.44 422.74 232.73 394.04 232.79 393.24 235.09 364.54 235.15 363.74 237.44 335.03 237.51 334.24 239.8 305.54 239.86 304.74 242.16 276.03 242.22 275.24 244.51 246.55 244.58 245.75 246.87 217.03 246.93 216.23 248.02 202.51 248.83 202.64"/><polygon class="o" points="278.52 202.46 277.22 218.65 277.15 219.45 274.86 248.15 274.8 248.95 272.51 277.67 272.44 278.45 270.15 307.16 270.08 307.97 267.79 336.66 267.73 337.45 265.44 366.16 265.37 366.95 263.08 395.66 263.01 396.46 260.72 425.16 260.66 425.96 258.77 449.67 257.96 449.67 259.87 425.9 259.94 425.1 262.23 396.4 262.29 395.6 264.59 366.9 264.59 366.88 264.65 366.1 266.94 337.38 267.01 336.6 269.3 307.9 269.36 307.1 271.66 278.39 271.72 277.6 274.01 248.89 274.08 248.09 276.37 219.39 276.43 218.59 277.72 202.51 278.52 202.46"/><polygon class="o" points="308.34 200.79 306.72 221.01 306.65 221.81 304.36 250.51 304.3 251.31 302 280.02 301.94 280.81 299.65 309.52 299.6 310.32 297.31 339.02 297.24 339.81 294.95 368.52 294.89 369.3 292.59 398.02 292.53 398.82 290.24 427.52 290.17 428.32 288.46 449.67 287.66 449.67 289.37 428.25 289.44 427.45 291.73 398.76 291.79 397.95 294.08 369.24 294.15 368.45 296.44 339.74 296.51 338.96 298.8 310.26 298.86 309.46 301.15 280.74 301.22 279.96 303.51 251.24 303.58 250.44 305.87 221.75 305.93 220.94 307.54 200.84 308.34 200.79"/><path class="o" d="M337.82,203.34v.02l-1.59,20.01-.06,.8-2.29,28.7-.06,.8-2.29,28.71-.06,.79-2.29,28.71-.06,.8-2.29,28.7-.06,.79-2.29,28.71-.06,.79-2.29,28.71-.06,.8-2.29,28.7-.06,.8-1.52,19h-.8l1.52-19.06,.06-.8,2.29-28.7,.06-.8,2.29-28.71,.06-.79,2.29-28.71,.06-.79,2.29-28.7,.06-.8,2.29-28.71,.06-.79,2.29-28.71,.06-.8,2.29-28.7,.06-.8,1.67-20.84c.26,.29,.5,.58,.72,.88Z"/><path class="o" d="M363.78,250.14v.02l-.4,5.07-.06,.8-2.29,28.71-.06,.79-2.29,28.71-.06,.8-2.29,28.7-.06,.79-2.29,28.71-.06,.79-2.29,28.71-.06,.8-2.29,28.7-.06,.8-1.33,16.64h-.8l1.33-16.71,.06-.8,2.29-28.7,.06-.8,2.29-28.71,.06-.79,2.29-28.71,.06-.79,2.29-28.7,.06-.8,2.29-28.71,.06-.79,2.29-28.71,.06-.8,.55-6.91c.05,.1,.08,.19,.11,.3,.19,.53,.37,1.06,.55,1.59Z"/></g><g><path class="o" d="M352.91,225.51l-16.74-1.35-.8-.06-28.71-2.29-.79-.06-28.71-2.29-.79-.06-28.7-2.29-.8-.06-28.71-2.29-.79-.06-28.71-2.29-.8-.06-28.7-2.29-.8-.06-28.7-2.29-.8-.06-22.61-1.8c.19-.26,.4-.51,.61-.77l22.06,1.76,.8,.06,28.7,2.29,.8,.06,28.7,2.29,.8,.06,28.71,2.29,.79,.06,28.71,2.29,.8,.06,28.7,2.29,.79,.06,28.71,2.29,.79,.06,28.71,2.29,.8,.06,16.21,1.3s.05,.06,.06,.1c.14,.26,.27,.5,.4,.75Z"/><path class="o" d="M365.65,256.21l-2.34-.19-.8-.06-28.7-2.29-.8-.06-28.71-2.29-.79-.06-28.71-2.29-.79-.06-28.7-2.29-.8-.05-28.71-2.29-.79-.06-28.71-2.29-.8-.06-28.7-2.29-.8-.06-28.7-2.29-.8-.06-28.7-2.29-.8-.06-8.26-.66c.13-.27,.26-.53,.38-.79l7.94,.64,.8,.06,28.7,2.29,.8,.06,28.7,2.29,.8,.06,28.7,2.29,.8,.06,28.71,2.29,.79,.06,28.71,2.29,.8,.05,28.7,2.29,.79,.06,28.71,2.29,.79,.06,28.71,2.29,.8,.06,28.7,2.29,.8,.06,2.04,.18h.02c.08,.27,.16,.55,.22,.82Z"/><path class="o" d="M371.07,286.34l-10.12-.82-.8-.06-28.7-2.29-.8-.06-28.71-2.29-.79-.06-28.71-2.29-.79-.06-28.7-2.29-.8-.06-28.71-2.29-.79-.06-28.71-2.29-.8-.06-28.7-2.29-.8-.06-28.7-2.29-.8-.06-28.7-2.29-.8-.06-16.03-1.28c.06-.26,.13-.51,.18-.77l15.92,1.27,.8,.06,28.7,2.29,.8,.06,28.7,2.29,.8,.06,28.7,2.29,.8,.06,28.71,2.29,.79,.06,28.71,2.29,.8,.06,28.7,2.29,.79,.06,28.71,2.29,.79,.06,28.71,2.29,.8,.06,28.7,2.29,.8,.06,9.99,.79c.02,.27,.05,.55,.06,.82Z"/><path class="o" d="M371.49,315.26v.8l-12.89-1.03-.8-.06-28.7-2.29-.8-.06-28.7-2.29-.8-.06-28.71-2.29-.79-.06-28.7-2.29v-.02l-.8-.05-28.71-2.31-.79-.06-28.71-2.29-.8-.06-28.7-2.29-.8-.06-28.7-2.29-.8-.06-28.7-2.29-.8-.06-17.62-1.41c0-.27,.02-.53,.03-.79l17.65,1.41,.8,.06,28.7,2.29,.8,.06,28.7,2.29,.8,.06,28.7,2.29,.8,.06,28.71,2.29,.79,.06,28.71,2.29,.79,.06,28.71,2.29,.79,.06,28.71,2.29,.79,.06,28.71,2.29,.8,.06,28.7,2.29,.8,.06,12.83,1.03Z"/><polygon class="o" points="371.49 344.95 371.49 345.74 356.24 344.52 355.44 344.45 326.74 342.16 325.94 342.1 297.24 339.81 296.44 339.74 267.73 337.45 266.94 337.38 238.23 335.09 237.44 335.03 208.73 332.74 207.94 332.67 179.25 330.38 178.45 330.31 149.73 328.02 148.93 327.96 120.23 325.66 119.43 325.6 90.73 323.31 89.93 323.24 74.57 322.03 74.57 321.22 90 322.44 90.8 322.51 119.5 324.82 120.3 324.88 148.99 327.17 149.8 327.24 178.51 329.53 179.31 329.59 208.01 331.89 208.79 331.95 237.51 334.24 238.29 334.31 267.01 336.6 267.79 336.66 296.51 338.96 297.31 339.02 326 341.31 326.81 341.38 355.5 343.67 356.3 343.73 371.49 344.95"/><polygon class="o" points="371.49 374.64 371.49 375.43 353.88 374.02 353.08 373.95 324.39 371.66 323.58 371.6 294.89 369.3 294.08 369.24 265.37 366.95 264.59 366.9 264.59 366.88 235.87 364.61 235.87 364.59 235.09 364.54 206.37 362.25 205.59 362.19 176.89 359.89 176.09 359.83 147.38 357.54 146.57 357.47 117.88 355.18 117.08 355.12 88.38 352.82 87.58 352.76 74.57 351.72 74.57 350.92 87.64 351.96 88.44 352.02 117.14 354.31 117.94 354.38 146.64 356.67 147.44 356.74 176.15 359.03 176.95 359.09 205.65 361.38 206.44 361.45 235.15 363.74 235.94 363.81 264.65 366.1 265.44 366.16 294.15 368.45 294.95 368.52 323.65 370.81 324.45 370.88 353.15 373.17 353.95 373.23 371.49 374.64"/><polygon class="o" points="371.49 404.33 371.49 405.12 351.53 403.53 350.73 403.47 322.03 401.18 321.23 401.11 292.53 398.82 291.73 398.76 263.01 396.46 262.23 396.4 233.52 394.11 232.73 394.04 204.02 391.75 203.23 391.68 174.53 389.39 173.73 389.33 145.02 387.04 144.22 386.97 115.52 384.68 114.72 384.61 86.02 382.32 85.22 382.26 74.57 381.41 74.57 380.61 85.28 381.46 86.09 381.52 114.78 383.81 115.58 383.88 144.28 386.17 145.08 386.23 173.8 388.53 174.6 388.59 203.3 390.88 204.08 390.95 232.79 393.24 233.58 393.3 262.29 395.6 263.08 395.66 291.79 397.95 292.59 398.02 321.29 400.31 322.09 400.37 350.79 402.67 351.59 402.73 371.49 404.33"/><polygon class="o" points="371.49 434.01 371.49 434.81 349.17 433.03 348.37 432.97 319.67 430.67 318.87 430.61 290.17 428.32 289.37 428.25 260.66 425.96 259.87 425.9 231.16 423.6 230.37 423.54 201.66 421.25 200.87 421.18 172.18 418.89 171.38 418.83 142.66 416.53 141.86 416.47 113.16 414.18 112.36 414.11 83.66 411.82 82.86 411.76 74.57 411.1 74.57 410.3 82.93 410.96 83.73 411.02 112.43 413.31 113.23 413.38 141.92 415.67 142.73 415.73 171.44 418.03 172.24 418.09 200.94 420.38 201.72 420.45 230.44 422.74 231.22 422.8 259.94 425.1 260.72 425.16 289.44 427.45 290.24 427.52 318.93 429.81 319.74 429.87 348.43 432.17 349.23 432.23 371.49 434.01"/><polygon class="o" points="195.9 449.67 185.79 449.67 169.82 448.39 169.02 448.33 140.31 446.03 139.5 445.97 110.81 443.68 110 443.61 81.31 441.32 80.51 441.26 74.57 440.79 74.57 439.99 80.57 440.45 81.37 440.52 110.07 442.81 110.87 442.88 139.57 445.17 140.37 445.23 169.08 447.52 169.88 447.59 195.9 449.67"/></g></g></g><polygon class="n" points="352.75 420.68 345.96 424.18 342.46 430.97 338.95 424.18 332.16 420.68 338.95 417.18 342.46 410.38 345.96 417.18 352.75 420.68"/></g><g><path class="o" d="M83.64,412.01h237.67v157.35H0v-73.71c0-46.16,37.48-83.64,83.64-83.64Z"/><g><path class="l" d="M741.65,526.1v4.3c-.05,1.89-.09,3.78-.19,5.67-.54,12.68-2.1,25.08-4.63,37.15H285.74c-2.88-13.86-4.51-28.18-4.79-42.82v-1.77c-.05-.83-.05-1.7-.05-2.53,0-27.89,4.98-54.56,14.01-79.29,.07-.17,.12-.31,.19-.45l.5-1.28c11.9-31.7,30.66-60.11,54.39-83.37v-.02h.02c.5-.52,.97-.97,1.46-1.46,7.18-6.94,14.81-13.37,22.84-19.32,2.27-1.65,4.56-3.31,6.9-4.89,7.27-5.03,14.83-9.57,22.67-13.7,2.34-1.28,4.68-2.46,7.11-3.61,.87-.43,1.82-.9,2.76-1.28,18.56-8.76,38.55-15.07,59.5-18.49h.05c.47-.09,.92-.17,1.39-.26,.85-.14,1.7-.28,2.55-.4h.02c8.67-1.3,17.55-2.13,26.57-2.36,.76-.05,1.46-.05,2.22-.05h.05c.8-.05,1.61-.05,2.46-.05,.59-.05,1.16-.05,1.77-.05h.94c6.9,0,13.65,.31,20.34,.9,.78,.07,1.54,.14,2.29,.21,12.31,1.18,24.3,3.35,35.99,6.42,1.18,.28,2.36,.61,3.52,.97h.05c9.45,2.6,18.59,5.83,27.49,9.61,.85,.35,1.7,.68,2.6,1.11,15.26,6.68,29.69,14.97,43.03,24.68,9.61,6.97,18.68,14.67,27.09,23.1t.05,.05l.02,.02c.43,.4,.83,.78,1.23,1.18,.43,.43,.83,.85,1.25,1.28h.02c.47,.47,.92,.94,1.35,1.46h.02c.38,.33,.66,.64,.94,.97,.02,0,.02,.02,.02,.02,21.47,22.65,38.36,49.62,49.25,79.52v.02h.02c.17,.57,.4,1.13,.57,1.72,7.61,21.28,12.09,44.03,13.04,67.69,.12,3.12,.19,6.24,.19,9.38Z"/><g><path class="h" d="M409.88,573.22h-105.91c.87-3.76,2.29-7.37,4.23-10.72,.85-1.49,1.82-2.93,2.86-4.28,.52-.69,1.06-1.32,1.63-1.96v-.02c7.06-8.08,17.34-13.39,28.04-14.22l15.64-1.3c5.15-.9,10.46-1.09,15.68-.54,.59,.07,1.2,.14,1.79,.24,7.39,1.04,14.53,3.64,20.57,8.01,8.12,5.83,13.98,15.02,15.47,24.8Z"/><path class="e" d="M646.89,371.87v.02c-.17,.64-.38,1.3-.64,1.94-1.16,3.35-2.81,6.52-5.08,9.4-2.62,3.35-5.88,6.02-9.49,8.27,0,.02-.02,.02-.02,.02-.5,.28-.97,.57-1.46,.9-.02,.02-.05,.02-.07,.05-5.41,3.02-11.53,5.05-17.6,6.64-11.74,3.05-24.8,4.75-35.52-.94-2.76-1.44-5.2-3.31-7.49-5.41-.78-.66-1.49-1.39-2.22-2.13-2.2-2.2-4.3-4.58-6.42-6.97-.5-.59-1.02-1.18-1.56-1.75-1.54-1.7-3.12-3.35-4.77-4.89-7.61-6.97-19.79-11.57-27.94-5.31-3.28,2.55-5.2,6.47-5.79,10.58-.09,.61-.17,1.2-.17,1.79-.14,2.03,.07,4.18,.59,6.12,1.61,6.64,6.02,12.16,10.89,16.93,11.17,10.98,25.53,18.68,40.93,21.94h.02c.31,.05,.57,.14,.85,.19,.31,.02,.64,.12,.94,.17h.02c19.18,3.66,42.73,2.98,52.55,19.72,1.23,2.1,2.17,4.44,2.5,6.83,.09,.59,.12,1.13,.12,1.72v.02c0,.99-.07,1.98-.28,2.98-1.37,5.98-7.11,9.85-12.52,12.71-11.95,6.26-24.97,10.42-38.29,12.38-.59,.14-1.13,.21-1.72,.26h-.05c-4.89,.69-9.78,1.02-14.69,1.06-8.93,.09-19.34-.21-24.97,6.73-2.61,3.24,8.67,20.32,17.39,32.37,5.6,7.74,12.98,14.03,21.51,18.36h0c.61-.16,1.23-.31,1.82-.42,7.53-1.7,15.4-2.46,22.67-.05,8.29,2.76,15.4,10.72,14.57,19.44-.31,3.47-1.75,6.66-3.73,9.68h-103.12c.07-1.42,.02-2.83-.12-4.23-.26-2.65-.87-5.24-1.82-7.77-.69-1.87-1.54-3.68-2.57-5.38-1.28-2.17-2.81-4.18-4.58-5.95-.87-.85-1.77-1.68-2.72-2.41-9.57-7.84-22.72-10.7-35.19-10.51-6.59,.12-13.34,.92-19.89,.43h-.02c-.61,0-1.18-.09-1.77-.19-2.39-.24-4.77-.71-7.06-1.49-3.33-1.13-6.33-2.98-8.88-5.31-.64-.54-1.25-1.13-1.84-1.77l-.02-.02c-8.43-9.16-11.17-23.93-4.65-34.81,5.69-9.54,16.46-15.07,24.07-23.03l.02-.02c.71-.68,1.44-1.49,2.06-2.29l.02-.02c1.73-2.05,3.21-4.36,4.34-6.97,.27-.63,.45-1.31,.53-2,.06-.5,.09-.99,.03-1.5v-.12c-.26-1.91-1.44-3.33-3.09-4.35h-.02c-.5-.38-1.11-.64-1.7-.85-1.87-.76-4.09-1.02-6.07-.85-6.47,.52-12.64,3.45-19.15,4.04-6.47,.64-14.24-2.17-15.73-8.55-2.72-11.74,17.57-22.2,11.05-32.36-3.14-4.98-10.51-4.72-16.04-2.74-2.76,1.04-5.53,2.36-8.34,3.33-.71,.26-1.39,.47-2.13,.64h-.02c-2.13,.54-4.23,.8-6.4,.52-11.01-1.63-14.55-16.72-10.3-27.02,3.19-7.7,8.9-13.96,13.7-20.71,.38-.57,.78-1.04,1.09-1.61,.02,0,.02-.02,.02-.02,1.23-1.82,2.39-3.64,3.4-5.6,3.61-7.06,5.15-14.93,7.58-22.46,1.87-5.93,4.37-11.57,7.44-16.93,2.34-1.28,4.68-2.46,7.11-3.61,.87-.43,1.82-.9,2.76-1.28,18.56-8.76,38.55-15.07,59.5-18.49h.05c.47-.09,.92-.17,1.39-.26,.85-.14,1.7-.28,2.55-.4h.02c8.67-1.3,17.55-2.13,26.57-2.36,.76-.05,1.46-.05,2.22-.05h.05c.8-.05,1.61-.05,2.46-.05,.59-.05,1.16-.05,1.77-.05h.94c6.9,0,13.65,.31,20.34,.9,.78,.07,1.54,.14,2.29,.21,12.31,1.18,24.3,3.35,35.99,6.42,1.18,.28,2.36,.61,3.52,.97h.05c9.45,2.6,18.59,5.83,27.49,9.61,.85,.35,1.7,.68,2.6,1.11,15.26,6.68,29.69,14.97,43.03,24.68,.26,1.11,.43,2.2,.64,3.28,1.75,9.52,2.34,19.82-.33,28.91Z"/></g><g class="s"><rect class="o" x="280.95" y="528.61" width="460.68" height="1.79"/><path class="o" d="M510.33,295.77v277.45h-1.77V295.82c.59-.05,1.16-.05,1.77-.05Z"/><path class="o" d="M506.07,295.84s0,.02-.02,.02c-6.64,9.45-12.82,19.34-18.47,29.59-.02,0-.02,.02-.02,.02-.35,.57-.69,1.16-.94,1.72l-.02,.02c-8.93,16.32-16.6,33.56-22.96,51.61-.21,.59-.43,1.16-.61,1.75-8.05,23.22-13.91,47.62-17.53,72.91-.14,.99-.28,2.01-.43,3-.07,.38-.12,.8-.14,1.2-.12,.61-.19,1.18-.21,1.8-.38,2.98-.73,5.95-1.04,8.95-2.13,19.6-2.83,39.68-2.22,60.16,0,.61,.02,1.18,.02,1.79,.07,2.31,.17,4.65,.28,6.99,.57,11.81,1.58,23.76,3.02,35.83h-1.82c-1.44-12.12-2.43-24.14-2.98-36.02-.12-2.29-.21-4.53-.28-6.8,0-.61-.05-1.2-.05-1.79-.59-19.67,.07-38.99,1.96-57.87,.35-3.8,.78-7.56,1.25-11.31,.07-.61,.14-1.18,.24-1.8,.07-.47,.09-.92,.17-1.39,.17-1.2,.33-2.41,.5-3.59,3.59-25.04,9.45-49.27,17.43-72.25,.19-.57,.4-1.13,.61-1.75,6.31-18,13.91-35.22,22.77-51.49,.33-.61,.61-1.16,.94-1.72h.02v-.02c5.6-10.25,11.72-20.1,18.28-29.5,.76-.02,1.51-.07,2.24-.07Z"/><path class="o" d="M477.24,298.27c-10.23,7.04-19.86,15.09-28.89,24.09h-.02c-.54,.5-1.06,1.02-1.58,1.61h-.05c-13.91,14.01-26.26,30.11-36.63,47.76-.35,.52-.69,1.11-.97,1.68-7.7,13.25-14.29,27.37-19.6,42.11-3.05,8.38-5.65,16.96-7.82,25.7-1.04,4.09-1.96,8.27-2.79,12.45-.14,.57-.24,1.18-.35,1.75-4.56,23.43-6.35,47.97-5.38,73.19,.02,.59,.07,1.18,.07,1.79,.14,3.33,.35,6.66,.61,10.01,.78,10.82,2.05,21.78,3.87,32.81h-1.84c-1.79-11.12-3.07-22.13-3.83-33.04-.24-3.28-.43-6.52-.57-9.78-.05-.57-.07-1.18-.07-1.79-.99-25.27,.76-49.88,5.36-73.34,.07-.57,.21-1.18,.35-1.75,.83-4.27,1.77-8.53,2.81-12.75,2.08-8.36,4.56-16.58,7.42-24.61,5.36-15.12,12.02-29.55,19.84-43.08,.31-.57,.64-1.13,.94-1.68,10.32-17.6,22.53-33.68,36.33-47.71h.05c.52-.54,.99-1.04,1.54-1.58h.02v-.02c8.5-8.5,17.62-16.3,27.19-23.15,.02,0,.02-.02,.05-.02,.47-.09,.92-.17,1.39-.24,.85-.14,1.7-.28,2.55-.4Z"/><path class="o" d="M381.2,336.02c-7.7,8.08-14.93,16.79-21.49,26.03-.38,.57-.76,1.04-1.06,1.61h-.02v.02c-7.84,11.12-14.81,23-20.76,35.59-7.37,15.49-13.2,31.81-17.48,48.8-.19,.59-.35,1.13-.47,1.75-6.26,25.04-9.19,51.51-8.76,78.79v1.79c.17,8.53,.68,17.15,1.54,25.84v.02c.43,4.77,.97,9.54,1.65,14.34,.12,.87,.24,1.75,.38,2.62h-1.82c-.14-.78-.24-1.56-.35-2.36-.59-4.25-1.11-8.43-1.49-12.64v-.05c-.97-9.35-1.54-18.59-1.7-27.78v-1.79c-.43-27.35,2.5-53.87,8.76-79,.14-.57,.31-1.2,.43-1.75,4.39-17.19,10.3-33.7,17.74-49.34,5.88-12.42,12.73-24.21,20.45-35.26v-.02h.02c.33-.52,.66-1.04,1.09-1.56v-.02c5.13-7.27,10.63-14.19,16.46-20.74,2.27-1.65,4.56-3.31,6.9-4.89Z"/><path class="o" d="M578.96,528.6c0,.59-.05,1.18-.07,1.79-.14,4.58-.35,9.16-.61,13.75-.52,9.68-1.25,19.39-2.22,29.07h-1.77c.92-9.52,1.65-19.08,2.17-28.65,.28-4.72,.47-9.45,.64-14.17,.05-.61,.07-1.18,.07-1.79,.47-14.19,.5-28.39,.05-42.56-.24-8.62-.66-17.22-1.25-25.82-.07-.59-.12-1.2-.14-1.77-.68-9.83-1.63-19.63-2.76-29.38-.45-3.9-.94-7.79-1.46-11.69-1.11-8.24-2.5-17.27-4.3-26.76-.45-2.39-.94-4.79-1.44-7.23-.12-.57-.26-1.18-.4-1.75-3.85-18.12-9.45-37.44-17.86-56.05v-.02c-.24-.57-.5-1.11-.76-1.68h-.02v-.02c-4.27-9.35-9.31-18.54-15.21-27.21,.78,.07,1.54,.14,2.29,.21,5.72,8.57,10.6,17.6,14.81,26.78v.02c.26,.57,.5,1.11,.8,1.68v.02c8.34,18.73,13.89,38.07,17.74,56.19,.14,.57,.28,1.18,.4,1.75,.66,3.19,1.28,6.33,1.87,9.42,1.58,8.62,2.81,16.82,3.83,24.4,.57,4.09,1.09,8.2,1.54,12.28h.02c1.13,9.64,2.03,19.3,2.69,28.98,.05,.61,.12,1.23,.14,1.8,.57,8.53,.99,17.05,1.25,25.58,.45,14.27,.45,28.53-.02,42.82Z"/><path class="o" d="M655.98,528.6c.02,.61,0,1.18,0,1.79-.24,13.84-1.13,28.11-2.69,42.82h-1.79c1.56-14.74,2.43-28.96,2.69-42.82,0-.61,.05-1.18,0-1.79,.4-25.34-1.46-49.29-5.5-72.11-.07-.61-.17-1.18-.31-1.75-.14-1.04-.35-2.05-.54-3.07-3.97-20.71-9.92-40.6-17.64-59.26-2.08-5.01-4.28-9.92-6.59-14.74h-.05c-.26-.54-.54-1.11-.78-1.63-10.25-20.9-22.79-39.94-37.29-56.5-.43-.54-.85-1.04-1.35-1.54-4.53-5.15-9.28-10.06-14.24-14.71,1.18,.28,2.36,.61,3.52,.97h.05c4.35,4.2,8.57,8.64,12.64,13.27,.47,.5,.9,1.02,1.37,1.54,14.41,16.65,26.9,35.76,37.13,56.66,.24,.59,.54,1.11,.78,1.7,2.22,4.61,4.32,9.28,6.31,14.05,7.84,18.85,13.91,38.92,17.9,59.85,.21,1.06,.4,2.17,.57,3.24,.14,.61,.26,1.18,.33,1.79,4.04,22.86,5.88,46.86,5.5,72.23Z"/><path class="o" d="M710.28,528.6c0,.61-.02,1.18-.02,1.79-.31,14.41-1.2,28.7-2.74,42.82h-1.82c1.56-14.12,2.48-28.41,2.76-42.82,0-.61,.05-1.18,.05-1.79,.17-10.7,0-21.45-.52-32.26-.73-15.82-2.17-30.68-4.39-44.64-.07-.57-.17-1.13-.28-1.72-4.28-26.74-11.27-50.24-21.09-71.12-1.89-3.99-3.9-7.94-6.05-11.74-.28-.54-.57-1.09-.85-1.61h-.02c-.52-.92-.99-1.79-1.56-2.67l-.02-.02v-.02c.43,.4,.85,.8,1.25,1.23,.43,.43,.83,.85,1.25,1.28h.02c.28-.07,.59-.17,.87-.24,.28,.52,.57,1.04,.85,1.58,.21,.35,.43,.69,.59,1.09,.02,0,.02,.02,.02,.02,1.84,3.35,3.57,6.83,5.24,10.35,9.9,21.07,16.96,44.78,21.28,71.71,.09,.57,.21,1.13,.28,1.7,2.17,14.01,3.64,28.91,4.39,44.76,.5,10.82,.68,21.63,.5,32.33Z"/><path class="o" d="M603.54,315c-5.32,1.53-10.68,2.89-16.08,4.08-.64,.17-1.28,.34-1.96,.47-11.65,2.55-23.61,4.47-35.99,5.83-.64,.08-1.28,.13-1.91,.21-12.04,1.23-24.46,1.91-37.26,2.04-.6,.04-1.19,.04-1.79,.04h-2.3c-6.47,0-13.02-.17-19.65-.47-.68,0-1.36,0-2.04-.04-12.21-.6-24.88-1.66-37.82-3.19h-.04c-.72-.09-1.49-.13-2.21-.3h-.04c-8.34-.94-16.8-2.17-25.48-3.57-2.64-.43-5.32-.89-8-1.4,.89-.43,1.83-.89,2.76-1.28,1.87,.3,3.7,.64,5.53,.89,9.1,1.53,18.04,2.76,26.8,3.79,.77,.13,1.53,.21,2.25,.26,12.76,1.53,25.14,2.51,37.22,3.06,.68,.04,1.32,.04,2,.04,7.1,.34,14.12,.43,21.01,.43,.6,0,1.15,0,1.79-.04,12.51-.13,24.67-.77,36.5-1.96,.64-.08,1.23-.17,1.87-.21,12.17-1.32,23.95-3.19,35.43-5.66,.68-.13,1.32-.3,1.96-.47,5.02-1.11,10-2.34,14.85-3.66,.85,.34,1.7,.68,2.59,1.11Z"/><path class="o" d="M677.97,366.65c-.14,.07-.25,.11-.36,.11-.46,.14-.96,.25-1.43,.36-16.5,4.25-33.42,7.68-50.81,10.32-.57,.11-1.18,.21-1.79,.25h-.04c-18.21,2.75-36.81,4.64-55.92,5.64-.57,.04-1.18,.07-1.79,.07-3.57,.21-7.14,.36-10.71,.46-7.03,.21-14.1,.36-21.17,.36-7.82,0-15.71-.14-23.64-.43-.61,0-1.18-.04-1.79-.07-14.93-.54-30.1-1.57-45.53-3.14-.61-.04-1.21-.11-1.82-.18-17.03-1.71-34.35-4.07-52.1-7-.64-.11-1.29-.21-1.93-.32-15.1-2.54-30.49-5.53-46.24-8.93-.75-.18-1.54-.32-2.32-.5-.61-.14-1.25-.29-1.89-.43-2.21-.5-4.5-1-6.75-1.54,.5-.5,1-.96,1.5-1.46,2.14,.5,4.25,.96,6.36,1.43,.64,.14,1.29,.29,1.89,.39,.54,.14,1.04,.25,1.57,.36,15.96,3.46,31.56,6.46,46.85,9,.64,.14,1.29,.25,1.93,.32,17.64,2.93,34.85,5.25,51.74,6.93,.61,.11,1.21,.14,1.82,.18,15.25,1.54,30.21,2.57,44.92,3.11,.61,.04,1.21,.07,1.79,.07,15.14,.54,30.03,.54,44.74,.07,3.46-.11,6.93-.25,10.39-.43,.61-.04,1.21-.04,1.79-.07,18.92-1,37.46-2.82,55.52-5.53,.61-.07,1.21-.14,1.82-.29,17.35-2.61,34.24-6.03,50.7-10.25h.04c.29-.04,.61-.14,.89-.21,.29-.07,.61-.14,.89-.21,.29,.5,.57,1.04,.86,1.57Z"/><path class="o" d="M728.42,449.03c-7.68,.89-15.35,1.75-23.03,2.5-.61,.11-1.18,.14-1.79,.18-17.71,1.86-35.42,3.39-53.13,4.68-.61,.07-1.18,.11-1.79,.11-23.64,1.71-47.28,2.93-70.95,3.71-.57,0-1.18,.04-1.79,.04-18.39,.57-36.81,.86-55.24,.86-3.46,0-6.93,0-10.39-.07-.61,.04-1.18,.04-1.79,0-21.28-.11-42.56-.64-63.84-1.54-.61-.04-1.21-.07-1.82-.07-21.46-.93-42.92-2.25-64.34-4-.61-.04-1.18-.07-1.79-.14-18.96-1.5-37.92-3.32-56.84-5.46-.61-.07-1.21-.14-1.79-.21-7.75-.86-15.46-1.79-23.21-2.78,.21-.57,.43-1.14,.68-1.71,7.64,1,15.32,1.93,22.96,2.75,.61,.11,1.21,.18,1.82,.21,18.89,2.14,37.81,3.96,56.74,5.46,.61,.07,1.18,.11,1.79,.14,21.39,1.71,42.78,3.04,64.2,3.96,.61,.04,1.21,.04,1.82,.07,21.21,.89,42.42,1.43,63.63,1.54,.61,.04,1.18,.04,1.79,0,21.85,.18,43.67-.11,65.49-.79,.61,0,1.21-.04,1.79-.04,23.6-.75,47.2-1.96,70.77-3.68,.61-.04,1.21-.07,1.79-.14,17.75-1.25,35.46-2.79,53.17-4.61,.61-.07,1.21-.11,1.79-.18,7.61-.79,15.17-1.61,22.74-2.5,.18,.57,.39,1.14,.57,1.71Z"/></g></g><g><polygon class="j" points="635.24 397.24 682.56 420.48 632.14 444.05 635.24 397.24"/><path class="q" d="M626.57,509.15s-.05,0-.08,0c-.55-.04-.97-.53-.92-1.08l8.79-111.22c.04-.55,.51-.95,1.08-.92,.55,.04,.97,.53,.92,1.08l-8.79,111.22c-.04,.53-.48,.93-1,.93Z"/><path class="o" d="M610.09,510.57s3.35-13.69,16.91-13.36c13.57,.33,19.85,16.23,19.85,16.23l-37.13-1.81,.37-1.06Z"/></g><g><polygon class="j" points="450.47 193.87 500.64 210.08 454.12 240.65 450.47 193.87"/><path class="q" d="M457.54,305.84c-.4-.11-.7-.47-.73-.9l-7.28-111.33c-.04-.55,.38-1.03,.94-1.07,.55-.04,1.03,.38,1.07,.94l7.28,111.33c.04,.55-.38,1.03-.94,1.07-.12,0-.23,0-.34-.03Z"/><path class="o" d="M441.85,309.64s1.35-14.03,14.82-15.65c13.47-1.62,21.97,13.21,21.97,13.21l-37.01,3.54"/></g><path class="t" d="M609.76,117.06l75.5,455.08-479.75,.76c-.19-.6,401.35-458.75,401.35-458.75l2.91,2.91Z"/><g><g><path class="o" d="M618.37,41.18l11.96,7.23c.55,.33,.72,1.04,.39,1.59-.33,.55-1.04,.72-1.59,.39l-11.96-7.23c-.55-.33-.72-1.04-.39-1.59,.33-.55,1.04-.72,1.59-.39Z"/><path class="o" d="M625.48,29.43l11.96,7.23c.55,.33,.72,1.04,.39,1.59-.33,.55-1.04,.72-1.59,.39l-11.96-7.23c-.55-.33-.72-1.04-.39-1.59,.33-.55,1.04-.72,1.59-.39Z"/></g><rect class="j" x="586.68" y=".34" width="28.76" height="47.38" rx="1.43" ry="1.43" transform="translate(269.45 525.91) rotate(-58.84)"/><polygon class="i" points="599.48 24.42 592.63 35.74 594.61 36.93 601.45 25.62 620.73 37.28 621.93 35.3 602.65 23.64 609.49 12.33 609.49 12.33 607.51 11.13 607.51 11.13 600.67 22.45 581.39 10.78 580.19 12.76 599.48 24.42"/><g><path class="o" d="M673.77,61.33l-11.96-7.23c-.55-.33-.72-1.04-.39-1.59s1.04-.72,1.59-.39l11.96,7.23c.55,.33,.72,1.04,.39,1.59s-1.04,.72-1.59,.39Z"/><path class="o" d="M666.66,73.09l-11.96-7.23c-.55-.33-.72-1.04-.39-1.59,.33-.55,1.04-.72,1.59-.39l11.96,7.23c.55,.33,.72,1.04,.39,1.59s-1.04,.72-1.59,.39Z"/></g><g><path class="g" d="M633.09,72.73c-6.04-3.66-9.81-8.49-8.42-10.8,1.39-2.31,7.42-1.21,13.47,2.45,6.04,3.66,9.81,8.49,8.42,10.8-1.39,2.31-7.42,1.21-13.46-2.45Z"/><path class="l" d="M646.51,75.24s-.06,.09-.09,.13h0c-.03,.06-.07,.1-.11,.14l-.03,.03s-.06,.06-.1,.09l-.02,.02s-.08,.07-.13,.1l-.03,.02s-.07,.05-.1,.07l-.04,.02s-.09,.06-.14,.08h0s-.09,.05-.14,.07l-.05,.02s-.08,.03-.12,.05l-.04,.02c-.06,.02-.11,.04-.17,.06h-.03c-.05,.02-.1,.04-.16,.05h-.06s-.1,.04-.15,.05h-.05c-.06,.02-.13,.03-.2,.04h-.04c-.06,.01-.11,.02-.17,.03h-.06c-.06,.01-.13,.02-.19,.02h-.03c-.08,0-.16,.01-.23,.01h-.06c-.07,0-.13,0-.2,0-.02,0-.03,0-.05,0-.09,0-.17,0-.26,0h-.06c-.08,0-.17-.01-.25-.02h-.03c-.1,0-.21-.02-.32-.03h-.06c-.1-.02-.21-.03-.32-.04h-.05c-.13-.02-.26-.04-.39-.07h-.05c-.13-.03-.27-.06-.41-.08l-.08-.02c-.06-.01-.13-.03-.19-.04l-.09-.02c-.07-.01-.13-.03-.2-.05l-.08-.02c-.09-.02-.18-.05-.28-.07h-.04c-.08-.03-.16-.05-.24-.08l-.06-.02c-.16-.04-.32-.09-.48-.14l-.06-.02c-.16-.05-.32-.1-.49-.16l-.06-.02c-.17-.06-.33-.11-.5-.18l-.05-.02c-.18-.06-.35-.13-.53-.2h-.03c-.19-.08-.38-.16-.57-.24h-.01c-.19-.08-.37-.16-.56-.25l-.04-.02c-.18-.08-.36-.16-.54-.25l-.06-.03c-.18-.08-.35-.17-.53-.26l-.05-.03c-.29-.15-.59-.3-.89-.46l-.03-.02c-.23-.13-.47-.26-.7-.39l-.06-.03c-.2-.11-.4-.23-.6-.35-.04-.02-.07-.04-.11-.07-.17-.11-.35-.21-.52-.32l-.03-.02c-.2-.12-.39-.25-.58-.37l-.02-.02c-.18-.12-.36-.24-.54-.36l-.05-.03c-.17-.12-.34-.24-.5-.35l-.06-.04c-.16-.12-.33-.24-.48-.36l-.05-.04c-.17-.13-.33-.25-.49-.38l-.03-.03c-.18-.14-.35-.28-.52-.42l-.03-.02c-.17-.14-.34-.29-.5-.43l-.04-.04c-.18-.16-.35-.31-.52-.47l-.05-.05c-.07-.07-.14-.13-.21-.2l-.06-.06c-.08-.08-.17-.16-.25-.24l-.04-.04c-.09-.09-.19-.19-.28-.28l-.02-.02c-.09-.1-.18-.19-.27-.29l-.04-.05c-.12-.13-.23-.26-.34-.39l-.02-.02c-.11-.13-.23-.27-.33-.4l-.06-.08s-.05-.07-.08-.1c-.02-.03-.04-.06-.06-.08-.03-.03-.05-.07-.08-.1-.02-.03-.04-.06-.06-.09-.02-.03-.05-.07-.07-.1-.02-.03-.04-.06-.06-.09-.02-.03-.05-.06-.07-.1-.02-.03-.04-.06-.06-.09-.02-.03-.04-.06-.07-.1-.02-.03-.04-.06-.06-.09-.02-.03-.04-.06-.06-.09-.02-.03-.04-.06-.05-.09-.02-.03-.04-.06-.06-.09-.02-.03-.03-.06-.05-.08-.02-.03-.04-.06-.06-.09-.02-.03-.03-.06-.05-.08-.02-.03-.04-.06-.05-.09-.02-.03-.03-.05-.05-.08-.02-.03-.03-.06-.05-.09-.01-.03-.03-.05-.04-.08-.02-.03-.03-.06-.05-.09l-.04-.08s-.03-.06-.04-.09c-.01-.03-.02-.05-.04-.08-.01-.03-.03-.06-.04-.09l-.03-.08s-.02-.06-.04-.09l-.03-.08s-.02-.06-.03-.09l-.03-.08s-.02-.06-.03-.08c0-.03-.02-.05-.02-.08,0-.03-.02-.05-.02-.08,0-.03-.01-.05-.02-.08,0-.03-.01-.05-.02-.08,0-.02-.01-.05-.02-.07,0-.03-.01-.05-.02-.08,0-.02-.01-.05-.01-.07,0-.03,0-.05-.01-.08,0-.02,0-.05-.01-.07,0-.03,0-.05-.01-.08,0-.02,0-.05,0-.07,0-.03,0-.05,0-.08,0-.02,0-.05,0-.07,0-.03,0-.05,0-.08,0-.02,0-.04,0-.07,0-.02,0-.05,0-.07,0-.02,0-.04,0-.07,0-.02,0-.05,0-.07,0-.02,0-.04,0-.06,0-.02,0-.05,0-.07,0-.02,0-.04,0-.06,0-.02,0-.05,.01-.07,0-.02,0-.04,.01-.06,0-.02,.01-.05,.02-.07,0-.02,0-.04,.01-.06,0-.02,.01-.05,.02-.07,0-.02,.01-.04,.02-.05,0-.02,.02-.05,.03-.07,0-.02,.01-.03,.02-.05,.01-.03,.02-.05,.04-.08,0-.01,.01-.03,.02-.04,.02-.04,.04-.08,.06-.11l-9.34,15.43s-.04,.07-.06,.11c0,.01-.01,.03-.02,.04-.01,.03-.02,.05-.04,.08,0,.02-.01,.03-.02,.05,0,.02-.02,.05-.03,.07,0,.02-.01,.04-.02,.05,0,.02-.02,.05-.02,.07,0,.02,0,.04-.01,.06,0,.02-.01,.05-.02,.07,0,.02,0,.04-.01,.06,0,.02,0,.05-.01,.07,0,.02,0,.04,0,.06,0,.02,0,.05,0,.07,0,.02,0,.04,0,.06,0,.02,0,.05,0,.07,0,.02,0,.04,0,.07,0,.02,0,.05,0,.07,0,.02,0,.04,0,.07,0,.02,0,.05,0,.07,0,.02,0,.05,0,.07,0,.03,0,.05,0,.08,0,.02,0,.05,0,.07,0,.03,0,.05,.01,.08,0,.02,0,.05,.01,.07,0,.03,0,.05,.01,.08,0,.02,0,.05,.01,.07,0,.03,.01,.05,.02,.08,0,.02,.01,.05,.02,.07,0,.03,.01,.05,.02,.08,0,.03,.01,.05,.02,.08,0,.03,.02,.05,.02,.08l.02,.08s.02,.06,.03,.08l.03,.08s.02,.06,.03,.08l.03,.08s.02,.06,.04,.09l.03,.08s.03,.06,.04,.09c.01,.03,.02,.05,.04,.08,.01,.03,.03,.06,.04,.09,.01,.03,.03,.05,.04,.08,.01,.03,.03,.06,.05,.09,.01,.03,.03,.05,.04,.08,.02,.03,.03,.06,.05,.09,.02,.03,.03,.06,.05,.08,.02,.03,.03,.06,.05,.09,.02,.03,.03,.06,.05,.08,.02,.03,.04,.06,.06,.09,.02,.03,.03,.06,.05,.09,.02,.03,.04,.06,.06,.09,.02,.03,.04,.06,.05,.09,.02,.03,.04,.06,.06,.09,.02,.03,.04,.06,.06,.09,.02,.03,.04,.06,.07,.1,.02,.03,.04,.06,.06,.09,.02,.03,.05,.06,.07,.1,.02,.03,.04,.06,.06,.09,.02,.03,.05,.07,.07,.1,.02,.03,.04,.06,.06,.09,.03,.03,.05,.07,.08,.1,.02,.03,.04,.06,.06,.08,.03,.03,.05,.07,.08,.1,.02,.02,.04,.05,.06,.07h0c.11,.14,.22,.27,.33,.4l.02,.02c.11,.13,.22,.26,.34,.38v.02l.04,.03c.09,.1,.18,.19,.27,.29l.02,.02c.09,.09,.18,.19,.28,.28l.03,.03h.01c.08,.1,.16,.18,.25,.26l.06,.06c.07,.07,.14,.14,.21,.2l.04,.04h.01c.17,.17,.34,.33,.52,.48l.02,.02,.02,.02c.16,.14,.33,.29,.5,.43h.02v.02c.18,.14,.35,.28,.53,.42h.01l.02,.03c.16,.13,.32,.25,.49,.38l.02,.02,.03,.02c.16,.12,.32,.24,.48,.36l.03,.02,.03,.02c.16,.12,.33,.24,.5,.35l.03,.02h.02c.18,.13,.36,.26,.54,.37h.02v.02c.2,.13,.39,.25,.59,.37h0l.02,.02c.17,.11,.34,.21,.52,.32l.08,.05,.03,.02c.2,.12,.4,.24,.59,.35l.03,.02h.02c.23,.15,.47,.28,.7,.4h.02l.02,.02c.3,.16,.59,.31,.89,.46h.02l.03,.03c.18,.09,.35,.17,.53,.26l.06,.03c.18,.08,.36,.17,.54,.25l.04,.02c.19,.08,.38,.16,.56,.24h.01c.19,.08,.38,.16,.57,.23h.03c.18,.08,.35,.15,.53,.21l.05,.02c.17,.06,.34,.12,.5,.18l.06,.02c.16,.05,.33,.11,.49,.16l.06,.02c.16,.05,.32,.1,.48,.14h.03l.03,.02c.08,.02,.16,.04,.24,.07h.04c.09,.03,.19,.06,.28,.08l.08,.02c.07,.02,.13,.03,.2,.05l.09,.02c.06,.01,.13,.03,.19,.04h.06l.02,.02c.14,.03,.27,.05,.41,.08h.05c.13,.03,.26,.05,.39,.07h.05c.11,.02,.21,.03,.32,.05h.06c.11,.02,.21,.03,.32,.03h.03c.08,0,.17,.01,.25,.02h.06c.09,0,.18,0,.26,0h.01s.02,0,.03,0c.07,0,.14,0,.2,0h.06c.08,0,.16,0,.23-.01h.03c.06,0,.13-.01,.19-.02h.06c.06-.01,.12-.02,.17-.03h.04c.07-.02,.13-.03,.2-.04h.05s.1-.03,.15-.04h.06c.05-.03,.1-.04,.16-.06h.02c.06-.03,.11-.04,.17-.06h.02l.03-.02s.08-.03,.12-.05l.05-.02s.1-.04,.14-.07h.01s.1-.06,.14-.09l.04-.02s.07-.05,.1-.07l.02-.02h.01s.09-.08,.13-.11l.02-.02s.07-.06,.1-.09l.02-.02h.01c.04-.05,.08-.1,.11-.14h0c.03-.05,.06-.1,.09-.14v-.02l.04-.05,9.34-15.43s-.03,.04-.04,.06Z"/></g><g><path class="e" d="M642.52,57.14c-7.6-4.6-12.47-10.48-10.88-13.12,1.6-2.64,9.06-1.06,16.66,3.55,7.6,4.6,12.47,10.48,10.88,13.12-1.6,2.64-9.06,1.06-16.66-3.55Z"/><path class="o" d="M659.13,60.76s-.07,.1-.1,.14h-.01c-.04,.06-.08,.11-.13,.16l-.04,.03s-.08,.07-.12,.1l-.03,.02s-.1,.08-.15,.11l-.04,.03s-.08,.05-.12,.08l-.05,.03c-.06,.03-.11,.06-.17,.09h-.01c-.06,.03-.11,.06-.17,.08l-.06,.02s-.1,.04-.15,.05l-.05,.02c-.07,.02-.14,.04-.21,.06h-.03c-.06,.02-.12,.04-.19,.05h-.07c-.06,.02-.12,.04-.18,.04h-.06c-.08,.02-.16,.03-.24,.04h-.05c-.07,.01-.14,.02-.21,.02h-.08c-.08,0-.15,.01-.23,.02h-.04c-.09,0-.19,0-.29,0h-.08c-.08,0-.16,0-.25,0h-.06c-.11,0-.21-.01-.32-.02h-.08c-.1-.01-.2-.02-.31-.03h-.04c-.13-.02-.26-.03-.39-.05h-.07c-.13-.03-.26-.05-.39-.07h-.06c-.16-.04-.32-.07-.49-.1h-.06c-.17-.05-.33-.08-.5-.12l-.09-.02c-.08-.02-.16-.04-.23-.06-.04,0-.08-.02-.12-.03-.08-.02-.16-.04-.24-.06l-.1-.03c-.11-.03-.23-.06-.34-.1l-.06-.02c-.1-.03-.2-.06-.3-.09l-.08-.02c-.2-.06-.39-.12-.59-.19l-.07-.02c-.2-.07-.4-.14-.61-.21l-.07-.03c-.21-.07-.42-.15-.63-.23l-.06-.02c-.22-.08-.44-.17-.66-.26h-.04c-.23-.11-.47-.21-.71-.31h-.01c-.23-.11-.47-.21-.7-.32l-.05-.02c-.22-.1-.45-.21-.68-.32l-.07-.04c-.22-.11-.44-.22-.67-.33l-.07-.03c-.37-.19-.74-.38-1.11-.59l-.04-.02c-.29-.16-.59-.32-.88-.49l-.07-.04c-.25-.14-.5-.29-.75-.44-.05-.03-.09-.06-.14-.08-.22-.13-.44-.27-.65-.4l-.03-.02c-.25-.15-.49-.31-.73-.47l-.03-.02c-.23-.15-.45-.3-.68-.45l-.06-.04c-.21-.15-.43-.29-.63-.44l-.07-.05c-.21-.15-.41-.3-.61-.45l-.07-.05c-.21-.16-.41-.31-.62-.47l-.04-.03c-.22-.17-.44-.35-.66-.52l-.03-.03c-.22-.18-.43-.35-.64-.53l-.05-.04c-.23-.19-.45-.39-.66-.58l-.07-.06c-.09-.08-.18-.17-.27-.25l-.07-.07c-.11-.1-.21-.2-.31-.3l-.05-.05c-.12-.12-.24-.23-.36-.35l-.02-.02c-.12-.12-.23-.24-.35-.35l-.05-.06c-.15-.16-.3-.31-.44-.47l-.02-.02c-.15-.16-.29-.33-.43-.49-.03-.03-.05-.06-.08-.1-.04-.04-.07-.08-.11-.13-.03-.03-.06-.07-.08-.1-.03-.04-.07-.08-.1-.12-.03-.03-.05-.07-.08-.1-.03-.04-.06-.08-.09-.12-.03-.03-.05-.07-.08-.1-.03-.04-.06-.08-.09-.12-.03-.03-.05-.07-.08-.1-.03-.04-.06-.08-.08-.12-.03-.04-.05-.07-.07-.1-.03-.04-.05-.08-.08-.11-.02-.03-.05-.07-.07-.1-.03-.04-.05-.08-.08-.11-.02-.03-.04-.07-.07-.1-.02-.04-.05-.07-.07-.11-.02-.03-.04-.07-.06-.1-.02-.04-.05-.07-.07-.11-.02-.03-.04-.07-.06-.1-.02-.04-.04-.07-.06-.11-.02-.03-.04-.07-.06-.1-.02-.04-.04-.07-.06-.11-.02-.03-.04-.07-.05-.1-.02-.04-.04-.07-.06-.11-.02-.03-.03-.06-.05-.1-.02-.03-.03-.07-.05-.1-.02-.03-.03-.06-.05-.1-.02-.03-.03-.07-.05-.1-.01-.03-.03-.06-.04-.09-.01-.03-.03-.07-.04-.1-.01-.03-.03-.06-.04-.09-.01-.03-.03-.07-.04-.1-.01-.03-.02-.06-.03-.09-.01-.03-.02-.07-.03-.1-.01-.03-.02-.06-.03-.09-.01-.03-.02-.06-.03-.1,0-.03-.02-.06-.03-.09,0-.03-.02-.06-.03-.09,0-.03-.02-.06-.02-.09,0-.03-.01-.06-.02-.09,0-.03-.01-.06-.02-.09,0-.03-.01-.06-.02-.09,0-.03,0-.06-.01-.08,0-.03,0-.06-.01-.09,0-.03,0-.05,0-.08,0-.03,0-.06,0-.09,0-.03,0-.05,0-.08,0-.03,0-.06,0-.09,0-.03,0-.05,0-.08,0-.03,0-.06,0-.08,0-.02,0-.05,0-.07,0-.03,0-.06,0-.08,0-.02,0-.05,0-.07,0-.03,0-.06,.01-.08,0-.02,0-.05,.01-.07,0-.03,.01-.05,.02-.08,0-.02,0-.04,.02-.07,0-.03,.02-.05,.02-.08,0-.02,.01-.04,.02-.06,0-.03,.02-.05,.03-.08,0-.02,.01-.04,.02-.06,.01-.03,.03-.06,.04-.09,0-.01,.01-.03,.02-.04,.02-.04,.05-.09,.07-.13l-14.63,24.18s-.05,.08-.07,.13c0,.01-.01,.03-.02,.04-.01,.03-.03,.06-.04,.09,0,.02-.01,.04-.02,.06-.01,.03-.02,.05-.03,.08,0,.02-.01,.04-.02,.06,0,.03-.02,.05-.02,.08,0,.02-.01,.04-.02,.07,0,.03-.01,.05-.02,.08,0,.02,0,.05-.01,.07,0,.03,0,.05-.01,.08,0,.02,0,.05,0,.07,0,.03,0,.06,0,.08,0,.02,0,.05,0,.07,0,.03,0,.06,0,.08,0,.03,0,.05,0,.08,0,.03,0,.06,0,.09,0,.03,0,.05,0,.08,0,.03,0,.06,0,.09,0,.03,0,.05,0,.08,0,.03,0,.06,.01,.09,0,.03,0,.06,.01,.08,0,.03,.01,.06,.02,.09,0,.03,.01,.06,.02,.08,0,.03,.01,.06,.02,.09,0,.03,.01,.06,.02,.09,0,.03,.02,.06,.03,.09,0,.03,.02,.06,.03,.09,0,.03,.02,.06,.03,.1,0,.03,.02,.06,.03,.09,.01,.03,.02,.07,.03,.1,.01,.03,.02,.06,.03,.09,.01,.03,.03,.07,.04,.1,.01,.03,.03,.06,.04,.09,.01,.03,.03,.07,.04,.1,.01,.03,.03,.06,.04,.09,.02,.03,.03,.07,.05,.1,.01,.03,.03,.06,.05,.1,.02,.03,.03,.07,.05,.1,.02,.03,.03,.06,.05,.1,.02,.04,.04,.07,.06,.11,.02,.03,.03,.07,.05,.1,.02,.04,.04,.07,.06,.11,.02,.03,.04,.07,.06,.1,.02,.04,.04,.07,.06,.11,.02,.03,.04,.07,.06,.1,.02,.04,.05,.07,.07,.11,.02,.03,.04,.07,.06,.1,.02,.04,.05,.07,.07,.11,.02,.03,.04,.07,.07,.1,.02,.04,.05,.07,.08,.11,.02,.03,.05,.07,.07,.1,.03,.04,.05,.08,.08,.11,.02,.03,.05,.07,.07,.1,.03,.04,.06,.08,.09,.12,.03,.03,.05,.07,.08,.1,.03,.04,.06,.08,.09,.12,.03,.03,.05,.07,.08,.1,.03,.04,.06,.08,.09,.12,.03,.03,.05,.07,.08,.1,.03,.04,.07,.08,.1,.12,.03,.03,.05,.07,.08,.1,.03,.04,.07,.08,.11,.13,.02,.03,.05,.06,.07,.09h0c.14,.17,.28,.33,.43,.49l.02,.02c.14,.16,.29,.31,.44,.47l.02,.02,.04,.04c.11,.12,.23,.24,.35,.35l.02,.02c.12,.12,.23,.23,.36,.35l.03,.03,.02,.02c.1,.1,.21,.2,.32,.3l.07,.07c.09,.08,.18,.17,.27,.25l.05,.05h.02c.21,.21,.44,.4,.66,.6l.02,.02,.03,.02c.21,.18,.42,.35,.64,.53l.02,.02h.01c.21,.18,.43,.36,.65,.53h.01l.03,.03c.2,.16,.41,.31,.62,.47l.03,.02,.04,.03c.2,.15,.41,.3,.61,.45l.04,.03,.03,.02c.21,.15,.42,.3,.63,.44l.04,.03,.02,.02c.22,.15,.45,.3,.68,.45h.02v.02c.25,.16,.49,.31,.74,.47h0l.02,.02c.21,.13,.43,.27,.65,.4l.1,.06,.04,.02c.25,.15,.5,.3,.75,.44l.04,.02,.03,.02c.29,.17,.59,.33,.88,.49h.02l.02,.02c.37,.2,.74,.4,1.11,.58h.03l.04,.03c.22,.11,.44,.22,.66,.33l.07,.04c.23,.11,.45,.21,.68,.32l.05,.02c.24,.11,.47,.21,.7,.31h.01c.24,.11,.47,.21,.71,.3h.04c.22,.1,.44,.19,.66,.28l.06,.02c.21,.08,.42,.16,.63,.23l.07,.03c.2,.07,.41,.14,.61,.21l.07,.02c.2,.07,.4,.13,.6,.19h.04l.04,.02c.1,.03,.2,.06,.3,.09h.05c.12,.05,.23,.08,.35,.11l.1,.03c.08,.02,.17,.04,.25,.06l.11,.03c.08,.02,.16,.04,.24,.06l.07,.02h.02c.17,.04,.34,.08,.5,.11h.06c.16,.05,.33,.08,.49,.1h.06c.13,.03,.26,.05,.39,.07h.07c.13,.03,.26,.04,.39,.06h.04c.1,.01,.21,.02,.31,.03h.08c.11,.01,.22,.02,.32,.03h.06c.08,0,.17,0,.25,0h.08c.1,0,.19,0,.29,0h.04c.08,0,.16,0,.23-.01h.08c.07-.01,.14-.02,.21-.02h.05c.08-.01,.16-.02,.24-.04h.06c.06-.02,.12-.03,.18-.04h.07c.06-.03,.13-.04,.19-.06h.03c.07-.03,.14-.05,.21-.07h.02l.04-.02c.05-.02,.1-.03,.15-.05l.06-.02c.06-.02,.12-.05,.17-.07h.01c.06-.03,.12-.06,.17-.1l.05-.03s.08-.05,.12-.08l.03-.02h.01c.05-.05,.1-.08,.15-.12l.02-.02s.08-.07,.12-.11l.02-.02v-.02c.06-.05,.1-.09,.14-.14h.01c.04-.06,.07-.11,.1-.16l.02-.02s.02-.03,.03-.05l14.63-24.18s-.03,.05-.05,.07Z"/></g><path class="k" d="M634.51,46.69c-.6-.37-.8-1.15-.43-1.76l5.29-8.75c.37-.6,1.15-.8,1.76-.43,.6,.37,.8,1.15,.43,1.76l-5.29,8.75c-.37,.6-1.15,.8-1.76,.43Z"/><path class="k" d="M655.46,59.36c-.6-.37-.8-1.15-.43-1.76l5.29-8.75c.37-.6,1.15-.8,1.76-.43,.6,.37,.8,1.15,.43,1.76l-5.29,8.75c-.37,.6-1.15,.8-1.76,.43Z"/><path class="k" d="M643.67,54.84c-.6-.37-.8-1.15-.43-1.76l5.29-8.75c.37-.6,1.15-.8,1.76-.43,.6,.37,.8,1.15,.43,1.76l-5.29,8.75c-.37,.6-1.15,.8-1.76,.43Z"/><g><path class="e" d="M656.34,34.28c-7.6-4.6-12.47-10.48-10.88-13.12,1.6-2.64,9.06-1.06,16.66,3.55,7.6,4.6,12.47,10.48,10.88,13.12-1.6,2.64-9.06,1.06-16.66-3.55Z"/><path class="o" d="M672.95,37.9s-.07,.1-.1,.14h-.01c-.04,.06-.08,.11-.13,.16l-.04,.03s-.08,.07-.12,.1l-.03,.02s-.1,.08-.15,.11l-.04,.03s-.08,.05-.12,.08l-.05,.03c-.06,.03-.11,.06-.17,.09h-.01c-.06,.03-.11,.06-.17,.08l-.06,.02s-.1,.04-.15,.05l-.05,.02c-.07,.02-.14,.04-.21,.06h-.03c-.06,.02-.12,.04-.19,.05h-.07c-.06,.02-.12,.04-.18,.04h-.06c-.08,.02-.16,.03-.24,.04h-.05c-.07,.01-.14,.02-.21,.02h-.08c-.08,0-.15,.01-.23,.02h-.04c-.09,0-.19,0-.29,0h-.08c-.08,0-.16,0-.25,0h-.06c-.11,0-.21-.01-.32-.02h-.08c-.1-.01-.2-.02-.31-.03h-.04c-.13-.02-.26-.03-.39-.05h-.07c-.13-.03-.26-.05-.39-.07h-.06c-.16-.04-.32-.07-.49-.1h-.06c-.17-.05-.33-.08-.5-.12l-.09-.02c-.08-.02-.16-.04-.23-.06-.04,0-.08-.02-.12-.03-.08-.02-.16-.04-.24-.06l-.1-.03c-.11-.03-.23-.06-.34-.1l-.06-.02c-.1-.03-.2-.06-.3-.09l-.08-.02c-.2-.06-.39-.12-.59-.19l-.07-.02c-.2-.07-.4-.14-.61-.21l-.07-.03c-.21-.07-.42-.15-.63-.23l-.06-.02c-.22-.08-.44-.17-.66-.26h-.04c-.23-.11-.47-.21-.71-.31h-.01c-.23-.11-.47-.21-.7-.32l-.05-.02c-.22-.1-.45-.21-.68-.32l-.07-.04c-.22-.11-.44-.22-.67-.33l-.07-.03c-.37-.19-.74-.38-1.11-.59l-.04-.02c-.29-.16-.59-.32-.88-.49l-.07-.04c-.25-.14-.5-.29-.75-.44-.05-.03-.09-.06-.14-.08-.22-.13-.44-.27-.65-.4l-.03-.02c-.25-.15-.49-.31-.73-.47l-.03-.02c-.23-.15-.45-.3-.68-.45l-.06-.04c-.21-.15-.43-.29-.63-.44l-.07-.05c-.21-.15-.41-.3-.61-.45l-.07-.05c-.21-.16-.41-.31-.62-.47l-.04-.03c-.22-.17-.44-.35-.66-.52l-.03-.03c-.22-.18-.43-.35-.64-.53l-.05-.04c-.23-.19-.45-.39-.66-.58l-.07-.06c-.09-.08-.18-.17-.27-.25l-.07-.07c-.11-.1-.21-.2-.31-.3l-.05-.05c-.12-.12-.24-.23-.36-.35l-.02-.02c-.12-.12-.23-.24-.35-.35l-.05-.06c-.15-.16-.3-.31-.44-.47l-.02-.02c-.15-.16-.29-.33-.43-.49-.03-.03-.05-.06-.08-.1-.04-.04-.07-.08-.11-.13-.03-.03-.06-.07-.08-.1-.03-.04-.07-.08-.1-.12-.03-.03-.05-.07-.08-.1-.03-.04-.06-.08-.09-.12-.03-.03-.05-.07-.08-.1-.03-.04-.06-.08-.09-.12-.03-.03-.05-.07-.08-.1-.03-.04-.06-.08-.08-.12-.03-.04-.05-.07-.07-.1-.03-.04-.05-.08-.08-.11-.02-.03-.05-.07-.07-.1-.03-.04-.05-.08-.08-.11-.02-.03-.04-.07-.07-.1-.02-.04-.05-.07-.07-.11-.02-.03-.04-.07-.06-.1-.02-.04-.05-.07-.07-.11-.02-.03-.04-.07-.06-.1-.02-.04-.04-.07-.06-.11-.02-.03-.04-.07-.06-.1-.02-.04-.04-.07-.06-.11-.02-.03-.04-.07-.05-.1-.02-.04-.04-.07-.06-.11-.02-.03-.03-.06-.05-.1-.02-.03-.03-.07-.05-.1-.02-.03-.03-.06-.05-.1-.02-.03-.03-.07-.05-.1-.01-.03-.03-.06-.04-.09-.01-.03-.03-.07-.04-.1-.01-.03-.03-.06-.04-.09-.01-.03-.03-.07-.04-.1-.01-.03-.02-.06-.03-.09-.01-.03-.02-.07-.03-.1-.01-.03-.02-.06-.03-.09-.01-.03-.02-.06-.03-.1,0-.03-.02-.06-.03-.09,0-.03-.02-.06-.03-.09,0-.03-.02-.06-.02-.09,0-.03-.01-.06-.02-.09,0-.03-.01-.06-.02-.09,0-.03-.01-.06-.02-.09,0-.03,0-.06-.01-.08,0-.03,0-.06-.01-.09,0-.03,0-.05,0-.08,0-.03,0-.06,0-.09,0-.03,0-.05,0-.08,0-.03,0-.06,0-.09,0-.03,0-.05,0-.08,0-.03,0-.06,0-.08,0-.02,0-.05,0-.07,0-.03,0-.06,0-.08,0-.02,0-.05,0-.07,0-.03,0-.06,.01-.08,0-.02,0-.05,.01-.07,0-.03,.01-.05,.02-.08,0-.02,0-.04,.02-.07,0-.03,.02-.05,.02-.08,0-.02,.01-.04,.02-.06,0-.03,.02-.05,.03-.08,0-.02,.01-.04,.02-.06,.01-.03,.03-.06,.04-.09,0-.01,.01-.03,.02-.04,.02-.04,.05-.09,.07-.13l-10.71,17.68s-.05,.08-.07,.13c0,.01-.01,.03-.02,.04-.01,.03-.03,.06-.04,.09,0,.02-.01,.04-.02,.06-.01,.03-.02,.05-.03,.08,0,.02-.01,.04-.02,.06,0,.03-.02,.05-.02,.08,0,.02-.01,.04-.02,.07,0,.03-.01,.05-.02,.08,0,.02,0,.05-.01,.07,0,.03,0,.05-.01,.08,0,.02,0,.05,0,.07,0,.03,0,.06,0,.08,0,.02,0,.05,0,.07,0,.03,0,.06,0,.08,0,.03,0,.05,0,.08,0,.03,0,.06,0,.09,0,.03,0,.05,0,.08,0,.03,0,.06,0,.09,0,.03,0,.05,0,.08,0,.03,0,.06,.01,.09,0,.03,0,.06,.01,.08,0,.03,.01,.06,.02,.09,0,.03,.01,.06,.02,.08,0,.03,.01,.06,.02,.09,0,.03,.01,.06,.02,.09,0,.03,.02,.06,.03,.09,0,.03,.02,.06,.03,.09,0,.03,.02,.06,.03,.1,0,.03,.02,.06,.03,.09,.01,.03,.02,.07,.03,.1,.01,.03,.02,.06,.03,.09,.01,.03,.03,.07,.04,.1,.01,.03,.03,.06,.04,.09,.01,.03,.03,.07,.04,.1,.01,.03,.03,.06,.04,.09,.02,.03,.03,.07,.05,.1,.01,.03,.03,.06,.05,.1,.02,.03,.03,.07,.05,.1,.02,.03,.03,.06,.05,.1,.02,.04,.04,.07,.06,.11,.02,.03,.03,.07,.05,.1,.02,.04,.04,.07,.06,.11,.02,.03,.04,.07,.06,.1,.02,.04,.04,.07,.06,.11,.02,.03,.04,.07,.06,.1,.02,.04,.05,.07,.07,.11,.02,.03,.04,.07,.06,.1,.02,.04,.05,.07,.07,.11,.02,.03,.04,.07,.07,.1,.02,.04,.05,.07,.08,.11,.02,.03,.05,.07,.07,.1,.03,.04,.05,.08,.08,.11,.02,.03,.05,.07,.07,.1,.03,.04,.06,.08,.09,.12,.03,.03,.05,.07,.08,.1,.03,.04,.06,.08,.09,.12,.03,.03,.05,.07,.08,.1,.03,.04,.06,.08,.09,.12,.03,.03,.05,.07,.08,.1,.03,.04,.07,.08,.1,.12,.03,.03,.05,.07,.08,.1,.03,.04,.07,.08,.11,.13,.02,.03,.05,.06,.07,.09h0c.14,.17,.28,.33,.43,.49l.02,.02c.14,.16,.29,.31,.44,.47l.02,.02,.04,.04c.11,.12,.23,.24,.35,.35l.02,.02c.12,.12,.23,.23,.36,.35l.03,.03,.02,.02c.1,.1,.21,.2,.32,.3l.07,.07c.09,.08,.18,.17,.27,.25l.05,.05h.02c.21,.21,.44,.4,.66,.6l.02,.02,.03,.02c.21,.18,.42,.35,.64,.53l.02,.02h.01c.21,.18,.43,.36,.65,.53h.01l.03,.03c.2,.16,.41,.31,.62,.47l.03,.02,.04,.03c.2,.15,.41,.3,.61,.45l.04,.03,.03,.02c.21,.15,.42,.3,.63,.44l.04,.03,.02,.02c.22,.15,.45,.3,.68,.45h.02v.02c.25,.16,.49,.31,.74,.47h0l.02,.02c.21,.13,.43,.27,.65,.4l.1,.06,.04,.02c.25,.15,.5,.3,.75,.44l.04,.02,.03,.02c.29,.17,.59,.33,.88,.49h.02l.02,.02c.37,.2,.74,.4,1.11,.58h.03l.04,.03c.22,.11,.44,.22,.66,.33l.07,.04c.23,.11,.45,.21,.68,.32l.05,.02c.24,.11,.47,.21,.7,.31h.01c.24,.11,.47,.21,.71,.3h.04c.22,.1,.44,.19,.66,.28l.06,.02c.21,.08,.42,.16,.63,.23l.07,.03c.2,.07,.41,.14,.61,.21l.07,.02c.2,.07,.4,.13,.6,.19h.04l.04,.02c.1,.03,.2,.06,.3,.09h.05c.12,.05,.23,.08,.35,.11l.1,.03c.08,.02,.17,.04,.25,.06l.11,.03c.08,.02,.16,.04,.24,.06l.07,.02h.02c.17,.04,.34,.08,.5,.11h.06c.16,.05,.33,.08,.49,.1h.06c.13,.03,.26,.05,.39,.07h.07c.13,.03,.26,.04,.39,.06h.04c.1,.01,.21,.02,.31,.03h.08c.11,.01,.22,.02,.32,.03h.06c.08,0,.17,0,.25,0h.08c.1,0,.19,0,.29,0h.04c.08,0,.16,0,.23-.01h.08c.07-.01,.14-.02,.21-.02h.05c.08-.01,.16-.02,.24-.04h.06c.06-.02,.12-.03,.18-.04h.07c.06-.03,.13-.04,.19-.06h.03c.07-.03,.14-.05,.21-.07h.02l.04-.02c.05-.02,.1-.03,.15-.05l.06-.02c.06-.02,.12-.05,.17-.07h.01c.06-.03,.12-.06,.17-.1l.05-.03s.08-.05,.12-.08l.03-.02h.01c.05-.05,.1-.08,.15-.12l.02-.02s.08-.07,.12-.11l.02-.02v-.02c.06-.05,.1-.09,.14-.14h.01c.04-.06,.07-.11,.1-.16l.02-.02s.02-.03,.03-.05l10.71-17.68s-.03,.05-.05,.07Z"/></g><rect class="j" x="676.71" y="54.79" width="28.76" height="47.38" rx="1.43" ry="1.43" transform="translate(266.3 629.22) rotate(-58.84)"/><ellipse class="o" cx="618.4" cy="96.62" rx="8.62" ry="35.41" transform="translate(215.7 575.77) rotate(-58.84)"/><path class="j" d="M606.55,116.6c-.23-.14-.42-.37-.51-.65-.19-.61,.15-1.26,.76-1.44l35.96-11.11c.61-.19,1.26,.15,1.44,.76,.19,.61-.15,1.26-.76,1.44l-35.96,11.11c-.33,.1-.67,.05-.94-.12Z"/><path class="j" d="M606.56,116.6c-.27-.16-.48-.44-.54-.78l-6.87-37.11c-.12-.63,.3-1.23,.93-1.35,.63-.12,1.23,.3,1.35,.93l6.87,37.11c.12,.63-.3,1.23-.93,1.35-.29,.05-.57,0-.81-.15Z"/><path class="j" d="M606.56,116.6c-.55-.33-.72-1.04-.39-1.59l15.88-26.26c.33-.55,1.04-.72,1.59-.39,.55,.33,.72,1.04,.39,1.59l-15.88,26.26c-.33,.55-1.04,.72-1.59,.39Z"/><ellipse class="o" cx="607.15" cy="115.61" rx="1.75" ry="4.14" transform="translate(194.02 575.31) rotate(-58.84)"/><path class="e" d="M622.86,89.25c16.73,10.12,28.3,21.63,25.84,25.7,4.14-6.85-5.28-21.9-22.02-32.02-16.73-10.12-34.44-11.48-38.58-4.63,2.46-4.07,18.03,.83,34.76,10.95Z"/><polygon class="i" points="692.67 78.09 699.52 66.77 697.54 65.58 690.7 76.89 671.41 65.23 670.22 67.21 689.5 78.87 682.66 90.19 682.66 90.19 684.63 91.38 684.63 91.38 691.48 80.06 710.76 91.73 711.96 89.75 692.67 78.09"/></g><g><path class="e" d="M57.1,505.53l30.12,35.09v26.26H24.36v-27.4s32.74-33.76,32.74-33.95Z"/><polygon class="d" points="57.5 507.83 24.35 539.48 9.68 539.48 50 500.66 57.5 507.83"/><polyline class="j" points="110.24 540.69 87.46 540.69 49.91 500.62 157.86 500.62 195.42 540.69 110.24 540.69"/><rect class="m" x="48.75" y="548.32" width="10.72" height="18.21"/><rect class="e" x="103.44" y="549.33" width="9.37" height="7.83"/><rect class="e" x="126.83" y="549.33" width="9.37" height="7.83"/><rect class="e" x="150.22" y="549.33" width="9.37" height="7.83"/></g><g><polygon class="l" points="290.51 377.85 293.97 403.36 287.06 403.36 290.51 377.85"/><path class="o" d="M285.59,402.99c0-2.74,2.22-4.96,4.96-4.96s4.96,2.22,4.96,4.96l-.07,10.04h-9.91l.07-10.04Z"/><path class="h" d="M279.39,421.99c0-6.19,5.02-11.21,11.21-11.21s11.21,5.02,11.21,11.21l-.16,22.71h-22.42l.16-22.71Z"/><rect class="p" x="285.1" y="410.78" width="10.83" height="2.38"/><rect class="e" x="279.2" y="430.84" width="22.64" height="33.86"/><rect class="e" x="250.8" y="488.17" width="79.42" height="82.09"/><polygon class="j" points="318.3 478.59 318.3 464.94 305.92 464.94 305.92 451.28 275.47 451.28 275.47 464.94 262.35 464.94 262.35 478.59 256.47 478.59 256.47 495.78 324.56 495.78 324.56 478.59 318.3 478.59"/><rect class="h" x="242.42" y="495.78" width="96.18" height="6.33"/><path class="h" d="M282.79,470.06c0-4.26,7.72-7.72,7.72-7.72,0,0,7.72,3.46,7.72,7.72v25.72h-15.44v-25.72Z"/><circle class="h" cx="290.51" cy="537.49" r="19.87"/><rect class="j" x="278.27" y="428.15" width="24.49" height="5.39"/><rect class="e" x="281.68" y="409.28" width="17.66" height="5.39"/></g><g><g><g><path class="f" d="M164.91,488.91s1.3,23.67,27.58,31.61l-27.58-31.61Z"/><path class="d" d="M164.95,488.95s26.56,8.26,27.58,31.61l-27.58-31.61Z"/></g><g><path class="f" d="M165.45,518.42s1.3,23.67,27.58,31.61l-27.58-31.61Z"/><path class="d" d="M165.49,518.46s26.56,8.26,27.58,31.61l-27.58-31.61Z"/></g><g><path class="f" d="M218.91,487.88s-.41,23.71-26.36,32.63l26.36-32.63Z"/><path class="d" d="M218.88,487.93s-26.23,9.27-26.36,32.63l26.36-32.63Z"/></g><g><path class="f" d="M219.49,517.39s-.41,23.71-26.36,32.63l26.36-32.63Z"/><path class="d" d="M219.46,517.44s-26.23,9.27-26.36,32.63l26.36-32.63Z"/></g></g><rect class="j" x="189.94" y="491.51" width="4.4" height="79.04"/></g><g><path class="f" d="M190.74,441.19s-21.89,28.93,1.07,56.42l-1.07-56.42Z"/><path class="d" d="M190.74,441.27s22.97,28.08,1.07,56.42l-1.07-56.42Z"/></g></g><g><g><path class="h" d="M594.81,311.22c-6.38,5.56-15.71,8.57-23.75,10.68-16.27,4.27-65.9,24.73-67.35,25.59-2.7,1.6-1.19,12.38-.6,12.84,.71,.57,113.96-18.16,113.96-18.16,0,0,21.79-42.18,21-44.89-.89-3.08-4.18-1.23-6.37-.8-3.17,.62-6.23,1.51-9.44,1.96-3.87,.55-7.62,1.56-11.42,2.44-1.84,.43-3.71,1.27-5.53,1.55-2.1,.34-4.48,.49-5.8,2.4-1.53,2.21-2.6,4.55-4.71,6.38Z"/><g><g><path class="n" d="M586.71,292.14c4.39,.17,8.02-.99,12.41-1.33,4.23-.32,8.33-1.49,12.56-1.76,8.52-.55,15.96-5.57,24.23-7.55,6.52-1.57,13.08-2.97,19.62-4.44,3.15-.71,6.41-.92,9.58-1.51,1.39-.26,78.54-12,79.86-11.45,.08-2.23,.28-15.21,0-28.05-1.57,.24-156.1,49.02-156.1,49.02l-45.29-9.56-16.62-9s-8.22,4.35-10.19,5.2c-1.65-1.68-5.16-2.89-7.45-3.49-2.73,2.99-5.79,5.99-8.41,9.16-1.89,2.29-3.88,6.45-6.13,7.95,4.89-.37,9.58,.21,14.49,.57,5.55,.41,11.14-.07,16.68-.03,6.25,.04,30.61,3.85,36.62,4.73,7.54,1.1,16.51,1.25,24.14,1.55Z"/><path class="n" d="M541.93,328.87c-1.93,1.1-13.81,4.44-13.81,4.44l-14.51-13.92,8.27-15.73,14.58,1.73s-5.23,11.9-6.35,14.6l11.81,8.88Z"/><path class="n" d="M557.45,318.73c-5.89,2.24-54.46,26.26-54.46,26.26,0,0,1.04,6.24,1,6.95-.1,1.78,.28,3.45,.87,5.12,2.42-1.88,5.89-3.27,8.67-4.58,3.63-1.71,7.33-3.28,11.12-4.63,11.22-4.01,22.83-6.72,34.45-9.25,7.57-1.65,14.17-4.64,20.83-8.52,3.15-1.84,5.02-3.81,7.4-6.52"/></g><path class="n" d="M489.82,307.61c1.61,1.71,4.05,9.51,4.05,9.51,0,0,18.44,22.12,19.12,23.14,1.38-1.04,3.64-2.84,3.72-4.24,.47-8.56-6.71-11.1-6.71-11.1l-1.86-7.46,10.62-10.9-21.13-6.86-7.8,7.91Z"/><path class="h" d="M509.79,267.62s37.03,13.83,39.46,14.84c-4.82-1.53-44.62-9.31-44.62-9.31l5.16-5.53Z"/><path class="h" d="M589.27,327.25c5.13,.54,10.29,1.53,15.45,1.69,5.32,.16,140.24,4.37,140.24,4.37v-87.46c-1.99,.95-154.04,45.33-156.26,45.34-2.67,0-95.21-12.55-97.42-12.74-4.04-.35-7.97,1.7-11.36,3.69-1.98,1.16-56.21,27.58-57.3,28.69,.73,.65,3.86,6.12,6.03,6.75,2.78,.8,9-1.99,16.15-4.5,15.9-5.57,39.39-12.21,41.77-12.39,2.83-.21,68.81,18.2,79.48,21.06,7.67,2.05,15.28,4.65,23.21,5.49Z"/></g></g><g><path class="j" d="M515.84,360c1.48-8.65-1.46-17.7-8.5-23.2-11.98-9.37-30.21-4.52-36.21,9.32-1.3,2.99-1.95,6.23-1.94,9.48,0,2.21,.34,4.33,.91,6.35-.12,0-.2-.02-.19-.03l.3,.47c1.28,4.22,1.71,6.2,6.07,12.05l15.54,21.63s15.76-18.68,15.76-18.68c4.1-4.88,7.18-11.06,8.26-17.4Z"/><path class="n" d="M507.98,355.54c.03,8.12-6.54,14.73-14.66,14.75-8.12,.03-14.73-6.54-14.75-14.66-.03-8.12,6.54-14.73,14.66-14.75,8.12-.03,14.73,6.54,14.75,14.66Z"/></g><path class="h" d="M506.85,299.44l-23.13,34.27s3.78,9.12-4.89,16.09c-1.43,1.15-5.11,.52-7.31,.09,.39-1.54,5.74-38.5,5.74-38.5,0,0,4.51-9.37,5.67-12.15l23.93,.19Z"/></g><g><path class="e" d="M111.8,436.72c4.99-13.71,2.88-29.38-6.98-40.48-16.8-18.9-48.06-16.39-62,4.44-3.01,4.5-5.06,9.61-6.01,14.93-.65,3.61-.74,7.18-.41,10.66-.2-.05-.32-.08-.3-.1l.35,.86c.83,7.28,.95,10.66,6.33,21.52l18.96,40.01s31.34-25.85,31.35-25.86c8.15-6.76,15.04-15.96,18.7-25.99Z"/><path class="h" d="M100.28,427.08c-2.38,13.29-15.09,22.14-28.38,19.76-13.29-2.38-22.14-15.09-19.76-28.38,2.38-13.29,15.09-22.14,28.38-19.76,13.29,2.38,22.14,15.09,19.76,28.38Z"/></g><g><path class="e" d="M202.31,298.18c.07-11.35-5.57-22.28-15.7-27.84-17.25-9.46-39.51,.56-44.27,19.47-1.03,4.08-1.19,8.36-.5,12.52,.47,2.81,1.34,5.46,2.49,7.92-.16,.02-.26,.02-.24,0l.48,.54c2.51,5.12,3.48,7.56,10.27,14.11l24.36,24.36s16.21-27.14,16.21-27.15c4.21-7.09,6.85-15.63,6.9-23.94Z"/><path class="h" d="M191.34,294.13c1.73,10.36-5.26,20.17-15.63,21.9-10.36,1.73-20.17-5.26-21.9-15.63-1.73-10.36,5.26-20.17,15.63-21.9,10.36-1.73,20.17,5.26,21.9,15.63Z"/></g><g><path class="e" d="M307.6,242.53c2.91-6.48,2.44-14.15-1.95-19.89-7.48-9.77-22.74-9.66-30.24-.04-1.62,2.08-2.79,4.48-3.45,7.03-.44,1.73-.61,3.46-.58,5.16-.09-.03-.15-.05-.14-.06l.14,.43c.15,3.56,.08,5.21,2.31,10.67l7.78,20.09s16.13-11.43,16.13-11.43c4.2-2.99,7.87-7.21,10-11.95Z"/><path class="h" d="M302.35,237.44c-1.63,6.37-8.11,10.21-14.47,8.58-6.37-1.63-10.21-8.11-8.58-14.47,1.63-6.37,8.11-10.21,14.47-8.58,6.37,1.63,10.21,8.11,8.58,14.47Z"/></g></g></g></g></svg>