<?xml version="1.0" encoding="utf-8"?>
<!-- Generator: Adobe Illustrator 26.2.1, SVG Export Plug-In . SVG Version: 6.00 Build 0)  -->
<svg version="1.1" id="Capa_1" xmlns="http://www.w3.org/2000/svg" xmlns:xlink="http://www.w3.org/1999/xlink" x="0px" y="0px"
	 viewBox="0 0 745 572.7" style="enable-background:new 0 0 745 572.7;" xml:space="preserve">
<style type="text/css">
	.st0{fill:#03AED7;}
	.st1{fill:#0E243F;}
	.st2{fill:#F5CE44;}
	.st3{fill:#F1685A;}
	.st4{fill:#F5CE44;stroke:#F7CF45;stroke-width:0.25;stroke-miterlimit:10;}
	.st5{fill:#F58B40;}
	.st6{fill:#07AA7D;}
	.st7{fill:#FDE89A;}
	.st8{fill:none;stroke:#0E243F;stroke-linecap:round;stroke-miterlimit:10;}
	.st9{fill:#1C313A;}
	.st10{fill:#57BD8D;}
	.st11{fill:#C1D841;}
	.st12{fill:#AED036;}
	.st13{fill:#1A2E35;}
	.st14{fill:#F09433;}
	.st15{fill:#FFFFFF;}
	.st16{fill:none;stroke:#FFFFFF;stroke-linecap:round;stroke-miterlimit:10;}
	.st17{fill:#A0DAD2;}
	.st18{fill:none;stroke:#6B3E00;stroke-width:3;stroke-miterlimit:10;}
	.st19{fill:#0E233F;}
	.st20{fill:#FFC800;}
</style>
<g id="Capa_2_00000101083569549502127390000000116009580904211846_">
	<g id="Layer_1">
		<path class="st0" d="M44.1,75c0,5.2-4.2,9.4-9.4,9.4s-9.4-4.2-9.4-9.4"/>
		<path class="st1" d="M18.8,75.2c-0.2-6.3,4.8-11.6,11.1-11.8c6.3-0.2,11.6,4.8,11.8,11.1c0,0.2,0,0.5,0,0.7"/>
		<path class="st2" d="M27.7,104.7h-0.6c-0.6,0.3-1.3,0.6-2,0.9c-0.9,0.3-1.9,0.6-2.8,0.9l-0.8,0.3h-0.1c-3.2,2.5-5,6.3-4.9,10.2
			v56.6c0,6.7,5,12.2,11.1,12.2l0,0c6.1,0,11.1-5.5,11.1-12.2V117C38.7,110.2,33.8,104.7,27.7,104.7z"/>
		<path class="st0" d="M38,260.7L38,260.7c-4.2,0-7.7-3.5-7.7-7.7v-54.4c0-4.2,3.5-7.6,7.7-7.6l0,0c4.2,0,7.7,3.4,7.7,7.7V253
			C45.7,257.2,42.2,260.7,38,260.7z"/>
		<path class="st0" d="M53.4,260.7L53.4,260.7c-4.2,0-7.7-3.5-7.7-7.7v-54.4c0-4.2,3.5-7.6,7.7-7.6l0,0c4.2,0,7.7,3.4,7.7,7.7V253
			C61.1,257.2,57.7,260.7,53.4,260.7z"/>
		<path class="st0" d="M45.5,303.2L45.5,303.2c-2.1,0-3.8-1.7-3.8-3.8v-62.1c0-2.1,1.7-3.8,3.8-3.8l0,0c2.1,0,3.8,1.7,3.8,3.8v62.1
			C49.3,301.5,47.6,303.2,45.5,303.2z"/>
		<path class="st3" d="M45.5,277.8L45.5,277.8c-3.4,0-6.2-2.8-6.2-6.2v-75c0-3.4,2.8-6.2,6.2-6.2l0,0c3.4,0,6.2,2.8,6.2,6.2v75
			C51.7,275,48.9,277.8,45.5,277.8z"/>
		<path class="st0" d="M38,218.6L38,218.6c-4.2,0-7.6-3.4-7.7-7.6v-54.4c0-4.2,3.4-7.7,7.7-7.7l0,0c4.2,0,7.7,3.4,7.7,7.7V211
			C45.6,215.2,42.2,218.6,38,218.6z"/>
		<path class="st0" d="M53.3,218.6L53.3,218.6c-4.2,0-7.6-3.4-7.7-7.6v-54.4c0-4.2,3.4-7.7,7.7-7.7l0,0c4.2,0,7.6,3.4,7.7,7.7V211
			C61,215.2,57.6,218.6,53.3,218.6z"/>
		<path class="st4" d="M45.7,228.7L45.7,228.7c-4.2,0-7.7-3.4-7.7-7.7v-65.9c0-4.2,3.4-7.7,7.7-7.7l0,0c4.2,0,7.7,3.4,7.7,7.7V221
			C53.3,225.2,49.9,228.7,45.7,228.7z"/>
		<path class="st5" d="M57.8,128.8c0,18.3-2,37-18.2,37c-10.2,0-18.6-18.7-18.6-37s8.2-33.1,18.4-33.1S57.8,110.5,57.8,128.8z"/>
		<path class="st3" d="M46.6,57.5h-0.5c-8.1,0-14.6,6.6-14.6,14.6v26.7c-2,1.7-3.6,3.8-4.9,6.1c-0.5,0.2-1,0.5-1.5,0.6
			c-0.9,0.3-1.9,0.6-2.8,0.9l-0.8,0.3h-0.1c-3.2,2.4-5,6.2-4.9,10.2v10c1.7-1.4,3.3-3,4.7-4.6c-0.2,2.1-0.3,4.2-0.4,6.4
			c-0.1,7.1,1.3,14.1,4,20.7c1.3-0.7,36.2-19.7,36.2-27.7V72.2C61.2,64.1,54.7,57.6,46.6,57.5z"/>
		<path class="st0" d="M63,184.9L63,184.9c-6.8,0-12.3-5-12.3-11.1v-58.9c0-6.1,5.5-11.1,12.3-11.1l0,0c6.8,0,12.3,5,12.3,11.1v58.9
			C75.3,179.9,69.8,184.9,63,184.9z"/>
		<path class="st6" d="M52.7,112c-0.2-0.6-0.5-1.1-0.9-1.6c2.2-4.1,6.5-6.7,11.2-6.6c6.8,0,12.3,5,12.3,11.1v21.6
			C65.2,130.9,56.7,122.6,52.7,112z"/>
		<path class="st7" d="M52.4,70.5c0.3-4.1-2.7-7.6-6.8-7.9s-7.6,2.7-7.9,6.8c-0.3,4,2.7,7.6,6.7,7.9l0.6,0.1l6.7,0.5l0.6-7.7"/>
		<path class="st1" d="M235.1,168.1h-222c-2.1,0-3.8-1.7-3.8-3.8l0,0c0-2.1,1.7-3.8,3.8-3.8H235"/>
		<path class="st6" d="M57.9,160.5v7.7c0,0.9-0.7,1.6-1.6,1.6h-2.1c-0.9,0-1.6-0.7-1.6-1.6v-7.7c0-0.9,0.7-1.6,1.6-1.6h2.1
			C57.2,158.9,57.9,159.7,57.9,160.5z"/>
		<path class="st6" d="M24.5,160.5v7.7c0,0.9-0.7,1.6-1.6,1.6h-2.1c-0.9,0-1.6-0.7-1.6-1.6v-7.7c0-0.9,0.7-1.6,1.6-1.6h2.1
			C23.8,158.9,24.5,159.7,24.5,160.5z"/>
		<path class="st6" d="M31,160.7l0,7.7c0,0.9-0.7,1.6-1.6,1.6l-2.1,0c-0.9,0-1.6-0.7-1.6-1.6l0-7.7c0-0.9,0.7-1.6,1.6-1.6l2.1,0
			C30.3,159.1,31,159.8,31,160.7z"/>
		<path class="st6" d="M37.4,160.5v7.7c0,0.9-0.7,1.6-1.6,1.6h-2.1c-0.9,0-1.6-0.7-1.6-1.6v-7.7c0-0.9,0.7-1.6,1.6-1.6h2.1
			C36.7,158.9,37.4,159.7,37.4,160.5z"/>
		<path class="st6" d="M64.4,160.5v7.7c0,0.9-0.7,1.6-1.6,1.6h-2.1c-0.9,0-1.6-0.7-1.6-1.6v-7.7c0-0.9,0.7-1.6,1.6-1.6h2.1
			C63.7,158.9,64.4,159.7,64.4,160.5z"/>
		<path class="st6" d="M70.9,160.7l0,7.7c0,0.9-0.7,1.6-1.6,1.6l-2.1,0c-0.9,0-1.6-0.7-1.6-1.6l0-7.7c0-0.9,0.7-1.6,1.6-1.6l2.1,0
			C70.2,159.1,70.9,159.8,70.9,160.7z"/>
		<path class="st0" d="M466.6,265.3c0,109.5-88.8,198.3-198.2,198.3S70.1,374.8,70.1,265.3S158.9,67,268.4,67
			S466.6,155.8,466.6,265.3"/>
		<path class="st3" d="M77.8,210.5l3.8,14.7L92,236l5.6,6.8l11.2,15.6v9.5l-2,4.4l2,7.2v6.8h-3.6l3.6,14.8v15.2l-3.6,8.5l3.6,6.8
			l5.2,3.2v8.4L95.3,362c35,62.7,101.3,101.6,173.1,101.5c109.5,0,198.2-88.8,198.2-198.3c0.1-41-12.6-81-36.4-114.4L418,158l-6.4,4
			l-8,1.2l-14.2-6l-6-8l-11.8-2.6l-13.6,5l-25.7,0.2l-1.4-7.4l-2-8.2l-8.4-7.6l-6.8-4.4l-15.6,1.2l5.2-19.3l-15.6-1.2l-1.4,7.8
			l8.6,4v3.2l-1.8,3c0,0-9.8,4-11.4,4.8s-14.4,3-14.4,3l-12.2-0.2l-0.4,11.2l1.2,13.2l6.4,12.2v13.2c0,1-2.2,6-2.2,6l-5.6,4h-5.8
			l-2.6-3.2l-0.4-4.8l-4.8-6l-3.8-9.2l6.6-6.1l4-10.1l-3.8-17.2l-2.2-6l-1.2-7.2l4.6-3.2l7.8,0.4l5.8-5.6l1.4-6l-2.6-4.8l-4.6-1.4
			h-5.4l-4.2,1.6l-1.2,3.8l-1.6,0.4l-1-3H238l-2.8,2.3v6l-6.6,4.2l-11.4,4.8l-6.6,9l-22.9,3.6l-3.6,12h-6v-3.8l-8.4-2.7l-16.8,8.4
			v10.2l-6.6,7.2l6.6,9.6v7.7h-11.4l-4.8,9.2l-9.6,11.3h-7.8l4.2,6.7v13.8h-3.6l-6-14.4l-10.8-10.2l-14.1-16.4l0,0
			C84.3,190.7,80.7,200.5,77.8,210.5"/>
		<path class="st2" d="M307.2,459.7l-11.9-9.6l-8.8-10.8l1.6-16l12.8-2.4l4.4,2.4l4.8-2.4l-1.2-7.7l-17.2-4.4l0.8-15.2l37.7-1.6
			l2-2.4l2.8-4.4l3.2,4l5.6-4l7.6-3.2l7.2,5.6v8.8l-1.2,10.4h7.6V402l-4.8-21.6l-5.2-10.4l-14.4-8.8l11.6-9.6l-2.8-12l-6.8-15.6
			l-0.4-28.1l4.4-7.6v-4.8l5.6-9.6l-7.6-5.7l-12.8,2.4l-18.4,1.2l-5.6,2l-8.8-3.6l-15.2-22l-9.2-5.2l-12,3.6l-12.9,1.6l-14.8-4
			c0,0-4.4-4.8-4.4-6.4s1.2-16,1.2-16s-1.6-8.8-2-10.4s-5.5-12-5.5-12l-6.5-8.6l-4.4-4.6h-5.2l6.4-8.4l5.2-22.1l4-8.4l6.4-8.8
			l10.2-17.6l4.6-3.2l7.8,0.4l5.8-5.6l1.4-6l-2.6-4.8l-4.6-1.4h-5.4l-4.2,1.6l-1.2,3.8l-1.6,0.4l-1-3H238l-2.8,2.3v6l-6.6,4.2
			l-11.4,4.8l-6.6,9l-22.9,3.6l-3.6,12h-6v-3.8l-8.4-2.7l-16.8,8.4v10.2l-6.6,7.2l6.6,9.6v7.7h-11.4l-4.8,9.2l-9.6,11.3h-7.8
			l4.2,6.7v13.8h-3.6l-6-14.4l-10.8-10.2l-14.1-16.4l0,0c-4.4,9.4-8.1,19.2-10.9,29.2l0,0l3.8,14.7L92,236l5.6,6.8l11.2,15.6v9.5
			l-2,4.4l2,7.2v6.8h-3.6l3.6,14.8v15.2l-3.6,8.5l3.6,6.8l5.2,3.2v8.4L95.3,362C137.3,437,222.8,476.5,307.2,459.7"/>
		<line class="st8" x1="210.6" y1="89" x2="210.6" y2="379.6"/>
		<line class="st8" x1="378.5" y1="319.2" x2="85" y2="319.2"/>
		<path class="st9" d="M210.6,313.2c-3.3,0-6,2.7-6,6s2.7,6,6,6s6-2.7,6-6S213.9,313.2,210.6,313.2"/>
		<path class="st0" d="M83.6,488.7h661.1l0,0v83.6l0,0H0l0,0l0,0C0,526.1,37.4,488.7,83.6,488.7C83.6,488.7,83.6,488.7,83.6,488.7z"
			/>
		<polygon class="st1" points="125.2,571.8 96.5,571.8 105.4,471.7 118.5,471.7 		"/>
		<path class="st10" d="M41.8,433.5c0-18.2,14.7-32.9,32.9-32.9s32.9,14.7,32.9,32.9"/>
		<path class="st10" d="M101.7,433.6c18.2,0,32.9,14.7,32.9,32.9c0,18.2-14.7,32.9-32.9,32.9c0,0,0,0,0,0"/>
		<path class="st10" d="M148.2,387.2c13,12.6,13.3,33.5,0.7,46.5c-12.6,13-33.5,13.3-46.5,0.7c-0.2-0.2-0.5-0.5-0.7-0.7"/>
		<circle class="st2" cx="98.3" cy="441.5" r="11.8"/>
		<path class="st2" d="M176.9,516.3c0,0-2.9,5.1,0.2,9.3c-2.5-2.9-7.6-4.7-11.4-1.6C166,523.8,171.9,516.8,176.9,516.3z"/>
		<path class="st2" d="M191.5,537.7c-2,0.1-6.7,0-10.3-1.9c1-1.4,1.8-3,2.4-4.6c0.1-0.6-1.6-2.5-2.4-3.6c2.7-1.3,5.7-2,8.8-2
			c-3,2.7-3.3,7.4-0.6,10.4C189.9,536.6,190.6,537.2,191.5,537.7L191.5,537.7z"/>
		<path class="st2" d="M181.1,527.5c-0.7,0.4-1.3,0.8-1.8,1.3c1.5,2.1,2.3,2.4,2.3,2.4l0,0l0,0l0,0c-0.6,1.1-1.4,2.2-2.2,3.2
			l0.2,0.2c0.5,0.4,1,0.8,1.6,1.1c1-1.4,1.8-3,2.4-4.6C183.7,530.5,182,528.7,181.1,527.5z"/>
		<path class="st2" d="M179.3,534.4l0.2,0.2c-1.2,2.1-2.7,4-4.4,5.7c-1.3,1.2-1.5,3.2-0.4,4.6c-4.8-1-11.9-9-12.1-9.2
			C166.7,539,173.3,541.9,179.3,534.4z"/>
		<path class="st11" d="M181.6,531.2L181.6,531.2L181.6,531.2L181.6,531.2c-0.6,1.1-1.4,2.2-2.2,3.2c-6.1,7.4-12.6,4.6-16.7,1.3l0,0
			c-1.5-1.2-2.7-2.5-3.8-4.1c-0.2-0.3,6.4-7.2,7-7.7l0,0c3.8-3.1,8.9-1.3,11.4,1.6l0,0c0.1,0.1,0.2,0.2,0.3,0.4
			c0.2,0.2,0.3,0.4,0.4,0.7c0.4,0.7,0.9,1.5,1.4,2.2C180.8,530.9,181.6,531.2,181.6,531.2z M178.6,532c0.4-1.1-3.4-7-8.3-7
			c-3.2,0-4.7,2.5-6.6,3.7c-3.8,2.3,0.2,8.4,7.2,8.6C174.3,537.5,177.5,535.3,178.6,532L178.6,532z"/>
		<path class="st10" d="M181.6,531.2L181.6,531.2L181.6,531.2L181.6,531.2c-0.6,1.1-1.4,2.2-2.2,3.2c-6.1,7.4-12.6,4.6-16.7,1.3l0,0
			c-1.5-1.2-2.7-2.5-3.8-4.1c-0.2-0.3,6.4-7.2,7-7.7l0,0c3.8-3.1,8.9-1.3,11.4,1.6l0,0c0.1,0.1,0.2,0.2,0.3,0.4
			c0.2,0.2,0.3,0.4,0.4,0.7c0.4,0.7,0.9,1.5,1.4,2.2C180.8,530.9,181.6,531.2,181.6,531.2z"/>
		<path class="st12" d="M177.2,525.6l0.3,0.4C177.4,525.9,177.3,525.7,177.2,525.6z"/>
		<path class="st6" d="M181.5,531.2L181.5,531.2c-0.6,1.1-1.4,2.2-2.2,3.2c-6.1,7.4-12.6,4.6-16.7,1.3l0,0c-1.5-1.2-2.7-2.5-3.8-4.1
			L181.5,531.2L181.5,531.2L181.5,531.2z"/>
		<path class="st6" d="M213.1,534.4l0.9,2.8c1.3-0.2,2.5-0.3,3.8-0.3v-3.7C216.1,533.3,214.6,533.7,213.1,534.4z"/>
		<path class="st6" d="M222.4,537.2c1.6,0.2,3.2,0.5,4.8,0.9l0.7-4.1c-1.8-0.3-3.7-0.6-5.5-0.7"/>
		<path class="st6" d="M232.7,534.9L231,539c1.3,0.4,2.5,0.8,3.8,1.2l3-4C236,535.7,234.3,535.3,232.7,534.9z"/>
		<path class="st6" d="M242.8,537.8l-3.8,4.1c1.1,0.4,2.1,0.8,3.2,1.3l4.5-4C245.4,538.6,244.1,538.2,242.8,537.8z"/>
		<path class="st3" d="M233.1,554.5c1.3-0.3,2.5-0.6,3.7-0.9l6.8,2.4l0,0c-0.4,0.2-7.3,4.7-13.8-0.8l0,0
			C230.8,555,232,554.7,233.1,554.5z"/>
		<path class="st6" d="M249.3,549.8c3-1.1,4.8-1.8,4.8-1.8h-60c6.8,9.9,22.1,9.8,35.6,7.2c1.1-0.2,2.3-0.5,3.4-0.7
			c1.3-0.3,2.5-0.6,3.7-0.9C241.8,552.3,246.1,550.9,249.3,549.8z"/>
		<path class="st2" d="M254.1,548c0,0-1.8,0.8-4.8,1.8c5.5,3.3,10.9,7.7,16,7.2l-8.2-9l8.2-9.2c-4.9-0.3-10.8,3.9-16.4,7.2l0,0
			l-6.7-2.8c-1.1-0.4-2.1-0.9-3.2-1.3c-1.4-0.5-2.8-1.1-4.3-1.6c-1.3-0.4-2.5-0.9-3.8-1.2s-2.5-0.7-3.8-1c-1.6-0.4-3.2-0.7-4.8-0.9
			c-1.5-0.2-3.1-0.3-4.6-0.3c-1.3,0-2.5,0.1-3.8,0.3c-1.1,0.2-2.2,0.3-3.2,0.5c-8.3,1.7-9.9,4.6-16.7,10.2L254.1,548z M254.1,548
			L254.1,548c-0.8-0.3-1.7-0.6-2.5-1C252.4,547.3,253.2,547.7,254.1,548z"/>
		<path class="st6" d="M275.8,510.8c-9-5.4,15-5.5,15-5.5s-30.9-6.5-52.3,4.7l37.1,3.4L275.8,510.8z"/>
		<path class="st6" d="M275.8,516.9c-9,5.4,15,5.5,15,5.5s-31.2,7.7-52.6-3.5l37.4-4.6L275.8,516.9z"/>
		<path class="st6" d="M274.1,511.6c7.4-4.1,18.5-1.4,18.5-1.4s-6.2,2.5-7.6,3.8c2.4,1.6,4.9,2.9,7.6,3.8c0,0-10.5,2.1-18.5-1.6
			V511.6z"/>
		<path class="st9" d="M279.4,514c0,0-29.6-15.5-49.7,1.4C229.7,515.4,249.7,528.1,279.4,514z"/>
		<path class="st6" d="M229.7,515.4l49.7-1.4C249.7,528.1,229.7,515.4,229.7,515.4z"/>
		<path class="st9" d="M316.7,556.5L316.7,556.5c4.5,9.9,17.4,8.6,17.4,8.6c-3.4-2-6.3-4.8-8.5-8C322.5,557,319.5,556.8,316.7,556.5
			z"/>
		<path class="st9" d="M337,557.2c-2.2,0.1-4.3,0.1-6.3,0.1l0,0c3.6,5.2,10.2,5.9,10.2,5.9C337.6,559.8,337,557.2,337,557.2
			L337,557.2z"/>
		<path class="st7" d="M294,547.9L294,547.9c4.1-6.1,10-10.7,17-13.1c0.8-0.3,1.6-0.5,2.5-0.8c18.1-5,40.1,3.3,54.3,10.3
			c2.6,1.3,4.9,2.6,6.9,3.7c4.4,2.5,7.1,4.3,7.4,4.5h-91C291.3,551.9,292.8,549.7,294,547.9z"/>
		<path class="st9" d="M380.9,536.7c-2,0.4-3.9,1.1-5.6,2.2c-2.7,1.6-5.2,3.4-7.6,5.4c-14.1-7-36.2-15.3-54.3-10.3
			c-0.8,0.2-1.7,0.5-2.5,0.8C342,505.4,380.9,536.7,380.9,536.7z"/>
		<path class="st3" d="M385.3,553.2c-0.2-0.2-2.8-2.3-6.9-5.1c8.2-3.7,18.6-4.1,26.5-3.6c4.1,0.2,8.2,0.7,12.2,1.5l-13.6,9
			l11.7,10.3c-4.2,0.1-8.3-0.2-12.5-0.9c-7.4-1.2-16.8-3.7-25.1-9.2C380.2,554.6,382.8,554,385.3,553.2L385.3,553.2z"/>
		<polyline class="st2" points="745,327.2 661.2,341.6 652.2,341.6 652.2,371.9 745,371.9 		"/>
		<polygon class="st1" points="745,327.2 699.3,371.5 651,371.5 638.4,379.8 638.4,488.7 702.8,488.7 744.9,488.7 		"/>
		<polygon class="st7" points="552.3,189.5 522.3,201.3 518.6,177.4 503.4,177.4 512.2,217.7 553,209.5 		"/>
		<polygon class="st7" points="652.2,203.8 489.2,176 447.9,150.4 496.5,148.6 652.2,185.8 		"/>
		<polygon class="st3" points="489.2,176 496.5,148.6 661.8,179.8 661.7,209.8 		"/>
		<polyline class="st6" points="470.7,164.5 473.4,149.4 447.9,150.4 		"/>
		<path class="st7" d="M648.2,238.2l-38.1-42l-7.8,21.8c0.5,0.4,22.7,24.1,22.7,24.1l-19,23.7c-2.9,3.7-3.8,8.6-2.3,13l5.1,12.4
			l13.9-6.2l-1.1-1.6h-10.4l-0.6-2.5"/>
		<path class="st7" d="M585.8,186.2l-18-1.4c-0.1-2.1,0-10.2,0-10.2l-7.6-8.7l1.2-24.7l0,0c8.7-3.7,18.7-2.5,26.2,3.3l1.1,0.9
			L585.8,186.2z"/>
		<path class="st6" d="M567.8,174.5c3.5,0.1,6.9-0.9,9.8-2.8c0,0-2.3,5.4-9.8,4.7L567.8,174.5z"/>
		<path class="st13" d="M561.5,141c2.1,5.6,9.8,6.7,14.9,7.5c-0.7-1.1-1.6-2.1-2.4-3.2c1.2,1.7,3.7,2.6,5.5,3.4c2.4,1.2,5,2,7.7,2.2
			c2.1,0.1,2.3-0.9,2.4-2.8c0.1-2.1-0.5-4.2-1.6-5.9c-4.1-5.9-13.8-6.2-20.2-5.5C565.3,137,561.4,137.8,561.5,141"/>
		<path class="st13" d="M585.7,148c0.3,0.7,1.9,9.2,1.9,9.2l1.9-8.2L585.7,148z"/>
		<path class="st1" d="M625.3,211.8l-18.4-18.5l0,0c-3.5-3.7-7.9-6.5-12.7-8.2c-2.6-0.9-5.3-1.4-8-1.5l0,0c-6.3,2-13,2-19.2,0
			c-5.3,0.6-10.4,2-15.2,4.3l0,0L524.4,199l8.8,24.3l13.2-5l0.8,56.1H603l-0.9-51.9l8.2,8L625.3,211.8z"/>
		<rect x="723.2" y="318.2" class="st6" width="4.7" height="8.9"/>
		<rect x="709.5" y="318.2" class="st6" width="4.7" height="8.9"/>
		<path class="st3" d="M699.3,305.3v30.5l-34.8,5.6V309l18.3-18.3C682.9,290.7,699.3,305.4,699.3,305.3z"/>
		<polygon class="st6" points="699.4,308.5 736.5,308.5 718.8,290.7 682.9,290.7 		"/>
		<circle class="st14" cx="510.3" cy="46" r="46"/>
		<path class="st0" d="M551,34.9c-2.5,3.7-3.8,8-3.8,12.4v23.1h-1.7L531.1,63c-5.7,7-5.7,17,0,24l14.4-7.4h1.7v23.2
			c0,4.4,1.3,8.8,3.8,12.4l2.3,2.9c1.2,1.2,2.4,2.3,3.8,3.2l2.3,1.3c1.2,0.6,2.5,1.1,3.8,1.5l2.3,0.5c1.3,0.2,2.6,0.3,3.9,0.3V77.9
			l13.4-0.3c0-1.8-1.4-3.2-3.1-3.3c-0.7-2.4-2.9-4.1-5.5-4.1h-4.8v-45c-1.3,0-2.6,0.1-3.9,0.3l-2.3,0.5c-1.3,0.4-2.5,0.9-3.8,1.5
			l-2.3,1.4c-1.4,0.9-2.7,2-3.8,3.2L551,34.9z"/>
		<rect x="327.5" y="400.6" class="st1" width="320.7" height="88.1"/>
		<path class="st6" d="M371.4,424.6V251.9h277.8v85.2c0,65.3-81.7,87.5-147,87.5"/>
		<path class="st15" d="M385,323v-9.6h3c0.8,0,1.6,0.2,2.2,0.7c0.6,0.5,0.9,1.2,0.8,2c0,0.5-0.1,1-0.4,1.5c-0.3,0.4-0.7,0.8-1.1,0.9
			c-0.7,0.2-1.4,0.3-2.1,0.3h-1v4.1H385z M387.8,314.6h-1.4v3h1.5c0.5,0,0.9-0.1,1.3-0.4c0.3-0.3,0.5-0.7,0.5-1.1
			C389.6,315.1,389,314.6,387.8,314.6L387.8,314.6z"/>
		<path class="st15" d="M393.4,316.7v1.4l0.1-0.1c0.6-1,1.2-1.5,1.8-1.5c0.6,0,1.1,0.3,1.5,0.7l-0.7,1.1c-0.3-0.3-0.7-0.6-1.2-0.6
			c-0.4,0-0.8,0.2-1,0.6c-0.3,0.4-0.5,0.9-0.4,1.4v3.3h-1.2v-6.3L393.4,316.7z"/>
		<path class="st15" d="M400.3,316.6c0.9,0,1.7,0.3,2.4,0.9c0.6,0.6,1,1.4,1,2.3c0,0.9-0.4,1.7-1,2.3c-0.7,0.6-1.5,0.9-2.4,0.9
			c-0.9,0-1.7-0.3-2.4-0.9c-0.6-0.6-1-1.4-1-2.3c0-0.9,0.3-1.7,1-2.3C398.5,317,399.4,316.6,400.3,316.6z M400.2,317.8
			c-0.6,0-1.1,0.2-1.5,0.6c-0.4,0.4-0.6,0.9-0.6,1.5c0,0.6,0.2,1.1,0.6,1.5c0.4,0.4,1,0.6,1.5,0.6c0.6,0,1.1-0.2,1.5-0.6
			c0.4-0.4,0.6-0.9,0.6-1.5c0-0.6-0.2-1.1-0.6-1.5C401.3,318,400.8,317.8,400.2,317.8L400.2,317.8z"/>
		<path class="st15" d="M408.4,316.7h1.4l-4.5,9.5h-1.4l2.1-4.6l-2.4-4.9h1.4l1.7,3.5L408.4,316.7z"/>
		<path class="st15" d="M415.5,319.9h-4.4c0,0.5,0.2,1.1,0.6,1.4c0.4,0.4,0.9,0.5,1.4,0.5c0.8,0,1.6-0.3,2.3-0.8v1.2
			c-0.3,0.2-0.7,0.4-1.1,0.5c-0.4,0.1-0.9,0.2-1.3,0.2c-0.6,0-1.2-0.1-1.7-0.4c-0.4-0.3-0.8-0.7-1-1.2c-0.3-0.5-0.4-1.1-0.4-1.7
			c0-0.9,0.3-1.7,0.8-2.3c0.5-0.6,1.3-0.9,2.1-0.9c0.8,0,1.5,0.3,2,0.9c0.5,0.7,0.8,1.5,0.7,2.3L415.5,319.9z M411.1,319.2h3.2
			c0-0.4-0.2-0.8-0.4-1.1c-0.3-0.3-0.7-0.4-1.1-0.4c-0.4,0-0.8,0.1-1.1,0.4C411.3,318.3,411.2,318.7,411.1,319.2L411.1,319.2z"/>
		<path class="st15" d="M421.6,321.5v1.2c-0.6,0.2-1.2,0.3-1.8,0.3c-0.9,0-1.7-0.3-2.4-0.9c-0.6-0.6-0.9-1.5-0.9-2.4
			c0-0.9,0.3-1.7,0.9-2.4c0.6-0.6,1.4-0.9,2.2-0.9c0.3,0,0.6,0,0.9,0.1c0.3,0.1,0.6,0.2,1,0.3v1.3c-0.5-0.4-1.1-0.6-1.8-0.6
			c-0.5,0-1,0.2-1.4,0.6c-0.4,0.4-0.6,0.9-0.5,1.5c0,0.6,0.2,1.1,0.6,1.5c0.4,0.4,1,0.6,1.6,0.6C420.5,321.9,421,321.7,421.6,321.5z
			"/>
		<path class="st15" d="M427.7,321.5v1.2c-0.6,0.2-1.2,0.3-1.8,0.3c-1.7,0.1-3.1-1.1-3.2-2.7c0-0.2,0-0.3,0-0.5
			c0-0.9,0.3-1.7,0.9-2.4c0.6-0.6,1.4-0.9,2.2-0.9c0.3,0,0.6,0,0.9,0.1c0.3,0.1,0.6,0.2,1,0.3v1.3c-0.5-0.4-1.1-0.6-1.8-0.6
			c-0.5,0-1,0.2-1.4,0.6c-0.4,0.4-0.6,0.9-0.5,1.5c0,0.6,0.2,1.1,0.6,1.5c0.4,0.4,1,0.6,1.6,0.6
			C426.6,321.9,427.2,321.7,427.7,321.5z"/>
		<path class="st15" d="M429.8,314c0.2,0,0.4,0.1,0.5,0.2c0.3,0.2,0.5,0.7,0.3,1c-0.2,0.3-0.7,0.5-1,0.3c-0.1-0.1-0.2-0.2-0.3-0.3
			c-0.3-0.3-0.3-0.7,0-1C429.4,314.1,429.6,314,429.8,314z M429.1,316.6h1.2v6.4h-1.2V316.6z"/>
		<path class="st15" d="M435.2,316.6c0.9,0,1.8,0.3,2.4,0.9c0.6,0.6,1,1.5,1,2.3c0,0.9-0.4,1.7-1,2.3c-0.7,0.6-1.5,0.9-2.4,0.9
			c-0.9,0-1.7-0.3-2.4-0.9c-1.3-1.3-1.3-3.3,0-4.6c0,0,0,0,0,0C433.4,316.9,434.3,316.6,435.2,316.6z M435.1,317.8
			c-0.6,0-1.1,0.2-1.5,0.6c-0.4,0.4-0.6,0.9-0.6,1.5c0,0.6,0.2,1.1,0.6,1.5c0.4,0.4,1,0.6,1.5,0.6c0.6,0,1.1-0.2,1.5-0.6
			c0.8-0.8,0.8-2.2,0-3C436.2,317.9,435.7,317.7,435.1,317.8z M436.6,313.2l-1.6,2.1h-0.8l0.9-2.1H436.6z"/>
		<path class="st15" d="M441.1,316.7v0.8c0.5-0.6,1.2-0.9,1.9-0.9c0.4,0,0.8,0.1,1.1,0.3c0.3,0.2,0.6,0.5,0.8,0.8
			c0.2,0.5,0.3,1.1,0.3,1.7v3.6h-1.2v-3.6c0-0.5-0.1-1-0.3-1.4c-0.2-0.3-0.6-0.5-1-0.4c-0.6,0-1.2,0.3-1.5,0.9v4.5h-1.3v-6.3
			L441.1,316.7z"/>
		<path class="st15" d="M385.1,330.2h1.4v8.3h4.3v1.2h-5.7L385.1,330.2z"/>
		<path class="st15" d="M395.7,336v2.7c0,0.2,0.1,0.3,0.2,0.3c0.3,0,0.5-0.2,0.7-0.3v0.8c-0.2,0.1-0.4,0.3-0.7,0.4
			c-0.2,0.1-0.4,0.1-0.5,0.1c-0.5,0-0.8-0.2-0.9-0.6c-0.5,0.4-1.1,0.6-1.7,0.6c-0.4,0-0.8-0.1-1.1-0.4c-0.3-0.3-0.4-0.7-0.4-1.1
			c0-0.4,0.2-0.8,0.4-1.1c0.3-0.3,0.8-0.6,1.2-0.7l1.6-0.5v-0.3c0.1-0.5-0.3-1.1-0.8-1.1c-0.1,0-0.2,0-0.3,0c-0.8,0-1.5,0.4-2,1.1
			v-1.4c0.5-0.6,1.3-0.9,2.1-0.9c0.6,0,1.2,0.2,1.6,0.5c0.2,0.1,0.3,0.3,0.4,0.5c0.1,0.2,0.2,0.4,0.2,0.6
			C395.7,335.3,395.7,335.6,395.7,336z M394.5,338.5v-1.9l-0.8,0.3c-0.3,0.1-0.6,0.3-0.9,0.5c-0.2,0.2-0.3,0.4-0.3,0.6
			c0,0.2,0.1,0.5,0.2,0.6c0.2,0.2,0.4,0.3,0.6,0.2C393.8,339,394.2,338.8,394.5,338.5L394.5,338.5z"/>
		<path class="st15" d="M396.9,334.5l2.3-2.3v1.3h2v1.1h-2v3.1c0,0.7,0.3,1.1,0.9,1.1c0.5,0,1-0.2,1.4-0.4v1.2
			c-0.5,0.3-1,0.4-1.6,0.4c-0.5,0-1-0.2-1.4-0.5c-0.1-0.1-0.2-0.2-0.3-0.3c-0.1-0.2-0.2-0.3-0.2-0.5c-0.1-0.4-0.1-0.8-0.1-1.1v-2.8
			h-1.1V334.5z"/>
		<path class="st15" d="M403.1,330.8c0.2,0,0.4,0.1,0.5,0.2c0.3,0.3,0.3,0.8,0,1c-0.1,0.1-0.3,0.2-0.5,0.2c-0.2,0-0.4-0.1-0.5-0.2
			c-0.3-0.3-0.3-0.7,0-1C402.7,330.9,402.9,330.8,403.1,330.8z M402.4,333.5h1.2v6.3h-1.2V333.5z"/>
		<path class="st15" d="M404.6,334.5l2.3-2.3v1.3h2v1.1h-2v3.1c0,0.7,0.3,1.1,0.9,1.1c0.5,0,1-0.2,1.4-0.4v1.2
			c-0.5,0.3-1,0.4-1.6,0.4c-0.5,0-1-0.2-1.4-0.5c-0.1-0.1-0.2-0.2-0.3-0.4c-0.1-0.2-0.2-0.3-0.2-0.5c-0.1-0.4-0.1-0.8-0.1-1.1v-2.8
			h-1.1V334.5z"/>
		<path class="st15" d="M414.1,339.8V339c-0.3,0.3-0.6,0.5-0.9,0.7c-0.3,0.2-0.7,0.2-1,0.2c-0.4,0-0.8-0.1-1.1-0.3
			c-0.3-0.2-0.6-0.5-0.8-0.8c-0.2-0.5-0.3-1.1-0.2-1.7v-3.6h1.2v3.6c0,0.5,0.1,1,0.3,1.4c0.2,0.3,0.6,0.4,1,0.4
			c0.6,0,1.2-0.3,1.5-0.9v-4.5h1.2v6.3L414.1,339.8z"/>
		<path class="st15" d="M421.3,330.2h1.2v9.5h-2.7c-0.8,0-1.6-0.3-2.2-0.9c-0.6-0.6-0.9-1.5-0.8-2.4c0-0.8,0.3-1.7,0.9-2.3
			c0.6-0.6,1.4-0.9,2.2-0.9c0.5,0,0.9,0.1,1.4,0.3V330.2z M421.3,338.7v-4c-0.4-0.2-0.8-0.3-1.2-0.3c-0.6,0-1.1,0.2-1.5,0.6
			c-0.4,0.5-0.6,1-0.5,1.6c0,0.5,0.1,1.1,0.5,1.5c0.2,0.2,0.4,0.3,0.6,0.4c0.4,0.1,0.8,0.1,1.2,0.1L421.3,338.7z"/>
		<path class="st15" d="M385.1,347h1.4v8.3h4.3v1.2h-5.7L385.1,347z"/>
		<path class="st15" d="M394.8,350.2c0.9,0,1.8,0.3,2.4,0.9c0.6,0.6,1,1.5,1,2.3c0,0.9-0.4,1.7-1,2.3c-0.7,0.6-1.5,0.9-2.4,0.9
			c-0.9,0-1.7-0.3-2.4-0.9c-1.3-1.3-1.3-3.3,0-4.6c0,0,0,0,0,0C393,350.5,393.9,350.2,394.8,350.2z M394.7,351.4
			c-0.6,0-1.1,0.2-1.5,0.6c-0.4,0.4-0.6,0.9-0.6,1.5c0,0.6,0.2,1.1,0.6,1.5c0.4,0.4,1,0.6,1.5,0.6c0.6,0,1.1-0.2,1.5-0.6
			c0.4-0.4,0.6-0.9,0.6-1.5c0-0.6-0.2-1.1-0.6-1.5C395.8,351.6,395.3,351.4,394.7,351.4z"/>
		<path class="st15" d="M400.7,350.3v0.8c0.5-0.6,1.2-0.9,1.9-0.9c0.4,0,0.8,0.1,1.1,0.3c0.3,0.2,0.6,0.5,0.8,0.8
			c0.2,0.5,0.3,1.1,0.3,1.7v3.6h-1.2V353c0-0.5-0.1-1-0.3-1.4c-0.2-0.3-0.6-0.5-1-0.4c-0.6,0-1.2,0.3-1.5,0.9v4.5h-1.3v-6.3
			L400.7,350.3z"/>
		<path class="st15" d="M406.2,352.4c0-0.6,0.2-1.2,0.7-1.6c0.6-0.4,1.3-0.6,2-0.6h2.6v1h-1.3c0.2,0.2,0.4,0.4,0.5,0.7
			c0.1,0.2,0.2,0.5,0.1,0.7c0,0.7-0.4,1.3-1,1.7c-0.5,0.2-0.9,0.4-1.4,0.4c-0.5,0.1-0.7,0.2-0.7,0.5c0,0.2,0.1,0.3,0.3,0.4
			c0.3,0.1,0.6,0.2,1,0.3c0.5,0.1,1,0.2,1.5,0.4c0.2,0.1,0.4,0.2,0.6,0.4c0.3,0.3,0.5,0.7,0.5,1.1c0,0.6-0.3,1.1-0.8,1.4
			c-1.3,0.7-2.9,0.7-4.3,0c-0.5-0.3-0.8-0.8-0.8-1.4c0-0.9,0.5-1.4,1.6-1.6c-0.4-0.3-0.6-0.5-0.6-0.8c0-0.2,0.1-0.4,0.3-0.5
			c0.2-0.2,0.5-0.3,0.7-0.4C406.7,354.2,406.1,353.3,406.2,352.4z M408.2,356.9c-0.4,0-0.7,0.1-1,0.3c-0.2,0.1-0.4,0.4-0.4,0.7
			c0,0.6,0.6,1,1.8,1c0.4,0,0.9-0.1,1.3-0.2c0.3-0.1,0.5-0.4,0.5-0.7c0-0.3-0.2-0.5-0.6-0.7C409.2,356.9,408.7,356.8,408.2,356.9
			L408.2,356.9z M408.5,351.4c-0.3,0-0.6,0.1-0.9,0.3c-0.2,0.2-0.4,0.5-0.4,0.8c0,0.3,0.1,0.6,0.4,0.8c0.2,0.2,0.6,0.3,0.9,0.3
			c0.3,0,0.6-0.1,0.9-0.3c0.2-0.2,0.4-0.5,0.4-0.8c0-0.3-0.1-0.6-0.4-0.8C409.1,351.5,408.8,351.4,408.5,351.4L408.5,351.4z"/>
		<path class="st15" d="M413.1,347.6c0.2,0,0.4,0.1,0.5,0.2c0.3,0.3,0.3,0.8,0,1c-0.1,0.1-0.3,0.2-0.5,0.2c-0.2,0-0.4-0.1-0.5-0.2
			c-0.3-0.3-0.3-0.7,0-1C412.7,347.7,412.9,347.6,413.1,347.6z M412.5,350.3h1.2v6.3h-1.2V350.3z"/>
		<path class="st15" d="M414.7,351.3l2.3-2.3v1.3h2v1.1h-2v3.1c0,0.7,0.3,1.1,0.9,1.1c0.5,0,1-0.2,1.4-0.4v1.2
			c-0.5,0.3-1,0.4-1.6,0.4c-0.5,0-1-0.2-1.4-0.5c-0.1-0.1-0.2-0.2-0.3-0.3c-0.1-0.2-0.2-0.3-0.2-0.5c-0.1-0.4-0.1-0.8-0.1-1.1v-2.8
			h-1.1L414.7,351.3z"/>
		<path class="st15" d="M424.2,356.6v-0.8c-0.3,0.3-0.6,0.5-0.9,0.7c-0.3,0.2-0.7,0.2-1,0.2c-0.4,0-0.8-0.1-1.1-0.3
			c-0.3-0.2-0.6-0.5-0.8-0.8c-0.2-0.5-0.3-1.1-0.3-1.7v-3.6h1.2v3.6c0,0.5,0.1,1,0.3,1.4c0.2,0.3,0.6,0.4,1,0.4
			c0.6,0,1.2-0.3,1.5-0.9v-4.5h1.2v6.3H424.2z"/>
		<path class="st15" d="M431.4,347h1.2v9.5H430c-0.8,0-1.6-0.3-2.2-0.9c-0.6-0.6-0.9-1.5-0.8-2.4c0-0.8,0.3-1.7,0.9-2.3
			c0.6-0.6,1.4-0.9,2.2-0.9c0.5,0,0.9,0.1,1.4,0.3V347z M431.4,355.5v-4c-0.4-0.2-0.8-0.3-1.2-0.3c-0.6,0-1.1,0.2-1.5,0.6
			c-0.4,0.5-0.6,1-0.5,1.6c0,0.5,0.1,1.1,0.5,1.5c0.2,0.2,0.4,0.3,0.6,0.4c0.4,0.1,0.8,0.1,1.2,0.1L431.4,355.5z"/>
		<path class="st15" d="M385.1,363.8h5.1v1.2h-3.7v2.7h3.7v1.2h-3.7v4.5h-1.4V363.8z"/>
		<path class="st15" d="M395.4,369.6v2.7c0,0.2,0.1,0.3,0.2,0.3c0.3,0,0.5-0.2,0.7-0.3v0.8c-0.2,0.1-0.4,0.3-0.7,0.4
			c-0.2,0.1-0.4,0.1-0.5,0.1c-0.5,0-0.9-0.2-0.9-0.6c-0.5,0.4-1.1,0.6-1.7,0.6c-0.4,0-0.8-0.1-1.1-0.4c-0.3-0.3-0.4-0.7-0.4-1.1
			c0-0.4,0.1-0.8,0.4-1.1c0.3-0.3,0.8-0.6,1.2-0.7l1.6-0.5v-0.3c0.1-0.5-0.3-1.1-0.8-1.1c-0.1,0-0.2,0-0.3,0c-0.8,0-1.5,0.4-2,1
			v-1.4c0.5-0.6,1.3-0.9,2.1-0.9c0.6,0,1.2,0.2,1.6,0.5c0.2,0.1,0.3,0.3,0.4,0.5c0.1,0.2,0.2,0.4,0.2,0.6
			C395.4,368.9,395.4,369.2,395.4,369.6z M394.2,372.1v-1.9l-0.8,0.3c-0.3,0.1-0.6,0.3-0.9,0.5c-0.2,0.2-0.3,0.4-0.3,0.6
			c0,0.2,0.1,0.5,0.2,0.6c0.2,0.2,0.4,0.3,0.6,0.2C393.5,372.6,393.9,372.4,394.2,372.1L394.2,372.1z"/>
		<path class="st15" d="M397.5,363.8h1.2v9.5h-1.2V363.8z"/>
		<path class="st15" d="M400.2,372.9v-1.3c0.3,0.2,0.7,0.4,1.1,0.6c0.3,0.1,0.6,0.2,0.9,0.2c0.2,0,0.5-0.1,0.7-0.2
			c0.2-0.1,0.3-0.3,0.3-0.5c0-0.2-0.1-0.3-0.2-0.5c-0.2-0.2-0.5-0.4-0.8-0.5c-0.6-0.3-1.1-0.7-1.6-1.1c-0.2-0.3-0.4-0.6-0.4-1
			c0-0.5,0.2-0.9,0.6-1.2c0.4-0.3,0.9-0.5,1.5-0.5c0.7,0,1.3,0.2,1.9,0.5v1.2c-0.5-0.4-1.2-0.6-1.8-0.7c-0.2,0-0.4,0-0.6,0.2
			c-0.1,0.1-0.2,0.2-0.2,0.4c0,0.2,0.1,0.3,0.2,0.4c0.2,0.2,0.5,0.3,0.7,0.5l0.4,0.2c1,0.6,1.6,1.2,1.6,2c0,0.5-0.2,1-0.6,1.3
			c-0.4,0.3-1,0.5-1.5,0.5c-0.3,0-0.7,0-1-0.1C400.9,373.3,400.6,373.1,400.2,372.9z"/>
		<path class="st15" d="M408.9,367c0.9,0,1.8,0.3,2.4,0.9c0.6,0.6,1,1.5,1,2.3c0,0.9-0.4,1.7-1,2.3c-0.7,0.6-1.5,0.9-2.4,0.9
			c-0.9,0-1.7-0.3-2.4-0.9c-1.3-1.3-1.3-3.3,0-4.6c0,0,0,0,0,0C407.1,367.3,408,367,408.9,367z M408.9,368.2c-0.6,0-1.1,0.2-1.5,0.6
			c-0.4,0.4-0.6,0.9-0.6,1.5c0,0.6,0.2,1.1,0.6,1.5c0.4,0.4,1,0.6,1.5,0.6c0.6,0,1.1-0.2,1.5-0.6c0.8-0.8,0.8-2.2,0-3
			C410,368.3,409.4,368.1,408.9,368.2L408.9,368.2z"/>
		<path class="st15" d="M425.3,363.8h1.3v9.5h-1.2L419,366v7.4h-1.3v-9.5h1.1l6.4,7.4L425.3,363.8z"/>
		<path class="st15" d="M431.5,367c0.9,0,1.7,0.3,2.4,0.9c0.6,0.6,1,1.5,1,2.3c0,0.9-0.4,1.7-1,2.3c-0.7,0.6-1.5,0.9-2.4,0.9
			c-0.9,0-1.7-0.3-2.4-0.9c-0.6-0.6-1-1.4-1-2.3c0-0.9,0.3-1.7,1-2.3C429.7,367.4,430.6,367,431.5,367z M431.4,368.2
			c-0.6,0-1.1,0.2-1.5,0.6c-0.4,0.4-0.6,0.9-0.6,1.5c0,0.6,0.2,1.1,0.6,1.5c0.4,0.4,1,0.6,1.5,0.6c0.6,0,1.1-0.2,1.5-0.6
			c0.4-0.4,0.6-0.9,0.6-1.5c0-0.6-0.2-1.1-0.6-1.5C432.5,368.4,432,368.2,431.4,368.2L431.4,368.2z"/>
		<path class="st15" d="M437.5,367.1v1.4l0.1-0.1c0.6-1,1.2-1.5,1.8-1.5c0.6,0,1.1,0.3,1.5,0.7l-0.7,1.1c-0.3-0.4-0.7-0.6-1.2-0.6
			c-0.4,0-0.8,0.2-1,0.6c-0.3,0.4-0.5,0.9-0.4,1.4v3.3h-1.3v-6.3H437.5z"/>
		<path class="st15" d="M440.8,368.1l2.3-2.3v1.3h2v1.1h-2v3.1c0,0.7,0.3,1.1,0.9,1.1c0.5,0,1-0.2,1.4-0.4v1.2
			c-0.5,0.3-1,0.4-1.6,0.4c-0.5,0-1-0.2-1.4-0.5c-0.1-0.1-0.2-0.2-0.3-0.3c-0.1-0.2-0.2-0.3-0.2-0.5c-0.1-0.4-0.1-0.8-0.1-1.1v-2.8
			h-1.1V368.1z"/>
		<path class="st15" d="M451.8,370.3h-4.4c0,0.5,0.2,1.1,0.6,1.4c0.4,0.4,0.9,0.6,1.4,0.5c0.8,0,1.6-0.3,2.3-0.8v1.2
			c-0.3,0.2-0.7,0.4-1.1,0.5c-0.4,0.1-0.9,0.2-1.3,0.2c-0.6,0-1.2-0.1-1.7-0.4c-0.4-0.3-0.8-0.7-1-1.2c-0.3-0.5-0.4-1.1-0.4-1.7
			c0-0.9,0.3-1.7,0.8-2.3c0.5-0.6,1.3-0.9,2.1-0.9c0.8,0,1.5,0.3,2,0.9c0.5,0.7,0.8,1.5,0.8,2.3L451.8,370.3z M447.4,369.6h3.2
			c0-0.4-0.2-0.8-0.5-1.1c-0.3-0.3-0.7-0.4-1.1-0.4c-0.4,0-0.8,0.1-1.1,0.4C447.6,368.7,447.4,369.1,447.4,369.6z"/>
		<path class="st15" d="M385.1,380.6h5.1v1.2h-3.7v2.7h3.7v1.2h-3.7v4.5h-1.4V380.6z"/>
		<path class="st15" d="M395.1,386.4v2.7c0,0.2,0.1,0.3,0.2,0.3c0.3,0,0.5-0.2,0.7-0.3v0.8c-0.2,0.1-0.4,0.3-0.7,0.4
			c-0.2,0.1-0.4,0.1-0.5,0.1c-0.5,0-0.9-0.2-0.9-0.6c-0.5,0.4-1.1,0.6-1.7,0.6c-0.4,0-0.8-0.1-1.1-0.4c-0.3-0.3-0.4-0.7-0.4-1.1
			c0-0.4,0.1-0.8,0.4-1.1c0.3-0.3,0.8-0.6,1.2-0.7l1.6-0.5V386c0.1-0.5-0.3-1.1-0.8-1.1c-0.1,0-0.2,0-0.3,0c-0.8,0-1.5,0.4-2,1v-1.3
			c0.5-0.6,1.3-0.9,2.1-0.9c0.6,0,1.2,0.2,1.6,0.5c0.2,0.1,0.3,0.3,0.4,0.5c0.1,0.2,0.2,0.4,0.2,0.6
			C395.1,385.7,395.2,386,395.1,386.4z M393.9,388.9V387l-0.8,0.3c-0.3,0.1-0.6,0.3-0.9,0.5c-0.2,0.2-0.3,0.4-0.3,0.6
			c0,0.2,0.1,0.5,0.2,0.6c0.2,0.2,0.4,0.3,0.6,0.2C393.2,389.4,393.6,389.2,393.9,388.9z"/>
		<path class="st15" d="M397.2,380.6h1.2v9.5h-1.2V380.6z"/>
		<path class="st15" d="M399.9,389.7v-1.3c0.3,0.2,0.7,0.4,1.1,0.6c0.3,0.1,0.6,0.2,0.9,0.2c0.2,0,0.5-0.1,0.7-0.2
			c0.2-0.1,0.3-0.3,0.3-0.5c0-0.2-0.1-0.3-0.2-0.5c-0.2-0.2-0.5-0.4-0.8-0.5c-0.6-0.3-1.1-0.7-1.6-1.1c-0.2-0.3-0.4-0.6-0.4-1
			c0-0.5,0.2-0.9,0.6-1.2c0.4-0.3,0.9-0.5,1.5-0.5c0.7,0,1.3,0.2,1.9,0.5v1.2c-0.5-0.4-1.2-0.6-1.8-0.7c-0.2,0-0.4,0-0.6,0.2
			c-0.1,0.1-0.2,0.2-0.2,0.4c0,0.2,0.1,0.3,0.2,0.4c0.2,0.2,0.5,0.3,0.7,0.5l0.4,0.2c1,0.6,1.6,1.2,1.6,2c0,0.5-0.2,1-0.6,1.3
			c-0.4,0.3-1,0.5-1.5,0.5c-0.3,0-0.7,0-1-0.1C400.7,390.1,400.3,389.9,399.9,389.7z"/>
		<path class="st15" d="M408.6,383.9c0.9,0,1.8,0.3,2.4,0.9c0.6,0.6,1,1.4,1,2.3c0,0.9-0.4,1.7-1,2.3c-0.7,0.6-1.5,0.9-2.4,0.9
			c-0.9,0-1.7-0.3-2.4-0.9c-1.3-1.3-1.3-3.3,0-4.6c0,0,0,0,0,0C406.9,384.2,407.7,383.8,408.6,383.9z M408.6,385
			c-0.6,0-1.1,0.2-1.5,0.6c-0.4,0.4-0.6,0.9-0.6,1.5c0,0.6,0.2,1.1,0.6,1.5c0.4,0.4,1,0.6,1.5,0.6c0.6,0,1.1-0.2,1.5-0.6
			c0.8-0.8,0.8-2.2,0-3C409.7,385.1,409.1,385,408.6,385L408.6,385z"/>
		<path class="st15" d="M417.4,380.6h5.4v1.2h-4v2.9h3.9v1.3h-3.9v3h4.2v1.2h-5.5L417.4,380.6z"/>
		<path class="st15" d="M423.9,389.7v-1.3c0.3,0.2,0.7,0.4,1.1,0.6c0.3,0.1,0.6,0.2,0.9,0.2c0.2,0,0.5-0.1,0.7-0.2
			c0.2-0.1,0.3-0.3,0.3-0.5c0-0.2-0.1-0.3-0.2-0.5c-0.2-0.2-0.5-0.4-0.8-0.5c-0.6-0.3-1.1-0.7-1.6-1.1c-0.2-0.3-0.4-0.6-0.4-1
			c0-0.5,0.2-0.9,0.6-1.2c0.4-0.3,0.9-0.5,1.5-0.5c0.7,0,1.3,0.2,1.9,0.5v1.2c-0.5-0.4-1.2-0.6-1.8-0.7c-0.2,0-0.4,0-0.6,0.2
			c-0.1,0.1-0.2,0.2-0.2,0.4c0,0.2,0.1,0.3,0.2,0.4c0.2,0.2,0.5,0.3,0.7,0.5l0.4,0.2c1,0.6,1.6,1.2,1.6,2c0,0.5-0.2,1-0.6,1.3
			c-0.4,0.3-1,0.5-1.5,0.5c-0.3,0-0.7,0-1-0.1C424.7,390.1,424.3,389.9,423.9,389.7z"/>
		<path class="st15" d="M428.8,384.9l2.3-2.3v1.3h2v1.1h-2v3.1c0,0.7,0.3,1.1,0.9,1.1c0.5,0,1-0.2,1.4-0.4v1.2
			c-0.5,0.3-1,0.4-1.6,0.4c-0.5,0-1-0.2-1.4-0.5c-0.1-0.1-0.2-0.2-0.3-0.3c-0.1-0.2-0.2-0.3-0.2-0.5c-0.1-0.4-0.1-0.8-0.1-1.2V385
			h-1.1L428.8,384.9z"/>
		<path class="st15" d="M439.6,387.1h-4.4c0,0.5,0.2,1.1,0.6,1.4c0.4,0.4,0.9,0.6,1.4,0.5c0.8,0,1.6-0.3,2.3-0.8v1.2
			c-0.4,0.2-0.7,0.4-1.1,0.5c-0.4,0.1-0.9,0.2-1.3,0.2c-0.6,0-1.2-0.1-1.7-0.4c-0.4-0.3-0.8-0.7-1-1.2c-0.3-0.5-0.4-1.1-0.4-1.7
			c0-0.9,0.3-1.7,0.8-2.3c0.5-0.6,1.3-0.9,2.1-0.9c0.8,0,1.5,0.3,2,0.9c0.5,0.7,0.8,1.5,0.7,2.3L439.6,387.1z M435.3,386.4h3.2
			c0-0.4-0.2-0.8-0.4-1.1c-0.3-0.3-0.7-0.4-1.1-0.4c-0.4,0-0.8,0.1-1.1,0.4C435.5,385.5,435.3,385.9,435.3,386.4L435.3,386.4z"/>
		<path class="st15" d="M479.8,314.9h8v1.2h-3.3v8.4h-1.4v-8.4h-3.3L479.8,314.9z"/>
		<path class="st15" d="M490.3,318.2v1.4l0.1-0.1c0.6-1,1.2-1.5,1.8-1.5c0.6,0,1.1,0.3,1.5,0.7l-0.6,1.1c-0.3-0.3-0.7-0.6-1.2-0.6
			c-0.4,0-0.8,0.2-1,0.6c-0.3,0.4-0.4,0.9-0.4,1.4v3.3H489v-6.3H490.3z"/>
		<path class="st15" d="M498.4,320.7v2.7c0,0.2,0.1,0.3,0.2,0.3c0.3,0,0.5-0.2,0.7-0.3v0.8c-0.2,0.1-0.4,0.3-0.7,0.4
			c-0.2,0.1-0.3,0.1-0.5,0.1c-0.5,0-0.9-0.2-1-0.6c-0.5,0.4-1.1,0.6-1.7,0.6c-0.4,0-0.8-0.1-1.1-0.4c-0.3-0.3-0.5-0.7-0.4-1.1
			c0-0.4,0.2-0.8,0.4-1.1c0.3-0.3,0.8-0.6,1.2-0.7l1.6-0.5v-0.3c0.1-0.5-0.3-1.1-0.8-1.1c-0.1,0-0.2,0-0.3,0c-0.8,0-1.5,0.4-2,1
			v-1.4c0.5-0.6,1.3-0.9,2.1-0.9c0.6,0,1.2,0.2,1.6,0.5c0.1,0.1,0.3,0.3,0.4,0.5c0.1,0.2,0.2,0.4,0.2,0.6
			C498.4,320,498.4,320.3,498.4,320.7z M497.2,323.2v-1.9l-0.8,0.3c-0.3,0.1-0.6,0.3-0.9,0.5c-0.2,0.2-0.3,0.4-0.3,0.6
			c0,0.2,0.1,0.5,0.2,0.6c0.2,0.2,0.4,0.2,0.6,0.2C496.5,323.7,496.9,323.5,497.2,323.2z"/>
		<path class="st15" d="M501.7,318.2v0.8c0.5-0.6,1.2-0.9,1.9-0.9c0.4,0,0.8,0.1,1.1,0.3c0.3,0.2,0.6,0.5,0.8,0.8
			c0.2,0.5,0.3,1.1,0.3,1.7v3.6h-1.2v-3.6c0-0.5-0.1-1-0.3-1.4c-0.2-0.3-0.6-0.5-1-0.4c-0.6,0-1.2,0.3-1.5,0.9v4.5h-1.3v-6.3H501.7z
			"/>
		<path class="st15" d="M507.1,324v-1.3c0.3,0.2,0.7,0.4,1.1,0.6c0.3,0.1,0.6,0.2,0.9,0.2c0.2,0,0.5-0.1,0.7-0.2
			c0.2-0.1,0.3-0.3,0.3-0.5c0-0.2-0.1-0.3-0.2-0.5c-0.2-0.2-0.5-0.4-0.8-0.5c-0.6-0.3-1.1-0.7-1.6-1.1c-0.2-0.3-0.4-0.6-0.4-1
			c0-0.5,0.2-0.9,0.6-1.2c0.4-0.3,0.9-0.5,1.5-0.5c0.7,0,1.3,0.2,1.9,0.5v1.2c-0.5-0.4-1.2-0.6-1.8-0.7c-0.2,0-0.4,0-0.6,0.1
			c-0.1,0.1-0.2,0.2-0.2,0.4c0,0.2,0.1,0.3,0.2,0.4c0.2,0.2,0.5,0.3,0.7,0.5l0.4,0.2c1,0.6,1.6,1.2,1.6,2c0,0.5-0.2,1-0.6,1.3
			c-0.4,0.3-1,0.5-1.5,0.5c-0.3,0-0.7,0-1-0.1C507.9,324.4,507.5,324.2,507.1,324z"/>
		<path class="st15" d="M516.7,318.2h1.3l-2.8,6.4h-0.4l-2.8-6.4h1.4l1.7,3.9L516.7,318.2z"/>
		<path class="st15" d="M524.3,321.5h-4.4c0,0.5,0.2,1.1,0.6,1.4c0.4,0.4,0.9,0.5,1.4,0.5c0.8,0,1.6-0.3,2.3-0.8v1.2
			c-0.3,0.2-0.7,0.4-1.1,0.5c-0.4,0.1-0.9,0.2-1.3,0.2c-0.6,0-1.2-0.1-1.7-0.4c-0.4-0.3-0.8-0.7-1-1.2c-0.3-0.5-0.4-1.1-0.4-1.7
			c0-0.9,0.3-1.7,0.8-2.3c0.5-0.6,1.3-0.9,2.1-0.9c0.8,0,1.5,0.3,2,0.9c0.5,0.7,0.8,1.5,0.7,2.4L524.3,321.5z M519.9,320.7h3.2
			c0-0.4-0.2-0.8-0.4-1.1c-0.3-0.3-0.7-0.4-1.1-0.4c-0.4,0-0.8,0.1-1.1,0.4C520.2,319.9,520,320.3,519.9,320.7z"/>
		<path class="st15" d="M527,318.2v1.4l0.1-0.1c0.6-1,1.2-1.5,1.8-1.5c0.6,0,1.1,0.3,1.5,0.7l-0.7,1.1c-0.3-0.3-0.7-0.6-1.2-0.6
			c-0.4,0-0.8,0.2-1,0.6c-0.3,0.4-0.4,0.9-0.4,1.4v3.3h-1.2v-6.3H527z"/>
		<path class="st15" d="M530.9,324v-1.3c0.3,0.2,0.7,0.4,1.1,0.6c0.3,0.1,0.6,0.2,0.9,0.2c0.2,0,0.5-0.1,0.7-0.2
			c0.2-0.1,0.3-0.3,0.3-0.5c0-0.2-0.1-0.3-0.2-0.5c-0.2-0.2-0.5-0.4-0.8-0.5c-0.6-0.3-1.1-0.7-1.6-1.1c-0.2-0.3-0.4-0.6-0.4-1
			c0-0.5,0.2-0.9,0.6-1.2c0.4-0.3,0.9-0.5,1.5-0.5c0.7,0,1.3,0.2,1.9,0.5v1.2c-0.5-0.4-1.2-0.6-1.8-0.7c-0.2,0-0.4,0-0.6,0.1
			c-0.1,0.1-0.2,0.2-0.2,0.4c0,0.2,0.1,0.3,0.2,0.4c0.2,0.2,0.5,0.3,0.7,0.5l0.4,0.2c1,0.6,1.6,1.2,1.6,2c0,0.5-0.2,1-0.6,1.3
			c-0.4,0.4-1,0.5-1.6,0.5c-0.3,0-0.7,0-1-0.1C531.6,324.4,531.3,324.2,530.9,324z"/>
		<path class="st15" d="M540.6,320.7v2.7c0,0.2,0.1,0.3,0.2,0.3c0.3,0,0.5-0.2,0.7-0.3v0.8c-0.2,0.1-0.4,0.3-0.7,0.4
			c-0.2,0.1-0.3,0.1-0.5,0.1c-0.5,0-0.8-0.2-1-0.6c-0.5,0.4-1.1,0.6-1.7,0.6c-0.4,0-0.8-0.1-1.1-0.4c-0.3-0.3-0.5-0.7-0.4-1.1
			c0-0.4,0.2-0.8,0.4-1.1c0.3-0.3,0.8-0.6,1.2-0.7l1.6-0.5v-0.3c0.1-0.5-0.3-1.1-0.8-1.1c-0.1,0-0.2,0-0.3,0c-0.8,0-1.5,0.4-2,1
			v-1.4c0.5-0.6,1.3-0.9,2.1-0.9c0.6,0,1.2,0.2,1.6,0.5c0.1,0.1,0.3,0.3,0.4,0.5c0.1,0.2,0.2,0.4,0.2,0.6
			C540.5,320,540.6,320.3,540.6,320.7z M539.3,323.2v-1.9l-0.8,0.3c-0.3,0.1-0.6,0.3-0.9,0.5c-0.3,0.4-0.3,0.9,0,1.3
			c0.2,0.2,0.4,0.2,0.7,0.2C538.7,323.7,539.1,323.5,539.3,323.2z"/>
		<path class="st15" d="M550.7,314.9h1.2v9.5h-2.7c-0.8,0-1.6-0.3-2.2-0.9c-0.6-0.6-0.9-1.5-0.8-2.4c0-0.8,0.3-1.7,0.9-2.3
			c0.6-0.6,1.4-0.9,2.2-0.9c0.5,0,0.9,0.1,1.4,0.3V314.9z M550.7,323.4v-4c-0.4-0.2-0.8-0.3-1.2-0.3c-0.6,0-1.1,0.2-1.5,0.6
			c-0.4,0.5-0.6,1-0.5,1.6c0,0.5,0.1,1.1,0.5,1.5c0.2,0.2,0.4,0.3,0.6,0.4c0.4,0.1,0.8,0.1,1.2,0.1L550.7,323.4z"/>
		<path class="st15" d="M559,321.5h-4.4c0,0.5,0.2,1.1,0.6,1.4c0.4,0.4,0.9,0.6,1.4,0.5c0.8,0,1.6-0.3,2.3-0.8v1.2
			c-0.4,0.2-0.7,0.4-1.1,0.5c-0.4,0.1-0.9,0.2-1.3,0.2c-0.6,0-1.2-0.1-1.7-0.4c-0.4-0.3-0.8-0.7-1-1.2c-0.3-0.5-0.4-1.1-0.4-1.7
			c0-0.9,0.3-1.7,0.8-2.3c0.5-0.6,1.3-0.9,2.1-0.9c0.8,0,1.5,0.3,2,0.9c0.5,0.7,0.8,1.5,0.7,2.4L559,321.5z M554.6,320.7h3.2
			c0-0.4-0.2-0.8-0.4-1.1c-0.3-0.3-0.7-0.4-1.1-0.4c-0.4,0-0.8,0.1-1.1,0.4C554.8,319.9,554.6,320.3,554.6,320.7L554.6,320.7z"/>
		<path class="st15" d="M569.4,319.9v4.6h-1.2V321c0-0.5-0.1-1-0.3-1.5c-0.2-0.3-0.6-0.5-1-0.4c-0.2,0-0.5,0.1-0.7,0.2
			c-0.3,0.2-0.5,0.4-0.7,0.6v4.6h-1.2v-6.3h1.2v0.8c0.5-0.6,1.1-0.9,1.9-1c0.8,0,1.5,0.4,1.8,1.1c0.5-0.7,1.3-1.1,2.1-1.1
			c0.6,0,1.1,0.2,1.5,0.7c0.4,0.6,0.6,1.3,0.6,2v3.7H572v-3.7c0-0.4-0.1-0.9-0.3-1.2c-0.2-0.3-0.6-0.4-0.9-0.4
			C570.2,319.1,569.7,319.4,569.4,319.9z"/>
		<path class="st15" d="M580.4,321.5h-4.4c0,0.5,0.2,1.1,0.6,1.4c0.4,0.4,0.9,0.6,1.4,0.5c0.8,0,1.6-0.3,2.3-0.8v1.2
			c-0.4,0.2-0.7,0.4-1.1,0.5c-0.4,0.1-0.9,0.2-1.3,0.2c-0.6,0-1.2-0.1-1.7-0.4c-0.4-0.3-0.8-0.7-1-1.2c-0.3-0.5-0.4-1.1-0.4-1.7
			c0-0.9,0.3-1.7,0.8-2.3c0.5-0.6,1.3-0.9,2.1-0.9c0.8,0,1.5,0.3,2,0.9c0.5,0.7,0.8,1.5,0.8,2.4L580.4,321.5z M576,320.7h3.2
			c0-0.4-0.2-0.8-0.4-1.1c-0.3-0.3-0.7-0.4-1.1-0.4c-0.4,0-0.8,0.1-1.1,0.4C576.2,319.9,576,320.3,576,320.7L576,320.7z"/>
		<path class="st15" d="M583,318.2v1.4l0.1-0.1c0.6-1,1.2-1.5,1.8-1.5c0.6,0,1.1,0.3,1.5,0.7l-0.7,1.1c-0.3-0.3-0.7-0.6-1.2-0.6
			c-0.4,0-0.8,0.2-1,0.6c-0.3,0.4-0.4,0.9-0.4,1.4v3.3h-1.2v-6.3H583z"/>
		<path class="st15" d="M592,323v1.2c-0.6,0.2-1.2,0.3-1.8,0.4c-0.9,0-1.7-0.3-2.4-0.9c-0.6-0.6-0.9-1.5-0.9-2.4
			c0-0.9,0.3-1.7,0.9-2.4c0.6-0.6,1.4-0.9,2.2-0.9c0.3,0,0.6,0,0.9,0.1c0.3,0.1,0.7,0.2,1,0.4v1.3c-0.5-0.4-1.1-0.6-1.8-0.6
			c-0.5,0-1,0.2-1.4,0.6c-0.4,0.4-0.6,1-0.5,1.5c0,0.6,0.2,1.1,0.6,1.5c0.4,0.4,1,0.6,1.6,0.6C591,323.4,591.5,323.2,592,323z"/>
		<path class="st15" d="M597.3,320.7v2.7c0,0.2,0.1,0.3,0.2,0.3c0.3,0,0.5-0.2,0.7-0.3v0.8c-0.2,0.1-0.4,0.3-0.7,0.4
			c-0.2,0.1-0.4,0.1-0.5,0.1c-0.5,0-0.8-0.2-0.9-0.6c-0.5,0.4-1.1,0.6-1.7,0.6c-0.4,0-0.8-0.2-1.1-0.4c-0.3-0.3-0.4-0.7-0.4-1.1
			c0-0.4,0.2-0.8,0.4-1.1c0.3-0.3,0.8-0.6,1.2-0.7l1.6-0.5v-0.3c0.1-0.5-0.3-1.1-0.8-1.1c-0.1,0-0.2,0-0.3,0c-0.8,0-1.5,0.4-2,1
			v-1.4c0.5-0.6,1.3-0.9,2.1-0.9c0.6,0,1.2,0.2,1.6,0.5c0.1,0.1,0.3,0.3,0.4,0.5c0.1,0.2,0.2,0.4,0.2,0.6
			C597.3,320,597.3,320.3,597.3,320.7z M596.1,323.2v-1.9l-0.8,0.3c-0.3,0.1-0.6,0.3-0.9,0.5c-0.2,0.2-0.3,0.4-0.3,0.6
			c0,0.5,0.3,0.9,0.8,0.9c0,0,0.1,0,0.1,0C595.4,323.7,595.8,323.5,596.1,323.2L596.1,323.2z"/>
		<path class="st15" d="M598.5,319.2l2.3-2.3v1.3h2v1.1h-2v3.1c0,0.7,0.3,1.1,0.9,1.1c0.5,0,1-0.2,1.4-0.5v1.2
			c-0.5,0.3-1,0.4-1.6,0.4c-0.5,0-1-0.2-1.4-0.5c-0.1-0.1-0.2-0.2-0.3-0.3c-0.1-0.2-0.1-0.3-0.2-0.5c-0.1-0.4-0.1-0.8-0.1-1.2v-2.8
			h-1.1V319.2z"/>
		<path class="st15" d="M607,318.2c0.9,0,1.7,0.3,2.4,0.9c0.6,0.6,1,1.4,1,2.3c0,0.9-0.4,1.7-1,2.3c-0.7,0.6-1.5,0.9-2.4,0.9
			c-0.9,0-1.7-0.3-2.4-0.9c-0.6-0.6-1-1.4-1-2.3c0-0.9,0.3-1.7,1-2.3C605.2,318.5,606.1,318.2,607,318.2z M606.9,319.3
			c-0.6,0-1.1,0.2-1.5,0.6c-0.4,0.4-0.6,0.9-0.6,1.5c0,0.6,0.2,1.1,0.6,1.5c0.4,0.4,1,0.6,1.5,0.6c0.6,0,1.1-0.2,1.5-0.6
			c0.4-0.4,0.6-0.9,0.6-1.5c0-0.6-0.2-1.1-0.6-1.5C608.1,319.5,607.5,319.3,606.9,319.3L606.9,319.3z"/>
		<path class="st15" d="M613.1,318.2v1.4l0.1-0.1c0.6-1,1.2-1.5,1.8-1.5c0.6,0,1.1,0.3,1.5,0.7l-0.7,1.1c-0.3-0.3-0.7-0.6-1.2-0.6
			c-0.4,0-0.8,0.2-1,0.6c-0.3,0.4-0.5,0.9-0.4,1.4v3.3h-1.2v-6.3H613.1z"/>
		<path class="st15" d="M484.6,331.6h0.6v5.4h1.1v1.2h-1.1v3.1h-1.3v-3.1h-4v-0.6L484.6,331.6z M483.8,337v-2.8l-2.2,2.8H483.8z"/>
		<path class="st15" d="M488.1,339.8c0.2,0,0.4,0.1,0.6,0.2c0.3,0.3,0.3,0.8,0,1.2c0,0,0,0,0,0c-0.3,0.3-0.9,0.3-1.2,0
			c-0.3-0.3-0.3-0.8,0-1.2C487.7,339.9,487.9,339.8,488.1,339.8z"/>
		<path class="st15" d="M493.2,331.6c0.9,0,1.8,0.6,2.2,1.4c0.6,1.1,0.9,2.3,0.9,3.5c0.1,1.2-0.2,2.5-0.9,3.5
			c-0.6,1.2-2.2,1.7-3.4,1.1c-0.5-0.2-0.8-0.6-1.1-1.1c-1.1-2.2-1.1-4.9,0-7.1C491.4,332.1,492.3,331.6,493.2,331.6z M493.2,332.9
			L493.2,332.9c-0.7,0-1.2,0.4-1.3,1c-0.3,0.8-0.5,1.7-0.5,2.6c0,0.9,0.1,1.8,0.5,2.6c0.2,0.7,0.9,1.1,1.5,0.9
			c0.5-0.1,0.8-0.5,0.9-0.9c0.3-0.8,0.5-1.7,0.5-2.6c0-0.9-0.1-1.8-0.4-2.6C494.1,333.2,493.7,332.9,493.2,332.9L493.2,332.9z"/>
		<path class="st15" d="M480.3,348.5h6.2l-4.3,9.7l-1.2-0.5l3.5-7.8h-4.1L480.3,348.5z"/>
		<path class="st15" d="M489.1,352.5L489.1,352.5c0.6,0,1-0.1,1.4-0.4c0.3-0.3,0.5-0.7,0.5-1.1c0-0.4-0.2-0.7-0.5-1
			c-0.3-0.3-0.8-0.4-1.2-0.4c-0.6,0-1.2,0.2-1.7,0.5v-1.3c0.6-0.3,1.2-0.4,1.8-0.4c0.8,0,1.5,0.2,2.1,0.7c0.5,0.5,0.8,1.2,0.8,1.9
			c0,0.4-0.1,0.8-0.3,1.2c-0.2,0.4-0.6,0.7-0.9,0.9c0.3,0.1,0.6,0.3,0.8,0.5c0.2,0.2,0.3,0.5,0.4,0.8c0.1,0.3,0.1,0.6,0.1,1
			c0,0.8-0.3,1.5-0.8,2.1c-0.6,0.5-1.3,0.8-2.1,0.8c-0.7,0-1.5-0.2-2.1-0.5v-1.5c0.6,0.4,1.4,0.7,2.1,0.7c0.4,0,0.8-0.1,1.1-0.4
			c0.5-0.6,0.6-1.5,0.1-2.1c-0.1-0.1-0.3-0.3-0.5-0.4c-0.3-0.1-0.7-0.2-1.1-0.2h-0.1V352.5z"/>
		<path class="st15" d="M495.1,356.6c0.2,0,0.4,0.1,0.6,0.2c0.3,0.3,0.3,0.8,0,1.2c0,0,0,0,0,0c-0.3,0.3-0.9,0.3-1.2,0
			c-0.3-0.3-0.3-0.8,0-1.2C494.7,356.7,494.9,356.6,495.1,356.6z"/>
		<path class="st15" d="M500.2,348.4c0.9,0,1.8,0.6,2.2,1.4c0.6,1.1,0.9,2.3,0.9,3.5c0.1,1.2-0.2,2.5-0.9,3.5
			c-0.6,1.2-2.2,1.7-3.4,1.1c-0.5-0.2-0.8-0.6-1.1-1.1c-1.1-2.2-1.1-4.9,0-7.1C498.4,348.9,499.3,348.4,500.2,348.4z M500.2,349.7
			L500.2,349.7c-0.7,0-1.2,0.4-1.3,1c-0.3,0.8-0.5,1.7-0.5,2.6c0,0.9,0.1,1.8,0.5,2.6c0.2,0.7,0.9,1.1,1.5,0.9
			c0.5-0.1,0.8-0.5,0.9-0.9c0.3-0.8,0.5-1.7,0.5-2.6c0-0.9-0.1-1.8-0.4-2.6C501.1,350,500.7,349.7,500.2,349.7L500.2,349.7z"/>
		<path class="st15" d="M482.5,373.6h3.6v1.3h-6v-0.1l0.6-0.7c0.9-1.1,1.6-2.1,2.1-2.8c0.4-0.6,0.7-1.1,1-1.8
			c0.2-0.4,0.2-0.8,0.2-1.2c0-0.5-0.1-0.9-0.5-1.3c-0.3-0.3-0.8-0.5-1.2-0.5c-0.4,0-0.8,0.1-1.1,0.3c-0.4,0.2-0.7,0.6-1,1v-1.7
			c0.6-0.6,1.4-0.9,2.3-0.9c0.8,0,1.5,0.3,2.1,0.8c0.5,0.6,0.8,1.3,0.8,2.1c0,0.4-0.1,0.8-0.2,1.2c-0.2,0.5-0.4,1-0.7,1.5
			c-0.5,0.8-1.1,1.6-1.7,2.3L482.5,373.6z"/>
		<path class="st15" d="M490.5,365.2l-1.5,2h-0.8l0.9-2H490.5z"/>
		<path class="st15" d="M494.8,365.2c0.9,0,1.8,0.6,2.2,1.4c0.6,1.1,0.9,2.3,0.9,3.5c0.1,1.2-0.2,2.5-0.9,3.5
			c-0.6,1.2-2.2,1.7-3.4,1.1c-0.5-0.2-0.8-0.6-1.1-1.1c-1.1-2.2-1.1-4.9,0-7.1C493,365.7,493.9,365.2,494.8,365.2z M494.8,366.5
			L494.8,366.5c-0.7,0-1.2,0.4-1.3,1c-0.3,0.8-0.5,1.7-0.5,2.6c0,0.9,0.1,1.8,0.5,2.6c0.2,0.7,0.9,1.1,1.5,0.9
			c0.5-0.1,0.8-0.5,0.9-0.9c0.3-0.8,0.5-1.7,0.5-2.6c0-0.9-0.1-1.8-0.4-2.6C495.7,366.8,495.3,366.5,494.8,366.5L494.8,366.5z"/>
		<path class="st15" d="M501.8,365.2c0.9,0,1.8,0.6,2.2,1.4c0.6,1.1,0.9,2.3,0.9,3.5c0.1,1.2-0.2,2.5-0.9,3.5
			c-0.6,1.2-2.2,1.7-3.4,1.1c-0.5-0.2-0.8-0.6-1.1-1.1c-1.1-2.2-1.1-4.9,0-7.1C500,365.7,500.9,365.2,501.8,365.2z M501.8,366.5
			L501.8,366.5c-0.7,0-1.2,0.4-1.3,1c-0.3,0.8-0.5,1.7-0.5,2.6c0,0.9,0.1,1.8,0.5,2.6c0.2,0.7,0.9,1.1,1.5,0.9
			c0.5-0.1,0.8-0.5,0.9-0.9c0.3-0.8,0.5-1.7,0.5-2.6c0-0.9-0.1-1.8-0.4-2.6C502.7,366.8,502.3,366.5,501.8,366.5L501.8,366.5z"/>
		<path class="st15" d="M508.8,365.2c0.9,0,1.8,0.6,2.2,1.4c0.6,1.1,0.9,2.3,0.9,3.5c0.1,1.2-0.2,2.5-0.9,3.5
			c-0.6,1.2-2.2,1.7-3.4,1.1c-0.5-0.2-0.8-0.6-1.1-1.1c-1.1-2.2-1.1-4.9,0-7.1C507,365.7,507.9,365.2,508.8,365.2z M508.8,366.5
			L508.8,366.5c-0.7,0-1.2,0.4-1.3,1c-0.3,0.8-0.5,1.7-0.5,2.6c0,0.9,0.1,1.8,0.5,2.6c0.2,0.7,0.9,1.1,1.5,0.9
			c0.5-0.1,0.8-0.5,0.9-0.9c0.3-0.8,0.5-1.7,0.5-2.6c0-0.9-0.1-1.8-0.4-2.6C509.7,366.8,509.3,366.5,508.8,366.5L508.8,366.5z"/>
		<path class="st15" d="M513.8,373.4c0.2,0,0.4,0.1,0.6,0.2c0.3,0.3,0.3,0.8,0,1.2c0,0,0,0,0,0c-0.3,0.3-0.9,0.3-1.2,0
			c-0.3-0.3-0.3-0.8,0-1.2c0,0,0,0,0,0C513.4,373.5,513.6,373.4,513.8,373.4z"/>
		<path class="st15" d="M518.9,365.2c0.9,0,1.8,0.6,2.2,1.4c0.6,1.1,0.9,2.3,0.9,3.5c0.1,1.2-0.2,2.5-0.9,3.5
			c-0.6,1.2-2.2,1.7-3.4,1.1c-0.5-0.2-0.8-0.6-1.1-1.1c-1.1-2.2-1.1-4.9,0-7.1C517.1,365.7,517.9,365.2,518.9,365.2z M518.9,366.5
			L518.9,366.5c-0.6,0-1.1,0.4-1.3,1c-0.3,0.8-0.5,1.7-0.5,2.6c0,0.9,0.1,1.8,0.5,2.6c0.2,0.7,0.9,1.1,1.5,0.9
			c0.5-0.1,0.8-0.5,0.9-0.9c0.3-0.8,0.5-1.7,0.5-2.6c0-0.9-0.1-1.8-0.4-2.6C519.8,366.8,519.4,366.5,518.9,366.5L518.9,366.5z"/>
		<path class="st15" d="M525.9,365.2c0.9,0,1.8,0.6,2.2,1.4c0.6,1.1,0.9,2.3,0.9,3.5c0.1,1.2-0.2,2.5-0.9,3.5
			c-0.6,1.2-2.2,1.7-3.4,1.1c-0.5-0.2-0.8-0.6-1.1-1.1c-1.1-2.2-1.1-4.9,0-7.1C524.1,365.7,524.9,365.2,525.9,365.2z M525.9,366.5
			L525.9,366.5c-0.6,0-1.1,0.4-1.3,1c-0.3,0.8-0.5,1.7-0.5,2.6c0,0.9,0.1,1.8,0.5,2.6c0.2,0.7,0.9,1.1,1.5,0.9
			c0.5-0.1,0.8-0.5,0.9-0.9c0.3-0.8,0.5-1.7,0.5-2.6c0-0.9-0.1-1.8-0.4-2.6C526.8,366.8,526.4,366.5,525.9,366.5L525.9,366.5z"/>
		<path class="st15" d="M532.9,365.2c0.9,0,1.8,0.6,2.2,1.4c0.6,1.1,0.9,2.3,0.9,3.5c0.1,1.2-0.2,2.5-0.9,3.5
			c-0.6,1.2-2.2,1.7-3.4,1.1c-0.5-0.2-0.8-0.6-1.1-1.1c-1.1-2.2-1.1-4.9,0-7.1C531.1,365.7,531.9,365.2,532.9,365.2z M532.9,366.5
			L532.9,366.5c-0.6,0-1.1,0.4-1.3,1c-0.3,0.8-0.5,1.7-0.5,2.6c0,0.9,0.1,1.8,0.5,2.6c0.2,0.7,0.9,1.1,1.5,0.9
			c0.5-0.1,0.8-0.5,0.9-0.9c0.3-0.8,0.5-1.7,0.5-2.6c0-0.9-0.1-1.8-0.4-2.6C533.8,366.8,533.4,366.5,532.9,366.5L532.9,366.5z"/>
		<path class="st15" d="M481,382.1h4.2v1.2h-3v2.4h0.3c0.8,0,1.7,0.3,2.3,0.8c0.6,0.6,0.9,1.3,0.9,2.1c0,0.8-0.3,1.6-0.9,2.2
			c-0.6,0.6-1.4,0.9-2.3,0.9c-0.8,0-1.6-0.2-2.2-0.6v-1.4c0.6,0.4,1.3,0.6,2,0.7c0.5,0,1-0.2,1.5-0.5c0.7-0.6,0.8-1.6,0.2-2.3
			c-0.1-0.1-0.2-0.2-0.3-0.2c-0.5-0.3-1-0.5-1.6-0.5c-0.4,0-0.8,0-1.1,0.1L481,382.1z"/>
		<path class="st15" d="M490.5,382l-1.5,2h-0.8l0.9-2L490.5,382z"/>
		<path class="st15" d="M494.8,382c0.9,0,1.8,0.6,2.2,1.4c0.6,1.1,0.9,2.3,0.9,3.5c0.1,1.2-0.2,2.5-0.9,3.5
			c-0.6,1.2-2.2,1.7-3.4,1.1c-0.5-0.2-0.8-0.6-1.1-1.1c-1.1-2.2-1.1-4.9,0-7.1C493,382.5,493.9,382,494.8,382z M494.8,383.3
			L494.8,383.3c-0.7,0-1.2,0.4-1.3,1c-0.3,0.8-0.5,1.7-0.5,2.6c0,0.9,0.1,1.8,0.5,2.6c0.2,0.7,0.9,1.1,1.5,0.9
			c0.5-0.1,0.8-0.5,0.9-0.9c0.3-0.8,0.5-1.7,0.5-2.6c0-0.9-0.1-1.8-0.4-2.6C495.7,383.6,495.3,383.3,494.8,383.3L494.8,383.3z"/>
		<path class="st15" d="M501.8,382c0.9,0,1.8,0.6,2.2,1.4c0.6,1.1,0.9,2.3,0.9,3.5c0.1,1.2-0.2,2.5-0.9,3.5
			c-0.6,1.2-2.2,1.7-3.4,1.1c-0.5-0.2-0.8-0.6-1.1-1.1c-1.1-2.2-1.1-4.9,0-7.1C500,382.5,500.9,382,501.8,382z M501.8,383.3
			L501.8,383.3c-0.7,0-1.2,0.4-1.3,1c-0.3,0.8-0.5,1.7-0.5,2.6c0,0.9,0.1,1.8,0.5,2.6c0.2,0.7,0.9,1.1,1.5,0.9
			c0.5-0.1,0.8-0.5,0.9-0.9c0.3-0.8,0.5-1.7,0.5-2.6c0-0.9-0.1-1.8-0.4-2.6C502.7,383.6,502.3,383.3,501.8,383.3L501.8,383.3z"/>
		<path class="st15" d="M508.8,382c0.9,0,1.8,0.6,2.2,1.4c0.6,1.1,0.9,2.3,0.9,3.5c0.1,1.2-0.2,2.5-0.9,3.5
			c-0.6,1.2-2.2,1.7-3.4,1.1c-0.5-0.2-0.8-0.6-1.1-1.1c-1.1-2.2-1.1-4.9,0-7.1C507,382.5,507.9,382,508.8,382z M508.8,383.3
			L508.8,383.3c-0.7,0-1.2,0.4-1.3,1c-0.3,0.8-0.5,1.7-0.5,2.6c0,0.9,0.1,1.8,0.5,2.6c0.2,0.7,0.9,1.1,1.5,0.9
			c0.5-0.1,0.8-0.5,0.9-0.9c0.3-0.8,0.5-1.7,0.5-2.6c0-0.9-0.1-1.8-0.4-2.6C509.7,383.6,509.3,383.3,508.8,383.3L508.8,383.3z"/>
		<path class="st15" d="M513.8,390.2c0.2,0,0.4,0.1,0.6,0.2c0.3,0.3,0.3,0.8,0,1.2c0,0,0,0,0,0c-0.3,0.3-0.9,0.3-1.2,0
			c-0.3-0.3-0.3-0.8,0-1.2c0,0,0,0,0,0C513.4,390.3,513.6,390.2,513.8,390.2z"/>
		<path class="st15" d="M518.9,382c0.9,0,1.8,0.6,2.2,1.4c0.6,1.1,0.9,2.3,0.9,3.5c0.1,1.2-0.2,2.5-0.9,3.5
			c-0.6,1.2-2.2,1.7-3.4,1.1c-0.5-0.2-0.8-0.6-1.1-1.1c-1.1-2.2-1.1-4.9,0-7.1C517.1,382.5,517.9,382,518.9,382z M518.9,383.3
			L518.9,383.3c-0.6,0-1.1,0.4-1.3,1c-0.3,0.8-0.5,1.7-0.5,2.6c0,0.9,0.1,1.8,0.5,2.6c0.2,0.7,0.9,1.1,1.5,0.9
			c0.5-0.1,0.8-0.5,0.9-0.9c0.3-0.8,0.5-1.7,0.5-2.6c0-0.9-0.1-1.8-0.4-2.6C519.8,383.6,519.4,383.3,518.9,383.3L518.9,383.3z"/>
		<path class="st15" d="M525.9,382c0.9,0,1.8,0.6,2.2,1.4c0.6,1.1,0.9,2.3,0.9,3.5c0.1,1.2-0.2,2.5-0.9,3.5
			c-0.6,1.2-2.2,1.7-3.4,1.1c-0.5-0.2-0.8-0.6-1.1-1.1c-1.1-2.2-1.1-4.9,0-7.1C524.1,382.5,524.9,382,525.9,382z M525.9,383.3
			L525.9,383.3c-0.6,0-1.1,0.4-1.3,1c-0.3,0.8-0.5,1.7-0.5,2.6c0,0.9,0.1,1.8,0.5,2.6c0.2,0.7,0.9,1.1,1.5,0.9
			c0.5-0.1,0.8-0.5,0.9-0.9c0.3-0.8,0.5-1.7,0.5-2.6c0-0.9-0.1-1.8-0.4-2.6C526.8,383.6,526.4,383.3,525.9,383.3L525.9,383.3z"/>
		<path class="st15" d="M532.9,382c0.9,0,1.8,0.6,2.2,1.4c0.6,1.1,0.9,2.3,0.9,3.5c0.1,1.2-0.2,2.5-0.9,3.5
			c-0.6,1.2-2.2,1.7-3.4,1.1c-0.5-0.2-0.8-0.6-1.1-1.1c-1.1-2.2-1.1-4.9,0-7.1C531.1,382.5,531.9,382,532.9,382z M532.9,383.3
			L532.9,383.3c-0.6,0-1.1,0.4-1.3,1c-0.3,0.8-0.5,1.7-0.5,2.6c0,0.9,0.1,1.8,0.5,2.6c0.2,0.7,0.9,1.1,1.5,0.9
			c0.5-0.1,0.8-0.5,0.9-0.9c0.3-0.8,0.5-1.7,0.5-2.6c0-0.9-0.1-1.8-0.4-2.6C533.8,383.6,533.4,383.3,532.9,383.3L532.9,383.3z"/>
		<line class="st16" x1="381.8" y1="304.7" x2="632.5" y2="304.7"/>
		<line class="st16" x1="468" y1="313.3" x2="468" y2="397.9"/>
		<path class="st1" d="M229.8,272.6c1.8-0.1,3.5,0.6,4.8,1.8c1.3,1.2,2,2.9,1.9,4.6c0,1.7-0.7,3.4-2,4.6c-1.3,1.2-3.1,1.9-4.9,1.8
			c-1.8,0.1-3.5-0.6-4.7-1.8c-1.2-1.2-1.9-2.8-1.9-4.6c-0.1-1.7,0.6-3.4,1.9-4.6C226.2,273.2,227.9,272.6,229.8,272.6z M229.8,274.3
			c-1.3,0-2.6,0.4-3.5,1.3c-0.9,0.9-1.4,2.2-1.4,3.4c0,1.3,0.5,2.5,1.4,3.4c2,1.8,5,1.8,7,0c0.9-0.9,1.4-2.1,1.4-3.4
			c0-1.3-0.5-2.5-1.4-3.4C232.4,274.8,231.1,274.3,229.8,274.3z"/>
		<path class="st1" d="M240.2,277.1v1.9l0.1-0.1c0.8-1.3,1.6-1.9,2.4-1.9c0.7,0.1,1.4,0.4,1.9,0.9l-0.9,1.4c-0.4-0.5-1-0.7-1.6-0.8
			c-0.6,0-1.1,0.3-1.4,0.8c-0.4,0.5-0.6,1.1-0.6,1.8v4.3h-1.6v-8.3L240.2,277.1z"/>
		<path class="st1" d="M246.6,273.6c0.3,0,0.5,0.1,0.7,0.3c0.2,0.2,0.3,0.4,0.3,0.7c0,0.3-0.1,0.5-0.3,0.7c-0.2,0.2-0.4,0.3-0.7,0.3
			c-0.3,0-0.5-0.1-0.7-0.3c-0.4-0.4-0.4-0.9,0-1.3c0,0,0,0,0,0C246.1,273.7,246.4,273.6,246.6,273.6z M245.8,277.1h1.6v8.3h-1.6
			V277.1z"/>
		<path class="st1" d="M249.4,279.9c0-0.8,0.3-1.6,1-2.1c0.8-0.5,1.7-0.8,2.6-0.8h3.4v1.3h-1.7c0.3,0.3,0.5,0.6,0.7,0.9
			c0.1,0.3,0.2,0.6,0.2,0.9c0,0.4-0.1,0.9-0.4,1.3c-0.2,0.4-0.5,0.7-0.9,1c-0.6,0.3-1.2,0.5-1.9,0.5c-0.6,0.1-0.9,0.3-0.9,0.6
			c0,0.2,0.2,0.4,0.4,0.5c0.4,0.2,0.8,0.3,1.2,0.4c0.7,0.1,1.3,0.3,2,0.5c0.3,0.1,0.6,0.3,0.8,0.5c0.4,0.4,0.6,0.9,0.6,1.5
			c0,0.8-0.4,1.5-1,1.9c-1.8,0.9-3.9,0.9-5.6,0c-0.7-0.4-1.1-1.1-1.1-1.9c0-1.1,0.7-1.8,2.1-2.2c-0.6-0.4-0.8-0.7-0.8-1
			c0-0.3,0.1-0.5,0.4-0.7c0.3-0.2,0.6-0.4,1-0.5C250.2,282.2,249.4,281.2,249.4,279.9z M252.1,285.7c-0.5,0-0.9,0.1-1.4,0.4
			c-0.3,0.2-0.5,0.5-0.5,0.9c0,0.9,0.8,1.3,2.3,1.3c0.6,0,1.2-0.1,1.7-0.3c0.4-0.2,0.6-0.5,0.6-0.9c0-0.4-0.2-0.7-0.8-0.9
			C253.4,285.8,252.7,285.7,252.1,285.7L252.1,285.7z M252.5,278.5c-0.4,0-0.8,0.2-1.1,0.5c-0.3,0.3-0.5,0.7-0.5,1.1
			c0,0.4,0.2,0.8,0.5,1c0.3,0.3,0.7,0.4,1.2,0.4c0.4,0,0.8-0.1,1.1-0.4c0.3-0.3,0.5-0.7,0.5-1.1c0-0.4-0.2-0.8-0.5-1.1
			C253.3,278.6,252.9,278.5,252.5,278.5L252.5,278.5z"/>
		<path class="st1" d="M264.4,281.4h-5.8c0,0.7,0.3,1.4,0.8,1.9c0.5,0.5,1.2,0.7,1.9,0.7c1.1,0,2.1-0.3,3-1v1.6
			c-0.5,0.3-1,0.6-1.5,0.7c-0.6,0.2-1.2,0.2-1.7,0.2c-0.8,0-1.5-0.2-2.2-0.6c-0.6-0.4-1-0.9-1.4-1.5c-0.3-0.7-0.5-1.4-0.5-2.2
			c-0.1-1.1,0.3-2.2,1.1-3.1c0.7-0.8,1.7-1.2,2.8-1.2c1,0,2,0.4,2.6,1.1c0.7,0.9,1.1,2,1,3.1L264.4,281.4z M258.7,280.4h4.1
			c0-0.6-0.2-1.1-0.6-1.5c-0.4-0.4-0.9-0.6-1.4-0.5c-0.5,0-1,0.2-1.4,0.5C259,279.3,258.7,279.8,258.7,280.4L258.7,280.4z"/>
		<path class="st1" d="M267.8,277.1v1c0.6-0.8,1.5-1.2,2.5-1.2c0.5,0,1,0.1,1.4,0.4c0.4,0.3,0.8,0.6,1,1.1c0.3,0.7,0.4,1.4,0.4,2.2
			v4.7h-1.6v-4.7c0.1-0.6-0.1-1.3-0.4-1.8c-0.3-0.4-0.8-0.6-1.3-0.5c-0.8,0-1.6,0.4-2,1.1v5.9h-1.7v-8.3L267.8,277.1z"/>
		<path class="st1" d="M282.1,277.1v1c0.6-0.7,1.5-1.2,2.5-1.2c0.5,0,1,0.1,1.4,0.4c0.4,0.3,0.8,0.6,1,1.1c0.3,0.7,0.4,1.5,0.3,2.2
			v4.7h-1.6v-4.7c0.1-0.6-0.1-1.3-0.4-1.8c-0.3-0.4-0.8-0.6-1.3-0.5c-0.8,0-1.6,0.4-2,1.1v5.9h-1.7v-8.3L282.1,277.1z"/>
		<path class="st1" d="M294.9,280.4v3.5c0,0.3,0.1,0.4,0.3,0.4c0.3-0.1,0.7-0.2,0.9-0.4v1c-0.3,0.2-0.6,0.4-0.9,0.5
			c-0.2,0.1-0.5,0.1-0.7,0.1c-0.7,0-1.1-0.3-1.2-0.8c-0.6,0.5-1.4,0.8-2.2,0.8c-0.5,0-1.1-0.2-1.4-0.6c-0.4-0.4-0.6-0.9-0.6-1.4
			c0-0.5,0.2-1,0.6-1.4c0.4-0.5,1-0.8,1.6-1l2.1-0.7v-0.4c0.1-0.7-0.4-1.4-1.1-1.5c-0.1,0-0.2,0-0.4,0c-1,0.1-2,0.6-2.6,1.4V278
			c0.7-0.8,1.7-1.2,2.7-1.1c0.8,0,1.5,0.2,2.1,0.7c0.2,0.2,0.4,0.4,0.5,0.6c0.1,0.2,0.2,0.5,0.3,0.7
			C294.9,279.4,294.9,279.9,294.9,280.4z M293.3,283.7v-2.5l-1.1,0.4c-0.4,0.1-0.8,0.4-1.2,0.7c-0.2,0.2-0.4,0.5-0.4,0.8
			c0,0.3,0.1,0.6,0.3,0.8c0.2,0.2,0.5,0.3,0.9,0.3C292.4,284.3,292.9,284.1,293.3,283.7L293.3,283.7z"/>
		<path class="st1" d="M303.7,283.4v1.6c-0.8,0.3-1.6,0.4-2.4,0.5c-1.1,0.1-2.3-0.4-3.1-1.1c-0.8-0.8-1.2-1.9-1.1-3.1
			c0-1.2,0.4-2.3,1.1-3.1c0.8-0.8,1.9-1.2,3-1.2c0.4,0,0.8,0,1.1,0.1c0.4,0.1,0.8,0.3,1.2,0.5v1.7c-0.7-0.5-1.5-0.8-2.3-0.8
			c-0.7,0-1.3,0.3-1.8,0.8c-0.5,0.5-0.7,1.3-0.7,2c0,0.7,0.2,1.5,0.8,2c0.6,0.5,1.3,0.8,2.1,0.8C302.3,283.9,303,283.7,303.7,283.4z
			"/>
		<path class="st1" d="M306.4,273.6c0.3,0,0.5,0.1,0.7,0.3c0.2,0.2,0.3,0.4,0.3,0.7c0,0.3-0.1,0.5-0.3,0.7c-0.2,0.2-0.4,0.3-0.7,0.3
			c-0.3,0-0.5-0.1-0.7-0.3c-0.4-0.4-0.4-0.9,0-1.3c0,0,0,0,0,0C305.9,273.7,306.2,273.6,306.4,273.6z M305.6,277.1h1.6v8.3h-1.6
			V277.1z"/>
		<path class="st1" d="M313.5,277.1c1.2,0,2.3,0.4,3.1,1.2c0.8,0.8,1.3,1.9,1.2,3.1c0,1.1-0.4,2.2-1.3,3c-0.9,0.8-2,1.2-3.2,1.2
			c-1.2,0-2.3-0.4-3.1-1.2c-1.7-1.6-1.7-4.3,0-6c0,0,0,0,0,0C311.2,277.5,312.4,277,313.5,277.1z M313.5,278.5
			c-0.7,0-1.4,0.3-1.9,0.8c-0.5,0.5-0.8,1.3-0.8,2c0,0.7,0.3,1.4,0.8,1.9c0.5,0.5,1.3,0.8,2,0.8c0.7,0,1.5-0.2,2-0.8
			c0.5-0.5,0.8-1.2,0.8-1.9c0-0.7-0.3-1.4-0.8-2C315,278.8,314.2,278.5,313.5,278.5z"/>
		<path class="st1" d="M321.4,277.1v1c0.6-0.8,1.5-1.2,2.5-1.2c0.5,0,1,0.1,1.4,0.4c0.4,0.3,0.8,0.6,1,1.1c0.3,0.7,0.4,1.5,0.3,2.2
			v4.7H325v-4.7c0.1-0.6-0.1-1.3-0.4-1.8c-0.3-0.4-0.8-0.6-1.3-0.5c-0.8,0-1.6,0.4-2,1.1v5.9h-1.7v-8.3L321.4,277.1z"/>
		<path class="st1" d="M334.1,280.4v3.5c0,0.3,0.1,0.4,0.3,0.4c0.3-0.1,0.7-0.2,0.9-0.4v1c-0.3,0.2-0.6,0.4-0.9,0.5
			c-0.2,0.1-0.5,0.1-0.7,0.1c-0.7,0-1.1-0.3-1.2-0.8c-0.6,0.5-1.4,0.8-2.2,0.8c-1.1,0-2-0.8-2-1.9c0,0,0-0.1,0-0.1
			c0-0.5,0.2-1,0.6-1.4c0.4-0.5,1-0.8,1.6-1l2.1-0.7v-0.4c0.1-0.7-0.4-1.4-1.1-1.5c-0.1,0-0.3,0-0.4,0c-1,0.1-2,0.6-2.6,1.4V278
			c0.7-0.8,1.7-1.2,2.7-1.1c0.8,0,1.5,0.2,2.1,0.7c0.2,0.2,0.4,0.4,0.5,0.6c0.1,0.2,0.2,0.5,0.3,0.7
			C334.1,279.4,334.1,279.9,334.1,280.4z M332.5,283.7v-2.5l-1.1,0.4c-0.4,0.1-0.8,0.4-1.2,0.7c-0.2,0.2-0.4,0.5-0.4,0.8
			c0,0.3,0.1,0.6,0.3,0.8c0.2,0.2,0.5,0.3,0.9,0.3C331.6,284.3,332.1,284.1,332.5,283.7z"/>
		<path class="st1" d="M336.8,272.8h1.6v12.5h-1.6V272.8z"/>
		<path class="st1" d="M229.2,295h0.7v6.4h1.3v1.4h-1.3v3.8h-1.6v-3.8h-4.8v-0.7L229.2,295z M228.3,301.4v-3.3l-2.6,3.3H228.3z"/>
		<path class="st1" d="M232.6,296.7c0-0.6,0.2-1.2,0.7-1.6c0.9-0.9,2.3-0.9,3.2,0c0.9,0.9,0.9,2.3,0,3.2c-0.9,0.9-2.3,0.9-3.2,0
			C232.9,297.9,232.6,297.3,232.6,296.7z M233.5,296.7c0,0.8,0.6,1.4,1.4,1.4c0.4,0,0.7-0.1,1-0.4c0.3-0.3,0.4-0.6,0.4-1
			c0-0.4-0.1-0.7-0.4-1c-0.3-0.3-0.6-0.4-1-0.4c-0.4,0-0.7,0.1-1,0.4C233.6,296,233.5,296.3,233.5,296.7z"/>
		<path class="st1" d="M248.5,295.2h1.6v11.4h-1.4l-7.6-8.8v8.8h-1.5v-11.4h1.3l7.7,8.9L248.5,295.2z"/>
		<path class="st1" d="M256.7,295.2h7.4l-5.2,11.5l-1.5-0.6l4.2-9.4h-4.9V295.2z"/>
		<path class="st1" d="M267.3,300h0.1c0.6,0,1.2-0.1,1.6-0.4c0.4-0.3,0.6-0.8,0.6-1.3c0-0.5-0.2-1-0.6-1.3c-0.4-0.3-0.9-0.5-1.4-0.5
			c-0.7,0-1.4,0.2-2,0.6v-1.6c0.7-0.3,1.4-0.5,2.2-0.5c0.9-0.1,1.8,0.2,2.5,0.8c0.6,0.6,1,1.4,0.9,2.2c0.1,1-0.5,2-1.5,2.5
			c0.4,0.1,0.7,0.3,1,0.6c0.2,0.3,0.4,0.6,0.5,0.9c0.1,0.4,0.2,0.8,0.2,1.1c0,0.9-0.3,1.8-1,2.5c-0.7,0.7-1.6,1-2.5,1
			c-0.9,0-1.7-0.2-2.5-0.6v-1.8c0.7,0.5,1.6,0.8,2.5,0.8c0.5,0,1-0.2,1.3-0.5c0.3-0.3,0.5-0.8,0.5-1.3c0-0.4-0.1-0.9-0.4-1.2
			c-0.1-0.2-0.3-0.3-0.5-0.4c-0.4-0.1-0.9-0.2-1.3-0.2h-0.1L267.3,300z"/>
		<path class="st1" d="M273.7,296.7c0-0.6,0.2-1.2,0.7-1.6c0.4-0.4,1-0.7,1.6-0.7c0.6,0,1.2,0.2,1.6,0.7c0.9,0.9,0.9,2.3,0,3.2
			c-0.4,0.4-1,0.7-1.6,0.7c-0.6,0-1.2-0.2-1.6-0.7C273.9,297.9,273.7,297.3,273.7,296.7z M274.6,296.7c0,0.8,0.6,1.4,1.4,1.4
			c0,0,0,0,0,0c0.4,0,0.7-0.1,1-0.4c0.3-0.3,0.4-0.6,0.4-1c0-0.4-0.1-0.7-0.4-1c-0.3-0.3-0.6-0.4-1-0.4c-0.4,0-0.7,0.1-1,0.4
			C274.7,295.9,274.5,296.3,274.6,296.7L274.6,296.7z"/>
		<path class="st1" d="M295,295.2h1.6l-4.6,11.5h-0.4l-3.6-9.3l-3.8,9.3h-0.4l-4.6-11.5h1.6l3.1,7.9l3.2-7.9h1.5l3.2,7.9L295,295.2z
			"/>
		<path class="st17" d="M210.3,435.8c0,14.2-11.5,25.8-25.8,25.8c-14.2,0-25.8-11.5-25.8-25.8c0-14.2,11.5-25.8,25.8-25.8
			C198.7,410,210.3,421.5,210.3,435.8L210.3,435.8"/>
		<path class="st6" d="M243.5,402.2c0,10.6-8.6,19.2-19.2,19.2c-10.6,0-19.2-8.6-19.2-19.2s8.6-19.2,19.2-19.2c0,0,0,0,0,0
			C234.9,383,243.5,391.6,243.5,402.2L243.5,402.2"/>
		<line class="st18" x1="184.5" y1="439.6" x2="184.5" y2="487.4"/>
		<path class="st3" d="M241.2,423.5l-2.1-1.2l-13.6,22.6v-40.5h-2.4V465c-5.2-3.1-9.1-7.9-11.1-13.6l-1.1,0.3l1.1-0.3l-2.3,0.7
			c2.3,6.7,7.1,12.3,13.4,15.6v19.7h2.4v-37.9L241.2,423.5z"/>
		<path class="st6" d="M210.3,435.8c0,14.2-11.5,25.8-25.8,25.8c-14.2,0-25.8-11.5-25.8-25.8c0-14.2,11.5-25.8,25.8-25.8
			C198.7,410,210.3,421.5,210.3,435.8L210.3,435.8"/>
		<rect x="183.3" y="439.6" class="st3" width="2.4" height="47.8"/>
		<path class="st6" d="M353.4,488.8H85c0-6.1,4.9-11,11-11l0,0h257.4V488.8z"/>
		<polygon class="st6" points="257.4,428.9 316,428.9 341.1,400.8 282.5,400.8 		"/>
		<polygon class="st2" points="285.1,403.4 264.1,426.1 264.1,488.8 306,488.8 306,426.1 		"/>
		<rect x="306" y="426.1" class="st1" width="56" height="62.7"/>
		<polygon class="st6" points="365.5,428.9 306.9,428.9 281.9,400.8 340.5,400.8 		"/>
		<rect x="273.9" y="435.2" class="st15" width="3.5" height="8.7"/>
		<rect x="293" y="435.2" class="st15" width="3.5" height="8.7"/>
		<rect x="273.9" y="450.9" class="st15" width="3.5" height="8.7"/>
		<rect x="293" y="450.9" class="st15" width="3.5" height="8.7"/>
		<rect x="314.1" y="435.2" class="st15" width="3.5" height="8.7"/>
		<rect x="333.2" y="435.2" class="st15" width="3.5" height="8.7"/>
		<rect x="314.1" y="450.9" class="st15" width="3.5" height="8.7"/>
		<rect x="333.2" y="450.9" class="st15" width="3.5" height="8.7"/>
		<rect x="352.4" y="435.2" class="st15" width="3.5" height="8.7"/>
		<rect x="352.4" y="450.9" class="st15" width="3.5" height="8.7"/>
		<path class="st19" d="M290.1,488.8H280v-15.6c0.1-2.8,2.5-5,5.3-4.8c2.6,0.1,4.7,2.2,4.8,4.8L290.1,488.8z"/>
		
			<rect x="455.7" y="436.5" transform="matrix(0.7071 -0.7071 0.7071 0.7071 -176.75 453.8491)" class="st7" width="7.5" height="7.5"/>
		
			<rect x="475.6" y="436.5" transform="matrix(0.7071 -0.7071 0.7071 0.7071 -170.94 467.8659)" class="st7" width="7.5" height="7.5"/>
		
			<rect x="396.3" y="436.5" transform="matrix(0.7071 -0.7071 0.7071 0.7071 -194.16 411.8126)" class="st7" width="7.5" height="7.5"/>
		
			<rect x="416.1" y="436.5" transform="matrix(0.7071 -0.7071 0.7071 0.7071 -188.35 425.8295)" class="st7" width="7.5" height="7.5"/>
		
			<rect x="435.9" y="436.5" transform="matrix(0.7071 -0.7071 0.7071 0.7071 -182.55 439.8422)" class="st7" width="7.5" height="7.5"/>
		<polyline class="st3" points="436.8,478.2 436.8,530.4 441.6,530.4 441.6,479.2 		"/>
		<path class="st2" d="M458.9,494c-12.2,0-22.1,9.9-22.1,22.1v7l41.8-29.1H458.9z"/>
		<path class="st3" d="M436.8,523.2v49.1h4.8v-46.1v-3.2h14.8c2.1,0,4.2-0.3,6.2-0.9c0.6-0.2,1.3-0.4,1.9-0.7
			c0.8-0.3,1.7-0.7,2.4-1.1c1.2-0.7,2.4-1.5,3.5-2.4c5.1-4.2,8-10.5,8-17v-7L436.8,523.2z"/>
		<path class="st2" d="M436.8,510.2c0-10.3-8.4-18.7-18.7-18.8c0,0,0,0,0,0h-16.7l35.4,24.7V510.2z"/>
		<path class="st3" d="M436.8,516.1l-35.4-24.7v5.9c0,4.8,1.8,9.4,5.2,12.9c0.9,0.9,1.8,1.7,2.8,2.4c0.4,0.3,0.8,0.5,1.2,0.8
			c2.9,1.7,6.2,2.6,9.6,2.6H436.8z"/>
		<path class="st6" d="M441,484.7c24.1,0,46.4-12.5,58.9-33.1H382.1C394.6,472.2,416.9,484.7,441,484.7"/>
		<polyline class="st20" points="580.1,572.7 744.5,572.7 744.5,522.2 580.1,522.2 		"/>
		<polyline class="st3" points="683.3,397.9 710.3,424.8 683.7,424.8 		"/>
		<polyline class="st6" points="684,424.7 657.3,424.7 683.2,397.8 		"/>
		<rect x="655.2" y="424" class="st3" width="28.6" height="6.5"/>
		<rect x="683.7" y="424" class="st1" width="26.6" height="6.5"/>
		<rect x="683.7" y="430" class="st6" width="26.7" height="39.8"/>
		<path class="st0" d="M663.9,444.2c0-3.9,3.2-7.1,7.1-7.1c3.9,0,7.1,3.2,7.1,7.1c0,3.9-3.2,7.1-7.1,7.1
			C667.1,451.3,663.9,448.1,663.9,444.2C663.9,444.2,663.9,444.2,663.9,444.2"/>
		<rect x="722.3" y="530.6" class="st3" width="6" height="11.5"/>
		<rect x="703.4" y="530.6" class="st3" width="6" height="11.5"/>
		<rect x="684.5" y="530.6" class="st3" width="6" height="11.5"/>
		<rect x="665.6" y="530.6" class="st3" width="6" height="11.5"/>
		<rect x="646.7" y="530.6" class="st3" width="6" height="11.5"/>
		<path class="st3" d="M683.4,469.2h61.1v53.3h-35.8l-22.8-22.8l-22.5,22.5H580C580,522.2,683.1,469.2,683.4,469.2"/>
		<polygon class="st6" points="708.7,522.5 685.9,499.8 731.1,499.8 		"/>
		<path class="st20" d="M548.7,566h-41.9c-15.8,0-28.5-12.8-28.5-28.5l0,0c0-7.3,13.5-6.5,13.5-6.5h72c0,0,13.5-0.7,13.5,6.5l0,0
			C577.2,553.2,564.4,566,548.7,566C548.7,566,548.7,566,548.7,566z"/>
		<polygon class="st6" points="579.2,485.7 545.8,521.2 541.7,492.5 		"/>
		<polygon class="st6" points="614.2,510.3 613.8,536.4 592.4,543.7 		"/>
		<polygon class="st6" points="472.8,485.7 506.2,521.2 510.3,492.5 		"/>
		<path class="st20" d="M623.7,486.1c0-26.8-26.9-48.5-60.1-48.5s-60.1,21.7-60.1,48.5v71.6l42.7,1.4v-68.4
			c0-15.3,14.3-27.8,31.8-27.8s31.9,12.4,31.9,27.8v46l3.6,1.8l1.8,3.6h8.3L623.7,486.1z"/>
		<polygon class="st6" points="534.7,484.8 521.1,515.1 521.1,452.4 		"/>
		<circle class="st3" cx="615.4" cy="536.8" r="5.4"/>
		<polygon class="st6" points="660.9,556.4 618.5,542 618.5,497.6 		"/>
	</g>
</g>
<g>
	<path class="st15" d="M388.1,280.5c1,0,1.9,0.2,2.7,0.6c0.8,0.4,1.4,1,1.9,1.8s0.7,1.6,0.7,2.5c0,0.9-0.2,1.7-0.7,2.5
		c-0.5,0.8-1.1,1.4-1.9,1.8c-0.8,0.4-1.7,0.6-2.7,0.6c-1,0-1.9-0.2-2.7-0.6c-0.8-0.4-1.4-1-1.9-1.8c-0.5-0.8-0.7-1.6-0.7-2.5
		c0-0.9,0.2-1.7,0.7-2.5s1.1-1.4,1.9-1.8S387,280.5,388.1,280.5z M384.7,285.4c0,0.6,0.1,1.2,0.4,1.7s0.7,0.9,1.2,1.2
		c0.5,0.3,1.1,0.4,1.7,0.4c1,0,1.8-0.3,2.4-0.9c0.6-0.6,0.9-1.4,0.9-2.4c0-0.6-0.1-1.2-0.4-1.7c-0.3-0.5-0.7-0.9-1.2-1.2
		c-0.5-0.3-1.1-0.4-1.7-0.4s-1.2,0.1-1.7,0.4c-0.5,0.3-0.9,0.7-1.2,1.2S384.7,284.7,384.7,285.4z"/>
	<path class="st15" d="M398.5,283.6c0.2,0,0.4,0.1,0.7,0.2c0.2,0.1,0.5,0.3,0.8,0.5l-0.6,1.5c-0.5-0.4-0.9-0.5-1.2-0.5
		c-0.3,0-0.5,0.1-0.8,0.3c-0.3,0.2-0.5,0.5-0.6,0.8c-0.2,0.3-0.2,0.6-0.2,1v2.9h-1.7v-6.4h1.7v1.6h0c0.3-0.6,0.6-1.1,0.9-1.3
		S398.1,283.6,398.5,283.6z"/>
	<path class="st15" d="M401.6,280.8c0.3,0,0.5,0.1,0.7,0.3s0.3,0.4,0.3,0.7c0,0.3-0.1,0.5-0.3,0.7c-0.2,0.2-0.4,0.3-0.7,0.3
		c-0.3,0-0.5-0.1-0.7-0.3c-0.2-0.2-0.3-0.4-0.3-0.7c0-0.3,0.1-0.5,0.3-0.7S401.3,280.8,401.6,280.8z M402.4,283.8v6.4h-1.7v-6.4
		H402.4z"/>
	<path class="st15" d="M410.1,283.8v1.2H409c0.2,0.2,0.3,0.4,0.4,0.6c0.1,0.2,0.1,0.4,0.1,0.6c0,0.5-0.2,1-0.6,1.4
		c-0.3,0.4-0.9,0.6-1.7,0.7c-0.4,0.1-0.7,0.1-0.9,0.2c-0.1,0.1-0.2,0.2-0.2,0.3c0,0.1,0.1,0.2,0.3,0.3c0.2,0.1,0.5,0.1,0.8,0.2
		c1,0.2,1.7,0.4,2.1,0.7c0.5,0.3,0.7,0.7,0.7,1.3c0,0.7-0.3,1.2-0.8,1.6c-0.6,0.4-1.3,0.5-2.4,0.5c-1,0-1.8-0.2-2.3-0.5
		s-0.9-0.8-0.9-1.4c0-0.8,0.6-1.4,1.7-1.7c-0.5-0.2-0.7-0.5-0.7-0.8c0-0.4,0.4-0.8,1.1-0.9v0c-0.5-0.1-0.9-0.4-1.2-0.7
		c-0.3-0.4-0.4-0.8-0.4-1.2c0-0.7,0.3-1.2,0.8-1.7s1.2-0.6,2-0.6H410.1z M405.1,291.4c0,0.6,0.6,0.9,1.7,0.9c0.5,0,0.9-0.1,1.2-0.2
		c0.3-0.2,0.4-0.4,0.4-0.6c0-0.3-0.2-0.5-0.5-0.6c-0.3-0.1-0.8-0.2-1.3-0.2c-0.4,0-0.8,0.1-1.1,0.2
		C405.2,290.9,405.1,291.1,405.1,291.4z M405.5,286.1c0,0.3,0.1,0.6,0.4,0.8c0.2,0.2,0.5,0.3,0.9,0.3c0.3,0,0.6-0.1,0.9-0.3
		s0.3-0.5,0.3-0.9c0-0.3-0.1-0.6-0.3-0.8s-0.5-0.3-0.8-0.3c-0.3,0-0.6,0.1-0.9,0.3C405.6,285.5,405.5,285.7,405.5,286.1z"/>
	<path class="st15" d="M413.9,283.6c0.9,0,1.7,0.3,2.2,0.9s0.8,1.4,0.8,2.5v0.3h-4.5c0.1,0.6,0.3,1,0.6,1.3c0.4,0.3,0.8,0.5,1.5,0.5
		c0.4,0,0.8-0.1,1.2-0.2c0.4-0.1,0.8-0.3,1.2-0.6v1.3c-0.7,0.5-1.7,0.8-2.7,0.8c-1,0-1.8-0.3-2.5-0.9s-1-1.4-1-2.4
		c0-1,0.3-1.8,0.9-2.4C412.2,283.9,412.9,283.6,413.9,283.6z M415.4,286.3c0-0.5-0.2-0.8-0.4-1.1s-0.6-0.4-1-0.4
		c-0.4,0-0.8,0.1-1,0.4c-0.3,0.3-0.4,0.6-0.5,1.1H415.4z"/>
	<path class="st15" d="M422,283.6c0.7,0,1.2,0.2,1.6,0.7c0.4,0.4,0.6,1,0.6,1.8v4.1h-1.7v-3.9c0-0.4-0.1-0.7-0.3-1
		c-0.2-0.2-0.5-0.4-0.8-0.4c-0.3,0-0.5,0.1-0.7,0.2s-0.5,0.4-0.8,0.8v4.2h-1.7v-6.4h1.7v0.9c0.3-0.4,0.6-0.6,1-0.8
		C421.2,283.7,421.6,283.6,422,283.6z"/>
	<path class="st15" d="M433.4,283.6c0.7,0,1.2,0.2,1.6,0.7c0.4,0.4,0.6,1,0.6,1.8v4.1H434v-3.9c0-0.4-0.1-0.7-0.3-1
		c-0.2-0.2-0.5-0.4-0.8-0.4c-0.3,0-0.5,0.1-0.7,0.2s-0.5,0.4-0.8,0.8v4.2h-1.7v-6.4h1.7v0.9c0.3-0.4,0.6-0.6,1-0.8
		C432.7,283.7,433,283.6,433.4,283.6z"/>
	<path class="st15" d="M439.6,283.6c0.8,0,1.4,0.2,1.9,0.5s0.6,0.8,0.6,1.5v3.1c0,0.2,0.1,0.4,0.3,0.4c0.1,0,0.2,0,0.3-0.1
		c0.1-0.1,0.3-0.2,0.4-0.2v1c-0.6,0.4-1.1,0.5-1.6,0.5c-0.3,0-0.5,0-0.7-0.2c-0.2-0.1-0.3-0.3-0.3-0.5c-0.6,0.5-1.3,0.7-1.9,0.7
		c-0.5,0-0.9-0.2-1.2-0.5c-0.3-0.3-0.5-0.7-0.5-1.1c0-0.6,0.2-1,0.5-1.3s0.9-0.6,1.7-0.8l1.4-0.4v-0.3c0-0.6-0.4-0.9-1.1-0.9
		c-0.4,0-0.8,0.1-1.2,0.3s-0.7,0.4-1,0.8v-1.5C437.8,283.9,438.6,283.6,439.6,283.6z M438.6,288.4c0,0.2,0.1,0.4,0.2,0.6
		c0.1,0.1,0.3,0.2,0.6,0.2c0.4,0,0.7-0.2,1.1-0.5V287c-0.5,0.2-0.8,0.3-1.1,0.5c-0.3,0.1-0.5,0.3-0.6,0.4
		C438.6,288,438.6,288.2,438.6,288.4z"/>
	<path class="st15" d="M447.1,283.6c0.7,0,1.4,0.1,2,0.4v1.4c-0.6-0.3-1.2-0.5-1.7-0.5c-0.6,0-1,0.2-1.4,0.5s-0.5,0.8-0.5,1.5
		c0,0.6,0.2,1.1,0.6,1.4c0.4,0.4,0.9,0.5,1.5,0.5c0.5,0,1-0.2,1.8-0.5v1.4c-0.7,0.3-1.3,0.4-2,0.4c-1,0-1.9-0.3-2.5-0.9
		c-0.6-0.6-1-1.4-1-2.4c0-1,0.3-1.8,0.9-2.5C445.3,283.9,446.1,283.6,447.1,283.6z"/>
	<path class="st15" d="M451.4,280.8c0.3,0,0.5,0.1,0.7,0.3s0.3,0.4,0.3,0.7c0,0.3-0.1,0.5-0.3,0.7c-0.2,0.2-0.4,0.3-0.7,0.3
		c-0.3,0-0.5-0.1-0.7-0.3c-0.2-0.2-0.3-0.4-0.3-0.7c0-0.3,0.1-0.5,0.3-0.7S451.2,280.8,451.4,280.8z M452.2,283.8v6.4h-1.7v-6.4
		H452.2z"/>
	<path class="st15" d="M457.2,283.6c0.7,0,1.3,0.1,1.8,0.4s1,0.7,1.3,1.2s0.4,1.1,0.4,1.7c0,0.7-0.1,1.2-0.4,1.7
		c-0.3,0.5-0.7,0.9-1.3,1.2c-0.6,0.3-1.2,0.4-1.8,0.4c-0.7,0-1.3-0.1-1.8-0.4s-1-0.7-1.2-1.2c-0.3-0.5-0.4-1.1-0.4-1.7
		c0-0.6,0.2-1.2,0.5-1.7s0.7-0.9,1.3-1.2S456.5,283.6,457.2,283.6z M455.4,286.9c0,0.6,0.2,1.1,0.5,1.5c0.3,0.4,0.7,0.6,1.3,0.6
		c0.5,0,1-0.2,1.3-0.5s0.5-0.9,0.5-1.6c0-0.6-0.2-1.1-0.5-1.5c-0.3-0.4-0.7-0.5-1.3-0.5c-0.5,0-0.9,0.2-1.2,0.6
		S455.4,286.3,455.4,286.9z"/>
	<path class="st15" d="M465.7,283.6c0.7,0,1.2,0.2,1.6,0.7c0.4,0.4,0.6,1,0.6,1.8v4.1h-1.7v-3.9c0-0.4-0.1-0.7-0.3-1
		c-0.2-0.2-0.5-0.4-0.8-0.4c-0.3,0-0.5,0.1-0.7,0.2s-0.5,0.4-0.8,0.8v4.2H462v-6.4h1.7v0.9c0.3-0.4,0.6-0.6,1-0.8
		C465,283.7,465.3,283.6,465.7,283.6z"/>
	<path class="st15" d="M471.9,283.6c0.8,0,1.4,0.2,1.9,0.5s0.6,0.8,0.6,1.5v3.1c0,0.2,0.1,0.4,0.3,0.4c0.1,0,0.2,0,0.3-0.1
		c0.1-0.1,0.3-0.2,0.4-0.2v1c-0.6,0.4-1.1,0.5-1.6,0.5c-0.3,0-0.5,0-0.7-0.2c-0.2-0.1-0.3-0.3-0.3-0.5c-0.6,0.5-1.3,0.7-1.9,0.7
		c-0.5,0-0.9-0.2-1.2-0.5c-0.3-0.3-0.5-0.7-0.5-1.1c0-0.6,0.2-1,0.5-1.3s0.9-0.6,1.7-0.8l1.4-0.4v-0.3c0-0.6-0.4-0.9-1.1-0.9
		c-0.4,0-0.8,0.1-1.2,0.3s-0.7,0.4-1,0.8v-1.5C470.1,283.9,470.9,283.6,471.9,283.6z M470.9,288.4c0,0.2,0.1,0.4,0.2,0.6
		c0.1,0.1,0.3,0.2,0.6,0.2c0.4,0,0.7-0.2,1.1-0.5V287c-0.5,0.2-0.8,0.3-1.1,0.5c-0.3,0.1-0.5,0.3-0.6,0.4
		C470.9,288,470.9,288.2,470.9,288.4z"/>
	<path class="st15" d="M478.1,280.6v9.5h-1.7v-9.5H478.1z"/>
</g>
</svg>
