<?xml version="1.0" encoding="UTF-8"?><svg xmlns="http://www.w3.org/2000/svg" viewBox="0 0 520.06 41.4"><defs><style>.d{fill:#f5ce44;}.e{fill:#fff;}.f{fill:#2caa6a;}.g{fill:#4f8fcb;}.h{fill:#f2a742;fill-rule:evenodd;}</style></defs><g id="a"/><g id="b"><g id="c"><g><polygon class="h" points="0 23.22 14.39 0 14.39 8.89 28.71 17.62 14.44 41.4 14.37 32.6 0 23.22"/><g><polygon class="d" points="13.18 14.48 11.5 13.36 5.59 22.17 14.4 28.07 15.53 26.39 8.4 21.62 13.18 14.48"/><polygon class="f" points="23.12 18.71 14.3 12.8 13.18 14.48 20.31 19.26 15.53 26.39 17.21 27.52 23.12 18.71"/><rect class="g" x="10.06" y="16.15" width="8.59" height="8.59" transform="translate(-10.62 20.98) rotate(-56.17)"/></g></g><g><path class="e" d="M49.3,23.61v1.8c-1.2,.65-2.58,.98-4.16,.98-1.28,0-2.36-.26-3.25-.77-.89-.51-1.59-1.22-2.11-2.12-.52-.9-.78-1.87-.78-2.92,0-1.66,.59-3.06,1.78-4.2s2.65-1.7,4.39-1.7c1.2,0,2.53,.31,4,.94v1.76c-1.34-.76-2.64-1.15-3.92-1.15s-2.4,.41-3.26,1.24-1.3,1.86-1.3,3.1,.43,2.28,1.28,3.09c.85,.81,1.94,1.21,3.26,1.21s2.74-.43,4.06-1.28Z"/><path class="e" d="M54.66,14.83h6.48v1.46h-4.84v3.48h4.68v1.46h-4.68v3.55h5v1.46h-6.63V14.83Z"/><path class="e" d="M75.47,14.83h1.55v11.43h-1.41l-7.64-8.8v8.8h-1.54V14.83h1.33l7.71,8.88V14.83Z"/><path class="e" d="M81.84,14.82h9.55v1.46h-3.98v9.99h-1.64v-9.99h-3.92v-1.46Z"/><path class="e" d="M96.34,26.26V14.83h2.86c1.16,0,2.07,.29,2.75,.86,.68,.57,1.02,1.35,1.02,2.32,0,.67-.17,1.24-.5,1.73-.33,.49-.81,.85-1.43,1.09,.37,.24,.72,.57,1.07,.98,.35,.41,.84,1.14,1.47,2.17,.4,.65,.72,1.14,.96,1.46l.61,.82h-1.95l-.5-.75s-.05-.07-.1-.14l-.32-.45-.51-.83-.55-.89c-.34-.47-.65-.84-.93-1.12-.28-.28-.54-.48-.76-.6s-.61-.18-1.14-.18h-.43v4.97h-1.64Zm2.13-10.04h-.49v3.61h.62c.83,0,1.4-.07,1.71-.21s.55-.36,.72-.64,.26-.61,.26-.98-.1-.69-.29-.98c-.19-.29-.46-.5-.81-.62-.35-.12-.92-.18-1.72-.18Z"/><path class="e" d="M114.36,14.67c1.77,0,3.24,.56,4.41,1.68,1.17,1.12,1.76,2.52,1.76,4.2s-.59,3.08-1.78,4.18c-1.19,1.1-2.68,1.66-4.48,1.66s-3.16-.55-4.3-1.66c-1.15-1.1-1.72-2.49-1.72-4.15s.58-3.12,1.73-4.24c1.16-1.12,2.62-1.68,4.38-1.68Zm.07,1.55c-1.31,0-2.38,.41-3.22,1.23-.84,.82-1.26,1.86-1.26,3.13s.42,2.26,1.27,3.08c.84,.82,1.9,1.23,3.17,1.23s2.34-.42,3.19-1.25c.85-.83,1.28-1.87,1.28-3.12s-.43-2.23-1.28-3.06-1.9-1.24-3.14-1.24Z"/><path class="e" d="M133.91,26.24V14.83h3.85c1.55,0,2.78,.23,3.69,.7s1.62,1.15,2.16,2.06c.53,.91,.8,1.89,.8,2.96,0,.76-.15,1.49-.44,2.19-.29,.7-.71,1.31-1.26,1.84-.56,.55-1.2,.96-1.94,1.23-.43,.17-.83,.28-1.19,.34-.36,.06-1.05,.09-2.06,.09h-3.62Zm3.68-9.95h-2.04v8.5h2.09c.82,0,1.45-.06,1.91-.17s.83-.25,1.13-.43,.58-.38,.83-.63c.81-.82,1.21-1.85,1.21-3.1s-.41-2.23-1.24-3c-.31-.29-.66-.53-1.05-.71-.4-.19-.77-.31-1.12-.37s-.92-.09-1.71-.09Z"/><path class="e" d="M149.81,14.83h6.48v1.46h-4.84v3.48h4.68v1.46h-4.68v3.55h5v1.46h-6.63V14.83Z"/><path class="e" d="M179.39,23.61v1.8c-1.2,.65-2.58,.98-4.16,.98-1.28,0-2.36-.26-3.25-.77-.89-.51-1.59-1.22-2.11-2.12-.52-.9-.78-1.87-.78-2.92,0-1.66,.59-3.06,1.78-4.2s2.65-1.7,4.39-1.7c1.2,0,2.53,.31,4,.94v1.76c-1.34-.76-2.64-1.15-3.92-1.15s-2.4,.41-3.26,1.24-1.3,1.86-1.3,3.1,.43,2.28,1.28,3.09c.85,.81,1.94,1.21,3.26,1.21s2.74-.43,4.06-1.28Z"/><path class="e" d="M190.36,14.67c1.77,0,3.24,.56,4.41,1.68,1.17,1.12,1.76,2.52,1.76,4.2s-.59,3.08-1.78,4.18c-1.19,1.1-2.68,1.66-4.48,1.66s-3.16-.55-4.3-1.66c-1.15-1.1-1.72-2.49-1.72-4.15s.58-3.12,1.73-4.24c1.16-1.12,2.62-1.68,4.38-1.68Zm.07,1.55c-1.31,0-2.38,.41-3.22,1.23-.84,.82-1.26,1.86-1.26,3.13s.42,2.26,1.27,3.08c.84,.82,1.9,1.23,3.17,1.23s2.34-.42,3.19-1.25c.85-.83,1.28-1.87,1.28-3.12s-.43-2.23-1.28-3.06-1.9-1.24-3.14-1.24Z"/><path class="e" d="M210.98,14.83h1.55v11.43h-1.41l-7.64-8.8v8.8h-1.54V14.83h1.33l7.71,8.88V14.83Z"/><path class="e" d="M217.35,14.82h9.55v1.46h-3.98v9.99h-1.64v-9.99h-3.92v-1.46Z"/><path class="e" d="M231.84,26.26V14.83h2.86c1.16,0,2.07,.29,2.75,.86,.68,.57,1.02,1.35,1.02,2.32,0,.67-.17,1.24-.5,1.73-.33,.49-.81,.85-1.43,1.09,.37,.24,.72,.57,1.07,.98,.35,.41,.84,1.14,1.47,2.17,.4,.65,.72,1.14,.96,1.46l.61,.82h-1.95l-.5-.75s-.05-.07-.1-.14l-.32-.45-.51-.83-.55-.89c-.34-.47-.65-.84-.93-1.12-.28-.28-.54-.48-.76-.6s-.61-.18-1.14-.18h-.43v4.97h-1.64Zm2.13-10.04h-.49v3.61h.62c.83,0,1.4-.07,1.71-.21s.55-.36,.72-.64,.26-.61,.26-.98-.1-.69-.29-.98c-.19-.29-.46-.5-.81-.62-.35-.12-.92-.18-1.72-.18Z"/><path class="e" d="M249.87,14.67c1.77,0,3.24,.56,4.41,1.68,1.17,1.12,1.76,2.52,1.76,4.2s-.59,3.08-1.78,4.18c-1.19,1.1-2.68,1.66-4.48,1.66s-3.16-.55-4.3-1.66c-1.15-1.1-1.72-2.49-1.72-4.15s.58-3.12,1.73-4.24c1.16-1.12,2.62-1.68,4.38-1.68Zm.07,1.55c-1.31,0-2.38,.41-3.22,1.23-.84,.82-1.26,1.86-1.26,3.13s.42,2.26,1.27,3.08c.84,.82,1.9,1.23,3.17,1.23s2.34-.42,3.19-1.25c.85-.83,1.28-1.87,1.28-3.12s-.43-2.23-1.28-3.06-1.9-1.24-3.14-1.24Z"/><path class="e" d="M261.4,14.83h1.64v9.94h5.15v1.49h-6.78V14.83Z"/><path class="e" d="M287.15,20.63h3.84v4.84c-1.41,.61-2.8,.92-4.19,.92-1.89,0-3.4-.55-4.54-1.66-1.13-1.1-1.7-2.47-1.7-4.09,0-1.71,.59-3.13,1.76-4.26s2.64-1.7,4.41-1.7c.64,0,1.25,.07,1.83,.21,.58,.14,1.31,.39,2.19,.77v1.67c-1.36-.79-2.72-1.19-4.06-1.19-1.25,0-2.3,.43-3.16,1.28-.86,.85-1.28,1.9-1.28,3.13s.43,2.36,1.28,3.18c.86,.82,1.96,1.24,3.3,1.24,.65,0,1.44-.15,2.35-.45l.16-.05v-2.38h-2.2v-1.46Z"/><path class="e" d="M296.72,14.83h6.48v1.46h-4.84v3.48h4.68v1.46h-4.68v3.55h5v1.46h-6.63V14.83Z"/><path class="e" d="M314.06,14.67c1.77,0,3.24,.56,4.41,1.68,1.17,1.12,1.76,2.52,1.76,4.2s-.59,3.08-1.78,4.18c-1.19,1.1-2.68,1.66-4.48,1.66s-3.16-.55-4.3-1.66c-1.15-1.1-1.72-2.49-1.72-4.15s.58-3.12,1.73-4.24c1.16-1.12,2.62-1.68,4.38-1.68Zm.07,1.55c-1.31,0-2.38,.41-3.22,1.23-.84,.82-1.26,1.86-1.26,3.13s.42,2.26,1.27,3.08c.84,.82,1.9,1.23,3.17,1.23s2.34-.42,3.19-1.25c.85-.83,1.28-1.87,1.28-3.12s-.43-2.23-1.28-3.06-1.9-1.24-3.14-1.24Z"/><path class="e" d="M325.61,26.24V14.83h3.85c1.55,0,2.78,.23,3.69,.7s1.62,1.15,2.16,2.06c.53,.91,.8,1.89,.8,2.96,0,.76-.15,1.49-.44,2.19-.29,.7-.71,1.31-1.26,1.84-.56,.55-1.2,.96-1.94,1.23-.43,.17-.83,.28-1.19,.34-.36,.06-1.05,.09-2.06,.09h-3.62Zm3.68-9.95h-2.04v8.5h2.09c.82,0,1.45-.06,1.91-.17s.83-.25,1.13-.43,.58-.38,.83-.63c.81-.82,1.21-1.85,1.21-3.1s-.41-2.23-1.24-3c-.31-.29-.66-.53-1.05-.71-.4-.19-.77-.31-1.12-.37s-.92-.09-1.71-.09Z"/><path class="e" d="M341.51,14.83h6.48v1.46h-4.84v3.48h4.68v1.46h-4.68v3.55h5v1.46h-6.63V14.83Z"/><path class="e" d="M356.06,21.47l-1.24-.76c-.78-.48-1.33-.94-1.66-1.41-.33-.46-.5-.99-.5-1.59,0-.9,.31-1.63,.94-2.19,.62-.56,1.44-.84,2.43-.84s1.83,.27,2.63,.8v1.86c-.82-.79-1.71-1.19-2.66-1.19-.53,0-.97,.12-1.32,.37s-.52,.56-.52,.95c0,.34,.13,.66,.38,.96s.66,.61,1.22,.94l1.25,.74c1.39,.83,2.09,1.89,2.09,3.18,0,.92-.31,1.66-.92,2.23-.61,.57-1.41,.86-2.39,.86-1.13,0-2.16-.35-3.08-1.04v-2.08c.88,1.12,1.91,1.68,3.07,1.68,.51,0,.94-.14,1.28-.43s.51-.64,.51-1.07c0-.7-.5-1.36-1.51-1.98Z"/><path class="e" d="M364.27,14.83h1.64v11.43h-1.64V14.83Zm3.11-3.3l-1.85,2.45h-.92l1.1-2.45h1.66Z"/><path class="e" d="M381.64,23.61v1.8c-1.2,.65-2.58,.98-4.16,.98-1.28,0-2.36-.26-3.25-.77-.89-.51-1.59-1.22-2.11-2.12-.52-.9-.78-1.87-.78-2.92,0-1.66,.59-3.06,1.78-4.2s2.65-1.7,4.39-1.7c1.2,0,2.53,.31,4,.94v1.76c-1.34-.76-2.64-1.15-3.92-1.15s-2.4,.41-3.26,1.24-1.3,1.86-1.3,3.1,.43,2.28,1.28,3.09c.85,.81,1.94,1.21,3.26,1.21s2.74-.43,4.06-1.28Z"/><path class="e" d="M392.61,14.67c1.77,0,3.24,.56,4.41,1.68,1.17,1.12,1.76,2.52,1.76,4.2s-.59,3.08-1.78,4.18c-1.19,1.1-2.68,1.66-4.48,1.66s-3.16-.55-4.3-1.66c-1.15-1.1-1.72-2.49-1.72-4.15s.58-3.12,1.73-4.24c1.16-1.12,2.62-1.68,4.38-1.68Zm.07,1.55c-1.31,0-2.38,.41-3.22,1.23-.84,.82-1.26,1.86-1.26,3.13s.42,2.26,1.27,3.08c.84,.82,1.9,1.23,3.17,1.23s2.34-.42,3.19-1.25c.85-.83,1.28-1.87,1.28-3.12s-.43-2.23-1.28-3.06-1.9-1.24-3.14-1.24Z"/><path class="e" d="M421.23,14.83h1.55v11.43h-1.41l-7.64-8.8v8.8h-1.54V14.83h1.33l7.71,8.88V14.83Z"/><path class="e" d="M432.23,14.77h1.15l5.12,11.49h-1.67l-1.52-3.39h-4.88l-1.43,3.39h-1.68l4.91-11.49Zm2.4,6.65l-1.84-4.14-1.71,4.14h3.55Z"/><path class="e" d="M452.28,23.61v1.8c-1.2,.65-2.58,.98-4.16,.98-1.28,0-2.36-.26-3.25-.77-.89-.51-1.59-1.22-2.11-2.12-.52-.9-.78-1.87-.78-2.92,0-1.66,.59-3.06,1.78-4.2,1.19-1.13,2.65-1.7,4.39-1.7,1.2,0,2.53,.31,4,.94v1.76c-1.34-.76-2.64-1.15-3.92-1.15s-2.4,.41-3.26,1.24-1.3,1.86-1.3,3.1,.42,2.28,1.28,3.09,1.94,1.21,3.26,1.21,2.74-.43,4.06-1.28Z"/><path class="e" d="M457.66,14.83h1.64v11.43h-1.64V14.83Z"/><path class="e" d="M470.79,14.67c1.77,0,3.24,.56,4.41,1.68,1.17,1.12,1.76,2.52,1.76,4.2s-.59,3.08-1.78,4.18c-1.19,1.1-2.68,1.66-4.48,1.66s-3.16-.55-4.3-1.66c-1.15-1.1-1.72-2.49-1.72-4.15s.58-3.12,1.73-4.24c1.16-1.12,2.62-1.68,4.38-1.68Zm.07,1.55c-1.31,0-2.38,.41-3.22,1.23-.84,.82-1.26,1.86-1.26,3.13s.42,2.26,1.27,3.08c.84,.82,1.9,1.23,3.17,1.23s2.34-.42,3.19-1.25c.85-.83,1.28-1.87,1.28-3.12s-.43-2.23-1.28-3.06c-.85-.83-1.9-1.24-3.14-1.24Z"/><path class="e" d="M491.41,14.83h1.55v11.43h-1.41l-7.64-8.8v8.8h-1.54V14.83h1.33l7.71,8.88V14.83Z"/><path class="e" d="M502.41,14.77h1.15l5.12,11.49h-1.67l-1.52-3.39h-4.88l-1.43,3.39h-1.68l4.91-11.49Zm2.4,6.65l-1.84-4.14-1.71,4.14h3.55Z"/><path class="e" d="M513.28,14.83h1.64v9.94h5.15v1.49h-6.78V14.83Z"/></g></g></g></svg>