<?xml version="1.0" encoding="UTF-8"?><svg xmlns="http://www.w3.org/2000/svg" viewBox="0 0 114.05 183.53"><defs><style>.d{fill:#f2a742;}.e{fill:#0e243f;}.f{fill:#2caa6a;}.g{fill:#4f8fcb;}</style></defs><g id="a"/><g id="b"><g id="c"><g><path class="g" d="M29.35,91.78v-24.39h7.56c7.69,0,13.92,6.23,13.92,13.92v10.47h63.23v11.35c0,14.69-1.92-4.57-16.61-4.57l-30.53,22.93c-14.83,11.14-36.59,1.53-37.53-17-.02-.45-.03-.91-.03-1.37v-11.35h0Z"/><g><path class="d" d="M0,72.99c0,16.21,13.14,29.35,29.35,29.35v-29.35H0Z"/><rect class="e" y="67.4" width="29.35" height="5.6" transform="translate(29.35 140.39) rotate(180)"/></g></g><g><path class="d" d="M52.64,0s38.11,19.17,38.11,85.17L52.64,44.82V0Z"/><path class="d" d="M52.64,183.53s38.11-18.69,38.11-84.68l-38.11,38.67v46.01Z"/><path class="f" d="M79.84,91.87c0-25.59-10.44-48.68-27.2-65.16V157.03c16.76-16.48,27.2-39.57,27.2-65.16"/><polygon class="e" points="52.64 45.02 52.64 137.72 90.75 98.85 90.75 85.17 52.64 45.02"/></g></g></g></svg>